<svg xmlns="http://www.w3.org/2000/svg" xmlns:xlink="http://www.w3.org/1999/xlink" viewBox="0 0 529.5 180">
  <defs>
    <linearGradient id="linear-gradient" x1="219.61" y1="180" x2="219.61" gradientUnits="userSpaceOnUse">
      <stop offset="0" stop-color="#0078d4"/>
      <stop offset="1" stop-color="#5ea0ef"/>
    </linearGradient>
    <linearGradient id="linear-gradient-2" x1="114.53" y1="100" x2="114.53" xlink:href="#linear-gradient"/>
    <linearGradient id="linear-gradient-3" x1="331.92" y1="155" x2="331.92" y2="105" xlink:href="#linear-gradient"/>
    <linearGradient id="linear-gradient-4" x1="331.92" y1="100" x2="331.92" xlink:href="#linear-gradient"/>
    <linearGradient id="linear-gradient-5" x1="-26.67" y1="20.74" x2="-5.92" y2="32.72" gradientTransform="matrix(0, 1, -1, 0, 38.82, 48.93)" gradientUnits="userSpaceOnUse">
      <stop offset="0" stop-color="#ffe452"/>
      <stop offset="1" stop-color="#ffbd02"/>
    </linearGradient>
  </defs>
  <title>chart_concepts_overview</title>
  <g id="Shapes">
    <rect width="529.5" height="180" fill="#fff"/>
    <g>
      <rect x="177.11" width="85" height="180" fill="#fff"/>
      <rect x="177.11" width="85" height="180" opacity="0.55" fill="url(#linear-gradient)"/>
    </g>
    <rect x="182.11" y="25" width="75" height="45" fill="#fff"/>
    <g>
      <rect x="72.03" width="85" height="100" fill="#fff"/>
      <rect x="72.03" width="85" height="100" opacity="0.55" fill="url(#linear-gradient-2)"/>
    </g>
    <g>
      <rect x="77.03" y="25" width="75" height="20" fill="#fff"/>
      <rect x="77.03" y="25" width="75" height="20" fill="#3c3c41" opacity="0.15"/>
    </g>
    <g>
      <rect x="77.03" y="50" width="75" height="20" fill="#fff"/>
      <rect x="77.03" y="50" width="75" height="20" fill="#3c3c41" opacity="0.15"/>
    </g>
    <g>
      <rect x="187.11" y="45" width="65" height="20" fill="#fff"/>
      <rect x="187.11" y="45" width="65" height="20" fill="#3c3c41" opacity="0.15"/>
    </g>
    <rect x="182.11" y="130" width="75" height="45" fill="#fff"/>
    <g>
      <rect x="187.11" y="150" width="65" height="20" fill="#fff"/>
      <rect x="187.11" y="150" width="65" height="20" fill="#3c3c41" opacity="0.15"/>
    </g>
    <g>
      <rect x="187.11" y="75" width="65" height="20" fill="#fff"/>
      <rect x="187.11" y="75" width="65" height="20" fill="#3c3c41" opacity="0.15"/>
    </g>
    <g>
      <rect x="77.03" y="75" width="75" height="20" fill="#fff"/>
      <rect x="77.03" y="75" width="75" height="20" fill="#3c3c41" opacity="0.15"/>
    </g>
    <g>
      <rect x="281.92" y="105" width="100" height="50" fill="#fff"/>
      <rect x="281.92" y="105" width="100" height="50" opacity="0.55" fill="url(#linear-gradient-3)"/>
    </g>
    <g>
      <rect x="281.92" width="100" height="100" fill="#fff"/>
      <rect x="281.92" width="100" height="100" opacity="0.55" fill="url(#linear-gradient-4)"/>
    </g>
    <g>
      <rect x="286.92" y="130" width="90" height="20" fill="#fff"/>
      <rect x="286.92" y="130" width="90" height="20" fill="#3c3c41" opacity="0.15"/>
    </g>
    <g>
      <rect x="286.92" y="50" width="90" height="20" fill="#fff"/>
      <rect x="286.92" y="50" width="90" height="20" fill="#3c3c41" opacity="0.15"/>
    </g>
    <g>
      <rect x="286.92" y="25" width="90" height="20" fill="#fff"/>
      <rect x="286.92" y="25" width="90" height="20" fill="#3c3c41" opacity="0.15"/>
    </g>
    <g>
      <rect x="286.92" y="75" width="90" height="20" fill="#fff"/>
      <rect x="286.92" y="75" width="90" height="20" fill="#3c3c41" opacity="0.15"/>
    </g>
    <g>
      <rect x="205.92" y="129.25" width="1" height="0.75" fill="#3c3c41"/>
      <path d="M206.92,126.6h-1V125h1Zm0-4.25h-1v-1.59h1Zm0-4.24h-1v-1.59h1Zm0-4.25h-1v-1.59h1Zm0-4.24h-1V108h1Zm0-4.24h-1v-1.6h1Z" fill="#3c3c41"/>
      <rect x="205.92" y="100.38" width="1" height="0.75" fill="#3c3c41"/>
      <polygon points="210.16 101.48 206.41 95 202.68 101.48 210.16 101.48" fill="#3c3c41"/>
    </g>
    <g>
      <line x1="151.92" y1="35.14" x2="171.53" y2="35.14" fill="none" stroke="#3c3c41" stroke-miterlimit="10"/>
      <polygon points="170.44 38.88 176.91 35.14 170.44 31.4 170.44 38.88" fill="#3c3c41"/>
    </g>
    <g>
      <line x1="256.92" y1="35" x2="276.53" y2="35" fill="none" stroke="#3c3c41" stroke-miterlimit="10"/>
      <polygon points="275.44 38.74 281.92 35 275.44 31.26 275.44 38.74" fill="#3c3c41"/>
    </g>
    <g>
      <path d="M251.92,85h15a5,5,0,0,1,5,5v45a5,5,0,0,0,5,5h4.61" fill="none" stroke="#3c3c41" stroke-miterlimit="10"/>
      <polygon points="280.44 143.74 286.92 140 280.44 136.26 280.44 143.74" fill="#3c3c41"/>
    </g>
    <g>
      <line x1="51.92" y1="35.14" x2="66.53" y2="35.14" fill="none" stroke="#3c3c41" stroke-miterlimit="10"/>
      <polygon points="65.44 38.88 71.92 35.14 65.44 31.4 65.44 38.88" fill="#3c3c41"/>
    </g>
    <g>
      <ellipse cx="12" cy="32.63" rx="15.74" ry="10.46" transform="translate(-22.26 26.71) rotate(-60)" fill="#fff"/>
      <ellipse cx="12" cy="32.63" rx="15.74" ry="10.46" transform="translate(-22.26 26.71) rotate(-60)" opacity="0.55" fill="url(#linear-gradient-5)"/>
    </g>
    <path d="M409.11,56h-1v9h-14V56h-1V51h16Zm-2,0h-12v8h12Zm1-4h-14v3h14Zm-7,9h-5V60h5Zm-5,2V62h4v1Z" fill="#005ba1"/>
    <path d="M389.92,61h-1V60h1Zm-3,0h-1V60h1Zm-3,0h-1V60h1Zm-3,0h-1V60h1Zm-3,0h-1V60h1Z" fill="#231f20"/>
    <path d="M389.92,86h-1V85h1Zm-3,0h-1V85h1Zm-3,0h-1V85h1Zm-3,0h-1V85h1Zm-3,0h-1V85h1Z" fill="#231f20"/>
    <path d="M389.92,141h-1v-1h1Zm-3,0h-1v-1h1Zm-3,0h-1v-1h1Zm-3,0h-1v-1h1Zm-3,0h-1v-1h1Z" fill="#231f20"/>
    <g>
      <path d="M396.48,92.09a1.69,1.69,0,0,1-3.37,0,1.69,1.69,0,1,1,3.37,0Z" fill="#0078d4"/>
      <path d="M405.74,81.15h3.37V77.77h-3.37Z" fill="#50e6ff"/>
      <path d="M404.88,82H399v1.7h3l-5.72,5.72,1.2,1.2,5.72-5.72v3h1.7V82Z" fill="#0078d4"/>
    </g>
    <path d="M201.11,147.35h-14l1.22-4.9h1.86v-8.82a1,1,0,0,1,.28-.7,1.48,1.48,0,0,1,.32-.21,1,1,0,0,1,.38-.07h5.88a1,1,0,0,1,.38.07,1.41,1.41,0,0,1,.31.21,1,1,0,0,1,.29.7v8.82h1.85Zm-1.26-1-.73-2.94H198v2h-7.84v-2H189.1l-.74,2.94Zm-8.68-2h5.88V133.63h-5.88Zm1-9.8h3.92v1h-3.92Zm0,5.88h3.92v1h-3.92Zm0,2h3.92v1h-3.92Z"/>
    <path d="M201.11,42.49h-14l1.22-4.9h1.86V28.77a1,1,0,0,1,.07-.38.94.94,0,0,1,.53-.53,1,1,0,0,1,.38-.07h5.88a1,1,0,0,1,.38.07,1,1,0,0,1,.31.21,1,1,0,0,1,.21.32,1,1,0,0,1,.08.38v8.82h1.85Zm-1.26-1-.73-2.94H198v2h-7.84v-2H189.1l-.74,2.94Zm-8.68-2h5.88V28.77h-5.88Zm1-9.8h3.92v1h-3.92Zm0,5.88h3.92v1h-3.92Zm0,2h3.92v1h-3.92Z"/>
  </g>
  <g id="Text">
    <g>
      <path d="M13.46,32.14h-2.4V39H9.17V32.14H6.78V30.6h6.68Z" fill="#1e1e1e"/>
      <path d="M17.5,34.67a1.66,1.66,0,0,0-.78-.18,1.14,1.14,0,0,0-.95.44,2,2,0,0,0-.34,1.2V39H13.58V33h1.85v1.11h0A1.6,1.6,0,0,1,17,32.89a1.39,1.39,0,0,1,.46.07Z" fill="#1e1e1e"/>
      <path d="M19.29,32.05a1.05,1.05,0,0,1-.76-.28.88.88,0,0,1-.3-.68.87.87,0,0,1,.3-.68,1.26,1.26,0,0,1,1.53,0,.87.87,0,0,1,.3.68.89.89,0,0,1-.3.69A1.08,1.08,0,0,1,19.29,32.05Zm.92,7H18.36V33h1.85Z" fill="#1e1e1e"/>
      <path d="M27.65,38.31a3.37,3.37,0,0,1-1,2.59,3.92,3.92,0,0,1-2.8.92A4.42,4.42,0,0,1,22,41.47V39.91a3.68,3.68,0,0,0,1.87.54A2,2,0,0,0,25.28,40a1.76,1.76,0,0,0,.52-1.35v-.47h0a2.06,2.06,0,0,1-1.86,1,2.26,2.26,0,0,1-1.83-.81,3.27,3.27,0,0,1-.67-2.17,3.65,3.65,0,0,1,.75-2.42,2.44,2.44,0,0,1,2-.9,1.81,1.81,0,0,1,1.64.85h0V33h1.85Zm-1.83-2.19v-.48a1.44,1.44,0,0,0-.34-1,1.09,1.09,0,0,0-.87-.4,1.15,1.15,0,0,0-1,.48,2.3,2.3,0,0,0-.35,1.36,1.9,1.9,0,0,0,.33,1.18,1.11,1.11,0,0,0,.92.44,1.16,1.16,0,0,0,.93-.44A1.87,1.87,0,0,0,25.82,36.12Z" fill="#1e1e1e"/>
      <path d="M35.11,38.31a3.37,3.37,0,0,1-1,2.59,3.92,3.92,0,0,1-2.8.92,4.42,4.42,0,0,1-1.92-.35V39.91a3.68,3.68,0,0,0,1.87.54A2,2,0,0,0,32.74,40a1.8,1.8,0,0,0,.52-1.35v-.47h0a2.07,2.07,0,0,1-1.87,1,2.25,2.25,0,0,1-1.82-.81,3.27,3.27,0,0,1-.67-2.17,3.65,3.65,0,0,1,.75-2.42,2.44,2.44,0,0,1,2-.9,1.81,1.81,0,0,1,1.64.85h0V33h1.85Zm-1.83-2.19v-.48a1.44,1.44,0,0,0-.34-1,1.09,1.09,0,0,0-.87-.4,1.13,1.13,0,0,0-1,.48,2.3,2.3,0,0,0-.35,1.36,1.9,1.9,0,0,0,.33,1.18,1.11,1.11,0,0,0,.92.44,1.16,1.16,0,0,0,.93-.44A1.87,1.87,0,0,0,33.28,36.12Z" fill="#1e1e1e"/>
      <path d="M42.06,36.53H38.14c.06.87.61,1.3,1.65,1.3a3.23,3.23,0,0,0,1.74-.46V38.7a4.56,4.56,0,0,1-2.16.45,2.8,2.8,0,0,1-3.06-3.06,3.19,3.19,0,0,1,.87-2.36,2.84,2.84,0,0,1,2.13-.88,2.63,2.63,0,0,1,2,.78,3,3,0,0,1,.72,2.12Zm-1.72-1.14c0-.86-.35-1.29-1-1.29a1,1,0,0,0-.77.37,1.68,1.68,0,0,0-.4.92Z" fill="#1e1e1e"/>
      <path d="M47.15,34.67a1.61,1.61,0,0,0-.78-.18,1.12,1.12,0,0,0-.94.44,1.92,1.92,0,0,0-.34,1.2V39H43.23V33h1.86v1.11h0a1.6,1.6,0,0,1,1.58-1.22,1.35,1.35,0,0,1,.46.07Z" fill="#1e1e1e"/>
    </g>
    <g>
      <path d="M94.74,12.11V15H92.85V6.6h3c2.11,0,3.17.89,3.17,2.68a2.55,2.55,0,0,1-.91,2,3.62,3.62,0,0,1-2.43.79Zm0-4.06v2.62h.75c1,0,1.51-.44,1.51-1.32s-.5-1.3-1.51-1.3Z" fill="#1e1e1e"/>
      <path d="M100.88,8.05a1,1,0,0,1-.76-.28.88.88,0,0,1-.3-.68.87.87,0,0,1,.3-.68,1.26,1.26,0,0,1,1.53,0,.87.87,0,0,1,.3.68.89.89,0,0,1-.3.69A1.08,1.08,0,0,1,100.88,8.05Zm.92,7H100V9h1.85Z" fill="#1e1e1e"/>
      <path d="M105.21,14.3h0v3.46h-1.86V9h1.86v.9h0a2.36,2.36,0,0,1,3.73-.25,3.45,3.45,0,0,1,.63,2.18,3.67,3.67,0,0,1-.74,2.41,2.43,2.43,0,0,1-2,.91A1.86,1.86,0,0,1,105.21,14.3Zm0-2.46v.48a1.59,1.59,0,0,0,.32,1,1.08,1.08,0,0,0,.87.39,1.12,1.12,0,0,0,1-.49,2.4,2.4,0,0,0,.35-1.39c0-1-.41-1.58-1.23-1.58a1.18,1.18,0,0,0-.93.43A1.73,1.73,0,0,0,105.16,11.84Z" fill="#1e1e1e"/>
      <path d="M116.22,12.53H112.3c.06.87.61,1.3,1.65,1.3a3.23,3.23,0,0,0,1.74-.46V14.7a4.56,4.56,0,0,1-2.16.45,3,3,0,0,1-2.26-.81,3,3,0,0,1-.8-2.25,3.23,3.23,0,0,1,.86-2.36,2.87,2.87,0,0,1,2.14-.88,2.63,2.63,0,0,1,2,.78,3,3,0,0,1,.72,2.12Zm-1.72-1.14c0-.86-.35-1.29-1-1.29a1,1,0,0,0-.78.37,1.75,1.75,0,0,0-.39.92Z" fill="#1e1e1e"/>
      <path d="M119.24,15h-1.85V6.12h1.85Z" fill="#1e1e1e"/>
      <path d="M121.71,8.05a1.06,1.06,0,0,1-.77-.28.88.88,0,0,1-.3-.68.87.87,0,0,1,.3-.68,1.09,1.09,0,0,1,.77-.26,1.11,1.11,0,0,1,.77.26.89.89,0,0,1,.29.68.91.91,0,0,1-.29.69A1.11,1.11,0,0,1,121.71,8.05Zm.91,7h-1.85V9h1.85Z" fill="#1e1e1e"/>
      <path d="M130,15h-1.84V11.67c0-.93-.34-1.4-1-1.4a1,1,0,0,0-.79.37,1.4,1.4,0,0,0-.31.94V15h-1.85V9H126V10h0A2.13,2.13,0,0,1,128,8.85c1.33,0,2,.83,2,2.48Z" fill="#1e1e1e"/>
      <path d="M136.84,12.53h-3.92c.07.87.62,1.3,1.65,1.3a3.23,3.23,0,0,0,1.74-.46V14.7a4.5,4.5,0,0,1-2.16.45,3,3,0,0,1-2.26-.81,3.08,3.08,0,0,1-.8-2.25A3.19,3.19,0,0,1,132,9.73a2.87,2.87,0,0,1,2.13-.88,2.62,2.62,0,0,1,2,.78,3,3,0,0,1,.72,2.12Zm-1.72-1.14c0-.86-.35-1.29-1-1.29a1,1,0,0,0-.77.37,1.68,1.68,0,0,0-.4.92Z" fill="#1e1e1e"/>
    </g>
    <g>
      <path d="M204.3,14.68V12.8a3.45,3.45,0,0,0,1.11.64,3.4,3.4,0,0,0,1.21.22,2.35,2.35,0,0,0,.62-.07,1.39,1.39,0,0,0,.44-.17.87.87,0,0,0,.27-.27.69.69,0,0,0,.09-.34.74.74,0,0,0-.14-.44,1.52,1.52,0,0,0-.39-.36,3.74,3.74,0,0,0-.57-.31l-.72-.32a3.56,3.56,0,0,1-1.47-1A2.19,2.19,0,0,1,204.27,9a2.21,2.21,0,0,1,.26-1.12,2.07,2.07,0,0,1,.72-.78,3.33,3.33,0,0,1,1.05-.45,5.18,5.18,0,0,1,1.26-.14,6.86,6.86,0,0,1,1.17.08,4.22,4.22,0,0,1,.93.24V8.53a2.9,2.9,0,0,0-.46-.26,3.82,3.82,0,0,0-.51-.18,3.33,3.33,0,0,0-.53-.11l-.49,0a2.68,2.68,0,0,0-.59.06,1.62,1.62,0,0,0-.44.17.73.73,0,0,0-.28.27.59.59,0,0,0-.1.34.61.61,0,0,0,.11.38,1.21,1.21,0,0,0,.32.32,2.76,2.76,0,0,0,.49.29c.2.1.42.2.67.3a7.55,7.55,0,0,1,.9.45,2.87,2.87,0,0,1,.69.53,2.08,2.08,0,0,1,.44.69,2.4,2.4,0,0,1,.15.89,2.37,2.37,0,0,1-.27,1.18,2,2,0,0,1-.72.77A3.15,3.15,0,0,1,208,15a6.61,6.61,0,0,1-1.28.13,7,7,0,0,1-1.32-.12A4.42,4.42,0,0,1,204.3,14.68Z" fill="#1e1e1e"/>
      <path d="M214.68,14.93a2.83,2.83,0,0,1-1.24.22c-1.3,0-2-.68-2-2V10.37h-1V9h1V7.71l1.85-.53V9h1.35v1.37h-1.35v2.42c0,.63.25.94.74.94a1.31,1.31,0,0,0,.61-.17Z" fill="#1e1e1e"/>
      <path d="M220.84,15h-1.75v-.86h0a2,2,0,0,1-1.79,1,1.86,1.86,0,0,1-1.37-.5,1.76,1.76,0,0,1-.51-1.32c0-1.16.69-1.84,2.07-2l1.63-.21c0-.66-.35-1-1.07-1a3.66,3.66,0,0,0-2,.64V9.36A4.13,4.13,0,0,1,217.05,9a5.19,5.19,0,0,1,1.23-.16,2.26,2.26,0,0,1,2.56,2.56Zm-1.74-2.44v-.4L218,12.3q-.9.12-.9.81a.66.66,0,0,0,.22.52.81.81,0,0,0,.59.2,1.1,1.1,0,0,0,.85-.36A1.29,1.29,0,0,0,219.1,12.56Z" fill="#1e1e1e"/>
      <path d="M228.22,14.31a3.37,3.37,0,0,1-1,2.59,3.92,3.92,0,0,1-2.8.92,4.42,4.42,0,0,1-1.92-.35V15.91a3.68,3.68,0,0,0,1.87.54,2,2,0,0,0,1.45-.49,1.8,1.8,0,0,0,.52-1.35v-.47h0a2.07,2.07,0,0,1-1.87,1,2.25,2.25,0,0,1-1.82-.81,3.27,3.27,0,0,1-.67-2.17,3.65,3.65,0,0,1,.75-2.42,2.44,2.44,0,0,1,2-.9,1.81,1.81,0,0,1,1.64.85h0V9h1.85Zm-1.83-2.19v-.48a1.44,1.44,0,0,0-.34-1,1.09,1.09,0,0,0-.87-.4,1.13,1.13,0,0,0-1,.48,2.3,2.3,0,0,0-.35,1.36,1.9,1.9,0,0,0,.33,1.18,1.11,1.11,0,0,0,.92.44,1.16,1.16,0,0,0,.93-.44A1.87,1.87,0,0,0,226.39,12.12Z" fill="#1e1e1e"/>
      <path d="M235.17,12.53h-3.92c.06.87.61,1.3,1.65,1.3a3.23,3.23,0,0,0,1.74-.46V14.7a4.56,4.56,0,0,1-2.16.45,3,3,0,0,1-2.26-.81,3.08,3.08,0,0,1-.8-2.25,3.19,3.19,0,0,1,.87-2.36,2.84,2.84,0,0,1,2.13-.88,2.63,2.63,0,0,1,2,.78,3,3,0,0,1,.72,2.12Zm-1.72-1.14c0-.86-.35-1.29-1-1.29a1,1,0,0,0-.77.37,1.68,1.68,0,0,0-.4.92Z" fill="#1e1e1e"/>
    </g>
    <g>
      <path d="M100.43,38.66V37.5a2.42,2.42,0,0,0,.47.32,4.24,4.24,0,0,0,.59.23,3.5,3.5,0,0,0,.62.15,3.07,3.07,0,0,0,.57.06,2.29,2.29,0,0,0,1.36-.34,1.15,1.15,0,0,0,.45-1,1.13,1.13,0,0,0-.15-.59,1.76,1.76,0,0,0-.41-.46,4.57,4.57,0,0,0-.63-.4l-.78-.4-.82-.45a3.85,3.85,0,0,1-.66-.51,2.06,2.06,0,0,1-.44-.62,1.91,1.91,0,0,1-.16-.82,1.93,1.93,0,0,1,.25-1,2.32,2.32,0,0,1,.66-.7,3.19,3.19,0,0,1,.94-.41,4.24,4.24,0,0,1,1.07-.13,4.11,4.11,0,0,1,1.81.3v1.1a3.33,3.33,0,0,0-1.91-.51,2.88,2.88,0,0,0-.65.07,1.77,1.77,0,0,0-.57.21,1.31,1.31,0,0,0-.41.4,1,1,0,0,0-.16.58,1.22,1.22,0,0,0,.12.56,1.41,1.41,0,0,0,.35.43,3.42,3.42,0,0,0,.58.37c.22.12.48.26.77.4s.59.31.86.47a4.41,4.41,0,0,1,.71.54,2.42,2.42,0,0,1,.48.67,1.84,1.84,0,0,1,.18.83,2.14,2.14,0,0,1-.24,1,2.11,2.11,0,0,1-.66.7,2.88,2.88,0,0,1-1,.39,5.24,5.24,0,0,1-1.14.12l-.49,0a4.17,4.17,0,0,1-.6-.1,5.47,5.47,0,0,1-.58-.15A1.93,1.93,0,0,1,100.43,38.66Z" fill="#1e1e1e"/>
      <path d="M109.53,38.94a1.76,1.76,0,0,1-.89.19c-1.06,0-1.58-.59-1.58-1.76V33.82h-1V33h1V31.54l1-.32V33h1.51v.82H108V37.2a1.37,1.37,0,0,0,.21.86.81.81,0,0,0,.68.26,1,1,0,0,0,.62-.2Z" fill="#1e1e1e"/>
      <path d="M115.21,39h-1v-.94h0a2,2,0,0,1-1.85,1.08,2,2,0,0,1-1.4-.47,1.65,1.65,0,0,1-.51-1.26c0-1.12.66-1.78,2-2l1.8-.25c0-1-.41-1.53-1.24-1.53a2.9,2.9,0,0,0-2,.74v-1a3.76,3.76,0,0,1,2-.56c1.41,0,2.11.75,2.11,2.24Zm-1-3-1.45.2a2.37,2.37,0,0,0-1,.34.93.93,0,0,0-.34.84.89.89,0,0,0,.31.71,1.19,1.19,0,0,0,.83.28,1.55,1.55,0,0,0,1.19-.5,1.79,1.79,0,0,0,.46-1.27Z" fill="#1e1e1e"/>
      <path d="M122.14,38.52q0,3.3-3.17,3.3A4.23,4.23,0,0,1,117,41.4v-1A3.92,3.92,0,0,0,119,41c1.48,0,2.22-.78,2.22-2.35V38h0a2.23,2.23,0,0,1-2.06,1.15,2.26,2.26,0,0,1-1.8-.8,3.17,3.17,0,0,1-.68-2.15,3.73,3.73,0,0,1,.73-2.43,2.46,2.46,0,0,1,2-.9,2,2,0,0,1,1.8,1h0V33h1Zm-1-2.23V35.4a1.69,1.69,0,0,0-.49-1.22,1.58,1.58,0,0,0-1.2-.51,1.64,1.64,0,0,0-1.39.65,2.85,2.85,0,0,0-.51,1.81,2.48,2.48,0,0,0,.48,1.6,1.57,1.57,0,0,0,1.28.6,1.69,1.69,0,0,0,1.32-.57A2.14,2.14,0,0,0,121.18,36.29Z" fill="#1e1e1e"/>
      <path d="M128.85,36.24h-4.23a2.25,2.25,0,0,0,.53,1.55,1.88,1.88,0,0,0,1.42.54,2.94,2.94,0,0,0,1.87-.67v.91a3.53,3.53,0,0,1-2.1.57,2.51,2.51,0,0,1-2-.82,3.83,3.83,0,0,1,.06-4.58,2.54,2.54,0,0,1,2-.88,2.26,2.26,0,0,1,1.83.76,3.18,3.18,0,0,1,.64,2.12Zm-1-.81a2,2,0,0,0-.4-1.3,1.37,1.37,0,0,0-1.1-.46,1.57,1.57,0,0,0-1.16.48,2.24,2.24,0,0,0-.58,1.28Z" fill="#1e1e1e"/>
    </g>
    <g>
      <path d="M211.39,38H210.3l-.89-2.36h-3.57L205,38h-1.09l3.22-8.4h1Zm-2.31-3.24-1.32-3.58a3.61,3.61,0,0,1-.12-.56h0a3.36,3.36,0,0,1-.13.56l-1.31,3.58Z" fill="#1e1e1e"/>
      <path d="M217.49,37.52q0,3.3-3.17,3.3a4.23,4.23,0,0,1-1.94-.42v-1a3.92,3.92,0,0,0,1.93.56c1.48,0,2.21-.78,2.21-2.35V37h0a2.42,2.42,0,0,1-3.86.35,3.17,3.17,0,0,1-.69-2.15,3.73,3.73,0,0,1,.74-2.43,2.46,2.46,0,0,1,2-.9,2,2,0,0,1,1.8,1h0V32h1Zm-1-2.23V34.4a1.72,1.72,0,0,0-.48-1.22,1.58,1.58,0,0,0-1.2-.51,1.66,1.66,0,0,0-1.4.65,2.91,2.91,0,0,0-.5,1.81,2.48,2.48,0,0,0,.48,1.6,1.56,1.56,0,0,0,1.28.6,1.69,1.69,0,0,0,1.32-.57A2.13,2.13,0,0,0,216.52,35.29Z" fill="#1e1e1e"/>
      <path d="M224.2,35.24H220a2.3,2.3,0,0,0,.54,1.55,1.88,1.88,0,0,0,1.42.54,2.89,2.89,0,0,0,1.86-.67v.91a3.47,3.47,0,0,1-2.09.57,2.53,2.53,0,0,1-2-.82A3.35,3.35,0,0,1,219,35a3.28,3.28,0,0,1,.79-2.28,2.54,2.54,0,0,1,2-.88,2.24,2.24,0,0,1,1.82.76,3.18,3.18,0,0,1,.65,2.12Zm-1-.81a1.91,1.91,0,0,0-.4-1.3,1.36,1.36,0,0,0-1.1-.46,1.56,1.56,0,0,0-1.15.48,2.25,2.25,0,0,0-.59,1.28Z" fill="#1e1e1e"/>
      <path d="M230.63,38h-1V34.58c0-1.28-.46-1.91-1.39-1.91a1.54,1.54,0,0,0-1.2.54,2,2,0,0,0-.47,1.37V38h-1V32h1v1h0a2.16,2.16,0,0,1,2-1.14,1.82,1.82,0,0,1,1.5.64,2.79,2.79,0,0,1,.52,1.83Z" fill="#1e1e1e"/>
      <path d="M235.12,37.94a1.76,1.76,0,0,1-.89.19c-1,0-1.58-.59-1.58-1.76V32.82h-1V32h1V30.54l1-.32V32h1.51v.82h-1.51V36.2a1.37,1.37,0,0,0,.21.86.81.81,0,0,0,.68.26,1,1,0,0,0,.62-.2Z" fill="#1e1e1e"/>
    </g>
    <g>
      <path d="M100.43,63.66V62.5a2.42,2.42,0,0,0,.47.32,4.24,4.24,0,0,0,.59.23,3.5,3.5,0,0,0,.62.15,3.07,3.07,0,0,0,.57.06,2.29,2.29,0,0,0,1.36-.34,1.15,1.15,0,0,0,.45-1,1.13,1.13,0,0,0-.15-.59,1.76,1.76,0,0,0-.41-.46,4.57,4.57,0,0,0-.63-.4l-.78-.4-.82-.45a3.85,3.85,0,0,1-.66-.51,2.06,2.06,0,0,1-.44-.62,1.91,1.91,0,0,1-.16-.82,1.93,1.93,0,0,1,.25-1,2.32,2.32,0,0,1,.66-.7,3.19,3.19,0,0,1,.94-.41,4.24,4.24,0,0,1,1.07-.13,4.11,4.11,0,0,1,1.81.3v1.1a3.33,3.33,0,0,0-1.91-.51,2.88,2.88,0,0,0-.65.07,1.77,1.77,0,0,0-.57.21,1.31,1.31,0,0,0-.41.4,1,1,0,0,0-.16.58,1.22,1.22,0,0,0,.12.56,1.41,1.41,0,0,0,.35.43,3.42,3.42,0,0,0,.58.37c.22.12.48.26.77.4s.59.31.86.47a4.41,4.41,0,0,1,.71.54,2.42,2.42,0,0,1,.48.67,1.84,1.84,0,0,1,.18.83,2.14,2.14,0,0,1-.24,1,2.11,2.11,0,0,1-.66.7,2.88,2.88,0,0,1-1,.39,5.24,5.24,0,0,1-1.14.12l-.49,0a4.17,4.17,0,0,1-.6-.1,5.47,5.47,0,0,1-.58-.15A1.93,1.93,0,0,1,100.43,63.66Z" fill="#1e1e1e"/>
      <path d="M109.53,63.94a1.76,1.76,0,0,1-.89.19c-1.06,0-1.58-.59-1.58-1.76V58.82h-1V58h1V56.54l1-.32V58h1.51v.82H108V62.2a1.37,1.37,0,0,0,.21.86.81.81,0,0,0,.68.26,1,1,0,0,0,.62-.2Z" fill="#1e1e1e"/>
      <path d="M115.21,64h-1v-.94h0a2,2,0,0,1-1.85,1.08,2,2,0,0,1-1.4-.47,1.65,1.65,0,0,1-.51-1.26c0-1.12.66-1.78,2-2l1.8-.25c0-1-.41-1.53-1.24-1.53a2.9,2.9,0,0,0-2,.74v-1a3.76,3.76,0,0,1,2-.56c1.41,0,2.11.75,2.11,2.24Zm-1-3-1.45.2a2.37,2.37,0,0,0-1,.34.93.93,0,0,0-.34.84.89.89,0,0,0,.31.71,1.19,1.19,0,0,0,.83.28,1.55,1.55,0,0,0,1.19-.5,1.79,1.79,0,0,0,.46-1.27Z" fill="#1e1e1e"/>
      <path d="M122.14,63.52q0,3.3-3.17,3.3A4.23,4.23,0,0,1,117,66.4v-1A3.92,3.92,0,0,0,119,66c1.48,0,2.22-.78,2.22-2.35V63h0a2.23,2.23,0,0,1-2.06,1.15,2.26,2.26,0,0,1-1.8-.8,3.17,3.17,0,0,1-.68-2.15,3.73,3.73,0,0,1,.73-2.43,2.46,2.46,0,0,1,2-.9,2,2,0,0,1,1.8,1h0V58h1Zm-1-2.23V60.4a1.69,1.69,0,0,0-.49-1.22,1.58,1.58,0,0,0-1.2-.51,1.64,1.64,0,0,0-1.39.65,2.85,2.85,0,0,0-.51,1.81,2.48,2.48,0,0,0,.48,1.6,1.57,1.57,0,0,0,1.28.6,1.69,1.69,0,0,0,1.32-.57A2.14,2.14,0,0,0,121.18,61.29Z" fill="#1e1e1e"/>
      <path d="M128.85,61.24h-4.23a2.25,2.25,0,0,0,.53,1.55,1.88,1.88,0,0,0,1.42.54,2.94,2.94,0,0,0,1.87-.67v.91a3.53,3.53,0,0,1-2.1.57,2.51,2.51,0,0,1-2-.82,3.83,3.83,0,0,1,.06-4.58,2.54,2.54,0,0,1,2-.88,2.26,2.26,0,0,1,1.83.76,3.18,3.18,0,0,1,.64,2.12Zm-1-.81a2,2,0,0,0-.4-1.3,1.37,1.37,0,0,0-1.1-.46,1.57,1.57,0,0,0-1.16.48,2.24,2.24,0,0,0-.58,1.28Z" fill="#1e1e1e"/>
    </g>
    <g>
      <path d="M213.74,56a3.76,3.76,0,0,1-.63,2.32,2.21,2.21,0,0,1-2.5.69V58a1.37,1.37,0,0,0,.82.23c.88,0,1.33-.76,1.33-2.26V50.6h1Z" fill="#1e1e1e"/>
      <path d="M218.18,59.14a2.79,2.79,0,0,1-2.13-.84,3.1,3.1,0,0,1-.79-2.23,3.24,3.24,0,0,1,.82-2.36,3,3,0,0,1,2.24-.85,2.66,2.66,0,0,1,2.09.83,3.77,3.77,0,0,1-.06,4.59A2.85,2.85,0,0,1,218.18,59.14Zm.07-5.47a1.84,1.84,0,0,0-1.47.63,2.59,2.59,0,0,0-.54,1.74,2.41,2.41,0,0,0,.55,1.68,1.85,1.85,0,0,0,1.46.61,1.77,1.77,0,0,0,1.43-.6,3.23,3.23,0,0,0,0-3.45A1.74,1.74,0,0,0,218.25,53.67Z" fill="#1e1e1e"/>
      <path d="M223.63,58.13h0V59h-1V50.12h1v3.93h0a2.27,2.27,0,0,1,2.07-1.19,2.19,2.19,0,0,1,1.81.81,3.27,3.27,0,0,1,.65,2.15,3.73,3.73,0,0,1-.73,2.42,2.44,2.44,0,0,1-2,.9A2,2,0,0,1,223.63,58.13Zm0-2.42v.84a1.77,1.77,0,0,0,.48,1.26,1.72,1.72,0,0,0,2.59-.15,3,3,0,0,0,.5-1.85,2.41,2.41,0,0,0-.46-1.57,1.54,1.54,0,0,0-1.26-.57,1.68,1.68,0,0,0-1.34.58A2.15,2.15,0,0,0,223.61,55.71Z" fill="#1e1e1e"/>
    </g>
    <g>
      <path d="M211.39,143H210.3l-.89-2.36h-3.57L205,143h-1.09l3.22-8.4h1Zm-2.31-3.24-1.32-3.58a3.61,3.61,0,0,1-.12-.56h0a3.36,3.36,0,0,1-.13.56l-1.31,3.58Z" fill="#1e1e1e"/>
      <path d="M217.49,142.52q0,3.3-3.17,3.3a4.23,4.23,0,0,1-1.94-.42v-1a3.92,3.92,0,0,0,1.93.56c1.48,0,2.21-.78,2.21-2.35V142h0a2.42,2.42,0,0,1-3.86.35,3.17,3.17,0,0,1-.69-2.15,3.73,3.73,0,0,1,.74-2.43,2.46,2.46,0,0,1,2-.9,2,2,0,0,1,1.8,1h0V137h1Zm-1-2.23v-.89a1.72,1.72,0,0,0-.48-1.22,1.58,1.58,0,0,0-1.2-.51,1.66,1.66,0,0,0-1.4.65,2.91,2.91,0,0,0-.5,1.81,2.48,2.48,0,0,0,.48,1.6,1.56,1.56,0,0,0,1.28.6,1.69,1.69,0,0,0,1.32-.57A2.13,2.13,0,0,0,216.52,140.29Z" fill="#1e1e1e"/>
      <path d="M224.2,140.24H220a2.3,2.3,0,0,0,.54,1.55,1.88,1.88,0,0,0,1.42.54,2.89,2.89,0,0,0,1.86-.67v.91a3.47,3.47,0,0,1-2.09.57,2.53,2.53,0,0,1-2-.82A3.35,3.35,0,0,1,219,140a3.28,3.28,0,0,1,.79-2.28,2.54,2.54,0,0,1,2-.88,2.24,2.24,0,0,1,1.82.76,3.18,3.18,0,0,1,.65,2.12Zm-1-.81a1.91,1.91,0,0,0-.4-1.3,1.36,1.36,0,0,0-1.1-.46,1.56,1.56,0,0,0-1.15.48,2.25,2.25,0,0,0-.59,1.28Z" fill="#1e1e1e"/>
      <path d="M230.63,143h-1v-3.42c0-1.28-.46-1.91-1.39-1.91a1.54,1.54,0,0,0-1.2.54,2,2,0,0,0-.47,1.37V143h-1v-6h1v1h0a2.16,2.16,0,0,1,2-1.14,1.82,1.82,0,0,1,1.5.64,2.79,2.79,0,0,1,.52,1.83Z" fill="#1e1e1e"/>
      <path d="M235.12,142.94a1.76,1.76,0,0,1-.89.19c-1,0-1.58-.59-1.58-1.76v-3.55h-1V137h1v-1.46l1-.32V137h1.51v.82h-1.51v3.38a1.37,1.37,0,0,0,.21.86.81.81,0,0,0,.68.26,1,1,0,0,0,.62-.2Z" fill="#1e1e1e"/>
    </g>
    <g>
      <path d="M213.74,161a3.76,3.76,0,0,1-.63,2.32,2.21,2.21,0,0,1-2.5.69v-1a1.37,1.37,0,0,0,.82.23c.88,0,1.33-.76,1.33-2.26v-5.4h1Z" fill="#1e1e1e"/>
      <path d="M218.18,164.14a2.79,2.79,0,0,1-2.13-.84,3.1,3.1,0,0,1-.79-2.23,3.24,3.24,0,0,1,.82-2.36,3,3,0,0,1,2.24-.85,2.66,2.66,0,0,1,2.09.83,3.77,3.77,0,0,1-.06,4.59A2.85,2.85,0,0,1,218.18,164.14Zm.07-5.47a1.84,1.84,0,0,0-1.47.63,2.59,2.59,0,0,0-.54,1.74,2.41,2.41,0,0,0,.55,1.68,1.85,1.85,0,0,0,1.46.61,1.77,1.77,0,0,0,1.43-.6,3.23,3.23,0,0,0,0-3.45A1.74,1.74,0,0,0,218.25,158.67Z" fill="#1e1e1e"/>
      <path d="M223.63,163.13h0V164h-1v-8.88h1v3.93h0a2.27,2.27,0,0,1,2.07-1.19,2.19,2.19,0,0,1,1.81.81,3.27,3.27,0,0,1,.65,2.15,3.73,3.73,0,0,1-.73,2.42,2.44,2.44,0,0,1-2,.9A2,2,0,0,1,223.63,163.13Zm0-2.42v.84a1.77,1.77,0,0,0,.48,1.26,1.72,1.72,0,0,0,2.59-.15,3,3,0,0,0,.5-1.85,2.41,2.41,0,0,0-.46-1.57,1.54,1.54,0,0,0-1.26-.57,1.68,1.68,0,0,0-1.34.58A2.15,2.15,0,0,0,223.61,160.71Z" fill="#1e1e1e"/>
    </g>
    <g>
      <path d="M213.74,86a3.76,3.76,0,0,1-.63,2.32,2.21,2.21,0,0,1-2.5.69V88a1.37,1.37,0,0,0,.82.23c.88,0,1.33-.76,1.33-2.26V80.6h1Z" fill="#1e1e1e"/>
      <path d="M218.18,89.14a2.79,2.79,0,0,1-2.13-.84,3.1,3.1,0,0,1-.79-2.23,3.24,3.24,0,0,1,.82-2.36,3,3,0,0,1,2.24-.85,2.66,2.66,0,0,1,2.09.83,3.77,3.77,0,0,1-.06,4.59A2.85,2.85,0,0,1,218.18,89.14Zm.07-5.47a1.84,1.84,0,0,0-1.47.63,2.59,2.59,0,0,0-.54,1.74,2.41,2.41,0,0,0,.55,1.68,1.85,1.85,0,0,0,1.46.61,1.77,1.77,0,0,0,1.43-.6,3.23,3.23,0,0,0,0-3.45A1.74,1.74,0,0,0,218.25,83.67Z" fill="#1e1e1e"/>
      <path d="M223.63,88.13h0V89h-1V80.12h1v3.93h0a2.27,2.27,0,0,1,2.07-1.19,2.19,2.19,0,0,1,1.81.81,3.27,3.27,0,0,1,.65,2.15,3.73,3.73,0,0,1-.73,2.42,2.44,2.44,0,0,1-2,.9A2,2,0,0,1,223.63,88.13Zm0-2.42v.84a1.77,1.77,0,0,0,.48,1.26,1.72,1.72,0,0,0,2.59-.15,3,3,0,0,0,.5-1.85,2.41,2.41,0,0,0-.46-1.57,1.54,1.54,0,0,0-1.26-.57,1.68,1.68,0,0,0-1.34.58A2.15,2.15,0,0,0,223.61,85.71Z" fill="#1e1e1e"/>
    </g>
    <g>
      <path d="M100.43,88.66V87.5a2.42,2.42,0,0,0,.47.32,4.24,4.24,0,0,0,.59.23,3.5,3.5,0,0,0,.62.15,3.07,3.07,0,0,0,.57.06,2.29,2.29,0,0,0,1.36-.34,1.15,1.15,0,0,0,.45-1,1.13,1.13,0,0,0-.15-.59,1.76,1.76,0,0,0-.41-.46,4.57,4.57,0,0,0-.63-.4l-.78-.4-.82-.45a3.85,3.85,0,0,1-.66-.51,2.06,2.06,0,0,1-.44-.62,1.91,1.91,0,0,1-.16-.82,1.93,1.93,0,0,1,.25-1,2.32,2.32,0,0,1,.66-.7,3.19,3.19,0,0,1,.94-.41,4.24,4.24,0,0,1,1.07-.13,4.11,4.11,0,0,1,1.81.3v1.1a3.33,3.33,0,0,0-1.91-.51,2.88,2.88,0,0,0-.65.07,1.77,1.77,0,0,0-.57.21,1.31,1.31,0,0,0-.41.4,1,1,0,0,0-.16.58,1.22,1.22,0,0,0,.12.56,1.41,1.41,0,0,0,.35.43,3.42,3.42,0,0,0,.58.37c.22.12.48.26.77.4s.59.31.86.47a4.41,4.41,0,0,1,.71.54,2.42,2.42,0,0,1,.48.67,1.84,1.84,0,0,1,.18.83,2.14,2.14,0,0,1-.24,1.05,2.11,2.11,0,0,1-.66.7,2.88,2.88,0,0,1-1,.39,5.24,5.24,0,0,1-1.14.12l-.49,0a4.17,4.17,0,0,1-.6-.1,5.47,5.47,0,0,1-.58-.15A1.93,1.93,0,0,1,100.43,88.66Z" fill="#1e1e1e"/>
      <path d="M109.53,88.94a1.76,1.76,0,0,1-.89.19c-1.06,0-1.58-.59-1.58-1.76V83.82h-1V83h1V81.54l1-.32V83h1.51v.82H108V87.2a1.37,1.37,0,0,0,.21.86.81.81,0,0,0,.68.26,1,1,0,0,0,.62-.2Z" fill="#1e1e1e"/>
      <path d="M115.21,89h-1v-.94h0a2,2,0,0,1-1.85,1.08,2,2,0,0,1-1.4-.47,1.65,1.65,0,0,1-.51-1.26c0-1.12.66-1.78,2-2l1.8-.25c0-1-.41-1.53-1.24-1.53a2.9,2.9,0,0,0-2,.74v-1a3.76,3.76,0,0,1,2-.56c1.41,0,2.11.75,2.11,2.24Zm-1-3-1.45.2a2.37,2.37,0,0,0-1,.34.93.93,0,0,0-.34.84.89.89,0,0,0,.31.71,1.19,1.19,0,0,0,.83.28,1.55,1.55,0,0,0,1.19-.5,1.79,1.79,0,0,0,.46-1.27Z" fill="#1e1e1e"/>
      <path d="M122.14,88.52q0,3.3-3.17,3.3A4.23,4.23,0,0,1,117,91.4v-1A3.92,3.92,0,0,0,119,91c1.48,0,2.22-.78,2.22-2.35V88h0a2.23,2.23,0,0,1-2.06,1.15,2.26,2.26,0,0,1-1.8-.8,3.17,3.17,0,0,1-.68-2.15,3.73,3.73,0,0,1,.73-2.43,2.46,2.46,0,0,1,2-.9,2,2,0,0,1,1.8,1h0V83h1Zm-1-2.23V85.4a1.69,1.69,0,0,0-.49-1.22,1.58,1.58,0,0,0-1.2-.51,1.64,1.64,0,0,0-1.39.65,2.85,2.85,0,0,0-.51,1.81,2.48,2.48,0,0,0,.48,1.6,1.57,1.57,0,0,0,1.28.6,1.69,1.69,0,0,0,1.32-.57A2.14,2.14,0,0,0,121.18,86.29Z" fill="#1e1e1e"/>
      <path d="M128.85,86.24h-4.23a2.25,2.25,0,0,0,.53,1.55,1.88,1.88,0,0,0,1.42.54,2.94,2.94,0,0,0,1.87-.67v.91a3.53,3.53,0,0,1-2.1.57,2.51,2.51,0,0,1-2-.82,3.83,3.83,0,0,1,.06-4.58,2.54,2.54,0,0,1,2-.88,2.26,2.26,0,0,1,1.83.76,3.18,3.18,0,0,1,.64,2.12Zm-1-.81a2,2,0,0,0-.4-1.3,1.37,1.37,0,0,0-1.1-.46,1.57,1.57,0,0,0-1.16.48,2.24,2.24,0,0,0-.58,1.28Z" fill="#1e1e1e"/>
    </g>
    <g>
      <path d="M312.79,136.86a2.3,2.3,0,0,0-.35-.2l-.43-.17-.49-.11a4.21,4.21,0,0,0-.5,0,2.19,2.19,0,0,0-.78.13,1.42,1.42,0,0,0-.52.34,1.22,1.22,0,0,0-.28.44,1.53,1.53,0,0,0-.08.45,1.58,1.58,0,0,0,.3.93,3.79,3.79,0,0,0,.4.41c.16.13.34.28.56.44a7.39,7.39,0,0,1,.65.52,3.34,3.34,0,0,1,.48.53,2.23,2.23,0,0,1,.3.57,2,2,0,0,1,.1.66,2.71,2.71,0,0,1,0,.47,2.14,2.14,0,0,1-.16.53,2.11,2.11,0,0,1-.31.51,1.87,1.87,0,0,1-.51.45,2.66,2.66,0,0,1-.74.31,3.86,3.86,0,0,1-1,.12,4.48,4.48,0,0,1-.64-.05,5.31,5.31,0,0,1-.6-.12,3.66,3.66,0,0,1-.53-.18,2.49,2.49,0,0,1-.4-.19l.17-1a2.88,2.88,0,0,0,.43.26,3.89,3.89,0,0,0,.51.21,3.16,3.16,0,0,0,.55.14,2.76,2.76,0,0,0,.57.06,2.39,2.39,0,0,0,.76-.11,1.49,1.49,0,0,0,.53-.29,1.14,1.14,0,0,0,.31-.44,1.57,1.57,0,0,0,.09-.54,1.21,1.21,0,0,0-.08-.48,1.51,1.51,0,0,0-.25-.41,3.44,3.44,0,0,0-.43-.41l-.62-.46c-.19-.14-.37-.28-.55-.44a3.17,3.17,0,0,1-.45-.52,2.07,2.07,0,0,1-.31-.61,2.09,2.09,0,0,1-.12-.72,2.34,2.34,0,0,1,.18-.91,2.22,2.22,0,0,1,.53-.76,2.47,2.47,0,0,1,.87-.51,3.44,3.44,0,0,1,1.2-.19,4.71,4.71,0,0,1,.53,0,4.54,4.54,0,0,1,.51.09c.16,0,.31.08.46.12s.28.09.39.14Z" fill="#1e1e1e"/>
      <path d="M316.74,138.81h-1.51l-.67,3.19c0,.12-.05.25-.08.39a2.47,2.47,0,0,0,0,.34.58.58,0,0,0,.13.43.57.57,0,0,0,.42.13l.18,0,.23-.06.23-.08.2-.08-.18.84a2.48,2.48,0,0,1-.46.15,2.31,2.31,0,0,1-.5.07,1.62,1.62,0,0,1-.57-.09,1.12,1.12,0,0,1-.38-.24,1.07,1.07,0,0,1-.22-.39,2,2,0,0,1-.06-.5,3,3,0,0,1,0-.4,3.73,3.73,0,0,1,.08-.41l.69-3.27h-1l.18-.81h1l.31-1.46.18-.06.34-.1.34-.1.17-.06-.37,1.78h1.51Z" fill="#1e1e1e"/>
      <path d="M322,139.41a1.79,1.79,0,0,1-.21.86,1.81,1.81,0,0,1-.7.67,4.35,4.35,0,0,1-1.28.43,11.86,11.86,0,0,1-2,.16.59.59,0,0,0,0,.13v.12a2,2,0,0,0,.09.6,1.33,1.33,0,0,0,.28.49,1.25,1.25,0,0,0,.47.33,1.6,1.6,0,0,0,.69.13,3.11,3.11,0,0,0,.89-.16,3.7,3.7,0,0,0,.92-.44l-.18,1a4.68,4.68,0,0,1-.77.33,3.45,3.45,0,0,1-1,.14,2.62,2.62,0,0,1-1.11-.21,2,2,0,0,1-.74-.55,2.27,2.27,0,0,1-.4-.79,3.61,3.61,0,0,1-.12-.94,4.17,4.17,0,0,1,.12-1,4.56,4.56,0,0,1,.33-.92,4,4,0,0,1,.51-.77,3.33,3.33,0,0,1,.66-.59,3.51,3.51,0,0,1,.78-.38,2.82,2.82,0,0,1,.86-.14,2.28,2.28,0,0,1,.82.13,1.6,1.6,0,0,1,.59.33,1.45,1.45,0,0,1,.36.5A1.38,1.38,0,0,1,322,139.41Zm-1,0a.68.68,0,0,0-.27-.57,1.19,1.19,0,0,0-.73-.21,1.66,1.66,0,0,0-.69.16,2.12,2.12,0,0,0-.61.43,2.71,2.71,0,0,0-.49.65,2.81,2.81,0,0,0-.3.81,9.64,9.64,0,0,0,1.42-.08,3.9,3.9,0,0,0,1-.25,1.29,1.29,0,0,0,.54-.4A.94.94,0,0,0,321.05,139.45Z" fill="#1e1e1e"/>
      <path d="M328.24,140.1a4.73,4.73,0,0,1-.09.9,5.06,5.06,0,0,1-.29.91,4.84,4.84,0,0,1-.48.86,3.58,3.58,0,0,1-.69.71,3.08,3.08,0,0,1-.89.49,3.21,3.21,0,0,1-1.1.18,3.08,3.08,0,0,1-.68-.07,3.61,3.61,0,0,1-.59-.15l-.6,2.85h-1l1.46-6.93a3.93,3.93,0,0,0,.08-.46l.06-.53c0-.17,0-.34.05-.5s0-.27,0-.36h1c0,.07,0,.16,0,.27s0,.23,0,.35,0,.25,0,.36,0,.21,0,.28h0a3.19,3.19,0,0,1,.94-1.06,2,2,0,0,1,1.13-.35,1.91,1.91,0,0,1,.74.14,1.48,1.48,0,0,1,.56.43,1.93,1.93,0,0,1,.36.7A3.6,3.6,0,0,1,328.24,140.1Zm-1,0a2.74,2.74,0,0,0-.06-.59,1.27,1.27,0,0,0-.19-.46.8.8,0,0,0-.33-.3.94.94,0,0,0-.49-.12,1.4,1.4,0,0,0-.57.13,1.85,1.85,0,0,0-.5.34,2.48,2.48,0,0,0-.41.49,4.08,4.08,0,0,0-.34.57,5.09,5.09,0,0,0-.25.6,4.84,4.84,0,0,0-.15.57l-.37,1.74a1.23,1.23,0,0,0,.25.08l.31.07.32.05.3,0a2,2,0,0,0,.75-.14,2.18,2.18,0,0,0,.61-.36,2.58,2.58,0,0,0,.49-.55,3.83,3.83,0,0,0,.34-.67,3.06,3.06,0,0,0,.21-.73A3.81,3.81,0,0,0,327.26,140.14Z" fill="#1e1e1e"/>
      <path d="M329.85,139.17a.63.63,0,0,1-.46-.19.66.66,0,0,1-.19-.46.64.64,0,0,1,.19-.46.63.63,0,0,1,.46-.19.63.63,0,0,1,.47.19.61.61,0,0,1,.2.46.67.67,0,0,1-.67.65Zm0,5a.65.65,0,0,1-.65-.66.66.66,0,0,1,.19-.46.65.65,0,0,1,.46-.2.68.68,0,0,1,.67.66.65.65,0,0,1-.2.47A.67.67,0,0,1,329.85,144.13Z" fill="#1e1e1e"/>
      <path d="M340.51,136.49h-2.43V144h-1v-7.51h-2.42v-.89h5.83Z" fill="#1e1e1e"/>
      <path d="M345.09,144h-1v-.94h0a2.2,2.2,0,0,1-3.25.61,1.65,1.65,0,0,1-.51-1.26c0-1.12.66-1.78,2-2l1.8-.25q0-1.53-1.23-1.53a2.91,2.91,0,0,0-2,.74v-1a3.76,3.76,0,0,1,2-.56c1.41,0,2.11.75,2.11,2.24Zm-1-3-1.45.2a2.37,2.37,0,0,0-1,.34.93.93,0,0,0-.34.84.89.89,0,0,0,.31.71,1.2,1.2,0,0,0,.84.28,1.53,1.53,0,0,0,1.18-.5,1.79,1.79,0,0,0,.46-1.27Z" fill="#1e1e1e"/>
      <path d="M346.51,143.78v-1a2.82,2.82,0,0,0,1.73.58c.84,0,1.27-.28,1.27-.84a.76.76,0,0,0-.11-.41,1,1,0,0,0-.3-.29,1.94,1.94,0,0,0-.43-.24l-.54-.21c-.26-.11-.49-.21-.7-.32a2.22,2.22,0,0,1-.5-.36,1.35,1.35,0,0,1-.3-.46,1.62,1.62,0,0,1-.11-.61,1.39,1.39,0,0,1,.2-.74,1.78,1.78,0,0,1,.51-.55A2.49,2.49,0,0,1,348,138a3.56,3.56,0,0,1,2.24.16v1a2.7,2.7,0,0,0-1.52-.43,1.88,1.88,0,0,0-.49.06,1.4,1.4,0,0,0-.37.17,1,1,0,0,0-.24.27.77.77,0,0,0-.08.34.87.87,0,0,0,.08.39,1,1,0,0,0,.25.29,2.11,2.11,0,0,0,.4.22l.53.22a6.21,6.21,0,0,1,.72.31,2.82,2.82,0,0,1,.54.36,1.41,1.41,0,0,1,.34.47,1.46,1.46,0,0,1,.12.62,1.51,1.51,0,0,1-.2.78,1.58,1.58,0,0,1-.52.54,2.5,2.5,0,0,1-.76.33,3.68,3.68,0,0,1-.89.1A3.39,3.39,0,0,1,346.51,143.78Z" fill="#1e1e1e"/>
      <path d="M356.84,144h-1.35l-2.65-2.88h0V144h-1v-8.88h1v5.63h0l2.52-2.75h1.26l-2.78,2.89Z" fill="#1e1e1e"/>
    </g>
    <g>
      <path d="M312.79,56.86a2.3,2.3,0,0,0-.35-.2l-.43-.17-.49-.11a4.21,4.21,0,0,0-.5,0,2.19,2.19,0,0,0-.78.13,1.42,1.42,0,0,0-.52.34,1.22,1.22,0,0,0-.28.44,1.53,1.53,0,0,0-.08.45,1.58,1.58,0,0,0,.3.93,3.79,3.79,0,0,0,.4.41c.16.13.34.28.56.44a7.39,7.39,0,0,1,.65.52,3.34,3.34,0,0,1,.48.53,2.23,2.23,0,0,1,.3.57,2,2,0,0,1,.1.66,2.71,2.71,0,0,1,0,.47,2.14,2.14,0,0,1-.16.53,2.11,2.11,0,0,1-.31.51,1.87,1.87,0,0,1-.51.45,2.66,2.66,0,0,1-.74.31,3.86,3.86,0,0,1-1,.12,4.48,4.48,0,0,1-.64-.05,5.31,5.31,0,0,1-.6-.12,3.66,3.66,0,0,1-.53-.18,2.49,2.49,0,0,1-.4-.19l.17-1a2.88,2.88,0,0,0,.43.26,3.89,3.89,0,0,0,.51.21,3.16,3.16,0,0,0,.55.14,2.76,2.76,0,0,0,.57.06,2.39,2.39,0,0,0,.76-.11,1.49,1.49,0,0,0,.53-.29,1.14,1.14,0,0,0,.31-.44,1.57,1.57,0,0,0,.09-.54,1.21,1.21,0,0,0-.08-.48,1.51,1.51,0,0,0-.25-.41,3.44,3.44,0,0,0-.43-.41l-.62-.46c-.19-.14-.37-.28-.55-.44a3.17,3.17,0,0,1-.45-.52,2.07,2.07,0,0,1-.31-.61,2.09,2.09,0,0,1-.12-.72,2.34,2.34,0,0,1,.18-.91,2.22,2.22,0,0,1,.53-.76,2.47,2.47,0,0,1,.87-.51,3.44,3.44,0,0,1,1.2-.19,4.71,4.71,0,0,1,.53,0,4.54,4.54,0,0,1,.51.09c.16,0,.31.08.46.12s.28.09.39.14Z" fill="#1e1e1e"/>
      <path d="M316.74,58.81h-1.51L314.56,62c0,.12-.05.25-.08.39a2.47,2.47,0,0,0,0,.34.58.58,0,0,0,.13.43.57.57,0,0,0,.42.13l.18,0,.23-.06.23-.08.2-.08-.18.84a2.48,2.48,0,0,1-.46.15,2.31,2.31,0,0,1-.5.07,1.62,1.62,0,0,1-.57-.09,1.12,1.12,0,0,1-.38-.24,1.07,1.07,0,0,1-.22-.39,2,2,0,0,1-.06-.5,3,3,0,0,1,0-.4,3.73,3.73,0,0,1,.08-.41l.69-3.27h-1l.18-.81h1l.31-1.46.18-.06.34-.1.34-.1.17-.06L315.41,58h1.51Z" fill="#1e1e1e"/>
      <path d="M322,59.41a1.79,1.79,0,0,1-.21.86,1.81,1.81,0,0,1-.7.67,4.35,4.35,0,0,1-1.28.43,11.86,11.86,0,0,1-2,.16.59.59,0,0,0,0,.13v.12a2,2,0,0,0,.09.6,1.33,1.33,0,0,0,.28.49,1.25,1.25,0,0,0,.47.33,1.6,1.6,0,0,0,.69.13,3.11,3.11,0,0,0,.89-.16,3.7,3.7,0,0,0,.92-.44l-.18,1a4.68,4.68,0,0,1-.77.33,3.45,3.45,0,0,1-1,.14,2.62,2.62,0,0,1-1.11-.21,2,2,0,0,1-.74-.55,2.27,2.27,0,0,1-.4-.79,3.61,3.61,0,0,1-.12-.94,4.17,4.17,0,0,1,.12-1,4.56,4.56,0,0,1,.33-.92,4,4,0,0,1,.51-.77,3.33,3.33,0,0,1,.66-.59,3.51,3.51,0,0,1,.78-.38,2.82,2.82,0,0,1,.86-.14A2.28,2.28,0,0,1,321,58a1.6,1.6,0,0,1,.59.33,1.45,1.45,0,0,1,.36.5A1.38,1.38,0,0,1,322,59.41Zm-1,0a.68.68,0,0,0-.27-.57,1.19,1.19,0,0,0-.73-.21,1.66,1.66,0,0,0-.69.16,2.12,2.12,0,0,0-.61.43,2.71,2.71,0,0,0-.49.65,2.81,2.81,0,0,0-.3.81,9.64,9.64,0,0,0,1.42-.08,3.9,3.9,0,0,0,1-.25,1.29,1.29,0,0,0,.54-.4A.94.94,0,0,0,321.05,59.45Z" fill="#1e1e1e"/>
      <path d="M328.24,60.1a4.73,4.73,0,0,1-.09.9,5.06,5.06,0,0,1-.29.91,4.84,4.84,0,0,1-.48.86,3.58,3.58,0,0,1-.69.71,3.08,3.08,0,0,1-.89.49,3.21,3.21,0,0,1-1.1.18,3.08,3.08,0,0,1-.68-.07,3.61,3.61,0,0,1-.59-.15l-.6,2.85h-1l1.46-6.93a3.93,3.93,0,0,0,.08-.46l.06-.53c0-.17,0-.34.05-.5s0-.27,0-.36h1c0,.07,0,.16,0,.27s0,.23,0,.35,0,.25,0,.36,0,.21,0,.28h0a3.19,3.19,0,0,1,.94-1.06,2,2,0,0,1,1.13-.35,1.91,1.91,0,0,1,.74.14,1.48,1.48,0,0,1,.56.43,1.93,1.93,0,0,1,.36.7A3.6,3.6,0,0,1,328.24,60.1Zm-1,0a2.74,2.74,0,0,0-.06-.59,1.27,1.27,0,0,0-.19-.46.8.8,0,0,0-.33-.3.94.94,0,0,0-.49-.12,1.4,1.4,0,0,0-.57.13,1.85,1.85,0,0,0-.5.34,2.48,2.48,0,0,0-.41.49,4.08,4.08,0,0,0-.34.57,5.09,5.09,0,0,0-.25.6,4.84,4.84,0,0,0-.15.57l-.37,1.74a1.23,1.23,0,0,0,.25.08l.31.07.32.05.3,0a2,2,0,0,0,.75-.14,2.18,2.18,0,0,0,.61-.36,2.58,2.58,0,0,0,.49-.55,3.83,3.83,0,0,0,.34-.67,3.06,3.06,0,0,0,.21-.73A3.81,3.81,0,0,0,327.26,60.14Z" fill="#1e1e1e"/>
      <path d="M329.85,59.17a.63.63,0,0,1-.46-.19.66.66,0,0,1-.19-.46.64.64,0,0,1,.19-.46.63.63,0,0,1,.46-.19.63.63,0,0,1,.47.19.61.61,0,0,1,.2.46.67.67,0,0,1-.67.65Zm0,5a.65.65,0,0,1-.65-.66.66.66,0,0,1,.19-.46.65.65,0,0,1,.46-.2.68.68,0,0,1,.67.66.65.65,0,0,1-.2.47A.67.67,0,0,1,329.85,64.13Z" fill="#1e1e1e"/>
      <path d="M340.51,56.49h-2.43V64h-1V56.49h-2.42V55.6h5.83Z" fill="#1e1e1e"/>
      <path d="M345.09,64h-1v-.94h0a2.2,2.2,0,0,1-3.25.61,1.65,1.65,0,0,1-.51-1.26c0-1.12.66-1.78,2-2l1.8-.25q0-1.53-1.23-1.53a2.91,2.91,0,0,0-2,.74v-1a3.76,3.76,0,0,1,2-.56c1.41,0,2.11.75,2.11,2.24Zm-1-3-1.45.2a2.37,2.37,0,0,0-1,.34.93.93,0,0,0-.34.84.89.89,0,0,0,.31.71,1.2,1.2,0,0,0,.84.28,1.53,1.53,0,0,0,1.18-.5,1.79,1.79,0,0,0,.46-1.27Z" fill="#1e1e1e"/>
      <path d="M346.51,63.78v-1a2.82,2.82,0,0,0,1.73.58c.84,0,1.27-.28,1.27-.84a.76.76,0,0,0-.11-.41,1,1,0,0,0-.3-.29,1.94,1.94,0,0,0-.43-.24l-.54-.21c-.26-.11-.49-.21-.7-.32a2.22,2.22,0,0,1-.5-.36,1.35,1.35,0,0,1-.3-.46,1.62,1.62,0,0,1-.11-.61,1.39,1.39,0,0,1,.2-.74,1.78,1.78,0,0,1,.51-.55A2.49,2.49,0,0,1,348,58a3.56,3.56,0,0,1,2.24.16v1a2.7,2.7,0,0,0-1.52-.43,1.88,1.88,0,0,0-.49.06,1.4,1.4,0,0,0-.37.17,1,1,0,0,0-.24.27.77.77,0,0,0-.08.34.87.87,0,0,0,.08.39,1,1,0,0,0,.25.29,2.11,2.11,0,0,0,.4.22l.53.22a6.21,6.21,0,0,1,.72.31,2.82,2.82,0,0,1,.54.36,1.41,1.41,0,0,1,.34.47,1.46,1.46,0,0,1,.12.62,1.51,1.51,0,0,1-.2.78,1.58,1.58,0,0,1-.52.54A2.5,2.5,0,0,1,349,64a3.68,3.68,0,0,1-.89.1A3.39,3.39,0,0,1,346.51,63.78Z" fill="#1e1e1e"/>
      <path d="M356.84,64h-1.35l-2.65-2.88h0V64h-1V55.12h1v5.63h0L355.36,58h1.26l-2.78,2.89Z" fill="#1e1e1e"/>
    </g>
    <g>
      <path d="M309.11,31.86a1.9,1.9,0,0,0-.35-.2l-.43-.17-.48-.11a4.38,4.38,0,0,0-.5,0,2.25,2.25,0,0,0-.79.13,1.47,1.47,0,0,0-.51.34,1.22,1.22,0,0,0-.28.44,1.29,1.29,0,0,0-.09.45,1.59,1.59,0,0,0,.08.5,1.63,1.63,0,0,0,.23.43,2.91,2.91,0,0,0,.39.41l.56.44a6.16,6.16,0,0,1,.65.52,4,4,0,0,1,.49.53,2.23,2.23,0,0,1,.3.57,2,2,0,0,1,.1.66,2.71,2.71,0,0,1,0,.47,2.67,2.67,0,0,1-.16.53,2.16,2.16,0,0,1-.32.51,2,2,0,0,1-.5.45,2.79,2.79,0,0,1-.74.31,3.86,3.86,0,0,1-1,.12,4.62,4.62,0,0,1-.65,0,5.31,5.31,0,0,1-.6-.12,3.52,3.52,0,0,1-.52-.18,2.63,2.63,0,0,1-.41-.19l.17-1a3.5,3.5,0,0,0,.43.26,3.89,3.89,0,0,0,.51.21,3.53,3.53,0,0,0,.56.14,2.76,2.76,0,0,0,.57.06,2.44,2.44,0,0,0,.76-.11,1.58,1.58,0,0,0,.53-.29,1,1,0,0,0,.3-.44,1.37,1.37,0,0,0,.1-.54,1.42,1.42,0,0,0-.08-.48,1.56,1.56,0,0,0-.26-.41,2.86,2.86,0,0,0-.43-.41c-.17-.14-.38-.29-.61-.46a4.82,4.82,0,0,1-.55-.44,2.81,2.81,0,0,1-.46-.52,2.69,2.69,0,0,1-.31-.61,2.09,2.09,0,0,1-.11-.72,2.53,2.53,0,0,1,.17-.91,2.12,2.12,0,0,1,.54-.76,2.47,2.47,0,0,1,.87-.51,3.36,3.36,0,0,1,1.2-.19,4.41,4.41,0,0,1,.52,0,3.86,3.86,0,0,1,.51.09c.16,0,.32.08.47.12l.39.14Z" fill="#1e1e1e"/>
      <path d="M313.07,33.81h-1.52L310.88,37c0,.12-.05.25-.07.39a2.75,2.75,0,0,0,0,.34.58.58,0,0,0,.14.43.54.54,0,0,0,.42.13l.18,0,.23-.06.23-.08.2-.08-.18.84a2.6,2.6,0,0,1-.47.15,2.22,2.22,0,0,1-.49.07,1.55,1.55,0,0,1-.57-.09,1.08,1.08,0,0,1-.39-.24.92.92,0,0,1-.21-.39,1.59,1.59,0,0,1-.07-.5,3,3,0,0,1,0-.4,3.73,3.73,0,0,1,.08-.41l.69-3.27h-1l.18-.81h1l.31-1.46.18-.06.34-.1.34-.1.17-.06L311.74,33h1.51Z" fill="#1e1e1e"/>
      <path d="M318.35,34.41a1.79,1.79,0,0,1-.21.86,1.75,1.75,0,0,1-.7.67,4.25,4.25,0,0,1-1.28.43,11.77,11.77,0,0,1-2,.16.57.57,0,0,0,0,.13v.12a2,2,0,0,0,.09.6,1.47,1.47,0,0,0,.27.49,1.25,1.25,0,0,0,.47.33,1.67,1.67,0,0,0,.69.13,3.05,3.05,0,0,0,.89-.16,3.7,3.7,0,0,0,.92-.44l-.18,1a4.34,4.34,0,0,1-.77.33,3.33,3.33,0,0,1-1,.14,2.7,2.7,0,0,1-1.12-.21,2,2,0,0,1-.73-.55,2,2,0,0,1-.4-.79,3.61,3.61,0,0,1-.12-.94,4.17,4.17,0,0,1,.11-1,3.83,3.83,0,0,1,.85-1.69,3.33,3.33,0,0,1,.66-.59,3.13,3.13,0,0,1,.78-.38,2.77,2.77,0,0,1,.86-.14,2.31,2.31,0,0,1,.82.13,1.77,1.77,0,0,1,.59.33,1.45,1.45,0,0,1,.36.5A1.53,1.53,0,0,1,318.35,34.41Zm-1,0a.68.68,0,0,0-.27-.57,1.14,1.14,0,0,0-.72-.21,1.66,1.66,0,0,0-.69.16,2.16,2.16,0,0,0-.62.43,2.71,2.71,0,0,0-.49.65,3.12,3.12,0,0,0-.29.81,9.73,9.73,0,0,0,1.42-.08,3.7,3.7,0,0,0,1-.25,1.23,1.23,0,0,0,.54-.4A.87.87,0,0,0,317.37,34.45Z" fill="#1e1e1e"/>
      <path d="M324.56,35.1a4.73,4.73,0,0,1-.09.9,4.37,4.37,0,0,1-.29.91,4.28,4.28,0,0,1-.48.86,3.27,3.27,0,0,1-.68.71,3.08,3.08,0,0,1-.89.49,3.45,3.45,0,0,1-1.79.11,3.89,3.89,0,0,1-.59-.15l-.59,2.85h-1l1.47-6.93a4.12,4.12,0,0,0,.07-.46c0-.17,0-.35.07-.53s0-.34,0-.5,0-.27,0-.36h1c0,.07,0,.16,0,.27s0,.23,0,.35,0,.25,0,.36,0,.21,0,.28h0a3.17,3.17,0,0,1,.93-1.06,2,2,0,0,1,1.14-.35,2,2,0,0,1,.74.14,1.56,1.56,0,0,1,.56.43,1.92,1.92,0,0,1,.35.7A3.6,3.6,0,0,1,324.56,35.1Zm-1,0a2.74,2.74,0,0,0-.06-.59,1.11,1.11,0,0,0-.18-.46.94.94,0,0,0-.33-.3,1,1,0,0,0-.5-.12,1.4,1.4,0,0,0-.57.13,1.8,1.8,0,0,0-.49.34,2.92,2.92,0,0,0-.42.49,5.3,5.3,0,0,0-.33.57,5.09,5.09,0,0,0-.25.6,5,5,0,0,0-.16.57l-.37,1.74a1.34,1.34,0,0,0,.26.08l.3.07.32.05.31,0a2,2,0,0,0,.74-.14,2.24,2.24,0,0,0,.62-.36,2.83,2.83,0,0,0,.48-.55,3.28,3.28,0,0,0,.35-.67,4.38,4.38,0,0,0,.21-.73A3.78,3.78,0,0,0,323.58,35.14Z" fill="#1e1e1e"/>
      <path d="M326.18,34.17a.65.65,0,0,1-.65-.65.6.6,0,0,1,.19-.46.62.62,0,0,1,.46-.19.64.64,0,0,1,.47.19.6.6,0,0,1,.19.46.62.62,0,0,1-.19.46A.64.64,0,0,1,326.18,34.17Zm0,5a.66.66,0,0,1-.46-.19.64.64,0,0,1-.19-.47.62.62,0,0,1,.19-.46.63.63,0,0,1,.46-.2.65.65,0,0,1,.47.2.62.62,0,0,1,.19.46.64.64,0,0,1-.19.47A.68.68,0,0,1,326.18,39.13Z" fill="#1e1e1e"/>
      <path d="M331.47,38.66V37.5a2.23,2.23,0,0,0,.48.32,4.51,4.51,0,0,0,1.2.38,3.09,3.09,0,0,0,.58.06,2.27,2.27,0,0,0,1.35-.34,1.15,1.15,0,0,0,.45-1,1.13,1.13,0,0,0-.15-.59,1.76,1.76,0,0,0-.41-.46,4.43,4.43,0,0,0-.62-.4l-.78-.4c-.29-.15-.57-.3-.82-.45a3.2,3.2,0,0,1-.66-.51,2.1,2.1,0,0,1-.45-.62,2.07,2.07,0,0,1-.16-.82,2,2,0,0,1,.25-1,2.24,2.24,0,0,1,.67-.7,3,3,0,0,1,.93-.41,4.29,4.29,0,0,1,1.07-.13,4.08,4.08,0,0,1,1.81.3v1.1a3.29,3.29,0,0,0-1.91-.51,2.79,2.79,0,0,0-.64.07,1.74,1.74,0,0,0-.58.21,1.42,1.42,0,0,0-.41.4,1.07,1.07,0,0,0-.16.58,1.22,1.22,0,0,0,.12.56,1.31,1.31,0,0,0,.36.43,3.31,3.31,0,0,0,.57.37c.22.12.48.26.78.4s.58.31.85.47a4,4,0,0,1,.71.54,2.42,2.42,0,0,1,.48.67,1.84,1.84,0,0,1,.18.83,2.14,2.14,0,0,1-.24,1,1.93,1.93,0,0,1-.66.7,2.8,2.8,0,0,1-1,.39,5.24,5.24,0,0,1-1.14.12l-.49,0a4.69,4.69,0,0,1-.6-.1,4.74,4.74,0,0,1-.57-.15A2,2,0,0,1,331.47,38.66Z" fill="#1e1e1e"/>
      <path d="M342.17,38.72a3.1,3.1,0,0,1-1.64.42,2.75,2.75,0,0,1-2.07-.83,3,3,0,0,1-.79-2.17,3.35,3.35,0,0,1,.85-2.38,3,3,0,0,1,2.27-.9,3.2,3.2,0,0,1,1.39.29v1a2.38,2.38,0,0,0-1.43-.47,1.91,1.91,0,0,0-1.5.66,2.46,2.46,0,0,0-.59,1.73,2.36,2.36,0,0,0,.55,1.66,1.89,1.89,0,0,0,1.49.61,2.38,2.38,0,0,0,1.47-.52Z" fill="#1e1e1e"/>
      <path d="M346.59,34a1.18,1.18,0,0,0-.73-.19,1.23,1.23,0,0,0-1,.58,2.72,2.72,0,0,0-.41,1.58V39h-1V33h1v1.24h0a2.12,2.12,0,0,1,.63-1,1.4,1.4,0,0,1,.94-.36,1.5,1.5,0,0,1,.58.09Z" fill="#1e1e1e"/>
      <path d="M348.15,31.48a.6.6,0,0,1-.44-.18.59.59,0,0,1-.18-.44.61.61,0,0,1,.18-.45.6.6,0,0,1,.44-.18.61.61,0,0,1,.45.18.62.62,0,0,1,.19.45.59.59,0,0,1-.19.43A.58.58,0,0,1,348.15,31.48Zm.47,7.52h-1V33h1Z" fill="#1e1e1e"/>
      <path d="M351.43,38.13h0v3.63h-1V33h1v1h0a2.3,2.3,0,0,1,2.08-1.19,2.2,2.2,0,0,1,1.81.81,3.32,3.32,0,0,1,.65,2.15,3.79,3.79,0,0,1-.73,2.42,2.46,2.46,0,0,1-2,.9A2,2,0,0,1,351.43,38.13Zm0-2.42v.84a1.77,1.77,0,0,0,.48,1.26,1.73,1.73,0,0,0,2.6-.15,3,3,0,0,0,.49-1.85,2.41,2.41,0,0,0-.46-1.57,1.53,1.53,0,0,0-1.25-.57,1.7,1.7,0,0,0-1.35.58A2.15,2.15,0,0,0,351.41,35.71Z" fill="#1e1e1e"/>
      <path d="M360.21,38.94a1.76,1.76,0,0,1-.89.19c-1.05,0-1.58-.59-1.58-1.76V33.82h-1V33h1V31.54l1-.32V33h1.51v.82H358.7V37.2a1.37,1.37,0,0,0,.21.86.81.81,0,0,0,.68.26,1,1,0,0,0,.62-.2Z" fill="#1e1e1e"/>
    </g>
    <g>
      <path d="M312.79,81.86a2.3,2.3,0,0,0-.35-.2l-.43-.17-.49-.11a4.21,4.21,0,0,0-.5,0,2.19,2.19,0,0,0-.78.13,1.42,1.42,0,0,0-.52.34,1.22,1.22,0,0,0-.28.44,1.53,1.53,0,0,0-.08.45,1.58,1.58,0,0,0,.3.93,3.79,3.79,0,0,0,.4.41c.16.13.34.28.56.44a7.39,7.39,0,0,1,.65.52,3.34,3.34,0,0,1,.48.53,2.23,2.23,0,0,1,.3.57,2,2,0,0,1,.1.66,2.71,2.71,0,0,1,0,.47,2.14,2.14,0,0,1-.16.53,2.11,2.11,0,0,1-.31.51,1.87,1.87,0,0,1-.51.45,2.66,2.66,0,0,1-.74.31,3.86,3.86,0,0,1-1,.12,4.48,4.48,0,0,1-.64-.05,5.31,5.31,0,0,1-.6-.12,3.66,3.66,0,0,1-.53-.18,2.49,2.49,0,0,1-.4-.19l.17-1a2.88,2.88,0,0,0,.43.26,3.89,3.89,0,0,0,.51.21,3.16,3.16,0,0,0,.55.14,2.76,2.76,0,0,0,.57.06,2.39,2.39,0,0,0,.76-.11,1.49,1.49,0,0,0,.53-.29,1.14,1.14,0,0,0,.31-.44,1.57,1.57,0,0,0,.09-.54,1.21,1.21,0,0,0-.08-.48,1.51,1.51,0,0,0-.25-.41,3.44,3.44,0,0,0-.43-.41l-.62-.46c-.19-.14-.37-.28-.55-.44a3.17,3.17,0,0,1-.45-.52,2.07,2.07,0,0,1-.31-.61,2.09,2.09,0,0,1-.12-.72,2.34,2.34,0,0,1,.18-.91,2.22,2.22,0,0,1,.53-.76,2.47,2.47,0,0,1,.87-.51,3.44,3.44,0,0,1,1.2-.19,4.71,4.71,0,0,1,.53,0l.51.09c.16,0,.31.08.46.12s.28.09.39.14Z" fill="#1e1e1e"/>
      <path d="M316.74,83.81h-1.51L314.56,87c0,.12-.05.25-.08.39a2.47,2.47,0,0,0,0,.34.58.58,0,0,0,.13.43.57.57,0,0,0,.42.13l.18,0,.23-.06.23-.08.2-.08-.18.84a2.48,2.48,0,0,1-.46.15,2.31,2.31,0,0,1-.5.07,1.62,1.62,0,0,1-.57-.09,1.12,1.12,0,0,1-.38-.24,1.07,1.07,0,0,1-.22-.39,2,2,0,0,1-.06-.5,3,3,0,0,1,0-.4,3.73,3.73,0,0,1,.08-.41l.69-3.27h-1l.18-.81h1l.31-1.46.18-.06.34-.1.34-.1.17-.06L315.41,83h1.51Z" fill="#1e1e1e"/>
      <path d="M322,84.41a1.79,1.79,0,0,1-.21.86,1.81,1.81,0,0,1-.7.67,4.35,4.35,0,0,1-1.28.43,11.86,11.86,0,0,1-2,.16.59.59,0,0,0,0,.13v.12a2,2,0,0,0,.09.6,1.33,1.33,0,0,0,.28.49,1.25,1.25,0,0,0,.47.33,1.6,1.6,0,0,0,.69.13,3.11,3.11,0,0,0,.89-.16,3.7,3.7,0,0,0,.92-.44l-.18,1a4.68,4.68,0,0,1-.77.33,3.45,3.45,0,0,1-1,.14,2.62,2.62,0,0,1-1.11-.21,2,2,0,0,1-.74-.55,2.27,2.27,0,0,1-.4-.79,3.61,3.61,0,0,1-.12-.94,4.17,4.17,0,0,1,.12-1,4.56,4.56,0,0,1,.33-.92,4,4,0,0,1,.51-.77,3.33,3.33,0,0,1,.66-.59,3.51,3.51,0,0,1,.78-.38,2.82,2.82,0,0,1,.86-.14A2.28,2.28,0,0,1,321,83a1.6,1.6,0,0,1,.59.33,1.45,1.45,0,0,1,.36.5A1.38,1.38,0,0,1,322,84.41Zm-1,0a.68.68,0,0,0-.27-.57,1.19,1.19,0,0,0-.73-.21,1.66,1.66,0,0,0-.69.16,2.12,2.12,0,0,0-.61.43,2.71,2.71,0,0,0-.49.65,2.81,2.81,0,0,0-.3.81,9.64,9.64,0,0,0,1.42-.08,3.9,3.9,0,0,0,1-.25,1.29,1.29,0,0,0,.54-.4A.94.94,0,0,0,321.05,84.45Z" fill="#1e1e1e"/>
      <path d="M328.24,85.1a4.73,4.73,0,0,1-.09.9,5.06,5.06,0,0,1-.29.91,4.84,4.84,0,0,1-.48.86,3.58,3.58,0,0,1-.69.71,3.08,3.08,0,0,1-.89.49,3.21,3.21,0,0,1-1.1.18,3.08,3.08,0,0,1-.68-.07,3.61,3.61,0,0,1-.59-.15l-.6,2.85h-1l1.46-6.93a3.93,3.93,0,0,0,.08-.46l.06-.53c0-.17,0-.34.05-.5s0-.27,0-.36h1c0,.07,0,.16,0,.27s0,.23,0,.35,0,.25,0,.36,0,.21,0,.28h0a3.19,3.19,0,0,1,.94-1.06,2,2,0,0,1,1.13-.35,1.91,1.91,0,0,1,.74.14,1.48,1.48,0,0,1,.56.43,1.93,1.93,0,0,1,.36.7A3.6,3.6,0,0,1,328.24,85.1Zm-1,0a2.74,2.74,0,0,0-.06-.59,1.27,1.27,0,0,0-.19-.46.8.8,0,0,0-.33-.3.94.94,0,0,0-.49-.12,1.4,1.4,0,0,0-.57.13,1.85,1.85,0,0,0-.5.34,2.48,2.48,0,0,0-.41.49,4.08,4.08,0,0,0-.34.57,5.09,5.09,0,0,0-.25.6,4.84,4.84,0,0,0-.15.57l-.37,1.74a1.23,1.23,0,0,0,.25.08l.31.07.32,0,.3,0a2,2,0,0,0,.75-.14,2.18,2.18,0,0,0,.61-.36,2.58,2.58,0,0,0,.49-.55,3.83,3.83,0,0,0,.34-.67,3.06,3.06,0,0,0,.21-.73A3.81,3.81,0,0,0,327.26,85.14Z" fill="#1e1e1e"/>
      <path d="M329.85,84.17a.63.63,0,0,1-.46-.19.66.66,0,0,1-.19-.46.64.64,0,0,1,.19-.46.63.63,0,0,1,.46-.19.63.63,0,0,1,.47.19.61.61,0,0,1,.2.46.67.67,0,0,1-.67.65Zm0,5a.65.65,0,0,1-.65-.66.66.66,0,0,1,.19-.46.65.65,0,0,1,.46-.2.68.68,0,0,1,.67.66.65.65,0,0,1-.2.47A.67.67,0,0,1,329.85,89.13Z" fill="#1e1e1e"/>
      <path d="M340.51,81.49h-2.43V89h-1V81.49h-2.42V80.6h5.83Z" fill="#1e1e1e"/>
      <path d="M345.09,89h-1v-.94h0a2.2,2.2,0,0,1-3.25.61,1.65,1.65,0,0,1-.51-1.26c0-1.12.66-1.78,2-2l1.8-.25q0-1.53-1.23-1.53a2.91,2.91,0,0,0-2,.74v-1a3.76,3.76,0,0,1,2-.56c1.41,0,2.11.75,2.11,2.24Zm-1-3-1.45.2a2.37,2.37,0,0,0-1,.34.93.93,0,0,0-.34.84.89.89,0,0,0,.31.71,1.2,1.2,0,0,0,.84.28,1.53,1.53,0,0,0,1.18-.5,1.79,1.79,0,0,0,.46-1.27Z" fill="#1e1e1e"/>
      <path d="M346.51,88.78v-1a2.82,2.82,0,0,0,1.73.58c.84,0,1.27-.28,1.27-.84a.76.76,0,0,0-.11-.41,1,1,0,0,0-.3-.29,1.94,1.94,0,0,0-.43-.24l-.54-.21c-.26-.11-.49-.21-.7-.32a2.22,2.22,0,0,1-.5-.36,1.35,1.35,0,0,1-.3-.46,1.62,1.62,0,0,1-.11-.61,1.39,1.39,0,0,1,.2-.74,1.78,1.78,0,0,1,.51-.55A2.49,2.49,0,0,1,348,83a3.56,3.56,0,0,1,2.24.16v1a2.7,2.7,0,0,0-1.52-.43,1.88,1.88,0,0,0-.49.06,1.4,1.4,0,0,0-.37.17,1,1,0,0,0-.24.27.77.77,0,0,0-.08.34.87.87,0,0,0,.08.39,1,1,0,0,0,.25.29,2.11,2.11,0,0,0,.4.22l.53.22a6.21,6.21,0,0,1,.72.31,2.82,2.82,0,0,1,.54.36,1.41,1.41,0,0,1,.34.47,1.46,1.46,0,0,1,.12.62,1.51,1.51,0,0,1-.2.78,1.58,1.58,0,0,1-.52.54A2.5,2.5,0,0,1,349,89a3.68,3.68,0,0,1-.89.1A3.39,3.39,0,0,1,346.51,88.78Z" fill="#1e1e1e"/>
      <path d="M356.84,89h-1.35l-2.65-2.88h0V89h-1V80.12h1v5.63h0L355.36,83h1.26l-2.78,2.89Z" fill="#1e1e1e"/>
    </g>
    <g>
      <path d="M317.19,119.68V117.8a3.45,3.45,0,0,0,1.11.64,3.4,3.4,0,0,0,1.21.22,2.25,2.25,0,0,0,.62-.07,1.57,1.57,0,0,0,.45-.17.87.87,0,0,0,.27-.27.81.81,0,0,0,.08-.34.68.68,0,0,0-.14-.44,1.47,1.47,0,0,0-.38-.36,3.88,3.88,0,0,0-.58-.31c-.22-.11-.46-.21-.72-.32a3.63,3.63,0,0,1-1.47-1,2.19,2.19,0,0,1-.48-1.43,2.32,2.32,0,0,1,.26-1.12,2.25,2.25,0,0,1,.72-.78,3.33,3.33,0,0,1,1.05-.45,5.21,5.21,0,0,1,1.27-.14,6.74,6.74,0,0,1,1.16.08,4.46,4.46,0,0,1,.94.24v1.75a3.42,3.42,0,0,0-.46-.26,4.56,4.56,0,0,0-.52-.18,3.21,3.21,0,0,0-.52-.11l-.5,0a2.58,2.58,0,0,0-.58.06,1.57,1.57,0,0,0-.45.17.81.81,0,0,0-.28.27.59.59,0,0,0-.1.34.68.68,0,0,0,.11.38,1.38,1.38,0,0,0,.32.32,2.87,2.87,0,0,0,.5.29,7,7,0,0,0,.66.3,7,7,0,0,1,.91.45,3,3,0,0,1,.68.53,2.08,2.08,0,0,1,.44.69,2.4,2.4,0,0,1,.16.89,2.37,2.37,0,0,1-.27,1.18,2.08,2.08,0,0,1-.73.77,3.07,3.07,0,0,1-1.06.43,6.53,6.53,0,0,1-1.28.13,6.86,6.86,0,0,1-1.31-.12A4.36,4.36,0,0,1,317.19,119.68Z" fill="#1e1e1e"/>
      <path d="M327.57,119.93a2.75,2.75,0,0,1-1.23.22c-1.31,0-2-.68-2-2v-2.74h-1V114h1v-1.29l1.84-.53V114h1.35v1.37h-1.35v2.42c0,.63.25.94.75.94a1.27,1.27,0,0,0,.6-.17Z" fill="#1e1e1e"/>
      <path d="M334,117.53h-3.92c.07.87.61,1.3,1.65,1.3a3.23,3.23,0,0,0,1.74-.46v1.33a4.53,4.53,0,0,1-2.16.45,2.8,2.8,0,0,1-3.06-3.06,3.19,3.19,0,0,1,.87-2.36,2.85,2.85,0,0,1,2.13-.88,2.63,2.63,0,0,1,2,.78,3,3,0,0,1,.72,2.12Zm-1.72-1.14c0-.86-.35-1.29-1-1.29a1,1,0,0,0-.77.37,1.68,1.68,0,0,0-.4.92Z" fill="#1e1e1e"/>
      <path d="M337.05,119.3h0v3.46h-1.85V114H337v.9h0a2.36,2.36,0,0,1,3.73-.25,3.45,3.45,0,0,1,.64,2.18,3.73,3.73,0,0,1-.74,2.41,2.46,2.46,0,0,1-2,.91A1.86,1.86,0,0,1,337.05,119.3Zm-.05-2.46v.48a1.54,1.54,0,0,0,.33,1,1.06,1.06,0,0,0,.86.39,1.12,1.12,0,0,0,1-.49,2.4,2.4,0,0,0,.35-1.39c0-1-.41-1.58-1.23-1.58a1.18,1.18,0,0,0-.93.43A1.73,1.73,0,0,0,337,116.84Z" fill="#1e1e1e"/>
      <path d="M342.32,119.84v-1.5a3.66,3.66,0,0,0,.91.41,3,3,0,0,0,.86.14,1.79,1.79,0,0,0,.77-.14.43.43,0,0,0,.29-.41.39.39,0,0,0-.13-.29,1.33,1.33,0,0,0-.33-.21,4.53,4.53,0,0,0-.44-.15l-.47-.16a4.68,4.68,0,0,1-.63-.29,2.45,2.45,0,0,1-.46-.36,1.64,1.64,0,0,1-.28-.48,2,2,0,0,1-.09-.64,1.6,1.6,0,0,1,.22-.86,1.75,1.75,0,0,1,.58-.6A2.85,2.85,0,0,1,344,114a4.55,4.55,0,0,1,1.79,0,7.78,7.78,0,0,1,.81.17v1.43a2.87,2.87,0,0,0-.75-.3,3.13,3.13,0,0,0-.79-.11,1.22,1.22,0,0,0-.34,0,1.1,1.1,0,0,0-.29.09.49.49,0,0,0-.19.16.34.34,0,0,0-.07.22.4.4,0,0,0,.1.28,1,1,0,0,0,.28.2,1.88,1.88,0,0,0,.38.15l.41.14a6.16,6.16,0,0,1,.67.28,1.94,1.94,0,0,1,.51.36,1.58,1.58,0,0,1,.33.48,1.82,1.82,0,0,1,.11.66,1.67,1.67,0,0,1-.23.91,1.87,1.87,0,0,1-.61.61,2.81,2.81,0,0,1-.89.35,5,5,0,0,1-1,.11A5.41,5.41,0,0,1,342.32,119.84Z" fill="#1e1e1e"/>
    </g>
    <g>
      <path d="M317.19,14.68V12.8a3.45,3.45,0,0,0,1.11.64,3.4,3.4,0,0,0,1.21.22,2.25,2.25,0,0,0,.62-.07,1.57,1.57,0,0,0,.45-.17.87.87,0,0,0,.27-.27.81.81,0,0,0,.08-.34.68.68,0,0,0-.14-.44,1.47,1.47,0,0,0-.38-.36,3.88,3.88,0,0,0-.58-.31c-.22-.11-.46-.21-.72-.32a3.63,3.63,0,0,1-1.47-1A2.19,2.19,0,0,1,317.16,9a2.32,2.32,0,0,1,.26-1.12,2.25,2.25,0,0,1,.72-.78,3.33,3.33,0,0,1,1.05-.45,5.21,5.21,0,0,1,1.27-.14,6.74,6.74,0,0,1,1.16.08,4.46,4.46,0,0,1,.94.24V8.53a3.42,3.42,0,0,0-.46-.26,4.56,4.56,0,0,0-.52-.18,3.21,3.21,0,0,0-.52-.11l-.5,0A2.58,2.58,0,0,0,320,8a1.57,1.57,0,0,0-.45.17.81.81,0,0,0-.28.27.59.59,0,0,0-.1.34.68.68,0,0,0,.11.38,1.38,1.38,0,0,0,.32.32,2.87,2.87,0,0,0,.5.29,7,7,0,0,0,.66.3,7,7,0,0,1,.91.45,3,3,0,0,1,.68.53,2.08,2.08,0,0,1,.44.69,2.4,2.4,0,0,1,.16.89,2.37,2.37,0,0,1-.27,1.18,2.08,2.08,0,0,1-.73.77,3.07,3.07,0,0,1-1.06.43,6.53,6.53,0,0,1-1.28.13,6.86,6.86,0,0,1-1.31-.12A4.36,4.36,0,0,1,317.19,14.68Z" fill="#1e1e1e"/>
      <path d="M327.57,14.93a2.75,2.75,0,0,1-1.23.22c-1.31,0-2-.68-2-2V10.37h-1V9h1V7.71l1.84-.53V9h1.35v1.37h-1.35v2.42c0,.63.25.94.75.94a1.27,1.27,0,0,0,.6-.17Z" fill="#1e1e1e"/>
      <path d="M334,12.53h-3.92c.07.87.61,1.3,1.65,1.3a3.23,3.23,0,0,0,1.74-.46V14.7a4.53,4.53,0,0,1-2.16.45,3,3,0,0,1-2.26-.81,3.08,3.08,0,0,1-.8-2.25,3.19,3.19,0,0,1,.87-2.36,2.85,2.85,0,0,1,2.13-.88,2.63,2.63,0,0,1,2,.78,3,3,0,0,1,.72,2.12Zm-1.72-1.14c0-.86-.35-1.29-1-1.29a1,1,0,0,0-.77.37,1.68,1.68,0,0,0-.4.92Z" fill="#1e1e1e"/>
      <path d="M337.05,14.3h0v3.46h-1.85V9H337v.9h0a2.36,2.36,0,0,1,3.73-.25,3.45,3.45,0,0,1,.64,2.18,3.73,3.73,0,0,1-.74,2.41,2.46,2.46,0,0,1-2,.91A1.86,1.86,0,0,1,337.05,14.3ZM337,11.84v.48a1.54,1.54,0,0,0,.33,1,1.06,1.06,0,0,0,.86.39,1.12,1.12,0,0,0,1-.49,2.4,2.4,0,0,0,.35-1.39c0-1-.41-1.58-1.23-1.58a1.18,1.18,0,0,0-.93.43A1.73,1.73,0,0,0,337,11.84Z" fill="#1e1e1e"/>
      <path d="M342.32,14.84v-1.5a3.66,3.66,0,0,0,.91.41,3,3,0,0,0,.86.14,1.79,1.79,0,0,0,.77-.14.43.43,0,0,0,.29-.41.39.39,0,0,0-.13-.29,1.33,1.33,0,0,0-.33-.21,4.53,4.53,0,0,0-.44-.15l-.47-.16a4.68,4.68,0,0,1-.63-.29,2.45,2.45,0,0,1-.46-.36,1.64,1.64,0,0,1-.28-.48,2,2,0,0,1-.09-.64,1.6,1.6,0,0,1,.22-.86,1.75,1.75,0,0,1,.58-.6A2.85,2.85,0,0,1,344,9a4.55,4.55,0,0,1,1.79,0,7.78,7.78,0,0,1,.81.17v1.43a2.87,2.87,0,0,0-.75-.3,3.13,3.13,0,0,0-.79-.11,1.22,1.22,0,0,0-.34,0,1.1,1.1,0,0,0-.29.09.49.49,0,0,0-.19.16.34.34,0,0,0-.07.22.4.4,0,0,0,.1.28,1,1,0,0,0,.28.2,1.88,1.88,0,0,0,.38.15l.41.14a6.16,6.16,0,0,1,.67.28,1.94,1.94,0,0,1,.51.36,1.58,1.58,0,0,1,.33.48,1.82,1.82,0,0,1,.11.66,1.67,1.67,0,0,1-.23.91,1.87,1.87,0,0,1-.61.61,2.81,2.81,0,0,1-.89.35,5,5,0,0,1-1,.11A5.41,5.41,0,0,1,342.32,14.84Z" fill="#1e1e1e"/>
    </g>
    <g>
      <path d="M219.57,108.5a6.41,6.41,0,0,1-.12,1.23,5.74,5.74,0,0,1-.39,1.17,4.4,4.4,0,0,1-.67,1,4.15,4.15,0,0,1-1,.82,4.93,4.93,0,0,1-1.3.54,6.43,6.43,0,0,1-1.65.2H211.8l1.79-8.4h2.33a4.46,4.46,0,0,1,1.5.23,3.2,3.2,0,0,1,1.15.67,3,3,0,0,1,.74,1.07A3.58,3.58,0,0,1,219.57,108.5Zm-1,.07a2.5,2.5,0,0,0-.72-1.91,3,3,0,0,0-2.14-.67H214.4L213,112.61h1.57a4.38,4.38,0,0,0,1.73-.32,3.53,3.53,0,0,0,1.25-.86,3.64,3.64,0,0,0,.76-1.29A4.74,4.74,0,0,0,218.54,108.57Z" fill="#1e1e1e"/>
      <path d="M225.59,108.91a1.79,1.79,0,0,1-.21.86,1.75,1.75,0,0,1-.7.67,4.25,4.25,0,0,1-1.28.43,11.77,11.77,0,0,1-2,.16.57.57,0,0,0,0,.13v.12a2,2,0,0,0,.09.6,1.18,1.18,0,0,0,.27.49,1.25,1.25,0,0,0,.47.33,1.67,1.67,0,0,0,.69.13,3.05,3.05,0,0,0,.89-.16,3.7,3.7,0,0,0,.92-.44l-.18,1a4.68,4.68,0,0,1-.77.33,3.38,3.38,0,0,1-1,.14,2.63,2.63,0,0,1-1.12-.21,2,2,0,0,1-1.13-1.34,3.24,3.24,0,0,1-.13-.94,4.17,4.17,0,0,1,.12-1,4.56,4.56,0,0,1,.33-.92,4,4,0,0,1,.51-.77,3.29,3.29,0,0,1,1.45-1,2.72,2.72,0,0,1,.86-.14,2.22,2.22,0,0,1,.81.13,1.73,1.73,0,0,1,.6.33,1.77,1.77,0,0,1,.36.5A1.53,1.53,0,0,1,225.59,108.91Zm-1,0a.68.68,0,0,0-.27-.57,1.15,1.15,0,0,0-.73-.21,1.73,1.73,0,0,0-.69.16,2.26,2.26,0,0,0-.61.43,2.71,2.71,0,0,0-.49.65,3.14,3.14,0,0,0-.3.81,9.79,9.79,0,0,0,1.43-.08,3.7,3.7,0,0,0,1-.25,1.23,1.23,0,0,0,.54-.4A.94.94,0,0,0,224.61,109Z" fill="#1e1e1e"/>
      <path d="M231.8,109.6a4.73,4.73,0,0,1-.09.9,4.37,4.37,0,0,1-.29.91,4.84,4.84,0,0,1-.48.86,3.53,3.53,0,0,1-.68.71,3.13,3.13,0,0,1-.9.49,3.17,3.17,0,0,1-1.1.18,3.14,3.14,0,0,1-.68-.07,3.89,3.89,0,0,1-.59-.15l-.6,2.85h-1l1.47-6.93c0-.13.05-.28.07-.46a4.52,4.52,0,0,0,.06-.53c0-.17,0-.34,0-.5s0-.27,0-.36h1c0,.07,0,.16,0,.27s0,.23,0,.35,0,.25-.05.36,0,.21,0,.28h0a3.19,3.19,0,0,1,.94-1.06,2,2,0,0,1,1.14-.35,1.86,1.86,0,0,1,.73.14,1.48,1.48,0,0,1,.56.43,1.78,1.78,0,0,1,.36.7A3.6,3.6,0,0,1,231.8,109.6Zm-1,0a2.74,2.74,0,0,0-.06-.59,1.47,1.47,0,0,0-.18-.46.94.94,0,0,0-.33-.3,1,1,0,0,0-.5-.12,1.4,1.4,0,0,0-.57.13,2,2,0,0,0-.5.34,2.48,2.48,0,0,0-.41.49,4.08,4.08,0,0,0-.34.57,5.8,5.8,0,0,0-.4,1.17l-.37,1.74.25.08.31.07.32,0,.31,0a2,2,0,0,0,.74-.14,2.24,2.24,0,0,0,.62-.36,2.83,2.83,0,0,0,.48-.55,3.87,3.87,0,0,0,.35-.67,4.38,4.38,0,0,0,.21-.73A4.74,4.74,0,0,0,230.82,109.64Z" fill="#1e1e1e"/>
      <path d="M237.84,108.91a1.79,1.79,0,0,1-.21.86,1.81,1.81,0,0,1-.7.67,4.25,4.25,0,0,1-1.28.43,11.77,11.77,0,0,1-2,.16.57.57,0,0,0,0,.13v.12a2.35,2.35,0,0,0,.08.6,1.33,1.33,0,0,0,.28.49,1.25,1.25,0,0,0,.47.33,1.6,1.6,0,0,0,.69.13,3.11,3.11,0,0,0,.89-.16,3.7,3.7,0,0,0,.92-.44l-.18,1a4.68,4.68,0,0,1-.77.33,3.45,3.45,0,0,1-1,.14,2.62,2.62,0,0,1-1.11-.21,2,2,0,0,1-.73-.55,2.12,2.12,0,0,1-.41-.79,3.61,3.61,0,0,1-.12-.94,4.17,4.17,0,0,1,.12-1,4.56,4.56,0,0,1,.33-.92,4,4,0,0,1,.51-.77,3.33,3.33,0,0,1,.66-.59,3.51,3.51,0,0,1,.78-.38,2.83,2.83,0,0,1,.87-.14,2.26,2.26,0,0,1,.81.13,1.6,1.6,0,0,1,.59.33,1.45,1.45,0,0,1,.36.5A1.38,1.38,0,0,1,237.84,108.91Zm-1,0a.68.68,0,0,0-.27-.57,1.17,1.17,0,0,0-.73-.21,1.66,1.66,0,0,0-.69.16,2.12,2.12,0,0,0-.61.43,2.71,2.71,0,0,0-.49.65,2.81,2.81,0,0,0-.3.81,9.88,9.88,0,0,0,1.43-.08,3.81,3.81,0,0,0,1-.25,1.23,1.23,0,0,0,.54-.4A.94.94,0,0,0,236.86,109Z" fill="#1e1e1e"/>
      <path d="M244.1,109c0,.06,0,.14,0,.24s0,.21-.05.33-.05.23-.07.35,0,.21-.06.29l-.7,3.29h-1L243,110c0-.06,0-.13,0-.21a2.17,2.17,0,0,0,0-.25c0-.08,0-.16,0-.22a1.16,1.16,0,0,0,0-.17,1.08,1.08,0,0,0-.21-.7.79.79,0,0,0-.64-.26,1.49,1.49,0,0,0-.76.23,3.23,3.23,0,0,0-.71.58,3.91,3.91,0,0,0-.55.78,2.63,2.63,0,0,0-.31.81l-.63,2.93h-1l.92-4.28c0-.16.06-.31.1-.48s.06-.33.08-.48.05-.3.07-.43,0-.24.05-.33h.94c0,.15-.05.31-.07.48s-.05.32-.07.46-.05.32-.08.48h0a4.64,4.64,0,0,1,.46-.61,3.2,3.2,0,0,1,.54-.5,2.59,2.59,0,0,1,.61-.33,1.8,1.8,0,0,1,.69-.13,1.76,1.76,0,0,1,.68.12,1.39,1.39,0,0,1,.48.34,1.38,1.38,0,0,1,.28.52A2.41,2.41,0,0,1,244.1,109Z" fill="#1e1e1e"/>
      <path d="M249.88,111.65c0,.13,0,.28-.08.46s-.05.35-.07.53,0,.34,0,.5,0,.27,0,.36h-1c0-.07,0-.16,0-.27s0-.22,0-.35,0-.23,0-.34,0-.21,0-.28h0a5.19,5.19,0,0,1-.42.6,2.33,2.33,0,0,1-.45.44,1.83,1.83,0,0,1-.5.26,1.76,1.76,0,0,1-.58.09,1.7,1.7,0,0,1-.73-.15,1.48,1.48,0,0,1-.56-.43,1.86,1.86,0,0,1-.36-.7,3.52,3.52,0,0,1-.12-1,4.73,4.73,0,0,1,.09-.9,4.42,4.42,0,0,1,.28-.92,4.84,4.84,0,0,1,.48-.86,3.57,3.57,0,0,1,.7-.7,3.17,3.17,0,0,1,.93-.49,3.49,3.49,0,0,1,1.16-.18,3.86,3.86,0,0,1,.61.05l.49.09.61-2.87h1Zm-.25-3.34-.47-.1a4.07,4.07,0,0,0-.52,0,2.49,2.49,0,0,0-.9.16,2.41,2.41,0,0,0-1.16,1,4,4,0,0,0-.32.7,4.34,4.34,0,0,0-.17.69,5,5,0,0,0-.05.62,2.77,2.77,0,0,0,.06.6,1.47,1.47,0,0,0,.18.46.8.8,0,0,0,.33.3,1,1,0,0,0,.48.11,1.13,1.13,0,0,0,.54-.13,1.87,1.87,0,0,0,.48-.33,2.88,2.88,0,0,0,.41-.49,4.08,4.08,0,0,0,.32-.58,5.5,5.5,0,0,0,.25-.63,5.83,5.83,0,0,0,.17-.62Z" fill="#1e1e1e"/>
      <path d="M255.17,108.55a2.46,2.46,0,0,0-.59-.27,2.16,2.16,0,0,0-.65-.11,1.3,1.3,0,0,0-.86.26.81.81,0,0,0-.3.66.92.92,0,0,0,.22.58,1.35,1.35,0,0,0,.28.24l.38.26a3,3,0,0,1,.95.78,1.53,1.53,0,0,1,.29.9,2,2,0,0,1-.13.67,1.41,1.41,0,0,1-.4.57,1.94,1.94,0,0,1-.71.4,3.05,3.05,0,0,1-1.07.16l-.38,0a3.21,3.21,0,0,1-.43-.07l-.41-.11a2.16,2.16,0,0,1-.34-.16l.19-.91a2.52,2.52,0,0,0,.29.16,2.15,2.15,0,0,0,.38.15l.42.11a3.27,3.27,0,0,0,.44,0,1.33,1.33,0,0,0,.87-.24.76.76,0,0,0,.29-.65.86.86,0,0,0,0-.28.73.73,0,0,0-.16-.26,1.94,1.94,0,0,0-.29-.26,4.79,4.79,0,0,0-.46-.29,3.11,3.11,0,0,1-.88-.76,1.5,1.5,0,0,1-.28-.9,1.74,1.74,0,0,1,.53-1.28,1.93,1.93,0,0,1,.67-.4,2.52,2.52,0,0,1,.95-.16,3.44,3.44,0,0,1,.8.09,2.53,2.53,0,0,1,.64.21Z" fill="#1e1e1e"/>
      <path d="M217.33,120.72a5,5,0,0,1-.23,1.51,3.62,3.62,0,0,1-.65,1.25,3,3,0,0,1-1,.85,2.91,2.91,0,0,1-1.37.32,2.43,2.43,0,0,1-.92-.17,1.92,1.92,0,0,1-.71-.47,2,2,0,0,1-.44-.74,2.78,2.78,0,0,1-.16-1,4.78,4.78,0,0,1,.24-1.54,3.84,3.84,0,0,1,.67-1.25,3,3,0,0,1,1-.83,2.8,2.8,0,0,1,1.33-.31,2.47,2.47,0,0,1,.92.17,1.88,1.88,0,0,1,.7.47,2.06,2.06,0,0,1,.46.74A2.78,2.78,0,0,1,217.33,120.72Zm-1,0a2.32,2.32,0,0,0-.1-.68,1.48,1.48,0,0,0-.26-.5,1.24,1.24,0,0,0-.41-.31,1.33,1.33,0,0,0-.54-.11,1.64,1.64,0,0,0-.93.27,2.33,2.33,0,0,0-.71.69,3.49,3.49,0,0,0-.44,1,4.26,4.26,0,0,0-.15,1.12,2.29,2.29,0,0,0,.09.66,1.52,1.52,0,0,0,.25.51,1.24,1.24,0,0,0,.41.31,1.26,1.26,0,0,0,.55.12,1.77,1.77,0,0,0,.94-.26,2.34,2.34,0,0,0,.7-.7,3.25,3.25,0,0,0,.44-1A4.21,4.21,0,0,0,216.35,120.77Z" fill="#1e1e1e"/>
      <path d="M223.82,120c0,.06,0,.14,0,.24s0,.21-.05.33,0,.23-.07.35,0,.21-.06.29l-.69,3.29h-1l.73-3.52a1.08,1.08,0,0,0,0-.21,2.17,2.17,0,0,0,0-.25c0-.08,0-.16,0-.22a1.16,1.16,0,0,0,0-.17,1.08,1.08,0,0,0-.21-.7.78.78,0,0,0-.64-.26,1.49,1.49,0,0,0-.76.23,3.23,3.23,0,0,0-.71.58,3.91,3.91,0,0,0-.55.78,2.92,2.92,0,0,0-.31.81L219,124.5h-1l.92-4.28c0-.16.06-.31.1-.48s.06-.33.08-.48.05-.3.07-.43,0-.24.05-.33h.94c0,.15,0,.31-.07.48s-.05.32-.07.46-.05.32-.08.48h0a3.84,3.84,0,0,1,.45-.61,4.21,4.21,0,0,1,.54-.5,2.59,2.59,0,0,1,.61-.33,1.8,1.8,0,0,1,.69-.13,1.76,1.76,0,0,1,.68.12,1.39,1.39,0,0,1,.48.34,1.38,1.38,0,0,1,.28.52A2.41,2.41,0,0,1,223.82,120Z" fill="#1e1e1e"/>
    </g>
    <g>
      <path d="M417.47,57.71v3.17h-1v-8.4h2.3a3,3,0,0,1,2.09.66,2.31,2.31,0,0,1,.74,1.85,2.54,2.54,0,0,1-.82,2,3.18,3.18,0,0,1-2.22.76Zm0-4.34v3.45h1a2.33,2.33,0,0,0,1.56-.47,1.67,1.67,0,0,0,.53-1.31c0-1.11-.65-1.67-2-1.67Z" fill="#1e1e1e"/>
      <path d="M427.82,60.88h-1v-1h0A2,2,0,0,1,425,61c-1.43,0-2.14-.85-2.14-2.55V54.88h1v3.44c0,1.26.49,1.89,1.46,1.89a1.46,1.46,0,0,0,1.15-.51,2,2,0,0,0,.46-1.36V54.88h1Z" fill="#1e1e1e"/>
      <path d="M430.62,60h0v.86h-1V52h1v3.94h0a2.26,2.26,0,0,1,2.07-1.2,2.19,2.19,0,0,1,1.81.81,3.28,3.28,0,0,1,.66,2.16,3.73,3.73,0,0,1-.74,2.41,2.44,2.44,0,0,1-2,.9A2,2,0,0,1,430.62,60Zm0-2.42v.83a1.81,1.81,0,0,0,.48,1.27,1.75,1.75,0,0,0,2.6-.15,3.09,3.09,0,0,0,.49-1.86,2.41,2.41,0,0,0-.46-1.57,1.54,1.54,0,0,0-1.26-.57,1.72,1.72,0,0,0-1.34.58A2.16,2.16,0,0,0,430.6,57.6Z" fill="#1e1e1e"/>
      <path d="M437.61,60.88h-1V52h1Z" fill="#1e1e1e"/>
      <path d="M439.92,53.36a.6.6,0,0,1-.44-.18.57.57,0,0,1-.18-.44.61.61,0,0,1,.18-.45.6.6,0,0,1,.44-.18.62.62,0,0,1,.63.63.6.6,0,0,1-.18.44A.61.61,0,0,1,439.92,53.36Zm.47,7.52h-1v-6h1Z" fill="#1e1e1e"/>
      <path d="M441.87,60.67v-1a2.82,2.82,0,0,0,1.73.58q1.26,0,1.26-.84a.78.78,0,0,0-.1-.41,1,1,0,0,0-.3-.29,1.59,1.59,0,0,0-.43-.23l-.54-.22a5.79,5.79,0,0,1-.7-.32,2,2,0,0,1-.5-.36,1.29,1.29,0,0,1-.31-.46,1.79,1.79,0,0,1-.1-.6,1.45,1.45,0,0,1,.2-.75,1.67,1.67,0,0,1,.51-.55,2.77,2.77,0,0,1,.74-.33,3.56,3.56,0,0,1,2.24.16v1a2.78,2.78,0,0,0-1.52-.43,1.88,1.88,0,0,0-.49.06,1.16,1.16,0,0,0-.37.18.85.85,0,0,0-.24.26.68.68,0,0,0-.08.34.82.82,0,0,0,.08.4.94.94,0,0,0,.25.28,2.11,2.11,0,0,0,.4.22l.53.22a6.21,6.21,0,0,1,.72.31,2.82,2.82,0,0,1,.54.36,1.57,1.57,0,0,1,.34.47,1.54,1.54,0,0,1,.12.63,1.5,1.5,0,0,1-.2.77,1.7,1.7,0,0,1-.52.55,2.49,2.49,0,0,1-.76.32,3.68,3.68,0,0,1-.89.1A3.51,3.51,0,0,1,441.87,60.67Z" fill="#1e1e1e"/>
      <path d="M452.2,60.88h-1V57.43c0-1.25-.47-1.88-1.4-1.88a1.51,1.51,0,0,0-1.18.54,2,2,0,0,0-.48,1.39v3.4h-1V52h1v3.88h0a2.18,2.18,0,0,1,2-1.14c1.35,0,2,.82,2,2.45Z" fill="#1e1e1e"/>
      <path d="M458.28,60h0v.86h-1V52h1v3.94h0a2.26,2.26,0,0,1,2.07-1.2,2.19,2.19,0,0,1,1.81.81,3.28,3.28,0,0,1,.66,2.16,3.73,3.73,0,0,1-.74,2.41,2.42,2.42,0,0,1-2,.9A2,2,0,0,1,458.28,60Zm0-2.42v.83a1.81,1.81,0,0,0,.48,1.27,1.75,1.75,0,0,0,2.6-.15,3.09,3.09,0,0,0,.49-1.86,2.41,2.41,0,0,0-.46-1.57,1.54,1.54,0,0,0-1.26-.57,1.72,1.72,0,0,0-1.34.58A2.16,2.16,0,0,0,458.26,57.6Z" fill="#1e1e1e"/>
      <path d="M469.18,60.88h-1v-1h0A2,2,0,0,1,466.34,61c-1.43,0-2.14-.85-2.14-2.55V54.88h.95v3.44c0,1.26.49,1.89,1.45,1.89a1.48,1.48,0,0,0,1.16-.51,2,2,0,0,0,.46-1.36V54.88h1Z" fill="#1e1e1e"/>
      <path d="M471.49,53.36a.6.6,0,0,1-.44-.18.57.57,0,0,1-.18-.44.61.61,0,0,1,.18-.45.6.6,0,0,1,.44-.18.63.63,0,0,1,.45.18.61.61,0,0,1,.18.45.6.6,0,0,1-.18.44A.63.63,0,0,1,471.49,53.36Zm.47,7.52h-1v-6h1Z" fill="#1e1e1e"/>
      <path d="M474.75,60.88h-1V52h1Z" fill="#1e1e1e"/>
      <path d="M481.78,60.88h-1v-1h0A2.2,2.2,0,0,1,478.73,61a2.25,2.25,0,0,1-1.81-.8,3.33,3.33,0,0,1-.68-2.2,3.59,3.59,0,0,1,.75-2.38,2.48,2.48,0,0,1,2-.9,1.93,1.93,0,0,1,1.8,1h0V52h1Zm-1-2.71v-.88a1.74,1.74,0,0,0-.48-1.24,1.61,1.61,0,0,0-1.21-.5,1.68,1.68,0,0,0-1.39.65,2.85,2.85,0,0,0-.5,1.78,2.53,2.53,0,0,0,.48,1.63,1.59,1.59,0,0,0,1.3.6,1.61,1.61,0,0,0,1.3-.58A2.11,2.11,0,0,0,480.81,58.17Z" fill="#1e1e1e"/>
      <path d="M491.3,60.88h-1V60h0A2,2,0,0,1,488.47,61a2,2,0,0,1-1.4-.47,1.65,1.65,0,0,1-.51-1.26c0-1.12.66-1.77,2-2l1.8-.25q0-1.53-1.23-1.53a3,3,0,0,0-2,.74v-1a3.76,3.76,0,0,1,2-.56c1.41,0,2.11.75,2.11,2.24Zm-1-3-1.45.2a2.25,2.25,0,0,0-1,.33,1,1,0,0,0-.34.84.92.92,0,0,0,.31.72,1.25,1.25,0,0,0,.84.27,1.53,1.53,0,0,0,1.18-.5,1.76,1.76,0,0,0,.46-1.26Z" fill="#1e1e1e"/>
      <path d="M496.18,55.86a1.2,1.2,0,0,0-.73-.2,1.25,1.25,0,0,0-1,.58,2.67,2.67,0,0,0-.41,1.58v3.06h-1v-6h1v1.24h0a2.17,2.17,0,0,1,.63-1,1.44,1.44,0,0,1,.94-.35,1.52,1.52,0,0,1,.58.08Z" fill="#1e1e1e"/>
      <path d="M500.4,60.82a1.82,1.82,0,0,1-.9.19c-1.05,0-1.57-.58-1.57-1.76V55.7h-1v-.82h1V53.42l1-.31v1.77h1.51v.82h-1.51v3.38a1.41,1.41,0,0,0,.2.87.82.82,0,0,0,.68.25,1,1,0,0,0,.63-.2Z" fill="#1e1e1e"/>
      <path d="M502.08,53.36a.6.6,0,0,1-.44-.18.57.57,0,0,1-.18-.44.61.61,0,0,1,.18-.45.6.6,0,0,1,.44-.18.61.61,0,0,1,.45.18.62.62,0,0,1,0,.89A.61.61,0,0,1,502.08,53.36Zm.47,7.52h-1v-6h1Z" fill="#1e1e1e"/>
      <path d="M507.38,52.84a1.32,1.32,0,0,0-.64-.15c-.67,0-1,.42-1,1.27v.92h1.4v.82h-1.4v5.18h-1V55.7h-1v-.82h1v-1a2,2,0,0,1,.55-1.49,1.81,1.81,0,0,1,1.36-.55,1.84,1.84,0,0,1,.69.11Z" fill="#1e1e1e"/>
      <path d="M512.45,60.88h-1V60h0A2,2,0,0,1,509.62,61a2,2,0,0,1-1.41-.47,1.64,1.64,0,0,1-.5-1.26c0-1.12.66-1.77,2-2l1.79-.25q0-1.53-1.23-1.53a3,3,0,0,0-2,.74v-1a3.76,3.76,0,0,1,2-.56c1.41,0,2.12.75,2.12,2.24Zm-1-3-1.44.2a2.3,2.3,0,0,0-1,.33,1,1,0,0,0-.34.84.92.92,0,0,0,.31.72,1.25,1.25,0,0,0,.84.27,1.53,1.53,0,0,0,1.18-.5,1.76,1.76,0,0,0,.46-1.26Z" fill="#1e1e1e"/>
      <path d="M518.32,60.61a3.19,3.19,0,0,1-1.64.41,2.71,2.71,0,0,1-2.07-.83,3,3,0,0,1-.79-2.17,3.32,3.32,0,0,1,.85-2.38,3,3,0,0,1,2.27-.9,3.06,3.06,0,0,1,1.39.3v1a2.45,2.45,0,0,0-1.43-.47,2,2,0,0,0-1.51.66,2.51,2.51,0,0,0-.58,1.73,2.4,2.4,0,0,0,.55,1.67,1.92,1.92,0,0,0,1.49.6,2.38,2.38,0,0,0,1.47-.52Z" fill="#1e1e1e"/>
      <path d="M522.76,60.82a1.82,1.82,0,0,1-.9.19c-1.05,0-1.58-.58-1.58-1.76V55.7h-1v-.82h1V53.42l1-.31v1.77h1.52v.82h-1.52v3.38a1.41,1.41,0,0,0,.21.87.82.82,0,0,0,.68.25,1,1,0,0,0,.63-.2Z" fill="#1e1e1e"/>
    </g>
    <g>
      <path d="M423,82.23H421.9L421,79.88h-3.56l-.84,2.35h-1.1l3.23-8.4h1ZM420.69,79l-1.32-3.58a3.14,3.14,0,0,1-.13-.56h0a3,3,0,0,1-.14.56L417.77,79Z" fill="#1e1e1e"/>
      <path d="M428.66,76.51l-3.55,4.9h3.52v.82H423.7v-.29l3.55-4.89H424v-.82h4.63Z" fill="#1e1e1e"/>
      <path d="M434.76,82.23h-1v-1h0a2,2,0,0,1-1.85,1.09c-1.43,0-2.14-.85-2.14-2.55V76.23h1v3.44c0,1.26.49,1.9,1.45,1.9a1.49,1.49,0,0,0,1.16-.52,2,2,0,0,0,.46-1.36V76.23h1Z" fill="#1e1e1e"/>
      <path d="M439.7,77.21A1.18,1.18,0,0,0,439,77a1.22,1.22,0,0,0-1,.58,2.68,2.68,0,0,0-.42,1.59v3h-1v-6h1v1.24h0a2.08,2.08,0,0,1,.62-1,1.49,1.49,0,0,1,.95-.35,1.65,1.65,0,0,1,.57.08Z" fill="#1e1e1e"/>
      <path d="M445.58,79.47h-4.24a2.28,2.28,0,0,0,.54,1.55,1.89,1.89,0,0,0,1.42.55,3,3,0,0,0,1.86-.67v.9a3.47,3.47,0,0,1-2.09.57,2.56,2.56,0,0,1-2-.81,3.37,3.37,0,0,1-.72-2.3,3.25,3.25,0,0,1,.79-2.28,2.55,2.55,0,0,1,2-.89,2.29,2.29,0,0,1,1.83.76,3.19,3.19,0,0,1,.64,2.12Zm-1-.81a2,2,0,0,0-.41-1.3,1.38,1.38,0,0,0-1.09-.46,1.54,1.54,0,0,0-1.16.49,2.21,2.21,0,0,0-.58,1.27Z" fill="#1e1e1e"/>
      <path d="M457,82.23h-1.09L455,79.88h-3.56l-.84,2.35h-1.09l3.22-8.4h1ZM454.65,79l-1.32-3.58a4.39,4.39,0,0,1-.13-.56h0a3.13,3.13,0,0,1-.13.56L451.74,79Z" fill="#1e1e1e"/>
      <path d="M459,81.37h0V85h-1V76.23h1v1.06h0a2.26,2.26,0,0,1,2.07-1.2,2.18,2.18,0,0,1,1.81.81,3.31,3.31,0,0,1,.65,2.16,3.71,3.71,0,0,1-.73,2.41,2.45,2.45,0,0,1-2,.9A2,2,0,0,1,459,81.37ZM459,79v.83a1.82,1.82,0,0,0,.49,1.27,1.72,1.72,0,0,0,2.59-.15,3.09,3.09,0,0,0,.5-1.86,2.47,2.47,0,0,0-.46-1.57,1.54,1.54,0,0,0-1.26-.57,1.73,1.73,0,0,0-1.35.58A2.16,2.16,0,0,0,459,79Z" fill="#1e1e1e"/>
      <path d="M466,81.37h0V85h-1V76.23h1v1.06h0a2.26,2.26,0,0,1,2.07-1.2,2.18,2.18,0,0,1,1.81.81,3.31,3.31,0,0,1,.65,2.16,3.71,3.71,0,0,1-.73,2.41,2.45,2.45,0,0,1-2,.9A2,2,0,0,1,466,81.37ZM466,79v.83a1.82,1.82,0,0,0,.49,1.27,1.72,1.72,0,0,0,2.59-.15,3.09,3.09,0,0,0,.5-1.86,2.47,2.47,0,0,0-.46-1.57,1.54,1.54,0,0,0-1.26-.57,1.73,1.73,0,0,0-1.35.58A2.16,2.16,0,0,0,466,79Z" fill="#1e1e1e"/>
      <path d="M475.13,81.89V80.73a1.91,1.91,0,0,0,.48.32,5.19,5.19,0,0,0,.59.24c.2.06.41.11.61.15a4.13,4.13,0,0,0,.58,0,2.18,2.18,0,0,0,1.35-.34,1.14,1.14,0,0,0,.45-1,1.15,1.15,0,0,0-.15-.59,1.6,1.6,0,0,0-.41-.46,4.43,4.43,0,0,0-.62-.4l-.78-.4c-.29-.15-.57-.3-.82-.45a3.46,3.46,0,0,1-.66-.5,2.05,2.05,0,0,1-.44-.63,1.86,1.86,0,0,1-.17-.81,1.88,1.88,0,0,1,.26-1,1.93,1.93,0,0,1,.66-.7,2.8,2.8,0,0,1,.93-.41,4.3,4.3,0,0,1,1.07-.14,4.08,4.08,0,0,1,1.81.3V75.1a3.22,3.22,0,0,0-1.91-.52,2.79,2.79,0,0,0-.64.07,1.75,1.75,0,0,0-.58.22,1.38,1.38,0,0,0-.41.39,1.1,1.1,0,0,0-.15.59,1.18,1.18,0,0,0,.12.55,1.28,1.28,0,0,0,.35.43,3.76,3.76,0,0,0,.57.38c.23.12.48.25.78.39s.58.31.85.47a4,4,0,0,1,.71.55,2.57,2.57,0,0,1,.49.66,2,2,0,0,1,.17.83,2.09,2.09,0,0,1-.24,1,1.85,1.85,0,0,1-.66.7,2.8,2.8,0,0,1-.95.39,5.22,5.22,0,0,1-1.13.12l-.5,0-.59-.09a4.45,4.45,0,0,1-.58-.15A1.64,1.64,0,0,1,475.13,81.89Z" fill="#1e1e1e"/>
      <path d="M486.56,79.47h-4.24a2.28,2.28,0,0,0,.54,1.55,1.89,1.89,0,0,0,1.42.55,3,3,0,0,0,1.86-.67v.9a3.47,3.47,0,0,1-2.09.57,2.53,2.53,0,0,1-2-.81,3.33,3.33,0,0,1-.73-2.3,3.25,3.25,0,0,1,.79-2.28,2.55,2.55,0,0,1,2-.89,2.29,2.29,0,0,1,1.83.76,3.19,3.19,0,0,1,.64,2.12Zm-1-.81a2,2,0,0,0-.4-1.3,1.4,1.4,0,0,0-1.1-.46,1.54,1.54,0,0,0-1.16.49,2.21,2.21,0,0,0-.58,1.27Z" fill="#1e1e1e"/>
      <path d="M491.14,77.21a1.16,1.16,0,0,0-.72-.2,1.24,1.24,0,0,0-1,.58,2.68,2.68,0,0,0-.42,1.59v3h-1v-6h1v1.24h0a2.09,2.09,0,0,1,.63-1,1.44,1.44,0,0,1,.94-.35,1.65,1.65,0,0,1,.57.08Z" fill="#1e1e1e"/>
      <path d="M497.38,76.23l-2.39,6h-.94l-2.27-6h1.05l1.52,4.36a3.75,3.75,0,0,1,.22.84h0a3.7,3.7,0,0,1,.19-.81l1.59-4.39Z" fill="#1e1e1e"/>
      <path d="M499,74.71a.6.6,0,0,1-.44-.18.57.57,0,0,1-.18-.44.61.61,0,0,1,.18-.45.6.6,0,0,1,.44-.18.64.64,0,0,1,.45.18.61.61,0,0,1,.18.45.6.6,0,0,1-.18.44A.64.64,0,0,1,499,74.71Zm.47,7.52h-1v-6h1Z" fill="#1e1e1e"/>
      <path d="M505.35,82a3.1,3.1,0,0,1-1.64.41,2.68,2.68,0,0,1-2.07-.83,3,3,0,0,1-.79-2.17A3.32,3.32,0,0,1,501.7,77a3,3,0,0,1,2.27-.9,3.06,3.06,0,0,1,1.39.3v1a2.45,2.45,0,0,0-1.43-.47,2,2,0,0,0-1.51.66,2.51,2.51,0,0,0-.58,1.73,2.39,2.39,0,0,0,.55,1.67,1.92,1.92,0,0,0,1.48.61,2.4,2.4,0,0,0,1.48-.53Z" fill="#1e1e1e"/>
      <path d="M511.51,79.47h-4.24a2.28,2.28,0,0,0,.54,1.55,1.87,1.87,0,0,0,1.42.55,3,3,0,0,0,1.86-.67v.9a3.5,3.5,0,0,1-2.09.57,2.56,2.56,0,0,1-2-.81,3.37,3.37,0,0,1-.73-2.3,3.25,3.25,0,0,1,.8-2.28,2.55,2.55,0,0,1,2-.89,2.27,2.27,0,0,1,1.82.76,3.2,3.2,0,0,1,.65,2.12Zm-1-.81a1.91,1.91,0,0,0-.4-1.3,1.39,1.39,0,0,0-1.1-.46,1.52,1.52,0,0,0-1.15.49,2.22,2.22,0,0,0-.59,1.27Z" fill="#1e1e1e"/>
      <path d="M421.48,96.63h-1v-1h0a2.2,2.2,0,0,1-2.06,1.16,2.24,2.24,0,0,1-1.81-.8,3.32,3.32,0,0,1-.67-2.2,3.59,3.59,0,0,1,.75-2.38,2.46,2.46,0,0,1,2-.9,1.92,1.92,0,0,1,1.8,1h0V87.75h1Zm-1-2.71V93a1.7,1.7,0,0,0-.48-1.23,1.61,1.61,0,0,0-1.22-.51,1.68,1.68,0,0,0-1.39.65,2.85,2.85,0,0,0-.5,1.78,2.58,2.58,0,0,0,.48,1.64,1.6,1.6,0,0,0,1.3.6,1.68,1.68,0,0,0,1.31-.58A2.2,2.2,0,0,0,420.52,93.92Z" fill="#1e1e1e"/>
      <path d="M428.19,93.87H424a2.23,2.23,0,0,0,.53,1.55,1.89,1.89,0,0,0,1.42.55,3,3,0,0,0,1.87-.67v.9a3.53,3.53,0,0,1-2.1.57,2.53,2.53,0,0,1-2-.81,3.33,3.33,0,0,1-.73-2.3,3.25,3.25,0,0,1,.79-2.28,2.55,2.55,0,0,1,2-.89,2.29,2.29,0,0,1,1.83.76,3.19,3.19,0,0,1,.64,2.12Zm-1-.81a2,2,0,0,0-.4-1.3,1.4,1.4,0,0,0-1.1-.46,1.54,1.54,0,0,0-1.16.49,2.21,2.21,0,0,0-.58,1.27Z" fill="#1e1e1e"/>
      <path d="M430.63,95.77h0v3.62h-1V90.63h1v1.06h0a2.26,2.26,0,0,1,2.07-1.2,2.18,2.18,0,0,1,1.81.81,3.31,3.31,0,0,1,.65,2.16,3.71,3.71,0,0,1-.73,2.41,2.44,2.44,0,0,1-2,.9A2,2,0,0,1,430.63,95.77Zm0-2.42v.83a1.81,1.81,0,0,0,.48,1.27,1.72,1.72,0,0,0,2.59-.15,3.09,3.09,0,0,0,.5-1.86,2.41,2.41,0,0,0-.46-1.57,1.54,1.54,0,0,0-1.26-.57,1.71,1.71,0,0,0-1.34.58A2.16,2.16,0,0,0,430.61,93.35Z" fill="#1e1e1e"/>
      <path d="M437.62,96.63h-1V87.75h1Z" fill="#1e1e1e"/>
      <path d="M442,96.77a2.79,2.79,0,0,1-2.12-.84,3.1,3.1,0,0,1-.79-2.23,3.26,3.26,0,0,1,.82-2.36,3,3,0,0,1,2.24-.85,2.69,2.69,0,0,1,2.09.83,3.27,3.27,0,0,1,.75,2.29,3.23,3.23,0,0,1-.81,2.3A2.82,2.82,0,0,1,442,96.77Zm.08-5.47a1.84,1.84,0,0,0-1.47.63,2.59,2.59,0,0,0-.54,1.74,2.41,2.41,0,0,0,.55,1.68,1.85,1.85,0,0,0,1.46.62,1.77,1.77,0,0,0,1.43-.61,2.62,2.62,0,0,0,.5-1.71,2.71,2.71,0,0,0-.5-1.74A1.74,1.74,0,0,0,442.09,91.3Z" fill="#1e1e1e"/>
      <path d="M451.18,90.63l-2.76,7c-.49,1.25-1.18,1.87-2.07,1.87a2.25,2.25,0,0,1-.63-.08v-.86a1.84,1.84,0,0,0,.57.11,1.18,1.18,0,0,0,1.09-.87l.48-1.14-2.34-6h1.06l1.63,4.62c0,.06.06.21.12.46h0c0-.1.06-.24.12-.45l1.71-4.63Z" fill="#1e1e1e"/>
    </g>
    <g>
      <path d="M396.2,143h-1v-8.4h1Z" fill="#1e1e1e"/>
      <path d="M403.13,143h-1v-3.42c0-1.28-.46-1.91-1.39-1.91a1.54,1.54,0,0,0-1.2.54,2,2,0,0,0-.47,1.37V143h-1v-6h1v1h0a2.15,2.15,0,0,1,2-1.14,1.83,1.83,0,0,1,1.51.64,2.79,2.79,0,0,1,.52,1.83Z" fill="#1e1e1e"/>
      <path d="M409.5,137l-2.39,6h-.94l-2.27-6H405l1.52,4.36a3.21,3.21,0,0,1,.21.84h0a3.94,3.94,0,0,1,.19-.82l1.59-4.38Z" fill="#1e1e1e"/>
      <path d="M412.89,143.14a2.79,2.79,0,0,1-2.13-.84,3.1,3.1,0,0,1-.79-2.23,3.24,3.24,0,0,1,.82-2.36,3,3,0,0,1,2.24-.85,2.66,2.66,0,0,1,2.09.83,3.77,3.77,0,0,1-.06,4.59A2.85,2.85,0,0,1,412.89,143.14Zm.07-5.47a1.84,1.84,0,0,0-1.47.63A2.59,2.59,0,0,0,411,140a2.41,2.41,0,0,0,.55,1.68,1.85,1.85,0,0,0,1.46.61,1.75,1.75,0,0,0,1.43-.6,3.23,3.23,0,0,0,0-3.45A1.73,1.73,0,0,0,413,137.67Z" fill="#1e1e1e"/>
      <path d="M422.34,143H421l-2.65-2.88h0V143h-1v-8.88h1v5.63h0l2.52-2.75h1.26l-2.78,2.89Z" fill="#1e1e1e"/>
      <path d="M427.85,140.24h-4.23a2.21,2.21,0,0,0,.54,1.55,1.85,1.85,0,0,0,1.41.54,2.94,2.94,0,0,0,1.87-.67v.91a3.52,3.52,0,0,1-2.09.57,2.52,2.52,0,0,1-2-.82,3.83,3.83,0,0,1,.06-4.58,2.55,2.55,0,0,1,2-.88,2.25,2.25,0,0,1,1.82.76,3.18,3.18,0,0,1,.64,2.12Zm-1-.81a2,2,0,0,0-.4-1.3,1.37,1.37,0,0,0-1.1-.46,1.59,1.59,0,0,0-1.16.48,2.24,2.24,0,0,0-.58,1.28Z" fill="#1e1e1e"/>
      <path d="M438.75,143h-1.18l-1.4-2.36c-.13-.21-.26-.4-.38-.56a1.85,1.85,0,0,0-.37-.37,1.36,1.36,0,0,0-.41-.22,1.9,1.9,0,0,0-.5-.06h-.8V143h-1v-8.4h2.51a3.31,3.31,0,0,1,1,.14,2.38,2.38,0,0,1,.81.41,2.16,2.16,0,0,1,.53.7,2.33,2.33,0,0,1,.19,1,2.28,2.28,0,0,1-.13.8,2.08,2.08,0,0,1-.37.65,2,2,0,0,1-.59.49,3,3,0,0,1-.77.32v0a1.88,1.88,0,0,1,.37.21,2.65,2.65,0,0,1,.29.29,2.75,2.75,0,0,1,.28.37l.31.48Zm-5-7.51v3H435a1.83,1.83,0,0,0,.68-.12,1.59,1.59,0,0,0,.55-.32,1.26,1.26,0,0,0,.35-.51,1.6,1.6,0,0,0,.13-.67,1.31,1.31,0,0,0-.43-1,1.85,1.85,0,0,0-1.27-.38Z" fill="#1e1e1e"/>
      <path d="M444.32,143h-4.45v-8.4h4.26v.89h-3.28v2.79h3v.89h-3v2.94h3.47Z" fill="#1e1e1e"/>
      <path d="M445.47,142.66V141.5a2.86,2.86,0,0,0,.48.32,3.8,3.8,0,0,0,.59.23,3.3,3.3,0,0,0,.62.15,3,3,0,0,0,.57.06,2.29,2.29,0,0,0,1.36-.34,1.15,1.15,0,0,0,.45-1,1.13,1.13,0,0,0-.15-.59,1.64,1.64,0,0,0-.42-.46,3.91,3.91,0,0,0-.62-.4l-.78-.4-.82-.45a3.85,3.85,0,0,1-.66-.51,2.06,2.06,0,0,1-.44-.62,1.91,1.91,0,0,1-.16-.82,1.93,1.93,0,0,1,.25-1,2.32,2.32,0,0,1,.66-.7,3.08,3.08,0,0,1,.94-.41,5.12,5.12,0,0,1,2.88.17v1.1a3.33,3.33,0,0,0-1.91-.51,2.88,2.88,0,0,0-.65.07,1.68,1.68,0,0,0-.57.21,1.31,1.31,0,0,0-.41.4,1,1,0,0,0-.16.58,1.22,1.22,0,0,0,.12.56,1.41,1.41,0,0,0,.35.43,3.75,3.75,0,0,0,.57.37l.78.4c.3.15.59.31.86.47a3.93,3.93,0,0,1,.7.54,2.27,2.27,0,0,1,.49.67,1.84,1.84,0,0,1,.18.83,2,2,0,0,1-.25,1.05,2,2,0,0,1-.65.7,3,3,0,0,1-.95.39,5.24,5.24,0,0,1-1.14.12l-.49,0a4.17,4.17,0,0,1-.6-.1,4.91,4.91,0,0,1-.58-.15A2,2,0,0,1,445.47,142.66Z" fill="#1e1e1e"/>
      <path d="M457.17,135.49h-2.42V143h-1v-7.51h-2.42v-.89h5.83Z" fill="#1e1e1e"/>
      <path d="M468.28,143h-1.09l-.89-2.36h-3.56L461.9,143h-1.09l3.22-8.4h1Zm-2.3-3.24-1.32-3.58a3.38,3.38,0,0,1-.13-.56h0a3.23,3.23,0,0,1-.14.56l-1.3,3.58Z" fill="#1e1e1e"/>
      <path d="M470.43,139.82V143h-1v-8.4h2.31a3.08,3.08,0,0,1,2.09.65,2.34,2.34,0,0,1,.74,1.86,2.54,2.54,0,0,1-.82,1.95,3.13,3.13,0,0,1-2.22.76Zm0-4.33v3.44h1a2.32,2.32,0,0,0,1.56-.46,1.67,1.67,0,0,0,.53-1.32c0-1.11-.65-1.66-2-1.66Z" fill="#1e1e1e"/>
      <path d="M476.91,143h-1v-8.4h1Z" fill="#1e1e1e"/>
    </g>
  </g>
</svg>
