<svg width="96" height="96" viewBox="0 0 96 96" fill="none" xmlns="http://www.w3.org/2000/svg">
<g id="DevOpsIconBoards96">
<g id="Group">
<mask id="mask0" mask-type="alpha" maskUnits="userSpaceOnUse" x="0" y="0" width="96" height="96">
<path id="Union" d="M4 0C1.79083 0 0 1.79102 0 4V68C0 70.209 1.79083 72 4 72H40.2836C42.2245 85.5693 53.8941 96 68 96C83.464 96 96 83.4639 96 68C96 60.3711 92.9487 53.4541 88 48.4043V4C88 1.79102 86.2092 0 84 0H4Z" fill="white"/>
</mask>
<g mask="url(#mask0)">
<path id="Rectangle" d="M0 4C0 1.79086 1.79086 0 4 0H84C86.2091 0 88 1.79086 88 4V68C88 70.2091 86.2091 72 84 72H4C1.79086 72 0 70.2091 0 68V4Z" fill="#008D75"/>
<g id="Ellipse" filter="url(#filter0_f)">
<circle cx="28" cy="28" r="28" transform="translate(40 40)" fill="#007D5F"/>
</g>
<circle id="Ellipse_2" cx="28" cy="28" r="28" transform="translate(40 40)" fill="#16C8AA"/>
<path id="Intersect" d="M48 8.4043V28C48 30.2091 46.2091 32 44 32H0.283569C0.0966797 30.6934 0 29.3584 0 28C0 12.5361 12.536 0 28 0C35.8348 0 42.9179 3.21777 48 8.4043Z" transform="translate(40 40)" fill="#00B294"/>
<g id="Union_2" transform="translate(8 8)">
<path d="M46 0H26V12H46V0Z" fill="#00B294"/>
<path d="M72 0H52V12H72V0Z" fill="#00B294"/>
<path d="M46 18H26V30H46V18Z" fill="#00B294"/>
<path d="M20 36H0V48H20V36Z" fill="#00B294"/>
<path d="M20 0H0V12H20V0Z" fill="#00B294"/>
</g>
<path id="Union_3" d="M20 0H0V12H20V0Z" transform="translate(34 8)" fill="#35D6BB"/>
<g id="Union_4" filter="url(#filter1_f)">
<path d="M20 0H0V12H20V0Z" transform="translate(8 26)" fill="#00654C"/>
</g>
<path id="Union_5" d="M20 0H0V12H20V0Z" transform="translate(8 26)" fill="#72F8E1"/>
<path id="Vector (Stroke)" fill-rule="evenodd" clip-rule="evenodd" d="M37.6569 5.65685L14.8284 28.4853L0 13.6569L5.65685 8L14.8284 17.1716L32 0L37.6569 5.65685Z" transform="translate(50.1714 54.1719)" fill="#C6FDF4"/>
<path id="Union_6" opacity="0.25" d="M4 0C1.79083 0 0 1.79102 0 4V68C0 70.209 1.79083 72 4 72H40.2836C42.2245 85.5693 53.8941 96 68 96C83.464 96 96 83.4639 96 68C96 60.3711 92.9487 53.4541 88 48.4043V4C88 1.79102 86.2092 0 84 0H4Z" fill="url(#paint0_linear)"/>
</g>
</g>
</g>
<defs>
<filter id="filter0_f" x="32" y="32" width="72" height="72" filterUnits="userSpaceOnUse" color-interpolation-filters="sRGB">
<feFlood flood-opacity="0" result="BackgroundImageFix"/>
<feBlend mode="normal" in="SourceGraphic" in2="BackgroundImageFix" result="shape"/>
<feGaussianBlur stdDeviation="4" result="effect1_foregroundBlur"/>
</filter>
<filter id="filter1_f" x="0" y="18" width="36" height="28" filterUnits="userSpaceOnUse" color-interpolation-filters="sRGB">
<feFlood flood-opacity="0" result="BackgroundImageFix"/>
<feBlend mode="normal" in="SourceGraphic" in2="BackgroundImageFix" result="shape"/>
<feGaussianBlur stdDeviation="4" result="effect1_foregroundBlur"/>
</filter>
<linearGradient id="paint0_linear" x2="1" gradientUnits="userSpaceOnUse" gradientTransform="translate(96) scale(96) rotate(90)">
<stop stop-color="white"/>
<stop offset="1" stop-color="white" stop-opacity="0"/>
</linearGradient>
</defs>
</svg>
