<svg width="40" height="40" viewBox="0 0 40 40" fill="none" xmlns="http://www.w3.org/2000/svg">
<g id="DevOpsIconOverview40" clip-path="url(#clip0)">
<g id="Group">
<mask id="mask0" mask-type="alpha" maskUnits="userSpaceOnUse" x="0" y="2" width="40" height="36">
<path id="Union" d="M36.6666 36C38.5076 36 40 34.5078 40 32.667L40 2C40 0.895508 39.1046 0 38 0H9C7.89543 0 7 0.895508 7 2V11H1.66666C0.746193 11 0 11.7461 0 12.667V32.667C0 34.5078 1.49239 36 3.33334 36H36.6666Z" transform="translate(0 2)" fill="white"/>
</mask>
<g mask="url(#mask0)">
<path id="Rectangle 2.1" d="M0 1.66667C0 0.746192 0.746192 0 1.66667 0H7V21.6667C7 23.5076 5.50762 25 3.66667 25H3.33333C1.49238 25 0 23.5076 0 21.6667V1.66667Z" transform="translate(0 13)" fill="#005BA4"/>
<g id="Subtract" filter="url(#filter0_f)">
<path d="M33 36.0005L-5.24521e-06 36.0004C1.84095 36.0004 3.33333 34.5079 3.33333 32.6671L3.33338 2C3.33338 0.895429 4.22881 0 5.33338 0H34.3334C35.438 0 36.3334 0.895432 36.3334 2L36.3333 32.6671C36.3333 34.5081 34.8409 36.0005 33 36.0005Z" transform="translate(3.66661 2)" fill="#023F9B"/>
</g>
<path id="Subtract_2" d="M33 36.0005L-5.24521e-06 36.0004C1.84095 36.0004 3.33333 34.5079 3.33333 32.6671L3.33338 2C3.33338 0.895429 4.22881 0 5.33338 0H34.3334C35.438 0 36.3334 0.895432 36.3334 2L36.3333 32.6671C36.3333 34.5081 34.8409 36.0005 33 36.0005Z" transform="translate(3.66661 2)" fill="#0078D7"/>
<path id="Subtract_3" d="M3.33333 21.6667C3.33333 23.5075 1.84095 25 -5.00679e-06 25H32.6667C30.8257 25 29.3333 23.5075 29.3333 21.6667V1.66667C29.3333 0.625 28.5871 0 27.6667 0H3.33333V21.6667Z" transform="translate(3.66667 13)" fill="#006CC9"/>
<g id="Group 6">
<rect id="Rectangle" width="18" height="2" transform="translate(15 26)" fill="#47A4ED"/>
<rect id="Rectangle_2" width="9" height="2" transform="translate(15 30)" fill="#47A4ED"/>
<g id="Group 5">
<path id="Rectangle_3" d="M0 0.833333C0 0.373096 0.373096 0 0.833333 0H6V8H0V0.833333Z" transform="translate(21 13)" fill="#83C7FC"/>
<path id="Rectangle_4" d="M0 0.833333C0 0.373096 0.373096 0 0.833333 0H6V5H0.833333C0.373096 5 0 4.6269 0 4.16667V0.833333Z" transform="translate(15 16)" fill="#83C7FC"/>
<g id="Rectangle_5" opacity="0.6" filter="url(#filter1_f)">
<path d="M0 0.833333C0 0.373096 0.373096 0 0.833333 0H5.16667C5.6269 0 6 0.373096 6 0.833333V13.1667C6 13.6269 5.6269 14 5.16667 14H0V0.833333Z" transform="translate(27 7)" fill="#0049B6"/>
</g>
<path id="Rectangle_6" d="M0 0.833333C0 0.373096 0.373096 0 0.833333 0H5.16667C5.6269 0 6 0.373096 6 0.833333V13.1667C6 13.6269 5.6269 14 5.16667 14H0V0.833333Z" transform="translate(27 7)" fill="#AEDAFC"/>
<path id="Rectangle_7" d="M0 0H6V7.16667C6 7.6269 5.6269 8 5.16667 8H0V0Z" transform="translate(27 13)" fill="#9BD3FF"/>
</g>
<path id="Union_2" opacity="0.25" d="M36.6666 36C38.5076 36 40 34.5078 40 32.667L40 2C40 0.895508 39.1046 0 38 0H9C7.89543 0 7 0.895508 7 2V11H1.66666C0.746193 11 0 11.7461 0 12.667V32.667C0 34.5078 1.49239 36 3.33334 36H36.6666Z" transform="translate(0 2)" fill="url(#paint0_linear)"/>
</g>
</g>
</g>
</g>
<defs>
<filter id="filter0_f" x="-0.333389" y="-2" width="44.3334" height="44.0005" filterUnits="userSpaceOnUse" color-interpolation-filters="sRGB">
<feFlood flood-opacity="0" result="BackgroundImageFix"/>
<feBlend mode="normal" in="SourceGraphic" in2="BackgroundImageFix" result="shape"/>
<feGaussianBlur stdDeviation="2" result="effect1_foregroundBlur"/>
</filter>
<filter id="filter1_f" x="23" y="3" width="14" height="22" filterUnits="userSpaceOnUse" color-interpolation-filters="sRGB">
<feFlood flood-opacity="0" result="BackgroundImageFix"/>
<feBlend mode="normal" in="SourceGraphic" in2="BackgroundImageFix" result="shape"/>
<feGaussianBlur stdDeviation="2" result="effect1_foregroundBlur"/>
</filter>
<linearGradient id="paint0_linear" x2="1" gradientUnits="userSpaceOnUse" gradientTransform="translate(40) scale(40 36) rotate(90)">
<stop stop-color="white"/>
<stop offset="1" stop-color="white" stop-opacity="0"/>
</linearGradient>
<clipPath id="clip0">
<rect width="40" height="40" fill="white"/>
</clipPath>
</defs>
</svg>
