<svg id="ICONS-64x" xmlns="http://www.w3.org/2000/svg" viewBox="0 0 64 64">
  <defs>
    <style>
      .cls-1, .cls-3 {
        fill: none;
      }

      .cls-1, .cls-2, .cls-3 {
        stroke: #556a8a;
        stroke-miterlimit: 10;
        stroke-width: 2px;
      }

      .cls-1 {
        stroke-linecap: round;
      }

      .cls-2 {
        fill: #fff;
      }

      .cls-4 {
        fill: #2bc7f4;
      }

      .cls-5 {
        fill: #55d2f6;
      }

      .cls-6 {
        fill: #556a8a;
      }
    </style>
  </defs>
  <title>i_build</title>
  <polygon class="cls-1" points="60.07 14 4 14 19.77 4 56 10 60.07 13.76 60.07 14"/>
  <polygon class="cls-2" points="23 2 27 61 13 61 18 2 23 2"/>
  <line class="cls-3" x1="57" y1="13.16" x2="57" y2="32.56"/>
  <g>
    <line class="cls-3" x1="13.5" y1="61.5" x2="25.8" y2="49.2"/>
    <line class="cls-3" x1="26.5" y1="61.5" x2="14.34" y2="49.34"/>
  </g>
  <g>
    <line class="cls-3" x1="14.48" y1="49.02" x2="25.35" y2="38.15"/>
    <line class="cls-3" x1="25.22" y1="48.72" x2="15.15" y2="38.65"/>
  </g>
  <g>
    <line class="cls-3" x1="14.9" y1="37.1" x2="24.45" y2="27.55"/>
    <line class="cls-3" x1="25.53" y1="37.53" x2="15.72" y2="27.72"/>
  </g>
  <g>
    <line class="cls-3" x1="16.03" y1="24.96" x2="24.18" y2="16.8"/>
    <line class="cls-3" x1="24.42" y1="25.41" x2="16.68" y2="17.66"/>
  </g>
  <g>
    <line class="cls-3" x1="17" y1="15" x2="23.4" y2="8.6"/>
    <line class="cls-3" x1="23.57" y1="14.73" x2="17.67" y2="8.83"/>
  </g>
  <path class="cls-4" d="M64,34v7a1.89,1.89,0,0,1-.18.82A2,2,0,0,1,62,43H52a2,2,0,0,1-2-2V34a2,2,0,0,1,2-2H62A2,2,0,0,1,64,34Z"/>
  <path class="cls-5" d="M64,34v7a1.89,1.89,0,0,1-.18.82L54,32h8A2,2,0,0,1,64,34Z"/>
  <rect class="cls-6" x="8" y="60" width="23.5" height="4" rx="2" ry="2"/>
</svg>
