<svg id="ICONS-64x" xmlns="http://www.w3.org/2000/svg" viewBox="0 0 64 64">
  <defs>
    <style>
      .cls-1, .cls-2 {
        fill: #fff;
        stroke-miterlimit: 10;
        stroke-width: 2px;
      }

      .cls-1 {
        stroke: #556a8a;
      }

      .cls-2 {
        stroke: #2bc7f4;
      }

      .cls-3 {
        fill: #556a8a;
      }

      .cls-4 {
        fill: #2bc7f4;
      }
    </style>
  </defs>
  <title>i_config-tools</title>
  <path class="cls-1" d="M3.11,34.63l4.47.67a17.31,17.31,0,0,0,.46,3L4.35,40.72a1.17,1.17,0,0,0-.66,1.59L4.8,45a1,1,0,0,0,1.43.49l4.49-.94L12.14,47l-2.58,3.5a1.19,1.19,0,0,0,0,1.6l2.22,2.26a1.44,1.44,0,0,0,1.6,0l3.53-2.53c.8.48,1.76,1.12,2.55,1.61l-1,4.47a1.1,1.1,0,0,0,.62,1.29l2.72,1.13a1,1,0,0,0,1.45-.46l2.43-4a9.35,9.35,0,0,0,2.87.67L29.17,61a1.1,1.1,0,0,0,1.11,1.13l3-.15c.48.16,1-.32,1.12-.79l.84-4.64A9.64,9.64,0,0,0,38.16,56l2.38,4a1.59,1.59,0,0,0,1.43.49l2.89-1.26a1.09,1.09,0,0,0,.65-1.27l-1.1-4.34a5.66,5.66,0,0,0,.62-.42c.13-.09.27-.19.4-.3.47-.35.94-.74,1.4-1l3.66,2.74a1,1,0,0,0,1.44-.15l1.34-1.32.75-.75,0,0a1,1,0,0,0,.14-1.41l-2.69-3.7a13.13,13.13,0,0,0,1.78-2.71l4.46,1.3A1.42,1.42,0,0,0,59.2,45l1.13-2.72a1.39,1.39,0,0,0-.62-1.6l-3.83-2.27c.33-1,.33-1.92.66-2.87L61,35a1.42,1.42,0,0,0,1-1.28V30.83a1.36,1.36,0,0,0-.93-1.29L56.42,29a18.27,18.27,0,0,0-.61-3.21l4-2.37a1,1,0,0,0,.5-1.44l-1.11-2.72a1.49,1.49,0,0,0-1.43-.81l-4.5,1.25c-.47-.8-.94-1.61-1.42-2.41l2.75-3.66a1.48,1.48,0,0,0-.16-1.44L52.23,10a1.2,1.2,0,0,0-1.43-.17L47.1,12.5c-.8-.5-1.75-1.14-2.55-1.62l1-4.48a1.07,1.07,0,0,0-.62-1.28L42,3.82a1.38,1.38,0,0,0-1.45.47L38.33,8.13c-1,0-1.92-.33-2.88-.35L35,3.14a1.4,1.4,0,0,0-1.28-1l-3-.18a1.87,1.87,0,0,0-1.12,1.1l-.68,4.49c-1.12.15-2.08.47-3.2.61L23.48,4.35A1.11,1.11,0,0,0,22,3.86L19.32,5A1.3,1.3,0,0,0,18.5,6.4l1.1,4.33a10.34,10.34,0,0,0-2.41,1.75L13.52,9.73a1.07,1.07,0,0,0-1.61,0L10,11.63l-.17.16a1.09,1.09,0,0,0,0,1.6l2.69,3.7a7.16,7.16,0,0,0-1.37,1.85l-.12.22c-.1.2-.2.41-.29.63l-4.47-1.3A1.09,1.09,0,0,0,5,19.11L3.68,22a1.63,1.63,0,0,0,.47,1.45l4,2.42a7.93,7.93,0,0,0-.51,2.72L3,29.34c-.47.17-1,.64-1,1l0,3.2A1.08,1.08,0,0,0,3.11,34.63Z"/>
  <path class="cls-2" d="M18.16,26.3A15,15,0,1,1,17,32.15,14.82,14.82,0,0,1,18.16,26.3Z"/>
  <path class="cls-3" d="M41.19,25.45l-2.83,2.83-2.4.42.28-2.55,2.83-2.83a5.11,5.11,0,0,0-5.09.85A4.24,4.24,0,0,0,33.41,29l-9.69,9.69a1.44,1.44,0,0,0,.21,2.05,1.26,1.26,0,0,0,1.91.07l9.69-9.69a4.24,4.24,0,0,0,4.81-.57A5.11,5.11,0,0,0,41.19,25.45Z"/>
  <path class="cls-4" d="M31.39,31.92l-3.73-3.73-.71-2.12-3.54-2.12L22,25.35l2.12,3.54,2.12.71L30,33.33a2,2,0,0,0,.51,1.92l6.36,6.36a2,2,0,1,0,2.83-2.83l-6.36-6.36A2,2,0,0,0,31.39,31.92Z"/>
</svg>
