<svg id="ICONS-64x" xmlns="http://www.w3.org/2000/svg" viewBox="0 0 64 64">
  <defs>
    <style>
      .cls-1, .cls-4 {
        fill: #fff;
      }

      .cls-2 {
        fill: #e5e5e5;
      }

      .cls-3 {
        fill: none;
      }

      .cls-3, .cls-4 {
        stroke: #556a8a;
        stroke-miterlimit: 10;
        stroke-width: 2px;
      }

      .cls-5 {
        fill: #55d2f6;
      }

      .cls-6 {
        fill: #556a8a;
      }
    </style>
  </defs>
  <title>i_code-quality</title>
  <path class="cls-1" d="M26,26,19,53.12,22.64,51l2.45-1.45,3.6,6.09L34.4,33.36l1.25-4.87Z"/>
  <polygon class="cls-1" points="35.04 28.85 28.51 54.32 26.79 51.41 25.27 48.83 22.97 50.19 19.78 52.08 26.32 26.61 35.04 28.85"/>
  <polygon class="cls-2" points="32 32.04 26.79 51.41 25.27 48.83 22.97 50.19 28.14 31 32 32.04"/>
  <path class="cls-3" d="M26,26,19,53.12,22.64,51l2.45-1.45,3.6,6.09L34.4,33.36l1.25-4.87Z"/>
  <polygon class="cls-1" points="46.04 49.5 42.4 48.18 40.05 47.32 38.97 50.28 37.87 53.29 26.77 29.46 34.92 25.66 46.04 49.5"/>
  <polygon class="cls-2" points="42.4 48.18 40.05 47.32 38.97 50.28 30 30.66 33.64 29 42.4 48.18"/>
  <path class="cls-3" d="M35.16,25,26.1,29.22l.33.7L37.93,54.6,40.35,48l1.93.7L47,50.38Z"/>
  <polygon class="cls-1" points="45.28 26.56 41.53 28.5 41.72 32.72 37.5 32.53 35.56 36.28 32 34 28.44 36.28 26.5 32.53 22.28 32.72 22.47 28.5 18.72 26.56 21 23 18.72 19.44 22.47 17.5 22.28 13.28 26.5 13.47 28.44 9.72 32 12 35.56 9.72 37.5 13.47 41.72 13.28 41.53 17.5 45.28 19.44 43 23 45.28 26.56"/>
  <path class="cls-4" d="M43.6,23,46,19.25l-4-2,.21-4.45L37.8,13l-2-4L32,11.4,28.25,9l-2,4-4.45-.21L22,17.2l-4,2L20.4,23,18,26.75l4,2-.21,4.45L26.2,33l2,4L32,34.6,35.75,37l2-4,4.45.21L42,28.8l4-2Z"/>
  <path class="cls-5" d="M39,23a7,7,0,1,1-7-7A6.95,6.95,0,0,1,39,23Z"/>
  <path class="cls-6" d="M48,58l.52,0a6,6,0,0,0,4.09-1.79c1-1,1.38-2.74,1.38-5.85v-9.6a11.68,11.68,0,0,1,2.1-6.56,5.9,5.9,0,0,1,3.2-2.51c-3.52-1.19-5.3-4.16-5.3-8.82V13.07c0-3.13-.42-4.9-1.4-5.91a6.24,6.24,0,0,0-4.17-1.8l-.49,0,.15-2,.51,0A8.26,8.26,0,0,1,54,5.77c1.37,1.41,2,3.59,2,7.3v9.76c0,4.21,1.7,6.58,5.19,7.24l.81.15V33.1l-.78.15a4.63,4.63,0,0,0-3.38,2A9.82,9.82,0,0,0,56,40.72v9.6c0,3.69-.58,5.85-2,7.25A7.86,7.86,0,0,1,48.76,60l-.48,0Z"/>
  <path class="cls-6" d="M16,58l-.52,0a6,6,0,0,1-4.09-1.79c-1-1-1.38-2.74-1.38-5.85v-9.6a11.68,11.68,0,0,0-2.1-6.56,5.9,5.9,0,0,0-3.2-2.51c3.52-1.19,5.3-4.16,5.3-8.82V13.07c0-3.13.42-4.9,1.4-5.91a6.24,6.24,0,0,1,4.17-1.8l.49,0-.15-2-.51,0A8.26,8.26,0,0,0,10,5.77c-1.37,1.41-2,3.59-2,7.3v9.76C8,27,6.3,29.42,2.81,30.07L2,30.23V33.1l.78.15a4.63,4.63,0,0,1,3.38,2A9.82,9.82,0,0,1,8,40.72v9.6c0,3.69.58,5.85,2,7.25A7.86,7.86,0,0,0,15.24,60l.48,0Z"/>
</svg>
