<svg id="ICONS-64x" xmlns="http://www.w3.org/2000/svg" viewBox="0 0 64 64">
  <defs>
    <style>
      .cls-1 {
        fill: #fff;
      }

      .cls-2 {
        fill: #e5e5e5;
      }

      .cls-3 {
        fill: none;
        stroke: #556a8a;
        stroke-miterlimit: 10;
        stroke-width: 2px;
      }

      .cls-4 {
        fill: #556a8a;
      }

      .cls-5 {
        fill: #2bc7f4;
      }
    </style>
  </defs>
  <title>i_download-install</title>
  <path class="cls-1" d="M59.13,7H4.88A3.86,3.86,0,0,0,1,10.81V44.19A3.86,3.86,0,0,0,4.88,48H59.13A3.86,3.86,0,0,0,63,44.19V10.81A3.86,3.86,0,0,0,59.13,7Z"/>
  <path class="cls-2" d="M63,10.5V21H1V10.5A3.48,3.48,0,0,1,4.44,7H59.56A3.48,3.48,0,0,1,63,10.5Z"/>
  <path class="cls-3" d="M7,7H4.88A3.86,3.86,0,0,0,1,10.81V44.19A3.86,3.86,0,0,0,4.88,48H59.13A3.86,3.86,0,0,0,63,44.19V10.81A3.86,3.86,0,0,0,59.13,7H19.54"/>
  <polygon class="cls-4" points="45 56 19 56 16 58 48 58 45 56"/>
  <polygon class="cls-4" points="33.5 56.86 30.5 56.86 31 47.86 33 47.86 33.5 56.86"/>
  <rect class="cls-4" x="20" y="42" width="24" height="2"/>
  <path class="cls-4" d="M21.2,24.83l10,10V12h1.62V34.83l10-10L43.95,26,32,37.92,20.05,26Z"/>
  <path class="cls-5" d="M18,22.64a.8.8,0,0,0,.87.32l1.6-.51a.86.86,0,0,0,.42-1l-.48-2c-.5-1.1,1.33-3.06,2.59-2.44l2.14.68a1,1,0,0,0,.84-.33l.8-1.64c.1-.15,0-.64-.49-.94l-1.85-1.14c-1.24-.63-.8-3.38.05-3.71l2.07-.81a1,1,0,0,0,.42-1L26.34,6.4a.64.64,0,0,0-.84-.33h0l-2,.5c-.52.19-1.95-1-2.25-1.18a2.06,2.06,0,0,1-.36-1.5L21.61,2a.93.93,0,0,0-.39-1.1L19.64.33a.78.78,0,0,0-1,.24l-1,1.95a1.31,1.31,0,0,1-1.28.7c-.35,0-2.12,0-2.47-.84L13,.35A.8.8,0,0,0,12.14,0L10.45.67a.64.64,0,0,0-.33.84v0l.38,2.15c.18.75,0,1.06-.36,1.28-.19.31-.54.52-.73.83a1.35,1.35,0,0,1-1.5.35l-2-.84A1,1,0,0,0,5,5.82L4.13,7.46a1.14,1.14,0,0,0,.49.94L6.47,9.54c.64.38,1.16.66.68,2.35,0,.39-.07.8-.91,1.14L4.35,14a.8.8,0,0,0-.33.87l.64,1.69a.82.82,0,0,0,.77.48l2.09-.64c.75-.18,1.06,0,1.28.36a11.5,11.5,0,0,1,.89,1,1.15,1.15,0,0,1,.45,1.35l-.84,2a1,1,0,0,0,.49.94l1.49.7a.78.78,0,0,0,1-.24l1-1.95a1.28,1.28,0,0,1,1.28-.7s1.8-.39,2.45.87l1,1.88M19.65,10A4.52,4.52,0,0,1,17,15.63,4.2,4.2,0,0,1,11.35,13,4.31,4.31,0,0,1,13.9,7.52a4.37,4.37,0,0,1,5.71,2.36l0,.1"/>
</svg>
