<svg xmlns="http://www.w3.org/2000/svg" viewBox="0 0 64 64">
  <defs>
    <style>
      .cls-1, .cls-6 {
        fill: #fff;
      }

      .cls-2 {
        fill: #566a89;
      }

      .cls-3 {
        fill: #00bcf2;
      }

      .cls-4 {
        fill: #e5e5e5;
      }

      .cls-5, .cls-7, .cls-8 {
        fill: none;
      }

      .cls-5, .cls-6 {
        stroke: #556a8a;
      }

      .cls-5, .cls-6, .cls-7 {
        stroke-miterlimit: 10;
        stroke-width: 2px;
      }

      .cls-7 {
        stroke: #566a89;
      }
    </style>
  </defs>
  <title>i_kaban</title>
  <g id="ICONS-64x">
    <rect class="cls-1" x="1" y="8" width="62" height="49" rx="2" ry="2"/>
    <g>
      <rect class="cls-2" x="6" y="22" width="9" height="9"/>
      <rect class="cls-2" x="18" y="22" width="9" height="9"/>
      <rect class="cls-2" x="6" y="33" width="9" height="9"/>
      <rect class="cls-2" x="18" y="33" width="9" height="9"/>
      <rect class="cls-3" x="36" y="22" width="9" height="9"/>
      <rect class="cls-3" x="36" y="33" width="9" height="9"/>
      <rect class="cls-3" x="48" y="33" width="9" height="9"/>
      <rect class="cls-2" x="6" y="44" width="9" height="9"/>
      <rect class="cls-2" x="18" y="44" width="9" height="9"/>
    </g>
    <rect class="cls-4" x="2" y="8" width="60" height="10.91"/>
    <rect class="cls-5" x="1" y="8" width="62" height="49" rx="2" ry="2"/>
    <line class="cls-6" x1="1" y1="18" x2="64" y2="18"/>
    <line class="cls-7" x1="32" y1="22" x2="32" y2="54"/>
    <rect class="cls-8" width="64" height="64"/>
  </g>
</svg>
