<svg id="ICONS-64x" xmlns="http://www.w3.org/2000/svg" viewBox="0 0 64 64">
  <defs>
    <style>
      .cls-1 {
        fill: #fff;
        stroke: #556a8a;
        stroke-miterlimit: 10;
        stroke-width: 2px;
      }

      .cls-2 {
        fill: #e5e5e5;
      }

      .cls-3 {
        fill: #2bc7f4;
      }
    </style>
  </defs>
  <title>i_reference</title>
  <path class="cls-1" d="M1,7V61H63V7Z"/>
  <path class="cls-1" d="M38.5,3A7.9,7.9,0,0,0,32,6a7.9,7.9,0,0,0-6.5-3H8V54H25.5a6.88,6.88,0,0,1,5,2.43C31.15,57.16,32,58,32,58s.85-.84,1.5-1.57a6.88,6.88,0,0,1,5-2.43H56V3Z"/>
  <rect class="cls-2" x="9" y="4" width="8" height="49"/>
  <rect class="cls-2" x="47" y="4" width="8" height="49"/>
  <path class="cls-3" d="M33,6.34V55.5l-.25.27-.75.8c-.24-.25-.51-.53-.75-.8L31,55.5V6.33Z"/>
</svg>
