<svg xmlns="http://www.w3.org/2000/svg" xmlns:xlink="http://www.w3.org/1999/xlink" viewBox="0 0 64 64">
  <defs>
    <style>
      .cls-1 {
        isolation: isolate;
      }

      .cls-2 {
        fill: none;
      }

      .cls-3, .cls-8 {
        fill: #fff;
      }

      .cls-3, .cls-5, .cls-7 {
        fill-rule: evenodd;
      }

      .cls-4, .cls-5 {
        fill: #0072c6;
      }

      .cls-6 {
        opacity: 0.05;
        mix-blend-mode: overlay;
      }

      .cls-7 {
        fill: url(#linear-gradient);
      }
    </style>
    <linearGradient id="linear-gradient" x1="4" y1="32" x2="37" y2="32" gradientUnits="userSpaceOnUse">
      <stop offset="0" stop-color="#fff"/>
      <stop offset="1"/>
    </linearGradient>
  </defs>
  <title>logo_sharepoint</title>
  <g class="cls-1">
    <g id="Logos">
      <rect class="cls-2" width="64" height="64"/>
      <g>
        <path class="cls-3" d="M40.05,53a7,7,0,0,1-7-6.55,16.25,16.25,0,0,1-7.63-7.75,6.72,6.72,0,0,1,0-13.43,16.24,16.24,0,0,1,7.63-7.76,7,7,0,0,1,14,0A16,16,0,0,1,54.48,25a7,7,0,0,1,0,14A16,16,0,0,1,47,46.43,7,7,0,0,1,40.05,53ZM30.2,37a11,11,0,0,0,4.44,4.6,7,7,0,0,1,10.82,0,11.09,11.09,0,0,0,4.17-4.17,7,7,0,0,1,0-10.8,11.09,11.09,0,0,0-4.16-4.18,7,7,0,0,1-10.84,0A11,11,0,0,0,30.21,27a6.7,6.7,0,0,1,0,10Z"/>
        <path class="cls-4" d="M40.05,12a6,6,0,0,1,6,6c0,.06,0,.12,0,.18A15.12,15.12,0,0,1,53.84,26l.21,0a6,6,0,0,1,0,12l-.22,0A15.12,15.12,0,0,1,46,45.79c0,.07,0,.14,0,.21a6,6,0,1,1-12,0c0-.06,0-.12,0-.19a15.11,15.11,0,0,1-8-8.14c-.12,0-.23,0-.36,0a5.72,5.72,0,0,1,0-11.44c.12,0,.24,0,.36,0a15.11,15.11,0,0,1,8-8.15c0-.05,0-.1,0-.15a6,6,0,0,1,6-6m-5.1,30.88a6,6,0,0,1,10.19,0,12.09,12.09,0,0,0,5.76-5.77,6,6,0,0,1,0-10.18,12.09,12.09,0,0,0-5.76-5.78,6,6,0,0,1-10.22,0,12.07,12.07,0,0,0-6,6.19,5.71,5.71,0,0,1,0,9.41,12.06,12.06,0,0,0,6,6.18M40.05,10a8,8,0,0,0-7.92,6.86,17.27,17.27,0,0,0-7.35,7.46,7.72,7.72,0,0,0,0,15.33,17.27,17.27,0,0,0,7.34,7.45,8,8,0,0,0,15.86,0,17,17,0,0,0,7.13-7.14,8,8,0,0,0,0-15.86A17,17,0,0,0,48,16.9,8,8,0,0,0,40.05,10Zm-8.6,16.83a10,10,0,0,1,3-3.15,8,8,0,0,0,11.21,0,10.1,10.1,0,0,1,2.7,2.71,8,8,0,0,0,0,11.16,10.11,10.11,0,0,1-2.7,2.7,8,8,0,0,0-11.18,0,10,10,0,0,1-3-3.14,7.7,7.7,0,0,0,0-10.34Z"/>
      </g>
      <g>
        <path class="cls-5" d="M37,4,4,9.84V54.18L37,60Z"/>
        <g class="cls-6">
          <path class="cls-7" d="M37,4,4,9.84V54.18L37,60Z"/>
        </g>
      </g>
      <path class="cls-8" d="M20,22a8.81,8.81,0,0,0-1.33.18,6.87,6.87,0,0,0-1.17.36,5.84,5.84,0,0,0-1,.54,5.6,5.6,0,0,0-.87.72,5.41,5.41,0,0,0-.7.86,5.18,5.18,0,0,0-.5,1,5.69,5.69,0,0,0-.3,1.08,7,7,0,0,0-.1,1.2,5.76,5.76,0,0,0,.23,1.64A5.31,5.31,0,0,0,14.91,31a6.46,6.46,0,0,0,1.15,1.29,9.6,9.6,0,0,0,1.64,1.13l.77.44.64.4.52.36A4.85,4.85,0,0,1,20,35a3.29,3.29,0,0,1,.35.4,2.54,2.54,0,0,1,.25.42,2.12,2.12,0,0,1,.15.44,2.11,2.11,0,0,1,0,.84,1.75,1.75,0,0,1-.1.35,1.65,1.65,0,0,1-.17.31,1.78,1.78,0,0,1-.24.28,1.81,1.81,0,0,1-.37.27,2.16,2.16,0,0,1-.44.18,2.89,2.89,0,0,1-.52.1,4.25,4.25,0,0,1-.59,0A5.69,5.69,0,0,1,16.08,38a6.44,6.44,0,0,1-1-.64,8,8,0,0,1-1-.86v4.18a6.38,6.38,0,0,0,.87.5,7.32,7.32,0,0,0,1,.38,8.76,8.76,0,0,0,1.11.26,11.21,11.21,0,0,0,1.23.14,10.61,10.61,0,0,0,1.63,0,7.4,7.4,0,0,0,1.43-.27,5.55,5.55,0,0,0,1.22-.52,4.77,4.77,0,0,0,1-.78,4.83,4.83,0,0,0,.63-.8,4.93,4.93,0,0,0,.46-.93,5.71,5.71,0,0,0,.27-1.05A7.27,7.27,0,0,0,25,36.42a6.51,6.51,0,0,0-.08-1,5.59,5.59,0,0,0-.23-.94,5.16,5.16,0,0,0-.39-.86,5.23,5.23,0,0,0-.54-.78,6.32,6.32,0,0,0-.59-.6,9.5,9.5,0,0,0-.75-.61q-.41-.3-.91-.61t-1.06-.61l-.7-.39-.57-.36q-.25-.17-.45-.33a3.06,3.06,0,0,1-.32-.3,2,2,0,0,1-.42-.68,2.25,2.25,0,0,1-.1-.4,2.67,2.67,0,0,1,0-.44,2.1,2.1,0,0,1,0-.41A1.77,1.77,0,0,1,18,26.7a1.7,1.7,0,0,1,.2-.34,2,2,0,0,1,.28-.3,2.14,2.14,0,0,1,.35-.25,2.33,2.33,0,0,1,.4-.18,2.94,2.94,0,0,1,.46-.12,3.86,3.86,0,0,1,.52-.05,6.65,6.65,0,0,1,1.08,0,6,6,0,0,1,2,.61,6.56,6.56,0,0,1,.93.58V22.56a7.09,7.09,0,0,0-.91-.28,9,9,0,0,0-1-.18Q21.76,22,21.18,22T20,22"/>
    </g>
  </g>
</svg>
