<svg id="Icons" xmlns="http://www.w3.org/2000/svg" viewBox="0 0 64 64">
  <defs>
    <style>
      .cls-1 {
        fill: #f05033;
      }
    </style>
  </defs>
  <title>logo-git-mark</title>
  <g id="use4187">
    <path class="cls-1" d="M60.94,29.7,34.3,3.06a3.93,3.93,0,0,0-5.56,0L23.21,8.59l7,7a4.67,4.67,0,0,1,5.91,6l6.76,6.76A4.67,4.67,0,1,1,40.1,31l-6.31-6.31v16.6a4.67,4.67,0,1,1-3.84-.14V24.36a4.68,4.68,0,0,1-2.54-6.13l-6.92-6.92L2.22,29.58a3.93,3.93,0,0,0,0,5.56L28.87,61.78a3.93,3.93,0,0,0,5.56,0L60.94,35.26A3.93,3.93,0,0,0,60.94,29.7Z"/>
  </g>
</svg>
