<svg xmlns="http://www.w3.org/2000/svg" xmlns:xlink="http://www.w3.org/1999/xlink" viewBox="0 0 64 64">
  <defs>
    <style>
      .cls-1 {
        isolation: isolate;
      }

      .cls-2, .cls-4 {
        fill: #31752f;
      }

      .cls-3 {
        fill: #fff;
      }

      .cls-4, .cls-6 {
        fill-rule: evenodd;
      }

      .cls-5 {
        opacity: 0.05;
        mix-blend-mode: overlay;
      }

      .cls-6 {
        fill: url(#linear-gradient);
      }
    </style>
    <linearGradient id="linear-gradient" x1="4" y1="32" x2="37" y2="32" gradientUnits="userSpaceOnUse">
      <stop offset="0" stop-color="#fff"/>
      <stop offset="1"/>
    </linearGradient>
  </defs>
  <title>logo_project-server</title>
  <g class="cls-1">
    <g id="Logos">
      <g>
        <rect class="cls-2" x="26" y="9" width="34" height="45" rx="3" ry="3"/>
        <rect class="cls-3" x="30" y="11" width="28" height="41"/>
      </g>
      <path class="cls-2" d="M54.51,28H51V17.5A1.39,1.39,0,0,0,49.5,16H34v3H48v9H44.48l-.92.56,5.94,5.95,5.94-5.95ZM35,39.34v2.34l6.38,6.37L49,40.51,41.41,33Z"/>
      <g>
        <path class="cls-4" d="M37,4,4,9.84V54.18L37,60Z"/>
        <g class="cls-5">
          <path class="cls-6" d="M37,4,4,9.84V54.18L37,60Z"/>
        </g>
      </g>
      <path class="cls-3" d="M18,32V25.63l1.4-.06a4.44,4.44,0,0,1,1.4.15,2.44,2.44,0,0,1,1,.56,2.39,2.39,0,0,1,.61,1,4.24,4.24,0,0,1,.21,1.39,4.5,4.5,0,0,1-.21,1.43,2.46,2.46,0,0,1-1.63,1.63A7.27,7.27,0,0,1,19,32H18m2.1-10-6.1.34V42.09l4,.21V35.36l1.74,0a9.46,9.46,0,0,0,1.57-.1,7.5,7.5,0,0,0,1.42-.35A6.5,6.5,0,0,0,24,34.33a6.38,6.38,0,0,0,1.11-.88,6.52,6.52,0,0,0,.86-1,6.35,6.35,0,0,0,.62-1.2A7.07,7.07,0,0,0,27,29.87a9.51,9.51,0,0,0-.33-4.43,4.92,4.92,0,0,0-1.34-2,5.24,5.24,0,0,0-2.2-1.14,9.64,9.64,0,0,0-3-.24"/>
    </g>
  </g>
</svg>
