<svg id="Logos" xmlns="http://www.w3.org/2000/svg" viewBox="0 0 64 64">
  <defs>
    <style>
      .cls-1, .cls-3 {
        fill: none;
      }

      .cls-1 {
        stroke: #505050;
        stroke-linecap: round;
        stroke-linejoin: round;
        stroke-width: 3px;
      }

      .cls-2 {
        fill: #505050;
      }
    </style>
  </defs>
  <title>logo_power-bi</title>
  <g id="_64x" data-name="64x">
    <path class="cls-1" d="M5.5,29.1V8.5c0-2-.24-3.77,1.34-4.94a6.09,6.09,0,0,1,5.44-.94L55,15.94a6.27,6.27,0,0,1,4.54,5.87V49.43a6.26,6.26,0,0,1-2.71,5,6.07,6.07,0,0,1-3.59,1.18,6.24,6.24,0,0,1-1.91-.3l-4.65-1.51"/>
    <path class="cls-2" d="M31,57.5A3.5,3.5,0,0,1,27.5,61h0A3.5,3.5,0,0,1,24,57.5v-27A3.5,3.5,0,0,1,27.5,27h0A3.5,3.5,0,0,1,31,30.5Z"/>
  </g>
  <path class="cls-2" d="M41,59.5A3.5,3.5,0,0,1,37.5,63h0A3.5,3.5,0,0,1,34,59.5v-33A3.5,3.5,0,0,1,37.5,23h0A3.5,3.5,0,0,1,41,26.5Z"/>
  <path class="cls-2" d="M21,50.5A3.5,3.5,0,0,1,17.5,54h0A3.5,3.5,0,0,1,14,50.5v-16A3.5,3.5,0,0,1,17.5,31h0A3.5,3.5,0,0,1,21,34.5Z"/>
  <path class="cls-2" d="M11,47.5A3.5,3.5,0,0,1,7.5,51h0A3.5,3.5,0,0,1,4,47.5v-9A3.5,3.5,0,0,1,7.5,35h0A3.5,3.5,0,0,1,11,38.5Z"/>
  <rect class="cls-3" width="64" height="64"/>
</svg>
