<svg id="Icons" xmlns="http://www.w3.org/2000/svg" viewBox="0 0 64 64">
  <defs>
    <style>
      .cls-1 {
        fill: #fff;
      }

      .cls-2 {
        fill: #172b4d;
      }
    </style>
  </defs>
  <title>logo_bamboo</title>
  <g>
    <path class="cls-1" d="M19.68,5.71c-3.1,2.16-5.93,4.31-8.95,6.15-1.54.94-1.58,1.8-.45,2.81,1.92,1.72,4,3.31,6,4.91,1,.77,1.7.42,2.61-.44A60.78,60.78,0,0,1,24,15.23c.34,1.72.5,2.8.79,3.85.11.39.48.94.79,1s.85-.36,1.05-.71c2.67-4.46,5.3-8.94,7.95-13.41.56-.94.41-1.53-.73-1.77C28.65,3.11,23.51,2,18.35,1c-.35-.07-1,0-1.08.25a1.61,1.61,0,0,0,.12,1.27C18,3.46,18.72,4.37,19.68,5.71Z"/>
    <path class="cls-1" d="M28.6,59.5l18.09,3.69.47-.72-2.76-4.2,10.32-7.36c-1.47-2.92-4-4.74-6.69-6.38a2.12,2.12,0,0,0-3,.38,53,53,0,0,1-4.84,3.77l-1.38-5-.8-.06Z"/>
    <path class="cls-1" d="M43,4.6a15.89,15.89,0,0,0-4,9.53c0,.38.43.92.81,1.19,1.55,1.11,3.13,2.19,4.76,3.19a1.59,1.59,0,0,0,1.39.12c2.81-1.95,5.57-4,8.21-5.88Z"/>
    <path class="cls-1" d="M21,59.47a15.81,15.81,0,0,0,4-9.22,1.87,1.87,0,0,0-.72-1.44c-1.85-1.27-3.77-2.43-5.5-3.52l-9,6Z"/>
    <path class="cls-1" d="M61.5,34a15.63,15.63,0,0,0-10.15-1,1.48,1.48,0,0,0-.9.91c-.64,2.21-1.19,4.44-1.71,6.44l8.47,6.74Z"/>
    <path class="cls-1" d="M6.94,47.75a16.44,16.44,0,0,0,8.71-5.18A1.48,1.48,0,0,0,16,41.34c-.82-2.21-1.73-4.39-2.49-6.27l-10.8-.51Z"/>
    <path class="cls-1" d="M2.5,30c3.23,1.65,6.68,1.49,10.14,1a1.44,1.44,0,0,0,.89-.89c.64-2.21,1.2-4.45,1.73-6.44L6.78,16.89Z"/>
    <path class="cls-1" d="M57.06,16.34c-3.65.56-6.43,2.65-8.89,5.25a1.46,1.46,0,0,0-.08,1.24c.78,2.08,1.64,4.14,2.58,6.46H61.28Z"/>
    <path class="cls-2" d="M19.68,5.71c-1-1.34-1.69-2.25-2.29-3.23a1.61,1.61,0,0,1-.12-1.27C17.36,1,18,.89,18.35,1,23.51,2,28.65,3.11,33.81,4.18c1.14.24,1.29.83.73,1.77-2.65,4.47-5.28,9-7.95,13.41-.21.35-.74.76-1.05.71s-.68-.6-.79-1c-.29-1-.45-2.13-.79-3.85a60.78,60.78,0,0,0-5.09,3.92c-.91.86-1.63,1.21-2.61.44-2-1.6-4.06-3.19-6-4.91-1.13-1-1.08-1.87.45-2.81C13.75,10,16.58,7.87,19.68,5.71Z"/>
    <path class="cls-2" d="M28.6,59.5,38,43.63l.8.06,1.38,5A53,53,0,0,0,45,44.91a2.12,2.12,0,0,1,3-.38c2.71,1.64,5.22,3.45,6.69,6.38L44.4,58.27l2.76,4.2-.47.72Z"/>
    <path class="cls-2" d="M43,4.6l11.18,8.15c-2.64,1.91-5.39,3.93-8.21,5.88a1.59,1.59,0,0,1-1.39-.12c-1.62-1-3.21-2.08-4.76-3.19-.38-.27-.84-.81-.81-1.19A15.89,15.89,0,0,1,43,4.6Z"/>
    <path class="cls-2" d="M21,59.47,9.73,51.26l9-6c1.73,1.09,3.65,2.25,5.5,3.52A1.87,1.87,0,0,1,25,50.25,15.81,15.81,0,0,1,21,59.47Z"/>
    <path class="cls-2" d="M61.5,34,57.21,47.09l-8.47-6.74c.52-2,1.07-4.23,1.71-6.44a1.48,1.48,0,0,1,.9-.91A15.63,15.63,0,0,1,61.5,34Z"/>
    <path class="cls-2" d="M6.94,47.75,2.68,34.56l10.8.51c.76,1.88,1.67,4.05,2.49,6.27a1.48,1.48,0,0,1-.33,1.24A16.44,16.44,0,0,1,6.94,47.75Z"/>
    <path class="cls-2" d="M2.5,30,6.78,16.89l8.48,6.75c-.52,2-1.08,4.23-1.73,6.44a1.44,1.44,0,0,1-.89.89C9.18,31.5,5.73,31.66,2.5,30Z"/>
    <path class="cls-2" d="M57.06,16.34l4.22,13H50.67c-.94-2.32-1.79-4.38-2.58-6.46a1.46,1.46,0,0,1,.08-1.24C50.64,19,53.42,16.9,57.06,16.34Z"/>
  </g>
</svg>
