<svg id="Icons" xmlns="http://www.w3.org/2000/svg" viewBox="0 0 64 64">
  <defs>
    <style>
      .cls-1 {
        fill: #282425;
      }

      .cls-2 {
        fill: #eed4b5;
      }

      .cls-3 {
        fill: #335061;
      }

      .cls-4 {
        fill: #f3e1ca;
      }

      .cls-5 {
        fill: #6d6b6d;
      }

      .cls-6 {
        fill: #487089;
      }

      .cls-7 {
        fill: #334f60;
      }

      .cls-8 {
        fill: #f2e0c9;
      }

      .cls-9 {
        fill: #cf3733;
      }

      .cls-10 {
        fill: #d13833;
      }

      .cls-11 {
        fill: #e53b39;
      }

      .cls-12 {
        fill: #efddc7;
      }

      .cls-13 {
        fill: #476f87;
      }

      .cls-14 {
        fill: #d3d0cf;
      }

      .cls-15 {
        fill: #dcd9d8;
      }

      .cls-16 {
        fill: #f7f7f7;
      }

      .cls-17 {
        fill: #d7d4d3;
      }

      .cls-18 {
        fill: #e9e8e8;
      }

      .cls-19 {
        fill: #dec8ad;
      }

      .cls-20 {
        fill: #7eaabd;
      }

      .cls-21 {
        fill: #2b2726;
      }

      .cls-22 {
        fill: #f5e2cb;
      }
    </style>
  </defs>
  <title>logo_jenkins</title>
  <g>
    <path class="cls-1" d="M56.62,49.07c-.95-1-2-1.82-3-2.73a1.76,1.76,0,0,1-.42-2.41c4.52-8.35,5.07-17.31,3.81-26.48C55.78,8.82,47.68.91,38.78.31a55.4,55.4,0,0,0-7.54.15c-5.63,1-10.5,3.58-15.17,6.66a9.06,9.06,0,0,0-3.66,4.71c-.1.3-.23.7-.46.84C9.45,14.08,8.79,16.49,8.53,19a23.92,23.92,0,0,0,.1,4.31,4.88,4.88,0,0,1-.48,2.7c-1.38,2.87-.92,5.79.21,8.64a7.6,7.6,0,0,0,5.2,4.89,1.42,1.42,0,0,1,.75.78c.63,1.51,1.1,3.08,1.8,4.56s.74,2.07-.82,3C11.56,50.19,7.78,52.4,4,54.67a11.07,11.07,0,0,0-1.6,1.46v1.49C3.1,59.59,4,62,4.7,64H57.25c1-3.14,2-6.72,3-9.86v-1C59,51.78,57.88,50.38,56.62,49.07ZM42.79,56.43A1.41,1.41,0,0,1,41.43,58c-.76.08-1.16-.62-1.19-2.35A3.17,3.17,0,0,1,41.41,55C42.3,55,42.76,55.6,42.79,56.43Z"/>
    <path class="cls-2" d="M48.34,13.95a10,10,0,0,1,3-.34,4.88,4.88,0,0,1,4.17,4.21c1.53,10.08.91,19.89-5.95,28-4.17,5-12.28,7.45-19.1,1.4a56.31,56.31,0,0,1-4.75-5.37c-.28-.33-.55-.67-1-1.21.52,3,2.91,6,7.2,9.41a15.32,15.32,0,0,1-3.46,1.2,30.45,30.45,0,0,1-5.15-.51c-3.57-3.8-4.1-8.23-4.52-13.39,0-.48-.62-.92-.94-1.38a5.21,5.21,0,0,0-1.47.4c-2.08,1.31-3.69,1-5.22-1.09l-.25-.3L10,33.88c.11-.33.06-1.82.11-2.16.19-1.45,1.07-1,1.23-2.5l1.23-.49c-.48,2.82-.37,3.79.46,4.73a20.71,20.71,0,0,1,.2-2.7c.09-.45.53-.84.81-1.26a6.82,6.82,0,0,1,1.16.91,13.66,13.66,0,0,1,1,1.7c.35-1.72-.87-4.21-1.69-5.29.49,0,1.66,1.37,2.15,1.39v0l.1.35.45,1.26c.36,0,.34.18.74.16,1.84-.12,2.74-.8,2.3-2.52C19,22.4,20.19,17.59,20,15.59c.38-.57.94-3.05,1.25-3.66,1.75-3.4,4.51-5.07,8-6.72,5-2.38,8.47-1.71,13.88-.84.46.07,3.07,1.11,3.54,1.15a47.44,47.44,0,0,1,5.24,5.23c-1.69.31-2.62-.7-3,1C48.71,12.4,47.52,13.83,48.34,13.95Zm4.18,6c-.28.06.95,3.16,1.17,3.7l-1.81.29-1.8.26-.23.36c.45.44.82,1.06,1.35,1.28,1,.43,3.11-.34,3.8-1.26.14-.18.31-.5.24-.64-.82-1.65-1.69-3.27-2.64-5.1ZM26.75,17.67l.54,1a3,3,0,0,0,.31-.29,2.41,2.41,0,0,0,.18-.32c1.22-2.45,3-4,5.93-3.63,1,.12.81-.61.48-1.12a4.79,4.79,0,0,0-1-.88C30.08,10.64,25.92,16.83,26.75,17.67Zm10.44,5.7L38,24.51c-1.55,1-3.1.08-4.57.21-.47,1-.12,1.7.77,1.85a10.27,10.27,0,0,0,3.75.11c1.72-.38,2-2,.85-3.32a9.91,9.91,0,0,1-1.28-1.64c-.45-.78-.79-1.63-1.26-2.61l-.25.8C35.18,20.22,36.35,23.45,37.2,23.37ZM47.46,43c-2.15,0-4.05.1-5.93,0-2.37-.15-4.57-.76-5.88-3.06-.12-.22-.69-.18-1.25-.3,2.11,3.36,4.23,6.07,8.42,5.41C44.44,44.74,46.26,45,47.46,43Zm-1.58-4.22-9.8-1c2.68,3,6.19,3.11,9.8,3.24Zm1,1.91a6.57,6.57,0,0,0,6.25-4.58l-6.25,2.54Z"/>
    <path class="cls-3" d="M29,61.88H9.16c-.19-1.09-.3-2.21-.6-3.27-.22-.79,0-1.12.72-1.41,2.68-1.16,5.36-2.34,8-3.55,1-.44,1.86-1,2.79-1.5,1.86,1.17,3.67,2.44,5.61,3.47,1.24.66,2.36,1.12,2.43,2.83A17,17,0,0,0,29,61.88Z"/>
    <path class="cls-4" d="M46.6,5.52c-.47,0-.94,0-1.41-.11A26,26,0,0,0,29.51,7.25,16.64,16.64,0,0,0,21.77,15c-.31.6-1.39,1.48-1.77,2-.11-1.3.07-2.7,0-4a3.34,3.34,0,0,1,.54-1.52,16.49,16.49,0,0,1,2.29-2.89c2.85-2.6,6-4.95,9.79-5.79C37.58,1.71,42.24,3.06,46.6,5.52Z"/>
    <path class="cls-5" d="M19.06,13.95A40.19,40.19,0,0,1,19,19c-.42,2.79-1,4,.21,7.74.1.32-.16.77-.28,1.29-.34-.25-.44-.28-.46-.34-1-3.45-3-4.55-7-3.77a7.21,7.21,0,0,1,.49-5.38C13.31,15.52,16,14.37,19.06,13.95Z"/>
    <path class="cls-6" d="M20.08,52.13c-.93.5-1.83,1.07-2.79,1.5-2.66,1.21-5.34,2.39-8,3.55-.67.29-.94.62-.72,1.41.3,1.06.41,2.18.6,3.27l-2.51,0c-.5-1.26-1.05-2.51-1.47-3.79A1.34,1.34,0,0,1,5.5,56.9a52.73,52.73,0,0,1,11-7,1.48,1.48,0,0,1,2,.43C19.05,51,19.58,51.53,20.08,52.13Z"/>
    <path class="cls-7" d="M56.27,61.89l-3.47-.06c0-.2,0-.49-.09-.59-1.25-1.08-.86-2.31-.56-3.67a11.68,11.68,0,0,0-.59-6.4,7.8,7.8,0,0,1,.84.45c1.8,1.25,3.59,2.51,5.38,3.77Z"/>
    <path class="cls-8" d="M17.81,36c.33.46,1.24.9,1.28,1.38.42,5.16,1.87,9.7,5.44,13.5A5.49,5.49,0,0,1,19.65,48c-1.23-2.54-2.15-5.23-3.17-7.87A2,2,0,0,1,17,37.86,6.16,6.16,0,0,0,17.81,36Z"/>
    <path class="cls-9" d="M50.43,53.12c.14,1.67.31,3.33.4,5,0,.76-.42,1.12-1.21,1l-5-.76c-.08-.84-.46-2.06.55-2.12s1.1-1.8,1.15-2.53c.12-1.74.68-1.2,2.45-1.44C49.33,52.2,49.86,53.21,50.43,53.12Z"/>
    <path class="cls-10" d="M34.16,62.53a13.59,13.59,0,0,1-2.24.63,3.8,3.8,0,0,1-1.4-.42.25.25,0,0,0-.06-.15l-.2-1a24.86,24.86,0,0,1-1.09-5.75c-.09-1.11,1.38-2.22,2.2-2.2a37,37,0,0,1,4.83.94c.29,0,.91.42.83.69-.3,1-.21,1.57.42,1.8a10.56,10.56,0,0,0,1.9.82c-.22.52-.3,1.23-.69,1.53C37.22,60.5,35.68,61.49,34.16,62.53Z"/>
    <path class="cls-11" d="M39.37,57.85a10.77,10.77,0,0,1-2-.36c-.63-.23-1.26-.58-1-1.56a1.27,1.27,0,0,0-.68-1,31.13,31.13,0,0,0-4.51-.45c-.83,0-1.2,1-1.1,2.14.14,1.65.14,3.32.2,5a12.4,12.4,0,0,1-1.09-7.46c.27-1.67.94-2.21,2.52-1.71s3.32,1.22,4.95,1.9c.86.36,1.67.85,2.81,1.44l-2.2.94Z"/>
    <path class="cls-12" d="M16.72,28.19l-1.48,0a9.17,9.17,0,0,0-2-.77,1.64,1.64,0,0,0-1.87,1.84c-.16,1.46-.32,2.92-.5,4.37a5.71,5.71,0,0,1-.32,1C9.46,32.85,8.72,31,9.43,29a6,6,0,0,1,2.08-2.77C13.69,24.7,15.73,25.56,16.72,28.19Z"/>
    <path class="cls-13" d="M57.77,55.39c-1.79-1.26-3.58-2.52-5.38-3.77a7.8,7.8,0,0,0-.84-.45l-2.12-2.08,1.77-1.55,3,2.69A18,18,0,0,0,56.08,52,3.28,3.28,0,0,1,57.77,55.39Z"/>
    <path class="cls-14" d="M16.79,11.18l-2.63,1c1.31-3.49,9.4-8.67,11.65-7.45l-3.25,2A11.45,11.45,0,0,0,16.79,11.18Z"/>
    <path class="cls-15" d="M19.06,13.95c-3.08.43-5.75,1.57-7.13,4.57a7.21,7.21,0,0,0-.49,5.38c-.21,0-.59,0-.62-.08A8.32,8.32,0,0,1,17.42,13l1.46-.22Z"/>
    <path class="cls-11" d="M50.43,53.12c-.56.09-1.12.19-1.69.26-1.78.24-1.77.24-1.89,2-.05.73-.18,1.44-1.1,1.49s-1.21.66-1.13,1.5c-.15-.55-.55-1.21-.37-1.63s.91-.73,1.44-1.1c-.59-.32-2.15.45-1.92-1.47,1.27-.73,2.64-1.64,4.12-2.33S50,51.63,50.43,53.12Z"/>
    <path class="cls-16" d="M41.88,61.87C40.4,60,42.78,60,44.19,60c1.15,0,1.55.87,1.66,1.83-.62-.11-1.23-.26-1.85-.33a3.83,3.83,0,0,0-1.05.13C42.59,61.68,42.23,61.78,41.88,61.87Z"/>
    <path class="cls-17" d="M46.09,61.82h-.24c-.64-.36-1.26-.73-1.91-1.06-1.26-.63-1.76-.35-2.07,1.11l-1.43-.07-.87-1.44c.77-1.19,2.2-1.15,3.24-1.19S45,60,46.09,60.5Z"/>
    <path class="cls-5" d="M16.79,11.18a11.45,11.45,0,0,1,5.77-4.39,19.69,19.69,0,0,1-2.69,3.87C19.22,11.24,17.84,11,16.79,11.18Z"/>
    <path class="cls-18" d="M28,52.7l-.41,1.79c-2.46-.13-4.61-1.27-4.86-2.6Z"/>
    <path class="cls-8" d="M48.34,13.95c-.82-.12-.81-.7-.68-1.3A3.65,3.65,0,0,1,50.89,9.7l1.46,1.74a16.41,16.41,0,0,0-2.61.39A2.2,2.2,0,0,0,48.34,13.95Z"/>
    <path class="cls-19" d="M37.75,52.64l6.43-.7A4.11,4.11,0,0,1,37.75,52.64Z"/>
    <path class="cls-11" d="M40.24,55.67A3.17,3.17,0,0,1,41.41,55c.89-.09,1.35.55,1.38,1.38A1.41,1.41,0,0,1,41.43,58C40.67,58.1,40.27,57.41,40.24,55.67Z"/>
    <path class="cls-20" d="M52,62H47a2.07,2.07,0,0,1,3.15-1.73C50.79,60.57,51.44,61.53,52,62Z"/>
    <path class="cls-12" d="M10.86,35l.25.3Z"/>
    <path class="cls-12" d="M16.81,28.58l-.1-.35Z"/>
    <path class="cls-21" d="M41.68,34c.36,1.58.68,2,2.12,1.7a36.68,36.68,0,0,0,6.12-2.17c.89-.39.81-1.68,0-2.72-1.26-1.63-2.6-3.2-3.8-4.87a8.31,8.31,0,0,1-1.74-5.75c.33.29.62.41.69.62,1.26,3.61,3.82,6.32,6.36,9a2.91,2.91,0,0,1-.5,4.63c-2.6,1.6-5.31,2.8-8.47,2.61-1.12-.07-1.39-.85-1.49-1.64-.08-.63-.49-1.55.64-1.84Z"/>
    <path class="cls-22" d="M36,19.9l1.24,3.47a11.6,11.6,0,0,1-2.55.2,2.06,2.06,0,0,1-1.48-1,1.88,1.88,0,0,1,.49-1.69A9,9,0,0,1,36,19.9Z"/>
    <path class="cls-12" d="M33.21,12.45c-2.55-.71-6.09,2.27-6.45,5.22-.83-.84-.51-1.77-.14-2.64a6.37,6.37,0,0,1,4.09-3.66A1.88,1.88,0,0,1,33.21,12.45Z"/>
    <path class="cls-22" d="M52.52,19.9l.61,2.35c-.08.09-.14.23-.24.27-.8.32-1.63,1.11-2.43.19-.58-.66.15-2.1,1.24-2.62A4,4,0,0,1,52.52,19.9Z"/>
    <path class="cls-22" d="M32.44,41.15a14.16,14.16,0,0,1,0-2.79c0-.22,1-.28,1.86-.49L33,41.18Z"/>
    <path class="cls-22" d="M41.68,34l-.1-.4a7.31,7.31,0,0,1,.29-1.56,1.25,1.25,0,0,1,.81-.7,1,1,0,0,1,.8.59,1.29,1.29,0,0,1-.3,1.06A9.28,9.28,0,0,1,41.68,34Z"/>
  </g>
</svg>
