<svg id="Layer_1" data-name="Layer 1" xmlns="http://www.w3.org/2000/svg" viewBox="0 0 64 64">
  <defs>
    <style>
      .cls-1 {
        fill: #004b1c;
      }

      .cls-2 {
        fill: #006020;
      }

      .cls-3 {
        fill: #fff;
      }
    </style>
  </defs>
  <title>logo_REST</title>
  <circle class="cls-1" cx="32" cy="32" r="31" transform="translate(-13.25 32) rotate(-45)"/>
  <path class="cls-2" d="M53.92,10.08a31,31,0,0,1,0,43.84L10.08,10.08A31,31,0,0,1,53.92,10.08Z"/>
  <g>
    <path class="cls-3" d="M18.28,40l-2.74-5.22a10.36,10.36,0,0,0-.79-1.29,4.05,4.05,0,0,0-.79-.83,2.62,2.62,0,0,0-.87-.44,3.73,3.73,0,0,0-1-.13H10V40H8.36V21.79H13.6a6.52,6.52,0,0,1,2,.3,5.27,5.27,0,0,1,1.71.9,4.4,4.4,0,0,1,1.2,1.5,4.62,4.62,0,0,1,.45,2.09,5.23,5.23,0,0,1-.29,1.78,4.56,4.56,0,0,1-.83,1.44,4.93,4.93,0,0,1-1.31,1.07,6.24,6.24,0,0,1-1.73.65v.05a2.8,2.8,0,0,1,.67.39,4.05,4.05,0,0,1,.59.58,7.4,7.4,0,0,1,.56.79q.28.44.58,1L20.26,40ZM10,23.34v7.2h3a5,5,0,0,0,1.68-.27,3.72,3.72,0,0,0,1.3-.76,3.44,3.44,0,0,0,.84-1.19,4,4,0,0,0,.3-1.57,3.16,3.16,0,0,0-1-2.5,4.31,4.31,0,0,0-3-.91Z"/>
    <path class="cls-3" d="M22.7,40V21.79h8.87v1.55H24.39V30H31v1.52H24.39v6.92H32V40Z"/>
    <path class="cls-3" d="M34.42,37.33a6.38,6.38,0,0,0,1,.62,8.13,8.13,0,0,0,2.29.74,6.83,6.83,0,0,0,1.12.1,5,5,0,0,0,3.1-.8,2.74,2.74,0,0,0,1-2.3,3.09,3.09,0,0,0-.24-1.26,3.13,3.13,0,0,0-.75-1,7.75,7.75,0,0,0-1.28-.93q-.78-.46-1.83-1t-2-1.2a7.28,7.28,0,0,1-1.36-1.16,3.89,3.89,0,0,1-.77-1.28,4.58,4.58,0,0,1-.25-1.56,4.11,4.11,0,0,1,.47-2,4.62,4.62,0,0,1,1.27-1.49,5.85,5.85,0,0,1,1.87-.95,7.73,7.73,0,0,1,2.29-.33,9.45,9.45,0,0,1,3.59.6V24A7.46,7.46,0,0,0,40.2,23a5.78,5.78,0,0,0-1.53.2,4,4,0,0,0-1.26.58,2.79,2.79,0,0,0-.85.95,2.69,2.69,0,0,0-.31,1.31,3.24,3.24,0,0,0,.21,1.22,2.91,2.91,0,0,0,.67,1,6.37,6.37,0,0,0,1.22.91q.75.45,1.85,1a22.26,22.26,0,0,1,2,1.19,7.79,7.79,0,0,1,1.42,1.21,4.42,4.42,0,0,1,.84,1.33,4.24,4.24,0,0,1,.28,1.57,4.74,4.74,0,0,1-.44,2.1A4.09,4.09,0,0,1,43,39.1a5.68,5.68,0,0,1-1.9.9,9.1,9.1,0,0,1-2.42.3,9,9,0,0,1-1-.07,11.9,11.9,0,0,1-1.21-.2,11.25,11.25,0,0,1-1.16-.32,4.2,4.2,0,0,1-.89-.4Z"/>
    <path class="cls-3" d="M53.05,23.34V40H51.37V23.34H46.12V21.79H58.31v1.55Z"/>
  </g>
</svg>
