<svg xmlns="http://www.w3.org/2000/svg" viewBox="0 0 64 64">
  <defs>
    <style>
      .cls-1 {
        fill: #fff;
      }

      .cls-2 {
        fill: #80def9;
        opacity: 0.35;
      }

      .cls-3, .cls-8 {
        fill: none;
        stroke-miterlimit: 10;
        stroke-width: 2px;
      }

      .cls-3 {
        stroke: #556a8a;
      }

      .cls-4 {
        fill: #0072c6;
      }

      .cls-5 {
        fill: #2b8fde;
      }

      .cls-6 {
        fill: #7fba00;
      }

      .cls-7 {
        fill: #b8d432;
      }

      .cls-8 {
        stroke: #a7a9ac;
      }
    </style>
  </defs>
  <title>sql-server-reporting</title>
  <g id="ICONS">
    <g>
      <g>
        <path class="cls-1" d="M43.63,12.49a25,25,0,0,1,0,35.31h0A25,25,0,0,1,8.3,12.5h0A25,25,0,0,1,43.63,12.49Z"/>
        <path class="cls-2" d="M43.9,12.37a25.15,25.15,0,0,1,0,35.56h0L8.32,12.38h0A25.15,25.15,0,0,1,43.9,12.37Z"/>
        <path class="cls-3" d="M43.65,12.47a25,25,0,0,1,0,35.36h0A25,25,0,0,1,8.28,12.48h0A25,25,0,0,1,43.65,12.47Z"/>
        <path class="cls-4" d="M38.47,17V43.92c0,2.21-5.93,5-13.24,5S12,46.13,12,43.92C12,43.7,12,17,12,17Z"/>
        <g>
          <path class="cls-1" d="M21.3,35a2.21,2.21,0,0,1-.88,1.87,3.92,3.92,0,0,1-2.42.66,4.6,4.6,0,0,1-2.19-.47V35.16a3.38,3.38,0,0,0,2.24.86,1.52,1.52,0,0,0,.91-.24.74.74,0,0,0,.32-.63.88.88,0,0,0-.31-.67,5.7,5.7,0,0,0-1.26-.73,2.78,2.78,0,0,1-1.94-2.48,2.24,2.24,0,0,1,.85-1.83,3.45,3.45,0,0,1,2.25-.69,5.61,5.61,0,0,1,2.06.33v1.77a3.35,3.35,0,0,0-2-.59,1.44,1.44,0,0,0-.87.23.74.74,0,0,0-.32.62.89.89,0,0,0,.26.66,4.16,4.16,0,0,0,1.05.64,5.23,5.23,0,0,1,1.69,1.14A2.12,2.12,0,0,1,21.3,35Z"/>
          <path class="cls-5" d="M39,17V43.95c0,2.21-6.27,5-14,5V17Z"/>
          <path class="cls-1" d="M30.42,33.08a4.84,4.84,0,0,1-.68,2.59,3.63,3.63,0,0,1-1.91,1.54l2.46,2.28H27.8l-1.76-2a4.12,4.12,0,0,1-2-.6,3.74,3.74,0,0,1-1.4-1.52,4.67,4.67,0,0,1-.49-2.15,5,5,0,0,1,.53-2.35,3.8,3.8,0,0,1,1.5-1.59,4.4,4.4,0,0,1,2.22-.56,4.09,4.09,0,0,1,2.1.54,3.67,3.67,0,0,1,1.44,1.53A4.84,4.84,0,0,1,30.42,33.08Zm-2,.11a3.32,3.32,0,0,0-.56-2,1.82,1.82,0,0,0-1.54-.75,1.93,1.93,0,0,0-1.59.75,3.65,3.65,0,0,0,0,4,1.88,1.88,0,0,0,1.55.74,1.91,1.91,0,0,0,1.57-.72A3,3,0,0,0,28.41,33.19Z"/>
          <polygon class="cls-1" points="36.87 37.38 31.82 37.38 31.82 28.9 33.73 28.9 33.73 35.83 36.87 35.83 36.87 37.38"/>
        </g>
        <path class="cls-1" d="M39,17c0,2.69-6,4.86-13.43,4.86S12.13,19.72,12.13,17s6-4.86,13.43-4.86S39,14.35,39,17"/>
        <path class="cls-6" d="M36.25,16.75c0,1.77-4.78,3.21-10.69,3.21s-10.69-1.44-10.69-3.21,4.78-3.21,10.69-3.21S36.25,15,36.25,16.75"/>
        <path class="cls-7" d="M34,18.71c1.4-.54,2.24-1.22,2.24-2,0-1.77-4.78-3.21-10.69-3.21S14.88,15,14.88,16.75c0,.74.84,1.42,2.24,2a25,25,0,0,1,8.45-1.25A25,25,0,0,1,34,18.71"/>
      </g>
      <path class="cls-1" d="M54.69,28.88H44.4a.4.4,0,0,0-.4.41V54.45a.4.4,0,0,0,.4.41H62.6a.4.4,0,0,0,.4-.41V37Z"/>
      <g>
        <polygon class="cls-7" points="63 38.15 54.07 38.15 54.07 29.65 63 38.15"/>
        <path class="cls-3" d="M54.69,29H44.4a.4.4,0,0,0-.4.41V54.59a.4.4,0,0,0,.4.41H62.6a.4.4,0,0,0,.4-.41V37.12Z"/>
        <polyline class="cls-3" points="53.07 29.5 53.07 38 62 38"/>
        <line class="cls-8" x1="47" y1="43" x2="60" y2="43"/>
        <line class="cls-8" x1="47" y1="48" x2="60" y2="48"/>
      </g>
    </g>
  </g>
</svg>
