<svg id="Screenshots" xmlns="http://www.w3.org/2000/svg" viewBox="0 0 64 64">
  <defs>
    <style>
      .cls-1 {
        fill: #fff;
      }

      .cls-2 {
        fill: #e5e5e5;
      }

      .cls-3 {
        fill: #556a8a;
      }

      .cls-4 {
        fill: #ee502a;
      }
    </style>
  </defs>
  <title>team-services-git</title>
  <path class="cls-1" d="M32.75,63a31,31,0,1,1,31-31A31,31,0,0,1,32.75,63Z"/>
  <path class="cls-2" d="M33,63A30.94,30.94,0,0,1,9.24,51.91a30.57,30.57,0,0,1-2.51-3.45,28.68,28.68,0,0,1-1.61-2.88L5,45.42c-.13-.27-.25-.54-.37-.82L4.4,44A28.86,28.86,0,0,1,3,40a30.21,30.21,0,0,1-1-6H63.94A31,31,0,0,1,33,63Z"/>
  <path class="cls-3" d="M32.81,2a30,30,0,1,1-23,49.26,29.62,29.62,0,0,1-2.44-3.35,27.75,27.75,0,0,1-1.54-2.76c-.27-.56-.49-1.06-.7-1.56a27.8,27.8,0,0,1-1.32-3.9A30,30,0,0,1,32.81,2m0-2A32,32,0,0,0,1.88,40.21a29.94,29.94,0,0,0,1.41,4.16c.23.56.48,1.11.74,1.65a29.67,29.67,0,0,0,1.66,3,31.42,31.42,0,0,0,2.59,3.56A32,32,0,1,0,32.81,0Z"/>
  <polygon class="cls-1" points="46 26 35 26 27 29 27 45 39 45 39 37 46 37 46 26"/>
  <path class="cls-4" d="M53,30.13,34.68,11.79a2.71,2.71,0,0,0-3.83,0L27,15.6l4.83,4.83a3.21,3.21,0,0,1,4.07,4.1l4.66,4.66A3.22,3.22,0,1,1,38.68,31l-4.34-4.34V38.08A3.21,3.21,0,1,1,31.69,38V26.45a3.22,3.22,0,0,1-1.75-4.22l-4.76-4.76L12.6,30a2.71,2.71,0,0,0,0,3.83L30.94,52.21a2.71,2.71,0,0,0,3.83,0L53,34A2.71,2.71,0,0,0,53,30.13Z"/>
</svg>
