<svg width="40" height="40" viewBox="0 0 40 40" version="1.1" xmlns="http://www.w3.org/2000/svg" xmlns:xlink="http://www.w3.org/1999/xlink">
<g id="Canvas" fill="none">
<g id="CodexIconPlan40" clip-path="url(#clip0)">
<g id="Group">
<mask id="mask0" mask-type="alpha" maskUnits="userSpaceOnUse" x="0" y="0" width="40" height="40">
<g id="Union">
<path d="M 1.67426 0C 0.749573 0 0 0.75 0 1.67383L 0 28.3262C 0 29.25 0.749573 30 1.67426 30L 16.7847 30C 17.5931 35.6543 22.4557 40 28.3334 40C 34.7767 40 40 34.7773 40 28.334C 40 24.8252 38.4512 21.6787 36 19.54L 36 1.67383C 36 0.75 35.2504 0 34.3257 0L 1.67426 0Z" fill="white"/>
</g>
</mask>
<g mask="url(#mask0)">
<g id="Rectangle">
<path d="M 0 1.67423C 0 0.749576 0.749576 0 1.67423 0L 34.3258 0C 35.2504 0 36 0.749576 36 1.67423L 36 28.3258C 36 29.2504 35.2504 30 34.3258 30L 1.67423 30C 0.749576 30 0 29.2504 0 28.3258L 0 1.67423Z" fill="#008B74"/>
</g>
<g id="Ellipse" filter="url(#filter0_f)">
<circle cx="11.6667" cy="11.6667" r="11.6667" transform="translate(16.6667 16.667)" fill="#007E68"/>
</g>
<g id="Ellipse_2">
<circle cx="11.6667" cy="11.6667" r="11.6667" transform="translate(16.6667 16.667)" fill="#2FCCB0"/>
</g>
<g id="Intersect">
<path d="M 19.3333 2.87305L 19.3333 11.6592C 19.3333 12.583 18.5837 13.333 17.6591 13.333L 0.118042 13.333C 0.0402222 12.7891 0 12.2324 0 11.667C 0 5.22363 5.22333 0 11.6667 0C 14.6014 0 17.283 1.08398 19.3333 2.87305Z" transform="translate(16.6667 16.667)" fill="#00B294"/>
</g>
<g id="Union_2">
<path d="M 30 0L 22 0L 22 5L 30 5L 30 0Z" transform="translate(3 3)" fill="#00B294"/>
<path d="M 19 8L 11 8L 11 13L 19 13L 19 8Z" transform="translate(3 3)" fill="#00B294"/>
<path d="M 8 16L 0 16L 0 21L 8 21L 8 16Z" transform="translate(3 3)" fill="#00B294"/>
<path d="M 8 0L 0 0L 0 5L 8 5L 8 0Z" transform="translate(3 3)" fill="#00B294"/>
</g>
<g id="Union_3">
<path d="M 8 0L 0 0L 0 5L 8 5L 8 0Z" transform="translate(14 3)" fill="#46D5BD"/>
</g>
<g id="Union_4" filter="url(#filter1_f)">
<path d="M 8 0L 0 0L 0 5L 8 5L 8 0Z" transform="translate(3 11)" fill="#007F61"/>
</g>
<g id="Union_5">
<path d="M 8 0L 0 0L 0 5L 8 5L 8 0Z" transform="translate(3 11)" fill="#90FBE9"/>
</g>
<g id="Vector (Stroke)">
<path fill-rule="evenodd" clip-rule="evenodd" d="M 15.6904 2.35702L 6.17851 11.8689L 0 5.69036L 2.35702 3.33333L 6.17851 7.15482L 13.3333 0L 15.6904 2.35702Z" transform="translate(20.9047 22.5713)" fill="#C6FDF4"/>
</g>
<g id="Union_6" opacity="0.25">
<path d="M 1.67426 0C 0.749573 0 0 0.75 0 1.67383L 0 28.3262C 0 29.25 0.749573 30 1.67426 30L 16.7847 30C 17.5931 35.6543 22.4557 40 28.3334 40C 34.7767 40 40 34.7773 40 28.334C 40 24.8252 38.4512 21.6787 36 19.54L 36 1.67383C 36 0.75 35.2504 0 34.3257 0L 1.67426 0Z" fill="url(#paint0_linear)"/>
</g>
</g>
</g>
</g>
</g>
<defs>
<filter id="filter0_f" x="12.6667" y="12.667" width="31.3333" height="31.3333" filterUnits="userSpaceOnUse" color-interpolation-filters="sRGB">
<feFlood flood-opacity="0" result="BackgroundImageFix"/>
<feBlend mode="normal" in="SourceGraphic" in2="BackgroundImageFix" result="shape"/>
<feGaussianBlur stdDeviation="2" result="effect1_foregroundBlur"/>
</filter>
<filter id="filter1_f" x="-1" y="7" width="16" height="13" filterUnits="userSpaceOnUse" color-interpolation-filters="sRGB">
<feFlood flood-opacity="0" result="BackgroundImageFix"/>
<feBlend mode="normal" in="SourceGraphic" in2="BackgroundImageFix" result="shape"/>
<feGaussianBlur stdDeviation="2" result="effect1_foregroundBlur"/>
</filter>

<linearGradient id="paint0_linear" x2="1" gradientUnits="userSpaceOnUse" gradientTransform="matrix(0 40 -40 0 40 0)">
<stop stop-color="white"/>
<stop offset="1" stop-color="white" stop-opacity="0"/>
</linearGradient>

<clipPath id="clip0">
<rect width="40" height="40" fill="white"/>
</clipPath>

</defs>
</svg>

