<svg width="40" height="40" viewBox="0 0 40 40" version="1.1" xmlns="http://www.w3.org/2000/svg" xmlns:xlink="http://www.w3.org/1999/xlink">
<g id="Canvas" fill="none">
<g id="CodexIconArtifacts40" clip-path="url(#clip0)">
<mask id="mask0" mask-type="alpha" maskUnits="userSpaceOnUse" x="0" y="0" width="40" height="40">
<g id="Union">
<path d="M 7 1.66699C 7 0.746094 7.74619 0 8.66666 0L 31.3333 0C 32.2538 0 33 0.746094 33 1.66699L 33 20L 38.3333 20C 39.2538 20 40 20.7461 40 21.667L 40 38.333C 40 39.2539 39.2538 40 38.3333 40L 1.66666 40C 0.746185 40 0 39.2539 0 38.333L 0 21.667C 0 20.7461 0.746185 20 1.66666 20L 7 20L 7 1.66699Z" fill="white"/>
</g>
</mask>
<g mask="url(#mask0)">
<g id="Group">
<g id="Rectangle 2.1">
<path d="M 0 1.66667C 0 0.746192 0.746192 0 1.66667 0L 18.3333 0C 19.2538 0 20 0.746192 20 1.66667L 20 18.3333C 20 19.2538 19.2538 20 18.3333 20L 1.66667 20C 0.746192 20 0 19.2538 0 18.3333L 0 1.66667Z" transform="translate(0 20)" fill="#B21756"/>
</g>
<g id="Rectangle 2.4">
<path d="M 0 0L 3.66667 0C 4.58714 0 5.33333 0.746192 5.33333 1.66667L 5.33333 17.5C 5.33333 18.4205 4.58714 19.1667 3.66667 19.1667L 0 19.1667L 0 0Z" transform="translate(14.6667 20)" fill="#A61550"/>
</g>
<g id="Rectangle">
<rect width="7" height="2" rx="1" transform="translate(7 23)" fill="#8D0A3F"/>
</g>
</g>
<g id="Rectangle 2.3" filter="url(#filter0_f)">
<path d="M 0 1.66667C 0 0.746192 0.746192 0 1.66667 0L 24.3333 0C 25.2538 0 26 0.746192 26 1.66667L 26 20L 0 20L 0 1.66667Z" transform="translate(7 0)" fill="#8C0039"/>
</g>
<g id="Group 3">
<g id="Rectangle 2.4_2">
<path d="M 0 1.66667C 0 0.746192 0.746192 0 1.66667 0L 24.3333 0C 25.2538 0 26 0.746192 26 1.66667L 26 20L 0 20L 0 1.66667Z" transform="translate(7 0)" fill="#CB2E6D"/>
</g>
<g id="Rectangle_2">
<rect width="6" height="2" rx="1" transform="translate(13 4)" fill="#B01C57"/>
</g>
<g id="Rectangle 2">
<path d="M 0 0L 5.33333 0C 6.25381 0 7 0.746192 7 1.66667L 7 20L 0 20L 0 0Z" transform="translate(26 0)" fill="#BD2461"/>
</g>
</g>
<g id="Rectangle 2_2" opacity="0.5" filter="url(#filter1_f)">
<path d="M 0 0L 25.3333 0C 26.2538 0 27 0.746192 27 1.66667L 27 18.3333C 27 19.2538 26.2538 20 25.3333 20L 1.66667 20C 0.746192 20 0 19.2538 0 18.3333L 0 0Z" transform="translate(13 20)" fill="#75002F"/>
</g>
<g id="Group 2">
<g id="Rectangle 2.4_3">
<path d="M 0 0L 25.3333 0C 26.2538 0 27 0.746192 27 1.66667L 27 18.3333C 27 19.2538 26.2538 20 25.3333 20L 1.66667 20C 0.746192 20 0 19.2538 0 18.3333L 0 0Z" transform="translate(13 20)" fill="#EF74A6"/>
</g>
<g id="Intersect" opacity="0.25">
<path d="M 1.85714 20L 13 20L 13 0L 0 0L 0 18.2609C 0 19.2213 0.831472 20 1.85714 20Z" transform="translate(13 20)" fill="url(#paint0_linear)"/>
</g>
<g id="Rectangle_3">
<rect width="6" height="2" rx="1" transform="translate(20 23)" fill="#C82F6D"/>
</g>
<g id="Rectangle 2.3_2">
<path d="M 0 0L 5.33333 0C 6.25381 0 7 0.746192 7 1.66667L 7 18.3333C 7 19.2538 6.25381 20 5.33333 20L 0 20L 0 0Z" transform="translate(33 20)" fill="#E66398"/>
</g>
</g>
<g id="Union_2">
<path d="M 10 0L 0 0L 0 1.99967L 10 1.99967L 10 0Z" transform="translate(16 32)" fill="#FC92BE"/>
<path d="M 6 3L 0 3L 0 5L 6 5L 6 3Z" transform="translate(16 32)" fill="#FC92BE"/>
</g>
</g>
</g>
</g>
<defs>
<filter id="filter0_f" x="3" y="-4" width="34" height="28" filterUnits="userSpaceOnUse" color-interpolation-filters="sRGB">
<feFlood flood-opacity="0" result="BackgroundImageFix"/>
<feBlend mode="normal" in="SourceGraphic" in2="BackgroundImageFix" result="shape"/>
<feGaussianBlur stdDeviation="2" result="effect1_foregroundBlur"/>
</filter>
<filter id="filter1_f" x="9" y="16" width="35" height="28" filterUnits="userSpaceOnUse" color-interpolation-filters="sRGB">
<feFlood flood-opacity="0" result="BackgroundImageFix"/>
<feBlend mode="normal" in="SourceGraphic" in2="BackgroundImageFix" result="shape"/>
<feGaussianBlur stdDeviation="2" result="effect1_foregroundBlur"/>
</filter>

<linearGradient id="paint0_linear" x2="1" gradientUnits="userSpaceOnUse" gradientTransform="matrix(0 20 -13 0 13 0)">
<stop stop-color="#CB2E6D"/>
<stop offset="1" stop-color="#CB2E6D" stop-opacity="0"/>
</linearGradient>

<clipPath id="clip0">
<rect width="40" height="40" fill="white"/>
</clipPath>

</defs>
</svg>

