<svg width="96" height="96" viewBox="0 0 96 96" fill="none" xmlns="http://www.w3.org/2000/svg">
<g id="DevOpsIconOverview96">
<mask id="mask0" mask-type="alpha" maskUnits="userSpaceOnUse" x="0" y="4" width="96" height="88">
<path id="Union" d="M20 0C17.7909 0 16 1.79102 16 4V28H4C1.79086 28 0 29.791 0 32V80C0 84.418 3.58172 88 8 88H88C92.4183 88 96 84.4512 96 80.0322V4C96 1.79102 94.2091 0 92 0H20Z" transform="translate(0 4)" fill="white"/>
</mask>
<g mask="url(#mask0)">
<g id="Group">
<path id="Rectangle 2.1" d="M0 4C0 1.79086 1.79086 0 4 0H16V52C16 56.4183 12.4183 60 8 60C3.58172 60 0 56.4183 0 52V4Z" transform="translate(0 32)" fill="#005BA4"/>
<g id="Subtract" filter="url(#filter0_f)">
<path d="M8 4C8 1.79102 9.79086 0 12 0H84C86.2091 0 88 1.79102 88 4V80.021C88 84.4393 84.4183 88 80 88H0C4.41828 88 8 84.418 8 80V4Z" transform="translate(8 4)" fill="#023F9B"/>
</g>
<path id="Subtract_2" d="M8 4C8 1.79102 9.79086 0 12 0H84C86.2091 0 88 1.79102 88 4V80.021C88 84.4393 84.4183 88 80 88H0C4.41828 88 8 84.418 8 80V4Z" transform="translate(8 4)" fill="#0078D7"/>
<path id="Subtract_3" d="M8 52C8 56.418 4.41828 60 0 60H80C75.5817 60 72 56.418 72 52V4C72 1.5 70.2091 0 68 0H8V52Z" transform="translate(8 32)" fill="#006CC9"/>
<g id="Group 6">
<rect id="Rectangle" width="48" height="4" transform="translate(32 66)" fill="#47A4ED"/>
<rect id="Rectangle_2" width="24" height="4" transform="translate(32 74)" fill="#47A4ED"/>
<g id="Group 5">
<path id="Rectangle_3" d="M0 2C0 0.895431 0.895431 0 2 0H16V20H0V2Z" transform="translate(48 32)" fill="#83C7FC"/>
<path id="Rectangle_4" d="M0 2C0 0.895431 0.895431 0 2 0H16V12H2C0.895431 12 0 11.1046 0 10V2Z" transform="translate(32 40)" fill="#83C7FC"/>
<g id="Rectangle_5" opacity="0.6" filter="url(#filter1_f)">
<path d="M0 2C0 0.895431 0.895431 0 2 0H14C15.1046 0 16 0.895431 16 2V30C16 31.1046 15.1046 32 14 32H0V2Z" transform="translate(64 20)" fill="#0049B6"/>
</g>
<path id="Rectangle_6" d="M0 2C0 0.895431 0.895431 0 2 0H14C15.1046 0 16 0.895431 16 2V30C16 31.1046 15.1046 32 14 32H0V2Z" transform="translate(64 20)" fill="#AEDAFC"/>
<path id="Rectangle_7" d="M0 0H16V18C16 19.1046 15.1046 20 14 20H0V0Z" transform="translate(64 32)" fill="#9BD3FF"/>
</g>
</g>
<path id="Union_2" opacity="0.25" d="M20 0C17.7909 0 16 1.79102 16 4V28H4C1.79086 28 0 29.791 0 32V80C0 84.418 3.58172 88 8 88H88C92.4183 88 96 84.4512 96 80.0322V4C96 1.79102 94.2091 0 92 0H20Z" transform="translate(0 4)" fill="url(#paint0_linear)"/>
</g>
</g>
</g>
<defs>
<filter id="filter0_f" x="0" y="-4" width="104" height="104" filterUnits="userSpaceOnUse" color-interpolation-filters="sRGB">
<feFlood flood-opacity="0" result="BackgroundImageFix"/>
<feBlend mode="normal" in="SourceGraphic" in2="BackgroundImageFix" result="shape"/>
<feGaussianBlur stdDeviation="4" result="effect1_foregroundBlur"/>
</filter>
<filter id="filter1_f" x="56" y="12" width="32" height="48" filterUnits="userSpaceOnUse" color-interpolation-filters="sRGB">
<feFlood flood-opacity="0" result="BackgroundImageFix"/>
<feBlend mode="normal" in="SourceGraphic" in2="BackgroundImageFix" result="shape"/>
<feGaussianBlur stdDeviation="4" result="effect1_foregroundBlur"/>
</filter>
<linearGradient id="paint0_linear" x2="1" gradientUnits="userSpaceOnUse" gradientTransform="translate(96 6) scale(96 82) rotate(90)">
<stop stop-color="white"/>
<stop offset="1" stop-color="white" stop-opacity="0"/>
</linearGradient>
</defs>
</svg>
