<svg width="40" height="40" viewBox="0 0 40 40" fill="none" xmlns="http://www.w3.org/2000/svg">
<g id="DevOpsIconPipelines40">
<mask id="mask0" mask-type="alpha" maskUnits="userSpaceOnUse" x="0" y="0" width="40" height="40">
<g id="Mask" transform="translate(0 0.0263672)">
<path d="M5.83333 26.8129L7.84582 24.661L10.3468 27.162L8.31329 29.1956L10.7775 31.6597L12.811 29.6262L15.329 32.1441L13.3333 34.1398L19.1667 39.9731H28.3333C29.2538 39.9731 30 39.2269 30 38.3064V25.1842C37.6967 20.1173 39.7245 17.1625 39.9726 3.32313C40.0055 1.48246 38.4906 -0.0324804 36.6499 0.000529438C22.8105 0.248586 19.8558 2.27635 14.7888 9.97309H1.66667C0.746193 9.97309 0 10.7193 0 11.6398V20.8064L5.83333 26.8129Z" fill="white"/>
<path d="M3 36.9736V29.9731H0V39.973H10V36.9736H3Z" fill="white"/>
</g>
</mask>
<g mask="url(#mask0)">
<path id="Flame" fill-rule="evenodd" clip-rule="evenodd" d="M0 0H3V7.00004H9.99999L9.99999 10H0V0Z" transform="translate(0 30)" fill="#91B0F2"/>
<path id="Wings" d="M0 1.66667V10.8333L5.83333 16.8398L8.33333 14.1667L15.8333 21.6667L13.3333 24.1667L19.1667 30H28.3333C29.2538 30 30 29.2538 30 28.3333V15L15 0H1.66667C0.746192 0 0 0.746192 0 1.66667Z" transform="translate(0 10)" fill="#0F46BD"/>
<g id="Body shadow" filter="url(#filter0_f)">
<path fill-rule="evenodd" clip-rule="evenodd" d="M0 23.0922C13.75 3.33335 10.4167 0 33.75 0C33.75 23.3335 30.4166 20.0001 10.6579 33.7502L0 23.0922Z" transform="translate(6.25)" fill="#062AA9"/>
</g>
<path id="Body" fill-rule="evenodd" clip-rule="evenodd" d="M0 23.0922C13.0526 4.33544 10.7108 0.380356 30.3999 0.027429C32.2406 -0.00556473 33.7555 1.50939 33.7225 3.35005C33.3696 23.0393 29.4146 20.6974 10.6579 33.7502L0 23.0922Z" transform="translate(6.25)" fill="#2560E0"/>
<g id="Wing shadow" filter="url(#filter1_f)">
<path fill-rule="evenodd" clip-rule="evenodd" d="M0 12.7251L12.725 0L15.1892 2.46415L2.46416 15.1892L0 12.7251Z" transform="translate(8.31329 16.4971)" fill="#0A44C2"/>
</g>
<path id="Wing" fill-rule="evenodd" clip-rule="evenodd" d="M0 12.7251L12.725 0L15.1892 2.46415L2.46416 15.1892L0 12.7251Z" transform="translate(8.31329 16.4971)" fill="#729AF2"/>
<path id="Intersect" d="M2.46417 13.1555L0 10.6913L10.6915 0L13.1556 2.46419L2.46417 13.1555Z" transform="translate(10.3469 16.4971)" fill="#4C80F0"/>
<g id="Window shadow" filter="url(#filter2_f)">
<path d="M5 10.0001C7.76142 10.0001 9.99999 7.76146 9.99999 5.00003C9.99999 2.23859 7.76142 0 5 0C2.23857 0 0 2.23859 0 5.00003C0 7.76146 2.23857 10.0001 5 10.0001Z" transform="translate(25 5)" fill="#0A44C2"/>
</g>
<path id="Window" d="M5 10.0001C7.76142 10.0001 9.99999 7.76146 9.99999 5.00003C9.99999 2.23859 7.76142 0 5 0C2.23857 0 0 2.23859 0 5.00003C0 7.76146 2.23857 10.0001 5 10.0001Z" transform="translate(25 5)" fill="#91B0F2"/>
<g id="Overlay gradient" opacity="0.25" transform="translate(0 0.0263672)">
<path d="M5.83333 26.8129L7.84582 24.661L10.3468 27.162L8.31329 29.1956L10.7775 31.6597L12.811 29.6262L15.329 32.1441L13.3333 34.1398L19.1667 39.9731H28.3333C29.2538 39.9731 30 39.2269 30 38.3064V25.1842C37.6967 20.1173 39.7245 17.1625 39.9726 3.32313C40.0055 1.48246 38.4906 -0.0324804 36.6499 0.000529438C22.8105 0.248586 19.8558 2.27635 14.7888 9.97309H1.66667C0.746193 9.97309 0 10.7193 0 11.6398V20.8064L5.83333 26.8129Z" fill="url(#paint0_linear)"/>
<path d="M3 36.9736V29.9731H0V39.973H10V36.9736H3Z" fill="url(#paint1_linear)"/>
</g>
</g>
</g>
<defs>
<filter id="filter0_f" x="2.91667" y="-3.33333" width="40.4166" height="40.4167" filterUnits="userSpaceOnUse" color-interpolation-filters="sRGB">
<feFlood flood-opacity="0" result="BackgroundImageFix"/>
<feBlend mode="normal" in="SourceGraphic" in2="BackgroundImageFix" result="shape"/>
<feGaussianBlur stdDeviation="1.66667" result="effect1_foregroundBlur"/>
</filter>
<filter id="filter1_f" x="4.97996" y="13.1637" width="21.8558" height="21.8559" filterUnits="userSpaceOnUse" color-interpolation-filters="sRGB">
<feFlood flood-opacity="0" result="BackgroundImageFix"/>
<feBlend mode="normal" in="SourceGraphic" in2="BackgroundImageFix" result="shape"/>
<feGaussianBlur stdDeviation="1.66667" result="effect1_foregroundBlur"/>
</filter>
<filter id="filter2_f" x="21.6667" y="1.66667" width="16.6667" height="16.6667" filterUnits="userSpaceOnUse" color-interpolation-filters="sRGB">
<feFlood flood-opacity="0" result="BackgroundImageFix"/>
<feBlend mode="normal" in="SourceGraphic" in2="BackgroundImageFix" result="shape"/>
<feGaussianBlur stdDeviation="1.66667" result="effect1_foregroundBlur"/>
</filter>
<linearGradient id="paint0_linear" x2="1" gradientUnits="userSpaceOnUse" gradientTransform="translate(39.9731) scale(39.9731) rotate(90)">
<stop stop-color="white"/>
<stop offset="1" stop-color="white" stop-opacity="0"/>
</linearGradient>
<linearGradient id="paint1_linear" x2="1" gradientUnits="userSpaceOnUse" gradientTransform="translate(39.9731) scale(39.9731) rotate(90)">
<stop stop-color="white"/>
<stop offset="1" stop-color="white" stop-opacity="0"/>
</linearGradient>
</defs>
</svg>
