<svg width="96" height="96" viewBox="0 0 96 96" fill="none" xmlns="http://www.w3.org/2000/svg">
<g id="DevOpsIconArtifacts96">
<mask id="mask0" mask-type="alpha" maskUnits="userSpaceOnUse" x="0" y="0" width="96" height="96">
<path id="Union" d="M16 4C16 1.79102 17.7909 0 20 0H76C78.2091 0 80 1.79102 80 4V48H92C94.2091 48 96 49.791 96 52V92C96 94.209 94.2091 96 92 96H4C1.79086 96 0 94.209 0 92V52C0 49.791 1.79086 48 4 48H16V4Z" fill="white"/>
</mask>
<g mask="url(#mask0)">
<g id="Group">
<path id="Rectangle 2.1" d="M0 4C0 1.79086 1.79086 0 4 0H44C46.2091 0 48 1.79086 48 4V44C48 46.2091 46.2091 48 44 48H4C1.79086 48 0 46.2091 0 44V4Z" transform="translate(0 48)" fill="#B21756"/>
<path id="Rectangle 2.4" d="M0 0H8.8C11.0091 0 12.8 1.79086 12.8 4V42C12.8 44.2091 11.0091 46 8.8 46H0V0Z" transform="translate(35.2 48)" fill="#A61550"/>
<rect id="Rectangle" width="16" height="6" rx="3" transform="translate(16 56)" fill="#8D0A3F"/>
</g>
<g id="Rectangle 2.4_2" filter="url(#filter0_f)">
<path d="M0 4C0 1.79086 1.79086 0 4 0H60C62.2091 0 64 1.79086 64 4V48H0V4Z" transform="translate(16)" fill="#890038"/>
</g>
<g id="Group 3">
<path id="Rectangle 2.3" d="M0 4C0 1.79086 1.79086 0 4 0H60C62.2091 0 64 1.79086 64 4V48H0V4Z" transform="translate(16)" fill="#CB2E6D"/>
<rect id="Rectangle_2" width="16" height="6" rx="3" transform="translate(32 10)" fill="#B01C57"/>
<path id="Rectangle 2" d="M0 0H12C14.2091 0 16 1.79086 16 4V48H0V0Z" transform="translate(64)" fill="#BD2461"/>
</g>
<g id="Rectangle 2_2" opacity="0.5" filter="url(#filter1_f)">
<path d="M0 0H60C62.2091 0 64 1.79086 64 4V44C64 46.2091 62.2091 48 60 48H4C1.79086 48 0 46.2091 0 44V0Z" transform="translate(32 48)" fill="#780031"/>
</g>
<g id="Group 2">
<path id="Rectangle 2.4_3" d="M0 0H60C62.2091 0 64 1.79086 64 4V44C64 46.2091 62.2091 48 60 48H4C1.79086 48 0 46.2091 0 44V0Z" transform="translate(32 48)" fill="#EF74A6"/>
<path id="Intersect" d="M4.57143 48H32V0H0V43.8261C0 46.1311 2.0467 48 4.57143 48Z" transform="translate(32 48)" fill="url(#paint0_linear)"/>
<rect id="Rectangle_3" width="16" height="6" rx="3" transform="translate(48 56)" fill="#C82F6D"/>
<path id="Rectangle 2.3_2" d="M0 0H12C14.2091 0 16 1.79086 16 4V44C16 46.2091 14.2091 48 12 48H0V0Z" transform="translate(80 48)" fill="#E66398"/>
</g>
<g id="Union_2" transform="translate(40 76)">
<path d="M24 0H0V4H24V0Z" fill="#FC92BE"/>
<path d="M14 8H0V12H14V8Z" fill="#FC92BE"/>
</g>
<path id="Union_3" opacity="0.2" d="M16 4C16 1.79102 17.7909 0 20 0H76C78.2091 0 80 1.79102 80 4V48H92C94.2091 48 96 49.791 96 52V92C96 94.209 94.2091 96 92 96H4C1.79086 96 0 94.209 0 92V52C0 49.791 1.79086 48 4 48H16V4Z" fill="url(#paint1_linear)"/>
</g>
</g>
<defs>
<filter id="filter0_f" x="8" y="-8" width="80" height="64" filterUnits="userSpaceOnUse" color-interpolation-filters="sRGB">
<feFlood flood-opacity="0" result="BackgroundImageFix"/>
<feBlend mode="normal" in="SourceGraphic" in2="BackgroundImageFix" result="shape"/>
<feGaussianBlur stdDeviation="4" result="effect1_foregroundBlur"/>
</filter>
<filter id="filter1_f" x="24" y="40" width="80" height="64" filterUnits="userSpaceOnUse" color-interpolation-filters="sRGB">
<feFlood flood-opacity="0" result="BackgroundImageFix"/>
<feBlend mode="normal" in="SourceGraphic" in2="BackgroundImageFix" result="shape"/>
<feGaussianBlur stdDeviation="4" result="effect1_foregroundBlur"/>
</filter>
<linearGradient id="paint0_linear" x2="1" gradientUnits="userSpaceOnUse" gradientTransform="translate(32) scale(32 48) rotate(90)">
<stop stop-color="#E66398"/>
<stop offset="1" stop-color="#EF74A6"/>
</linearGradient>
<linearGradient id="paint1_linear" x2="1" gradientUnits="userSpaceOnUse" gradientTransform="translate(96) scale(96) rotate(90)">
<stop stop-color="white"/>
<stop offset="1" stop-color="white" stop-opacity="0"/>
</linearGradient>
</defs>
</svg>
