<svg width="96" height="96" viewBox="0 0 96 96" fill="none" xmlns="http://www.w3.org/2000/svg">
<g id="DevOpsIconPipelines96">
<mask id="mask0" mask-type="alpha" maskUnits="userSpaceOnUse" x="0" y="0" width="96" height="96">
<g id="Mask" transform="translate(0 0.0625)">
<path d="M14 64.351L18.83 59.1865L24.8323 65.1888L19.9519 70.0693L25.8659 75.9833L30.7463 71.1028L36.7895 77.1459L32 81.9354L46 95.9354H68C70.2091 95.9354 72 94.1445 72 91.9354V60.4422C90.4722 48.2814 95.3388 41.1901 95.9341 7.97551C96.0133 3.55791 92.3774 -0.077953 87.9598 0.00127065C54.7453 0.596608 47.654 5.46325 35.4932 23.9354H4C1.79086 23.9354 0 25.7262 0 27.9354V49.9354L14 64.351Z" fill="white"/>
<path d="M8 87.9354V71.9354H0V95.9353H24V87.9354H8Z" fill="white"/>
</g>
</mask>
<g mask="url(#mask0)">
<path id="Flame" fill-rule="evenodd" clip-rule="evenodd" d="M0 0L7.99999 2.97878e-08V16.0001H24V24H0V0Z" transform="translate(0 72)" fill="#91B0F2"/>
<path id="Wings" d="M0 4V26L14 40.4156L20 34L38 52L32 58L46 72H68C70.2091 72 72 70.2091 72 68V36L36 0H4C1.79086 0 0 1.79086 0 4Z" transform="translate(0 24)" fill="#0F46BD"/>
<g id="Body shadow" filter="url(#filter0_f)">
<path fill-rule="evenodd" clip-rule="evenodd" d="M0 55.4213C33 8.00004 25 0 80.9999 0C80.9999 56.0003 72.9999 48.0002 25.5789 81.0004L0 55.4213Z" transform="translate(15)" fill="#062AA9"/>
</g>
<path id="Body" fill-rule="evenodd" clip-rule="evenodd" d="M0 55.4213C31.3263 10.4051 25.706 0.912854 72.9598 0.0658296C77.3773 -0.0133554 81.0132 3.62254 80.9341 8.04011C80.087 55.2943 70.595 49.6739 25.5789 81.0004L0 55.4213Z" transform="translate(15)" fill="#2560E0"/>
<g id="Wing shadow" filter="url(#filter1_f)">
<path fill-rule="evenodd" clip-rule="evenodd" d="M0 30.5401L30.54 0L36.454 5.91397L5.91399 36.4541L0 30.5401Z" transform="translate(19.9519 39.5938)" fill="#0A44C2"/>
</g>
<path id="Wing" fill-rule="evenodd" clip-rule="evenodd" d="M0 30.5401L30.54 0L36.454 5.91397L5.91399 36.4541L0 30.5401Z" transform="translate(19.9519 39.5938)" fill="#729AF2"/>
<path id="Intersect" d="M5.914 31.5732L0 25.6592L25.6595 0L31.5734 5.91406L5.914 31.5732Z" transform="translate(24.8325 39.5938)" fill="#4C80F0"/>
<g id="Window shadow" filter="url(#filter2_f)">
<path d="M12 24.0001C18.6274 24.0001 24 18.6275 24 12.0001C24 5.37261 18.6274 0 12 0C5.37258 0 0 5.37261 0 12.0001C0 18.6275 5.37258 24.0001 12 24.0001Z" transform="translate(60 12)" fill="#0A44C2"/>
</g>
<path id="Window" d="M12 24.0001C18.6274 24.0001 24 18.6275 24 12.0001C24 5.37261 18.6274 0 12 0C5.37258 0 0 5.37261 0 12.0001C0 18.6275 5.37258 24.0001 12 24.0001Z" transform="translate(60 12)" fill="#91B0F2"/>
<g id="Overlay gradient" opacity="0.25" transform="translate(0 0.0625)">
<path d="M14 64.351L18.83 59.1865L24.8323 65.1888L19.9519 70.0693L25.8659 75.9833L30.7463 71.1028L36.7895 77.1459L32 81.9354L46 95.9354H68C70.2091 95.9354 72 94.1445 72 91.9354V60.4422C90.4722 48.2814 95.3388 41.1901 95.9341 7.97551C96.0133 3.55791 92.3774 -0.077953 87.9598 0.00127065C54.7453 0.596608 47.654 5.46325 35.4932 23.9354H4C1.79086 23.9354 0 25.7262 0 27.9354V49.9354L14 64.351Z" fill="url(#paint0_linear)"/>
<path d="M8 87.9354V71.9354H0V95.9353H24V87.9354H8Z" fill="url(#paint1_linear)"/>
</g>
</g>
</g>
<defs>
<filter id="filter0_f" x="7" y="-8" width="96.9999" height="97" filterUnits="userSpaceOnUse" color-interpolation-filters="sRGB">
<feFlood flood-opacity="0" result="BackgroundImageFix"/>
<feBlend mode="normal" in="SourceGraphic" in2="BackgroundImageFix" result="shape"/>
<feGaussianBlur stdDeviation="4" result="effect1_foregroundBlur"/>
</filter>
<filter id="filter1_f" x="11.9519" y="31.5938" width="52.454" height="52.4541" filterUnits="userSpaceOnUse" color-interpolation-filters="sRGB">
<feFlood flood-opacity="0" result="BackgroundImageFix"/>
<feBlend mode="normal" in="SourceGraphic" in2="BackgroundImageFix" result="shape"/>
<feGaussianBlur stdDeviation="4" result="effect1_foregroundBlur"/>
</filter>
<filter id="filter2_f" x="52" y="4" width="40" height="40" filterUnits="userSpaceOnUse" color-interpolation-filters="sRGB">
<feFlood flood-opacity="0" result="BackgroundImageFix"/>
<feBlend mode="normal" in="SourceGraphic" in2="BackgroundImageFix" result="shape"/>
<feGaussianBlur stdDeviation="4" result="effect1_foregroundBlur"/>
</filter>
<linearGradient id="paint0_linear" x2="1" gradientUnits="userSpaceOnUse" gradientTransform="translate(95.9354) scale(95.9354) rotate(90)">
<stop stop-color="white"/>
<stop offset="1" stop-color="white" stop-opacity="0"/>
</linearGradient>
<linearGradient id="paint1_linear" x2="1" gradientUnits="userSpaceOnUse" gradientTransform="translate(95.9354) scale(95.9354) rotate(90)">
<stop stop-color="white"/>
<stop offset="1" stop-color="white" stop-opacity="0"/>
</linearGradient>
</defs>
</svg>
