<svg width="96" height="96" viewBox="0 0 96 96" fill="none" xmlns="http://www.w3.org/2000/svg">
<g id="DevOpsIconWiki96">
<mask id="mask0" mask-type="alpha" maskUnits="userSpaceOnUse" x="0" y="0" width="96" height="96">
<path id="Union" d="M92 0C94.209 0 96 1.79102 96 4V42C96 44.209 94.209 46 92 46H70V92C70 94.209 68.209 96 66 96H4C1.79102 96 0 94.209 0 92V20C0 17.791 1.79102 16 4 16H38V4C38 1.79102 39.791 0 42 0H92Z" fill="white"/>
</mask>
<g mask="url(#mask0)">
<path id="Rectangle" d="M0 4C0 1.79086 1.79086 0 4 0H66C68.2091 0 70 1.79086 70 4V76C70 78.2091 68.2091 80 66 80H4C1.79086 80 0 78.2091 0 76V4Z" transform="translate(0 16)" fill="#0078D7"/>
<g id="Union_2" transform="translate(16 30)">
<path d="M38 12H0V16H38V12Z" fill="#48A6F0"/>
<path d="M38 24H0V28H38V24Z" fill="#48A6F0"/>
<path d="M38 0H0V4H38V0Z" fill="#48A6F0"/>
<path d="M38 36H0V40H38V36Z" fill="#48A6F0"/>
<path d="M22 48H0V52H22V48Z" fill="#48A6F0"/>
</g>
<g id="Union_3" opacity="0.75" filter="url(#filter0_f)">
<path d="M54 0C56.2091 0 58 1.79102 58 4V42C58 44.209 56.2091 46 54 46H32L16 62V46H4C1.79089 46 0 44.209 0 42V4C0 1.79102 1.79089 0 4 0H54Z" transform="translate(38)" fill="#0039A8"/>
</g>
<path id="Union_4" fill-rule="evenodd" clip-rule="evenodd" d="M4 0C1.79089 0 0 1.79102 0 4V42C0 44.209 1.79089 46 4 46H26L42 62V46H54C56.2091 46 58 44.209 58 42V4C58 1.79102 56.2091 0 54 0H4Z" transform="translate(96) scale(-1 1)" fill="#96D1FF"/>
<path id="Intersect" opacity="0.5" d="M32 30V4C32 1.79102 30.2092 0 28 0H0V26C0 28.209 1.79102 30 4 30H16V46L32 30Z" transform="translate(38 16)" fill="#6ABEFF"/>
<rect id="Rectangle 2" width="16" height="4" transform="translate(38 30)" fill="#96D1FF"/>
<path id="Rectangle 3" d="M0 0H16V4H4C1.79086 4 0 2.20914 0 0Z" transform="translate(38 42)" fill="#96D1FF"/>
<g id="Union_5" style="mix-blend-mode:lighten" opacity="0.25">
<path d="M92 0C94.209 0 96 1.79102 96 4V42C96 44.209 94.209 46 92 46H70V92C70 94.209 68.209 96 66 96H4C1.79102 96 0 94.209 0 92V20C0 17.791 1.79102 16 4 16H38V4C38 1.79102 39.791 0 42 0H92Z" fill="url(#paint0_linear)"/>
</g>
</g>
</g>
<defs>
<filter id="filter0_f" x="30" y="-8" width="74" height="78" filterUnits="userSpaceOnUse" color-interpolation-filters="sRGB">
<feFlood flood-opacity="0" result="BackgroundImageFix"/>
<feBlend mode="normal" in="SourceGraphic" in2="BackgroundImageFix" result="shape"/>
<feGaussianBlur stdDeviation="4" result="effect1_foregroundBlur"/>
</filter>
<linearGradient id="paint0_linear" x2="1" gradientUnits="userSpaceOnUse" gradientTransform="translate(96 1) scale(96 93) rotate(90)">
<stop stop-color="white"/>
<stop offset="1" stop-color="white" stop-opacity="0"/>
</linearGradient>
</defs>
</svg>
