<svg xmlns="http://www.w3.org/2000/svg" viewBox="0 0 72 72"><title>Analytics</title><path d="M0,72V0H72V72" fill="#f6f6f6" opacity="0"/><path d="M64.007,8v55.99H64V19.47l-8.214-8.119L33.459,33.677,25.468,25.59,11,38.149V8.03H9.434V8Z" fill="#f3f3f3"/><path d="M60,61.1H11.042V45.361L33.555,56.7,60,39.939Z" fill="#8562ad"/><path d="M60,36,33.364,52.452,12.433,41.986,25.277,30.728l8.182,8.214L55.786,16.616,60,21Z" fill="#40cdf5"/><path d="M33.525,38.933l22.26-22.317L58,19,35.917,41.333ZM12.433,41.986l3.278,1.639L27.66,33.12l-2.382-2.392Z" fill="#8ce1f9"/><path d="M33.384,56.695,60,39.939v3.644L36.833,58Z" fill="#a996f0"/><path d="M55.786,11.351,33.459,33.677,25.468,25.59,11,38.149V8.03H7.074V65.006H64V19.47ZM60,61.1H11.133v-15.6L33.555,56.7,60,39.939ZM60,36,33.364,52.452,12.433,41.986,25.277,30.728l8.182,8.214L55.786,16.615,60,21Z" fill="#282828"/></svg>