<svg width="64" height="64" viewBox="0 0 64 64" fill="none" xmlns="http://www.w3.org/2000/svg">
<rect width="64" height="64" fill="black" fill-opacity="0"/>
<path d="M0 62H64V64H0V62Z" fill="#556A8A"/>
<rect x="2" y="46" width="12" height="16" fill="#2BC7F4"/>
<rect x="18" y="30" width="12" height="32" fill="#2BC7F4"/>
<rect x="34" y="38" width="12" height="24" fill="#2BC7F4"/>
<rect x="50" y="22" width="12" height="40" fill="#2BC7F4"/>
<path d="M14 46V55L5 46H14Z" fill="#55D2F6"/>
<path d="M30 30V39L21 30H30Z" fill="#55D2F6"/>
<path d="M46 38V47L37 38H46Z" fill="#55D2F6"/>
<path d="M62 22V31L53 22H62Z" fill="#55D2F6"/>
<path d="M8 29L24 13L40 21L56 5" stroke="#556A8A" stroke-width="2"/>
<circle cx="56" cy="5" r="4" fill="#E5E5E5" stroke="#556A8A" stroke-width="2"/>
<circle cx="40" cy="21" r="4" fill="#E5E5E5" stroke="#556A8A" stroke-width="2"/>
<circle cx="24" cy="13" r="4" fill="#E5E5E5" stroke="#556A8A" stroke-width="2"/>
<circle cx="8" cy="29" r="4" fill="#E5E5E5" stroke="#556A8A" stroke-width="2"/>
</svg>
