<svg xmlns="http://www.w3.org/2000/svg" viewBox="0 0 64 64">
  <defs>
    <style>
      .cls-1 {
        fill: #fff;
      }

      .cls-1, .cls-2 {
        stroke: #556a8a;
        stroke-miterlimit: 10;
        stroke-width: 2px;
      }

      .cls-2, .cls-7 {
        fill: none;
      }

      .cls-3 {
        fill: #80def9;
      }

      .cls-4 {
        fill: #556a8a;
      }

      .cls-5 {
        fill: #2bc7f4;
      }

      .cls-6 {
        fill: #e5e5e5;
      }
    </style>
  </defs>
  <title>i_billing</title>
  <g id="ICONS-64x">
    <rect class="cls-1" x="1" y="10" width="62" height="43"/>
    <line class="cls-2" x1="12" y1="28" x2="27" y2="28"/>
    <line class="cls-2" x1="12" y1="34" x2="27" y2="34"/>
    <line class="cls-2" x1="12" y1="40" x2="27" y2="40"/>
    <circle class="cls-3" cx="42" cy="34" r="11"/>
    <path class="cls-4" d="M42.58,40.92v2.22H41.32V41a7,7,0,0,1-3.7-.88V37.83a5.1,5.1,0,0,0,1.7.91,6.17,6.17,0,0,0,2,.37V34.55a8.6,8.6,0,0,1-3.13-2.06,3.6,3.6,0,0,1-.71-2.24,3.65,3.65,0,0,1,1.09-2.64,4.59,4.59,0,0,1,2.76-1.34V24.43h1.26v1.8a6.42,6.42,0,0,1,3,.57V29a5.22,5.22,0,0,0-3-.88v4.73a9.16,9.16,0,0,1,3.09,2,3.5,3.5,0,0,1-.21,4.75A5.06,5.06,0,0,1,42.58,40.92Zm-1.26-8.65V28.17a2.16,2.16,0,0,0-1.22.66A1.76,1.76,0,0,0,39.65,30,2,2,0,0,0,40,31.29,4,4,0,0,0,41.32,32.26Zm1.26,2.84v3.95q1.74-.37,1.74-1.82Q44.33,36,42.58,35.1Z"/>
    <rect class="cls-5" x="2" y="11" width="60" height="7"/>
    <rect class="cls-6" x="2" y="11" width="7" height="41"/>
    <rect class="cls-6" x="55" y="11" width="7" height="41"/>
    <rect class="cls-7" width="64" height="64"/>
  </g>
</svg>
