<svg width="64" height="64" viewBox="0 0 64 64" fill="none" xmlns="http://www.w3.org/2000/svg">
<rect width="64" height="64" fill="black" fill-opacity="0"/>
<path d="M32 0L39.5542 24.0639H64L44.2229 38.9361L51.7771 63L32 48.1277L12.2229 63L19.7771 38.9361L0 24.0639H24.4458L32 0Z" fill="#55D2F6"/>
<path d="M39.5542 24.0639L32 0V48.1277L51.7771 63L44.2229 38.9361L64 24.0639H39.5542Z" fill="#ACE8F9"/>
<path d="M32 3.33878L38.6001 24.3634L38.82 25.0639H39.5542H61.0064L43.6219 38.1369L43.0572 38.5616L43.2688 39.2357L49.8909 60.3304L32.601 47.3285L32 46.8765L31.399 47.3285L14.1091 60.3304L20.7312 39.2357L20.9428 38.5616L20.3781 38.1369L2.99363 25.0639H24.4458H25.18L25.3999 24.3634L32 3.33878Z" stroke="#556A8A" stroke-width="2"/>
</svg>
