<svg id="ICONS-64x" xmlns="http://www.w3.org/2000/svg" viewBox="0 0 64 64">
  <defs>
    <style>
      .cls-1 {
        fill: #fff;
      }

      .cls-2 {
        fill: #e5e5e5;
      }

      .cls-3 {
        fill: none;
      }

      .cls-3, .cls-4 {
        stroke: #556a8a;
        stroke-miterlimit: 10;
        stroke-width: 2px;
      }

      .cls-4 {
        fill: #55d2f6;
      }
    </style>
  </defs>
  <title>i_generic-database</title>
  <g>
    <path class="cls-1" d="M50.39,9.14l-13.8.12L8,9.5V54c0,4.56,10,8.49,23,8.73h.5c1.76,0,3.46-.1,5.09-.26a39.9,39.9,0,0,0,13.8-3.37C53.31,57.63,55,55.85,55,54V9.1Z"/>
    <path class="cls-2" d="M50.39,9.14V59.08a39.9,39.9,0,0,1-13.8,3.37V9.26Z"/>
    <path class="cls-3" d="M8,9.5V54c0,4.56,9.95,8.49,23,8.73h.5C44.79,62.56,55,58.59,55,54V9.1"/>
    <path class="cls-4" d="M55.06,9.62c0,4.69-10.52,8.49-23.5,8.49s-23.5-3.8-23.5-8.49S18.89,1.14,31.87,1.14s23.19,3.8,23.19,8.49"/>
  </g>
</svg>
