<svg id="ICONS-64x" xmlns="http://www.w3.org/2000/svg" viewBox="0 0 64 64">
  <defs>
    <style>
      .cls-1 {
        fill: #fff;
        stroke: #556a8a;
        stroke-miterlimit: 10;
        stroke-width: 2px;
      }

      .cls-2 {
        fill: #e5e5e5;
      }

      .cls-3 {
        fill: #2bc7f4;
      }

      .cls-4 {
        fill: none;
      }

      .cls-5 {
        fill: #556a8a;
      }
    </style>
  </defs>
  <title>i_server</title>
  <rect class="cls-1" x="12" y="1" width="36" height="62"/>
  <g>
    <rect class="cls-2" x="29" y="2" width="18" height="60"/>
    <rect class="cls-3" x="13" y="17" width="16" height="2"/>
    <polygon class="cls-4" points="37.23 7.14 12.63 7.14 12.63 9.13 37.23 9.13 37.23 7.14 37.23 7.14"/>
    <polyline class="cls-4" points="37.23 7.14 12.63 7.14 12.63 9.13 37.23 9.13 37.23 7.14"/>
    <rect class="cls-3" x="13" y="12" width="16" height="2"/>
    <rect class="cls-3" x="13" y="7" width="16" height="2"/>
    <rect class="cls-5" x="29" y="17" width="18" height="2"/>
    <rect class="cls-5" x="29" y="12" width="18" height="2"/>
    <rect class="cls-5" x="29" y="7" width="18" height="2"/>
  </g>
  <rect class="cls-5" x="13" y="7" width="2" height="2"/>
  <rect class="cls-5" x="13" y="12" width="2" height="2"/>
  <rect class="cls-5" x="13" y="17" width="2" height="2"/>
</svg>
