<svg id="Icons" xmlns="http://www.w3.org/2000/svg" viewBox="0 0 64 64">
  <defs>
    <style>
      .cls-1 {
        fill: #38acec;
      }

      .cls-2 {
        fill: #404d51;
      }
    </style>
  </defs>
  <title>logo-timetracker</title>
  <path class="cls-1" d="M44.31,38.38l-4,8L45.77,58H17c3.39-6.9,11.33-23.36,11.74-25.8.13-.76-7.71-18.44-11.1-25.34H50.73A3.18,3.18,0,0,0,53.9,3.69C53.9,1.95,52.48,0,50.73,0H11.32C9.58,0,8.15,1.95,8.15,3.69A3.12,3.12,0,0,0,8.47,5C8,7.37,20.82,32.2,20.82,32.2,17,40,11,54,8.66,59a3.14,3.14,0,0,0-.51,1.71,3.18,3.18,0,0,0,3.17,3.17H50.73a3.18,3.18,0,0,0,3.17-3.17C53.9,60.23,44.31,38.38,44.31,38.38Z"/>
  <path class="cls-2" d="M26,52h7.75S52,14,52,12.52,49,11,49,11H26.14l3,6H42.87Z"/>
</svg>
