<svg id="Icons" xmlns="http://www.w3.org/2000/svg" viewBox="0 0 64 64">
  <defs>
    <style>
      .cls-1 {
        fill: #418dde;
      }
    </style>
  </defs>
  <title>logo_octopus-deploy</title>
  <path class="cls-1" d="M19.07,49.76C15.7,51,12.4,52.49,9,53.46A13.28,13.28,0,0,1,5,54c-1.46-.1-2.35-.21-2.06-2s3.45-2.34,4.58-3a27.42,27.42,0,0,0,4.2-3.25c5.75-4.86,6.07-8.23,3.36-14.12a20,20,0,0,1-.38-16.21A22.54,22.54,0,0,1,36.33,1.59c9.88.59,18,6.49,19.78,15.88,1.12,6-1.19,12.37-1.65,13.78-2,6.08-.8,9.82,4.29,13.63a12.14,12.14,0,0,1,3.14,2.72c.4.6,1,1.62.48,2.27s-1.35.28-2,.28-1.61-.16-2.8-.29a40.37,40.37,0,0,1,2.84,4.44c.38.8.56,2.26.11,2.71a2,2,0,0,1-2.75.29,29.23,29.23,0,0,1-5.1-3.74c-1.31-1.16-2.3-2.68-3.58-3.88-.61-.56-1.75-1.19-2.33-1A3.09,3.09,0,0,0,45.46,51c-.22,1.74,0,3.55-.22,5.27a18.28,18.28,0,0,1-1.51,5.54c-1.08,2.1-3.13,2.31-4.47.36a25.85,25.85,0,0,1-2.68-6.27c-.66-1.91-.9-4-1.62-5.86s-2.31-2.14-3.71-.7S29,52.24,27.86,53.69a87.55,87.55,0,0,1-5.66,6.82,4.12,4.12,0,0,1-3.31,1c-1.71-.78-1.75-2.33-1.65-3.48a36.73,36.73,0,0,1,1.66-6.42L19.35,50l.28-.37Z"/>
</svg>
