<svg id="Screenshots" xmlns="http://www.w3.org/2000/svg" viewBox="0 0 64 64">
  <defs>
    <style>
      .cls-1, .cls-5 {
        fill: #fff;
      }

      .cls-2 {
        fill: #e5e5e5;
      }

      .cls-3, .cls-6 {
        fill: #2bc7f4;
      }

      .cls-3 {
        opacity: 0.52;
      }

      .cls-4 {
        fill: none;
      }

      .cls-4, .cls-5 {
        stroke: #556a8a;
        stroke-miterlimit: 10;
        stroke-width: 2px;
      }

      .cls-7 {
        fill: #556a8a;
      }
    </style>
  </defs>
  <title>team-services-devops</title>
  <path class="cls-1" d="M32,63.5A31.5,31.5,0,1,1,63.5,32,31.54,31.54,0,0,1,32,63.5Z"/>
  <path class="cls-2" d="M32,63A30.94,30.94,0,0,1,8.24,51.91a30.57,30.57,0,0,1-2.51-3.45,28.68,28.68,0,0,1-1.61-2.88L4,45.42c-.13-.27-.25-.54-.37-.82L3.4,44A28.86,28.86,0,0,1,2,40a30.21,30.21,0,0,1-1-6H62.94A31,31,0,0,1,32,63Z"/>
  <polygon class="cls-1" points="46.78 22 37 22 37 41 53 41 53 29.24 46.78 22"/>
  <polygon class="cls-3" points="53 31 41 31 41 23 47.04 23 52 28.57 53 31"/>
  <polygon class="cls-4" points="46.78 22 37 22 37 41 53 41 53 29.24 46.78 22"/>
  <rect class="cls-5" x="12" y="17" width="29" height="24"/>
  <circle class="cls-5" cx="21" cy="43.14" r="6"/>
  <circle class="cls-6" cx="21" cy="43.14" r="2"/>
  <circle class="cls-5" cx="41" cy="43.14" r="6"/>
  <circle class="cls-6" cx="41" cy="43.14" r="2"/>
  <path class="cls-7" d="M32,2A30,30,0,1,1,9,51.26a29.62,29.62,0,0,1-2.44-3.35A27.75,27.75,0,0,1,5,45.15c-.27-.56-.49-1.06-.7-1.56A27.8,27.8,0,0,1,3,39.69,30,30,0,0,1,32,2m0-2A32,32,0,0,0,1.07,40.21a29.94,29.94,0,0,0,1.41,4.16c.23.56.48,1.11.74,1.65a29.67,29.67,0,0,0,1.66,3,31.42,31.42,0,0,0,2.59,3.56A32,32,0,1,0,32,0Z"/>
</svg>
