<svg xmlns="http://www.w3.org/2000/svg" viewBox="0 0 636 636"><title>blog-package-upstream-diagram-4</title><line x1="388.5" y1="348" x2="388.5" y2="302.253" fill="none" stroke="#004880" stroke-miterlimit="10" stroke-width="3"/><polygon points="400.77 312.194 398.572 314.24 388.503 303.405 378.431 314.24 376.233 312.194 388.503 299 400.77 312.194" fill="#004880"/><line x1="344" y1="198.5" x2="295.253" y2="198.5" fill="none" stroke="#004880" stroke-miterlimit="10" stroke-width="3"/><polygon points="305.194 186.23 307.24 188.428 296.405 198.497 307.24 208.569 305.194 210.767 292 198.497 305.194 186.23" fill="#004880"/><path d="M343,33H606a11,11,0,0,1,11,11V297a0,0,0,0,1,0,0H354a11,11,0,0,1-11-11V33A0,0,0,0,1,343,33Z" fill="#cbe247"/><path d="M17,33H280a11,11,0,0,1,11,11V297a0,0,0,0,1,0,0H28a11,11,0,0,1-11-11V33A0,0,0,0,1,17,33Z" fill="#b0cdda"/><path d="M291,71.333V44a11,11,0,0,0-11-11H17V71.333Z" fill="#cadee6"/><path d="M617,71.333V44a11,11,0,0,0-11-11H343V71.333Z" fill="#e6f26d"/><text transform="translate(106.906 59)" font-size="24" font-family="SegoeUI, Segoe UI"><tspan letter-spacing="-0.034em">F</tspan><tspan x="10.898" y="0">abrikam</tspan></text><text transform="translate(434.527 59)" font-size="24" font-family="SegoeUI, Segoe UI">Contoso</text><text transform="translate(85.212 109)" font-size="16" font-family="SegoeUI, Segoe UI">Widgets</text><rect x="57" y="125" width="65" height="56" fill="#fff"/><polygon points="123 130 54.499 130 60.069 136 123 136 123 130" fill="#c2c2c2"/><rect x="122" y="125" width="10" height="56" fill="#939393"/><rect x="52" y="117" width="76" height="14" fill="#fff"/><rect x="126" y="117" width="10" height="14" fill="#939393"/><text transform="translate(73.594 153)" font-size="16" font-family="SegoeUI, Segoe UI">1.0.0<tspan x="0" y="19.2">2.0.0</tspan></text><path d="M50,91.915V102.05A8.95,8.95,0,0,0,58.95,111h10.1A8.95,8.95,0,0,0,78,102.05V91.955A8.955,8.955,0,0,0,69.045,83H58.95A8.917,8.917,0,0,0,50,91.915Zm7.458-3.565a3.347,3.347,0,0,1,0,6.694h0a3.347,3.347,0,0,1,0-6.694Zm10.667,8.141a5.789,5.789,0,1,1-5.786,5.789,5.788,5.788,0,0,1,5.786-5.789ZM48.6,79.667a3.166,3.166,0,1,1-3.165,3.165A3.164,3.164,0,0,1,48.6,79.667Z" fill="#004880"/><path d="M180,347H443a11,11,0,0,1,11,11V610a0,0,0,0,1,0,0H191a11,11,0,0,1-11-11V347A0,0,0,0,1,180,347Z" fill="#b4a0ff"/><path d="M454,386.444V358a11,11,0,0,0-11-11H180v39.444Z" fill="#c7b8ff"/><text transform="translate(229.074 373)" font-size="24" font-family="SegoeUI, Segoe UI">Adventure<tspan x="109.852" y="0" letter-spacing="-0.039em">W</tspan><tspan x="131.332" y="0">orks</tspan></text><text transform="translate(375.064 457.435)" font-size="16" font-family="SegoeUI, Segoe UI">Gadgets</text><rect x="346" y="473" width="65" height="56" fill="#fff"/><polygon points="412 478 343.499 478 349.069 484 412 484 412 478" fill="#c2c2c2"/><rect x="411" y="473" width="10" height="56" fill="#737373"/><rect x="341" y="466" width="76" height="14" fill="#fff"/><rect x="415" y="466" width="10" height="14" fill="#737373"/><text transform="translate(362.594 501.435)" font-size="16" font-family="SegoeUI, Segoe UI">1.0.0<tspan x="0" y="19.2">2.0.0</tspan></text><path d="M339,440.915V451.05a8.95,8.95,0,0,0,8.95,8.95h10.1a8.95,8.95,0,0,0,8.95-8.95v-10.1A8.955,8.955,0,0,0,358.045,432h-10.1A8.917,8.917,0,0,0,339,440.915Zm7.458-4.13a3.347,3.347,0,0,1,0,6.693h0a3.347,3.347,0,0,1,0-6.693Zm10.667,8.14a5.789,5.789,0,1,1-5.786,5.789,5.788,5.788,0,0,1,5.786-5.789ZM337.6,428.1a3.166,3.166,0,1,1-3.165,3.166A3.165,3.165,0,0,1,337.6,428.1Z" fill="#004880"/><text transform="translate(239.044 457.435)" font-size="16" font-family="SegoeUI, Segoe UI">Things</text><rect x="210" y="473" width="65" height="56" fill="#fff"/><polygon points="276 478 207.499 478 213.069 484 276 484 276 478" fill="#c2c2c2"/><rect x="275" y="473" width="10" height="56" fill="#737373"/><rect x="205" y="466" width="76" height="14" fill="#fff"/><rect x="279" y="466" width="10" height="14" fill="#737373"/><text transform="translate(226.594 501.435)" font-size="16" font-family="SegoeUI, Segoe UI">1.0.0</text><path d="M203,440.915V451.05a8.95,8.95,0,0,0,8.95,8.95h10.1a8.95,8.95,0,0,0,8.95-8.95v-10.1A8.955,8.955,0,0,0,222.045,432H211.95A8.917,8.917,0,0,0,203,440.915Zm7.458-4.13a3.347,3.347,0,0,1,0,6.693h0a3.347,3.347,0,0,1,0-6.693Zm10.667,8.14a5.789,5.789,0,1,1-5.786,5.789,5.788,5.788,0,0,1,5.786-5.789ZM201.6,428.1a3.166,3.166,0,1,1-3.165,3.166A3.165,3.165,0,0,1,201.6,428.1Z" fill="#004880"/><text transform="translate(190.594 150.435)" font-size="16" font-family="SegoeUI, Segoe UI">3.0.0</text><text transform="translate(203.318 107.435)" font-size="16" font-family="SegoeUI, Segoe UI">Gizmos</text><path d="M176.356,82.081a8.932,8.932,0,0,0-8.949,8.955v9.678a8.932,8.932,0,0,0,8.949,8.955h9.673a8.933,8.933,0,0,0,8.95-8.955V91.036a8.933,8.933,0,0,0-8.95-8.955Zm-1.9,4.7a3.347,3.347,0,0,1,0,6.693h0a3.347,3.347,0,0,1,0-6.693Zm10.667,8.14a5.789,5.789,0,1,1-5.786,5.789,5.788,5.788,0,0,1,5.786-5.789ZM165.6,78.1a3.166,3.166,0,1,1-3.165,3.166A3.165,3.165,0,0,1,165.6,78.1Z" fill="#004880"/><rect x="169" y="124" width="2" height="2" fill="#447995"/><rect x="169" y="120" width="2" height="2" fill="#447995"/><rect x="253" y="116" width="2" height="2" fill="#447995"/><rect x="249" y="116" width="2" height="2" fill="#447995"/><rect x="245" y="116" width="2" height="2" fill="#447995"/><rect x="241" y="116" width="2" height="2" fill="#447995"/><rect x="237" y="116" width="2" height="2" fill="#447995"/><rect x="233" y="116" width="2" height="2" fill="#447995"/><rect x="229" y="116" width="2" height="2" fill="#447995"/><rect x="225" y="116" width="2" height="2" fill="#447995"/><rect x="221" y="116" width="2" height="2" fill="#447995"/><rect x="217" y="116" width="2" height="2" fill="#447995"/><rect x="213" y="116" width="2" height="2" fill="#447995"/><rect x="209" y="116" width="2" height="2" fill="#447995"/><rect x="205" y="116" width="2" height="2" fill="#447995"/><rect x="201" y="116" width="2" height="2" fill="#447995"/><rect x="197" y="116" width="2" height="2" fill="#447995"/><rect x="193" y="116" width="2" height="2" fill="#447995"/><rect x="189" y="116" width="2" height="2" fill="#447995"/><rect x="185" y="116" width="2" height="2" fill="#447995"/><rect x="181" y="116" width="2" height="2" fill="#447995"/><rect x="177" y="116" width="2" height="2" fill="#447995"/><rect x="173" y="116" width="2" height="2" fill="#447995"/><rect x="253" y="128" width="2" height="2" fill="#447995"/><rect x="253" y="124" width="2" height="2" fill="#447995"/><rect x="253" y="120" width="2" height="2" fill="#447995"/><rect x="241" y="124" width="2" height="2" fill="#447995"/><rect x="241" y="120" width="2" height="2" fill="#447995"/><rect x="249" y="128" width="2" height="2" fill="#447995"/><rect x="245" y="128" width="2" height="2" fill="#447995"/><rect x="241" y="128" width="2" height="2" fill="#447995"/><rect x="237" y="128" width="2" height="2" fill="#447995"/><rect x="233" y="128" width="2" height="2" fill="#447995"/><rect x="229" y="128" width="2" height="2" fill="#447995"/><rect x="225" y="128" width="2" height="2" fill="#447995"/><rect x="221" y="128" width="2" height="2" fill="#447995"/><rect x="217" y="128" width="2" height="2" fill="#447995"/><rect x="213" y="128" width="2" height="2" fill="#447995"/><rect x="209" y="128" width="2" height="2" fill="#447995"/><rect x="205" y="128" width="2" height="2" fill="#447995"/><rect x="201" y="128" width="2" height="2" fill="#447995"/><rect x="197" y="128" width="2" height="2" fill="#447995"/><rect x="193" y="128" width="2" height="2" fill="#447995"/><rect x="189" y="128" width="2" height="2" fill="#447995"/><rect x="185" y="128" width="2" height="2" fill="#447995"/><rect x="181" y="128" width="2" height="2" fill="#447995"/><rect x="177" y="128" width="2" height="2" fill="#447995"/><rect x="173" y="128" width="2" height="2" fill="#447995"/><rect x="169" y="128" width="2" height="2" fill="#447995"/><rect x="169" y="124" width="2" height="2" fill="#447995"/><rect x="169" y="120" width="2" height="2" fill="#447995"/><polygon points="171 116 169 116 169 117.624 169 117.897 169 118 170.022 118 170.022 117.999 171 117.999 171 116" fill="#447995"/><rect x="248" y="179" width="2" height="2" fill="#447995"/><rect x="244" y="179" width="2" height="2" fill="#447995"/><rect x="240" y="179" width="2" height="2" fill="#447995"/><rect x="236" y="179" width="2" height="2" fill="#447995"/><rect x="232" y="179" width="2" height="2" fill="#447995"/><rect x="228" y="179" width="2" height="2" fill="#447995"/><rect x="224" y="179" width="2" height="2" fill="#447995"/><rect x="220" y="179" width="2" height="2" fill="#447995"/><rect x="216" y="179" width="2" height="2" fill="#447995"/><rect x="212" y="179" width="2" height="2" fill="#447995"/><rect x="208" y="179" width="2" height="2" fill="#447995"/><rect x="204" y="179" width="2" height="2" fill="#447995"/><rect x="200" y="179" width="2" height="2" fill="#447995"/><rect x="196" y="179" width="2" height="2" fill="#447995"/><rect x="192" y="179" width="2" height="2" fill="#447995"/><rect x="188" y="179" width="2" height="2" fill="#447995"/><rect x="184" y="179" width="2" height="2" fill="#447995"/><rect x="180" y="179" width="2" height="2" fill="#447995"/><rect x="176" y="179" width="2" height="2" fill="#447995"/><path d="M178,169h-2v-2h2Zm0-4h-2v-2h2Zm0-4h-2v-2h2Zm0-4h-2v-2h2Zm0-4h-2v-2h2Zm0-4h-2v-2h2Zm0-4h-2v-2h2Zm0-4h-2v-2h2Zm0-4h-2v-2h2Zm0-4h-2v-2h2Z" fill="#447995"/><rect x="176" y="175" width="2" height="2" fill="#447995"/><rect x="176" y="171" width="2" height="2" fill="#447995"/><polygon points="178 167 176 167 176 168.624 176 168.897 176 169 177.022 169 177.022 168.999 178 168.999 178 167" fill="#447995"/><path d="M238,169h-2v-2h2Zm0-4h-2v-2h2Zm0-4h-2v-2h2Zm0-4h-2v-2h2Zm0-4h-2v-2h2Zm0-4h-2v-2h2Zm0-4h-2v-2h2Zm0-4h-2v-2h2Zm0-4h-2v-2h2Zm0-4h-2v-2h2Z" fill="#447995"/><rect x="236" y="175" width="2" height="2" fill="#447995"/><rect x="236" y="171" width="2" height="2" fill="#447995"/><polygon points="238 167 236 167 236 168.624 236 168.897 236 169 237.022 169 237.022 168.999 238 168.999 238 167" fill="#447995"/><path d="M250,169h-2v-2h2Zm0-4h-2v-2h2Zm0-4h-2v-2h2Zm0-4h-2v-2h2Zm0-4h-2v-2h2Zm0-4h-2v-2h2Zm0-4h-2v-2h2Zm0-4h-2v-2h2Zm0-4h-2v-2h2Zm0-4h-2v-2h2Z" fill="#447995"/><rect x="248" y="175" width="2" height="2" fill="#447995"/><rect x="248" y="171" width="2" height="2" fill="#447995"/><polygon points="250 167 248 167 248 168.624 248 168.897 248 169 249.022 169 249.022 168.999 250 168.999 250 167" fill="#447995"/><text transform="translate(190.594 257.435)" font-size="16" font-family="SegoeUI, Segoe UI">2.0.0</text><text transform="translate(202.064 214.435)" font-size="16" font-family="SegoeUI, Segoe UI">Gadgets</text><path d="M176.356,189.081a8.932,8.932,0,0,0-8.949,8.955v9.678a8.932,8.932,0,0,0,8.949,8.955h9.673a8.933,8.933,0,0,0,8.95-8.955v-9.678a8.933,8.933,0,0,0-8.95-8.955Zm-1.9,4.7a3.347,3.347,0,0,1,0,6.693h0a3.347,3.347,0,0,1,0-6.693Zm10.667,8.14a5.789,5.789,0,1,1-5.786,5.789,5.788,5.788,0,0,1,5.786-5.789ZM165.6,185.1a3.166,3.166,0,1,1-3.165,3.166A3.165,3.165,0,0,1,165.6,185.1Z" fill="#004880"/><rect x="169" y="231" width="2" height="2" fill="#447995"/><rect x="169" y="227" width="2" height="2" fill="#447995"/><rect x="253" y="223" width="2" height="2" fill="#447995"/><rect x="249" y="223" width="2" height="2" fill="#447995"/><rect x="245" y="223" width="2" height="2" fill="#447995"/><rect x="241" y="223" width="2" height="2" fill="#447995"/><rect x="237" y="223" width="2" height="2" fill="#447995"/><rect x="233" y="223" width="2" height="2" fill="#447995"/><rect x="229" y="223" width="2" height="2" fill="#447995"/><rect x="225" y="223" width="2" height="2" fill="#447995"/><rect x="221" y="223" width="2" height="2" fill="#447995"/><rect x="217" y="223" width="2" height="2" fill="#447995"/><rect x="213" y="223" width="2" height="2" fill="#447995"/><rect x="209" y="223" width="2" height="2" fill="#447995"/><rect x="205" y="223" width="2" height="2" fill="#447995"/><rect x="201" y="223" width="2" height="2" fill="#447995"/><rect x="197" y="223" width="2" height="2" fill="#447995"/><rect x="193" y="223" width="2" height="2" fill="#447995"/><rect x="189" y="223" width="2" height="2" fill="#447995"/><rect x="185" y="223" width="2" height="2" fill="#447995"/><rect x="181" y="223" width="2" height="2" fill="#447995"/><rect x="177" y="223" width="2" height="2" fill="#447995"/><rect x="173" y="223" width="2" height="2" fill="#447995"/><rect x="253" y="235" width="2" height="2" fill="#447995"/><rect x="253" y="231" width="2" height="2" fill="#447995"/><rect x="253" y="227" width="2" height="2" fill="#447995"/><rect x="241" y="231" width="2" height="2" fill="#447995"/><rect x="241" y="227" width="2" height="2" fill="#447995"/><rect x="249" y="235" width="2" height="2" fill="#447995"/><rect x="245" y="235" width="2" height="2" fill="#447995"/><rect x="241" y="235" width="2" height="2" fill="#447995"/><rect x="237" y="235" width="2" height="2" fill="#447995"/><rect x="233" y="235" width="2" height="2" fill="#447995"/><rect x="229" y="235" width="2" height="2" fill="#447995"/><rect x="225" y="235" width="2" height="2" fill="#447995"/><rect x="221" y="235" width="2" height="2" fill="#447995"/><rect x="217" y="235" width="2" height="2" fill="#447995"/><rect x="213" y="235" width="2" height="2" fill="#447995"/><rect x="209" y="235" width="2" height="2" fill="#447995"/><rect x="205" y="235" width="2" height="2" fill="#447995"/><rect x="201" y="235" width="2" height="2" fill="#447995"/><rect x="197" y="235" width="2" height="2" fill="#447995"/><rect x="193" y="235" width="2" height="2" fill="#447995"/><rect x="189" y="235" width="2" height="2" fill="#447995"/><rect x="185" y="235" width="2" height="2" fill="#447995"/><rect x="181" y="235" width="2" height="2" fill="#447995"/><rect x="177" y="235" width="2" height="2" fill="#447995"/><rect x="173" y="235" width="2" height="2" fill="#447995"/><rect x="169" y="235" width="2" height="2" fill="#447995"/><rect x="169" y="231" width="2" height="2" fill="#447995"/><rect x="169" y="227" width="2" height="2" fill="#447995"/><polygon points="171 223 169 223 169 224.624 169 224.897 169 225 170.022 225 170.022 224.999 171 224.999 171 223" fill="#447995"/><rect x="248" y="286" width="2" height="2" fill="#447995"/><rect x="244" y="286" width="2" height="2" fill="#447995"/><rect x="240" y="286" width="2" height="2" fill="#447995"/><rect x="236" y="286" width="2" height="2" fill="#447995"/><rect x="232" y="286" width="2" height="2" fill="#447995"/><rect x="228" y="286" width="2" height="2" fill="#447995"/><rect x="224" y="286" width="2" height="2" fill="#447995"/><rect x="220" y="286" width="2" height="2" fill="#447995"/><rect x="216" y="286" width="2" height="2" fill="#447995"/><rect x="212" y="286" width="2" height="2" fill="#447995"/><rect x="208" y="286" width="2" height="2" fill="#447995"/><rect x="204" y="286" width="2" height="2" fill="#447995"/><rect x="200" y="286" width="2" height="2" fill="#447995"/><rect x="196" y="286" width="2" height="2" fill="#447995"/><rect x="192" y="286" width="2" height="2" fill="#447995"/><rect x="188" y="286" width="2" height="2" fill="#447995"/><rect x="184" y="286" width="2" height="2" fill="#447995"/><rect x="180" y="286" width="2" height="2" fill="#447995"/><rect x="176" y="286" width="2" height="2" fill="#447995"/><path d="M178,276h-2v-2h2Zm0-4h-2v-2h2Zm0-4h-2v-2h2Zm0-4h-2v-2h2Zm0-4h-2v-2h2Zm0-4h-2v-2h2Zm0-4h-2v-2h2Zm0-4h-2v-2h2Zm0-4h-2v-2h2Zm0-4h-2v-2h2Z" fill="#447995"/><rect x="176" y="282" width="2" height="2" fill="#447995"/><rect x="176" y="278" width="2" height="2" fill="#447995"/><polygon points="178 274 176 274 176 275.624 176 275.897 176 276 177.022 276 177.022 275.999 178 275.999 178 274" fill="#447995"/><path d="M238,276h-2v-2h2Zm0-4h-2v-2h2Zm0-4h-2v-2h2Zm0-4h-2v-2h2Zm0-4h-2v-2h2Zm0-4h-2v-2h2Zm0-4h-2v-2h2Zm0-4h-2v-2h2Zm0-4h-2v-2h2Zm0-4h-2v-2h2Z" fill="#447995"/><rect x="236" y="282" width="2" height="2" fill="#447995"/><rect x="236" y="278" width="2" height="2" fill="#447995"/><polygon points="238 274 236 274 236 275.624 236 275.897 236 276 237.022 276 237.022 275.999 238 275.999 238 274" fill="#447995"/><path d="M250,276h-2v-2h2Zm0-4h-2v-2h2Zm0-4h-2v-2h2Zm0-4h-2v-2h2Zm0-4h-2v-2h2Zm0-4h-2v-2h2Zm0-4h-2v-2h2Zm0-4h-2v-2h2Zm0-4h-2v-2h2Zm0-4h-2v-2h2Z" fill="#447995"/><rect x="248" y="282" width="2" height="2" fill="#447995"/><rect x="248" y="278" width="2" height="2" fill="#447995"/><polygon points="250 274 248 274 248 275.624 248 275.897 248 276 249.022 276 249.022 275.999 250 275.999 250 274" fill="#447995"/><rect x="51" y="231" width="2" height="2" fill="#447995"/><rect x="51" y="227" width="2" height="2" fill="#447995"/><rect x="135" y="223" width="2" height="2" fill="#447995"/><rect x="131" y="223" width="2" height="2" fill="#447995"/><rect x="127" y="223" width="2" height="2" fill="#447995"/><rect x="123" y="223" width="2" height="2" fill="#447995"/><rect x="119" y="223" width="2" height="2" fill="#447995"/><rect x="115" y="223" width="2" height="2" fill="#447995"/><rect x="111" y="223" width="2" height="2" fill="#447995"/><rect x="107" y="223" width="2" height="2" fill="#447995"/><rect x="103" y="223" width="2" height="2" fill="#447995"/><rect x="99" y="223" width="2" height="2" fill="#447995"/><rect x="95" y="223" width="2" height="2" fill="#447995"/><rect x="91" y="223" width="2" height="2" fill="#447995"/><rect x="87" y="223" width="2" height="2" fill="#447995"/><rect x="83" y="223" width="2" height="2" fill="#447995"/><rect x="79" y="223" width="2" height="2" fill="#447995"/><rect x="75" y="223" width="2" height="2" fill="#447995"/><rect x="71" y="223" width="2" height="2" fill="#447995"/><rect x="67" y="223" width="2" height="2" fill="#447995"/><rect x="63" y="223" width="2" height="2" fill="#447995"/><rect x="59" y="223" width="2" height="2" fill="#447995"/><rect x="55" y="223" width="2" height="2" fill="#447995"/><rect x="135" y="235" width="2" height="2" fill="#447995"/><rect x="135" y="231" width="2" height="2" fill="#447995"/><rect x="135" y="227" width="2" height="2" fill="#447995"/><rect x="123" y="231" width="2" height="2" fill="#447995"/><rect x="123" y="227" width="2" height="2" fill="#447995"/><rect x="131" y="235" width="2" height="2" fill="#447995"/><rect x="127" y="235" width="2" height="2" fill="#447995"/><rect x="123" y="235" width="2" height="2" fill="#447995"/><rect x="119" y="235" width="2" height="2" fill="#447995"/><rect x="115" y="235" width="2" height="2" fill="#447995"/><rect x="111" y="235" width="2" height="2" fill="#447995"/><rect x="107" y="235" width="2" height="2" fill="#447995"/><rect x="103" y="235" width="2" height="2" fill="#447995"/><rect x="99" y="235" width="2" height="2" fill="#447995"/><rect x="95" y="235" width="2" height="2" fill="#447995"/><rect x="91" y="235" width="2" height="2" fill="#447995"/><rect x="87" y="235" width="2" height="2" fill="#447995"/><rect x="83" y="235" width="2" height="2" fill="#447995"/><rect x="79" y="235" width="2" height="2" fill="#447995"/><rect x="75" y="235" width="2" height="2" fill="#447995"/><rect x="71" y="235" width="2" height="2" fill="#447995"/><rect x="67" y="235" width="2" height="2" fill="#447995"/><rect x="63" y="235" width="2" height="2" fill="#447995"/><rect x="59" y="235" width="2" height="2" fill="#447995"/><rect x="55" y="235" width="2" height="2" fill="#447995"/><rect x="51" y="235" width="2" height="2" fill="#447995"/><rect x="51" y="231" width="2" height="2" fill="#447995"/><rect x="51" y="227" width="2" height="2" fill="#447995"/><polygon points="53 223 51 223 51 224.624 51 224.897 51 225 52.022 225 52.022 224.999 53 224.999 53 223" fill="#447995"/><rect x="130" y="286" width="2" height="2" fill="#447995"/><rect x="126" y="286" width="2" height="2" fill="#447995"/><rect x="122" y="286" width="2" height="2" fill="#447995"/><rect x="118" y="286" width="2" height="2" fill="#447995"/><rect x="114" y="286" width="2" height="2" fill="#447995"/><rect x="110" y="286" width="2" height="2" fill="#447995"/><rect x="106" y="286" width="2" height="2" fill="#447995"/><rect x="102" y="286" width="2" height="2" fill="#447995"/><rect x="98" y="286" width="2" height="2" fill="#447995"/><rect x="94" y="286" width="2" height="2" fill="#447995"/><rect x="90" y="286" width="2" height="2" fill="#447995"/><rect x="86" y="286" width="2" height="2" fill="#447995"/><rect x="82" y="286" width="2" height="2" fill="#447995"/><rect x="78" y="286" width="2" height="2" fill="#447995"/><rect x="74" y="286" width="2" height="2" fill="#447995"/><rect x="70" y="286" width="2" height="2" fill="#447995"/><rect x="66" y="286" width="2" height="2" fill="#447995"/><rect x="62" y="286" width="2" height="2" fill="#447995"/><rect x="58" y="286" width="2" height="2" fill="#447995"/><path d="M60,276H58v-2h2Zm0-4H58v-2h2Zm0-4H58v-2h2Zm0-4H58v-2h2Zm0-4H58v-2h2Zm0-4H58v-2h2Zm0-4H58v-2h2Zm0-4H58v-2h2Zm0-4H58v-2h2Zm0-4H58v-2h2Z" fill="#447995"/><rect x="58" y="282" width="2" height="2" fill="#447995"/><rect x="58" y="278" width="2" height="2" fill="#447995"/><polygon points="60 274 58 274 58 275.624 58 275.897 58 276 59.022 276 59.022 275.999 60 275.999 60 274" fill="#447995"/><path d="M120,276h-2v-2h2Zm0-4h-2v-2h2Zm0-4h-2v-2h2Zm0-4h-2v-2h2Zm0-4h-2v-2h2Zm0-4h-2v-2h2Zm0-4h-2v-2h2Zm0-4h-2v-2h2Zm0-4h-2v-2h2Zm0-4h-2v-2h2Z" fill="#447995"/><rect x="118" y="282" width="2" height="2" fill="#447995"/><rect x="118" y="278" width="2" height="2" fill="#447995"/><polygon points="120 274 118 274 118 275.624 118 275.897 118 276 119.022 276 119.022 275.999 120 275.999 120 274" fill="#447995"/><path d="M132,276h-2v-2h2Zm0-4h-2v-2h2Zm0-4h-2v-2h2Zm0-4h-2v-2h2Zm0-4h-2v-2h2Zm0-4h-2v-2h2Zm0-4h-2v-2h2Zm0-4h-2v-2h2Zm0-4h-2v-2h2Zm0-4h-2v-2h2Z" fill="#447995"/><rect x="130" y="282" width="2" height="2" fill="#447995"/><rect x="130" y="278" width="2" height="2" fill="#447995"/><polygon points="132 274 130 274 130 275.624 130 275.897 130 276 131.022 276 131.022 275.999 132 275.999 132 274" fill="#447995"/><line x1="259" y1="246" x2="437" y2="246" fill="none" stroke="#737373" stroke-miterlimit="10" stroke-width="2" stroke-dasharray="4 4"/><line x1="437" y1="154" x2="255" y2="154" fill="none" stroke="#737373" stroke-miterlimit="10" stroke-width="2" stroke-dasharray="4 4"/><path d="M201,500H125c-24,0-34-5-34-29V292" fill="none" stroke="#737373" stroke-miterlimit="10" stroke-width="2" stroke-dasharray="4 4"/><line x1="382" y1="440" x2="382" y2="404" fill="none" stroke="#737373" stroke-miterlimit="10" stroke-width="2" stroke-dasharray="4 4"/><text transform="translate(474.318 109.435)" font-size="16" font-family="SegoeUI, Segoe UI">Gizmos</text><rect x="446.124" y="125.258" width="64.999" height="55.584" fill="#fff"/><polygon points="511.777 130.036 444.264 130.036 449.753 135.95 511.777 135.95 511.777 130.036" fill="#c2c2c2"/><rect x="511" y="125" width="10" height="56" fill="#939393"/><rect x="441" y="118" width="76" height="14" fill="#fff"/><rect x="515" y="118" width="10" height="14" fill="#939393"/><text transform="translate(462.594 153.435)" font-size="16" font-family="SegoeUI, Segoe UI">1.0.0<tspan x="0" y="19.2">3.0.0</tspan></text><path d="M448.356,84.081a8.932,8.932,0,0,0-8.949,8.955v9.678a8.932,8.932,0,0,0,8.949,8.955h9.673a8.933,8.933,0,0,0,8.95-8.955V93.036a8.933,8.933,0,0,0-8.95-8.955Zm-1.9,4.7a3.347,3.347,0,0,1,0,6.693h0a3.347,3.347,0,0,1,0-6.693Zm10.667,8.14a5.789,5.789,0,1,1-5.786,5.789,5.788,5.788,0,0,1,5.786-5.789ZM437.6,80.1a3.166,3.166,0,1,1-3.165,3.166A3.165,3.165,0,0,1,437.6,80.1Z" fill="#004880"/><text transform="translate(474.064 215.435)" font-size="16" font-family="SegoeUI, Segoe UI">Gadgets</text><text transform="translate(463.594 259.435)" font-size="16" font-family="SegoeUI, Segoe UI">2.0.0</text><path d="M449.356,190.081a8.932,8.932,0,0,0-8.949,8.955v9.678a8.932,8.932,0,0,0,8.949,8.955h9.673a8.933,8.933,0,0,0,8.95-8.955v-9.678a8.933,8.933,0,0,0-8.95-8.955Zm-1.9,4.7a3.347,3.347,0,0,1,0,6.693h0a3.347,3.347,0,0,1,0-6.693Zm10.667,8.14a5.789,5.789,0,1,1-5.786,5.789,5.788,5.788,0,0,1,5.786-5.789ZM438.6,186.1a3.166,3.166,0,1,1-3.165,3.166A3.165,3.165,0,0,1,438.6,186.1Z" fill="#004880"/><rect x="439" y="231" width="2" height="2" fill="#107c10"/><rect x="439" y="227" width="2" height="2" fill="#107c10"/><rect x="523" y="223" width="2" height="2" fill="#107c10"/><rect x="519" y="223" width="2" height="2" fill="#107c10"/><rect x="515" y="223" width="2" height="2" fill="#107c10"/><rect x="511" y="223" width="2" height="2" fill="#107c10"/><rect x="507" y="223" width="2" height="2" fill="#107c10"/><rect x="503" y="223" width="2" height="2" fill="#107c10"/><rect x="499" y="223" width="2" height="2" fill="#107c10"/><rect x="495" y="223" width="2" height="2" fill="#107c10"/><rect x="491" y="223" width="2" height="2" fill="#107c10"/><rect x="487" y="223" width="2" height="2" fill="#107c10"/><rect x="483" y="223" width="2" height="2" fill="#107c10"/><rect x="479" y="223" width="2" height="2" fill="#107c10"/><rect x="475" y="223" width="2" height="2" fill="#107c10"/><rect x="471" y="223" width="2" height="2" fill="#107c10"/><rect x="467" y="223" width="2" height="2" fill="#107c10"/><rect x="463" y="223" width="2" height="2" fill="#107c10"/><rect x="459" y="223" width="2" height="2" fill="#107c10"/><rect x="455" y="223" width="2" height="2" fill="#107c10"/><rect x="451" y="223" width="2" height="2" fill="#107c10"/><rect x="447" y="223" width="2" height="2" fill="#107c10"/><rect x="443" y="223" width="2" height="2" fill="#107c10"/><rect x="523" y="235" width="2" height="2" fill="#107c10"/><rect x="523" y="231" width="2" height="2" fill="#107c10"/><rect x="523" y="227" width="2" height="2" fill="#107c10"/><rect x="511" y="231" width="2" height="2" fill="#107c10"/><rect x="511" y="227" width="2" height="2" fill="#107c10"/><rect x="519" y="235" width="2" height="2" fill="#107c10"/><rect x="515" y="235" width="2" height="2" fill="#107c10"/><rect x="511" y="235" width="2" height="2" fill="#107c10"/><rect x="507" y="235" width="2" height="2" fill="#107c10"/><rect x="503" y="235" width="2" height="2" fill="#107c10"/><rect x="499" y="235" width="2" height="2" fill="#107c10"/><rect x="495" y="235" width="2" height="2" fill="#107c10"/><rect x="491" y="235" width="2" height="2" fill="#107c10"/><rect x="487" y="235" width="2" height="2" fill="#107c10"/><rect x="483" y="235" width="2" height="2" fill="#107c10"/><rect x="479" y="235" width="2" height="2" fill="#107c10"/><rect x="475" y="235" width="2" height="2" fill="#107c10"/><rect x="471" y="235" width="2" height="2" fill="#107c10"/><rect x="467" y="235" width="2" height="2" fill="#107c10"/><rect x="463" y="235" width="2" height="2" fill="#107c10"/><rect x="459" y="235" width="2" height="2" fill="#107c10"/><rect x="455" y="235" width="2" height="2" fill="#107c10"/><rect x="451" y="235" width="2" height="2" fill="#107c10"/><rect x="447" y="235" width="2" height="2" fill="#107c10"/><rect x="443" y="235" width="2" height="2" fill="#107c10"/><rect x="439" y="235" width="2" height="2" fill="#107c10"/><rect x="439" y="231" width="2" height="2" fill="#107c10"/><rect x="439" y="227" width="2" height="2" fill="#107c10"/><polygon points="441 223 439 223 439 224.624 439 224.897 439 225 440.022 225 440.022 224.999 441 224.999 441 223" fill="#107c10"/><rect x="518" y="286" width="2" height="2" fill="#107c10"/><rect x="514" y="286" width="2" height="2" fill="#107c10"/><rect x="510" y="286" width="2" height="2" fill="#107c10"/><rect x="506" y="286" width="2" height="2" fill="#107c10"/><rect x="502" y="286" width="2" height="2" fill="#107c10"/><rect x="498" y="286" width="2" height="2" fill="#107c10"/><rect x="494" y="286" width="2" height="2" fill="#107c10"/><rect x="490" y="286" width="2" height="2" fill="#107c10"/><rect x="486" y="286" width="2" height="2" fill="#107c10"/><rect x="482" y="286" width="2" height="2" fill="#107c10"/><rect x="478" y="286" width="2" height="2" fill="#107c10"/><rect x="474" y="286" width="2" height="2" fill="#107c10"/><rect x="470" y="286" width="2" height="2" fill="#107c10"/><rect x="466" y="286" width="2" height="2" fill="#107c10"/><rect x="462" y="286" width="2" height="2" fill="#107c10"/><rect x="458" y="286" width="2" height="2" fill="#107c10"/><rect x="454" y="286" width="2" height="2" fill="#107c10"/><rect x="450" y="286" width="2" height="2" fill="#107c10"/><rect x="446" y="286" width="2" height="2" fill="#107c10"/><path d="M448,276h-2v-2h2Zm0-4h-2v-2h2Zm0-4h-2v-2h2Zm0-4h-2v-2h2Zm0-4h-2v-2h2Zm0-4h-2v-2h2Zm0-4h-2v-2h2Zm0-4h-2v-2h2Zm0-4h-2v-2h2Zm0-4h-2v-2h2Z" fill="#107c10"/><rect x="446" y="282" width="2" height="2" fill="#107c10"/><rect x="446" y="278" width="2" height="2" fill="#107c10"/><polygon points="448 274 446 274 446 275.624 446 275.897 446 276 447.022 276 447.022 275.999 448 275.999 448 274" fill="#107c10"/><path d="M508,276h-2v-2h2Zm0-4h-2v-2h2Zm0-4h-2v-2h2Zm0-4h-2v-2h2Zm0-4h-2v-2h2Zm0-4h-2v-2h2Zm0-4h-2v-2h2Zm0-4h-2v-2h2Zm0-4h-2v-2h2Zm0-4h-2v-2h2Z" fill="#107c10"/><rect x="506" y="282" width="2" height="2" fill="#107c10"/><rect x="506" y="278" width="2" height="2" fill="#107c10"/><polygon points="508 274 506 274 506 275.624 506 275.897 506 276 507.022 276 507.022 275.999 508 275.999 508 274" fill="#107c10"/><path d="M520,276h-2v-2h2Zm0-4h-2v-2h2Zm0-4h-2v-2h2Zm0-4h-2v-2h2Zm0-4h-2v-2h2Zm0-4h-2v-2h2Zm0-4h-2v-2h2Zm0-4h-2v-2h2Zm0-4h-2v-2h2Zm0-4h-2v-2h2Z" fill="#107c10"/><rect x="518" y="282" width="2" height="2" fill="#107c10"/><rect x="518" y="278" width="2" height="2" fill="#107c10"/><polygon points="520 274 518 274 518 275.624 518 275.897 518 276 519.022 276 519.022 275.999 520 275.999 520 274" fill="#107c10"/><path d="M211,313V292" fill="none" stroke="#737373" stroke-miterlimit="10" stroke-width="2" stroke-dasharray="4 4"/><path d="M474,292v87c0,17-8,25-26,25H238c-21,0-27-14-27-28V353" fill="none" stroke="#737373" stroke-miterlimit="10" stroke-width="2" stroke-dasharray="4 4"/><line x1="24" y1="509.321" x2="63.747" y2="509.321" fill="none" stroke="#004880" stroke-miterlimit="10" stroke-width="3"/><polygon points="53.806 521.591 51.76 519.393 62.595 509.324 51.76 499.252 53.806 497.055 67 509.324 53.806 521.591" fill="#004880"/><text transform="translate(26.333 540.435)" font-size="16" font-family="SegoeUI, Segoe UI">Upstream source</text><line x1="24" y1="576.5" x2="68" y2="576.5" fill="none" stroke="#737373" stroke-miterlimit="10" stroke-width="2" stroke-dasharray="4 4"/><text transform="translate(26.333 602.435)" font-size="16" font-family="SegoeUI, Segoe UI">Feed link</text><polygon points="224.043 320.032 221.01 317 211 327.01 200.99 317 197.957 320.032 207.968 330.043 197.957 340.053 200.99 343.086 211 333.075 221.01 343.086 224.043 340.053 214.032 330.043 224.043 320.032" fill="#a80000"/><polygon points="102.043 252.032 99.01 249 89 259.01 78.99 249 75.957 252.032 85.968 262.043 75.957 272.053 78.99 275.086 89 265.075 99.01 275.086 102.043 272.053 92.032 262.043 102.043 252.032" fill="#a80000"/></svg>