<svg width="100%" viewBox="0 0 932 360" fill="none" preserveAspectRatio="xMidYMid meet" xmlns="http://www.w3.org/2000/svg">
  <path fill="#EBEBEB" d="M0 0h932v360H0z"/>
  <rect x="338" y="63.363" width="256" height="256" rx="4" fill="#fff" filter="url(#filter0_d)"/>
  <rect x="362" y="231.363" width="208" height="64" rx="4" fill="#fff" filter="url(#filter1_d)"/>
  <path d="M426.759 267.974v-1.675c.15.137.328.26.533.369.21.109.431.203.663.28.233.073.465.13.697.171.233.041.447.062.643.062.684 0 1.192-.114 1.524-.342.338-.228.506-.558.506-.991a1.05 1.05 0 0 0-.171-.602 1.689 1.689 0 0 0-.465-.472 4.689 4.689 0 0 0-.71-.403 32.865 32.865 0 0 0-.869-.41 14.757 14.757 0 0 1-.929-.54 4.162 4.162 0 0 1-.752-.602 2.658 2.658 0 0 1-.499-.752 2.466 2.466 0 0 1-.178-.977c0-.46.102-.859.308-1.196.209-.342.483-.623.82-.841a3.661 3.661 0 0 1 1.162-.492c.433-.11.875-.165 1.326-.165 1.026 0 1.773.117 2.242.349v1.607c-.556-.401-1.271-.602-2.146-.602-.242 0-.483.023-.725.068a2.189 2.189 0 0 0-.642.226c-.187.105-.34.239-.458.403a.987.987 0 0 0-.178.595c0 .219.046.408.137.567.091.16.223.306.396.438.178.132.392.262.643.39.255.123.549.257.882.403.341.178.663.364.963.56.306.196.572.413.8.65.233.237.415.501.547.793.137.287.205.615.205.984 0 .497-.1.916-.301 1.258-.2.342-.471.62-.813.834a3.578 3.578 0 0 1-1.169.465 6.654 6.654 0 0 1-1.401.143c-.164 0-.367-.013-.609-.041a7.067 7.067 0 0 1-.731-.109 6.382 6.382 0 0 1-.711-.171 2.271 2.271 0 0 1-.54-.232zM437.942 268.288c-.31.155-.717.233-1.223.233-1.358 0-2.037-.652-2.037-1.956v-3.958h-1.169v-1.244h1.169v-1.62l1.586-.451v2.071h1.674v1.244h-1.674v3.5c0 .415.075.711.225.889.151.178.401.267.752.267.269 0 .501-.078.697-.233v1.258zM445.154 265.294h-4.771c.018.647.216 1.146.595 1.497.382.351.906.526 1.572.526.747 0 1.433-.223 2.057-.67v1.279c-.638.401-1.481.601-2.529.601-1.03 0-1.839-.316-2.427-.95-.583-.638-.875-1.533-.875-2.686 0-1.09.322-1.976.964-2.66.647-.688 1.449-1.032 2.406-1.032.958 0 1.698.308 2.222.923s.786 1.47.786 2.564v.608zm-1.531-1.121c-.005-.57-.139-1.012-.403-1.326-.265-.319-.629-.479-1.094-.479-.456 0-.843.167-1.162.499-.315.333-.508.768-.581 1.306h3.24zM448.278 267.331h-.027v4.252h-1.586v-10.22h1.586v1.231h.027c.543-.93 1.336-1.395 2.379-1.395.889 0 1.582.312 2.078.937.497.624.745 1.463.745 2.515 0 1.167-.28 2.101-.84 2.803-.561.702-1.327 1.053-2.297 1.053-.893 0-1.582-.392-2.065-1.176zm-.041-2.762v.869c0 .51.162.943.486 1.298.328.356.742.534 1.244.534.588 0 1.048-.228 1.381-.684.337-.46.506-1.101.506-1.921 0-.688-.158-1.226-.472-1.613-.31-.392-.732-.588-1.265-.588-.565 0-1.021.2-1.367.601-.342.401-.513.903-.513 1.504zM458.765 268.001v-1.49a3.385 3.385 0 0 0 2.16.759c.651 0 1.171-.149 1.558-.445.392-.296.588-.697.588-1.203 0-1.112-.85-1.668-2.55-1.668h-.758v-1.271h.724c1.509 0 2.263-.524 2.263-1.573 0-.966-.588-1.449-1.764-1.449-.656 0-1.273.235-1.852.704v-1.408c.665-.374 1.451-.561 2.358-.561.871 0 1.568.219 2.092.657.524.437.786.998.786 1.681 0 1.29-.656 2.12-1.969 2.489v.027c.707.068 1.265.317 1.675.745.41.424.615.955.615 1.593 0 .879-.33 1.59-.991 2.133-.661.537-1.531.806-2.611.806-.971 0-1.746-.175-2.324-.526z" fill="#606060"/>
  <path fill-rule="evenodd" clip-rule="evenodd" d="M394 279.363c8.837 0 16-7.163 16-16 0-8.836-7.163-16-16-16s-16 7.164-16 16c0 8.837 7.163 16 16 16zm0-2c7.732 0 14-6.268 14-14s-6.268-14-14-14-14 6.268-14 14 6.268 14 14 14z" fill="#000" fill-opacity=".38"/>
  <rect x="362" y="159.363" width="208" height="64" rx="4" fill="#fff" filter="url(#filter2_d)"/>
  <path d="M426.759 195.974v-1.675c.15.137.328.26.533.369.21.109.431.203.663.28.233.073.465.13.697.171.233.041.447.062.643.062.684 0 1.192-.114 1.524-.342.338-.228.506-.558.506-.991a1.05 1.05 0 0 0-.171-.602 1.689 1.689 0 0 0-.465-.472 4.689 4.689 0 0 0-.71-.403 32.865 32.865 0 0 0-.869-.41 14.757 14.757 0 0 1-.929-.54 4.162 4.162 0 0 1-.752-.602 2.658 2.658 0 0 1-.499-.752 2.466 2.466 0 0 1-.178-.977c0-.46.102-.859.308-1.196.209-.342.483-.623.82-.841a3.661 3.661 0 0 1 1.162-.492c.433-.11.875-.165 1.326-.165 1.026 0 1.773.117 2.242.349v1.607c-.556-.401-1.271-.602-2.146-.602-.242 0-.483.023-.725.068a2.189 2.189 0 0 0-.642.226c-.187.105-.34.239-.458.403a.987.987 0 0 0-.178.595c0 .219.046.408.137.567.091.16.223.306.396.438.178.132.392.262.643.39.255.123.549.257.882.403.341.178.663.364.963.56.306.196.572.413.8.65.233.237.415.501.547.793.137.287.205.615.205.984 0 .497-.1.916-.301 1.258-.2.342-.471.62-.813.834a3.578 3.578 0 0 1-1.169.465 6.654 6.654 0 0 1-1.401.143c-.164 0-.367-.013-.609-.041a7.067 7.067 0 0 1-.731-.109 6.382 6.382 0 0 1-.711-.171 2.271 2.271 0 0 1-.54-.232zM437.942 196.288c-.31.155-.717.233-1.223.233-1.358 0-2.037-.652-2.037-1.956v-3.958h-1.169v-1.244h1.169v-1.62l1.586-.451v2.071h1.674v1.244h-1.674v3.5c0 .415.075.711.225.889.151.178.401.267.752.267.269 0 .501-.078.697-.233v1.258zM445.154 193.294h-4.771c.018.647.216 1.146.595 1.497.382.351.906.526 1.572.526.747 0 1.433-.223 2.057-.67v1.279c-.638.401-1.481.601-2.529.601-1.03 0-1.839-.316-2.427-.95-.583-.638-.875-1.533-.875-2.686 0-1.09.322-1.976.964-2.66.647-.688 1.449-1.032 2.406-1.032.958 0 1.698.308 2.222.923s.786 1.47.786 2.564v.608zm-1.531-1.121c-.005-.57-.139-1.012-.403-1.326-.265-.319-.629-.479-1.094-.479-.456 0-.843.167-1.162.499-.315.333-.508.768-.581 1.306h3.24zM448.278 195.331h-.027v4.252h-1.586v-10.22h1.586v1.231h.027c.543-.93 1.336-1.395 2.379-1.395.889 0 1.582.312 2.078.937.497.624.745 1.463.745 2.515 0 1.167-.28 2.101-.84 2.803-.561.702-1.327 1.053-2.297 1.053-.893 0-1.582-.392-2.065-1.176zm-.041-2.762v.869c0 .51.162.943.486 1.298.328.356.742.534 1.244.534.588 0 1.048-.228 1.381-.684.337-.46.506-1.101.506-1.921 0-.688-.158-1.226-.472-1.613-.31-.392-.732-.588-1.265-.588-.565 0-1.021.2-1.367.601-.342.401-.513.903-.513 1.504zM464.746 196.363h-6.152v-.759c0-.309.043-.599.13-.868a3.4 3.4 0 0 1 .348-.765c.146-.242.317-.467.513-.677.196-.214.406-.419.629-.615.223-.201.451-.392.683-.575.233-.186.461-.373.684-.56.21-.178.401-.351.574-.52.173-.173.322-.35.445-.533a2.093 2.093 0 0 0 .389-1.237c0-.26-.041-.485-.123-.677a1.224 1.224 0 0 0-.335-.485 1.337 1.337 0 0 0-.506-.294 1.921 1.921 0 0 0-.642-.103c-.401 0-.809.094-1.224.281a4.179 4.179 0 0 0-1.196.84v-1.524c.2-.15.403-.28.608-.39.205-.114.417-.207.636-.28.219-.077.449-.134.69-.171.242-.036.499-.055.773-.055.442 0 .843.06 1.203.178.36.114.668.285.923.513.255.223.451.503.588.841.141.337.212.724.212 1.162 0 .396-.05.754-.151 1.073a3.286 3.286 0 0 1-.417.882 4.45 4.45 0 0 1-.649.779c-.255.246-.54.499-.855.759a44.51 44.51 0 0 1-.793.629c-.259.2-.494.399-.704.595-.209.191-.38.385-.512.581a1.035 1.035 0 0 0-.192.581v.034h4.423v1.36z" fill="#606060"/>
  <path fill-rule="evenodd" clip-rule="evenodd" d="M394 207.363c8.837 0 16-7.163 16-16 0-8.836-7.163-16-16-16s-16 7.164-16 16c0 8.837 7.163 16 16 16zm-7-16a7.003 7.003 0 0 1 4.627-6.587c.499-.18.873-.63.873-1.161 0-.697-.628-1.232-1.292-1.02a9.204 9.204 0 0 0-6.27 10.367c.124.707.924 1.008 1.545.649.445-.257.652-.78.582-1.289a7.064 7.064 0 0 1-.065-.959zm14 0c0 .325-.022.645-.065.959-.07.509.137 1.032.582 1.289.622.359 1.421.058 1.545-.649a9.204 9.204 0 0 0-6.27-10.367c-.664-.212-1.292.323-1.292 1.02 0 .531.374.981.874 1.161a7.004 7.004 0 0 1 4.626 6.587zm-7 7a6.97 6.97 0 0 0 4.728-1.838c.403-.369.999-.484 1.472-.21.586.339.743 1.122.261 1.598a9.17 9.17 0 0 1-6.461 2.65 9.17 9.17 0 0 1-6.461-2.65c-.482-.476-.325-1.259.261-1.598.473-.274 1.069-.159 1.472.21a6.97 6.97 0 0 0 4.728 1.838z" fill="#0078D7"/>
  <rect x="362" y="87.363" width="208" height="64" rx="4" fill="#fff" filter="url(#filter3_d)"/>
  <path d="M426.759 123.974v-1.675c.15.137.328.26.533.369.21.109.431.203.663.28.233.073.465.13.697.171.233.041.447.062.643.062.684 0 1.192-.114 1.524-.342.338-.228.506-.558.506-.991a1.05 1.05 0 0 0-.171-.602 1.689 1.689 0 0 0-.465-.472 4.689 4.689 0 0 0-.71-.403 32.865 32.865 0 0 0-.869-.41 14.757 14.757 0 0 1-.929-.54 4.162 4.162 0 0 1-.752-.602 2.658 2.658 0 0 1-.499-.752 2.466 2.466 0 0 1-.178-.977c0-.46.102-.859.308-1.196.209-.342.483-.623.82-.841a3.661 3.661 0 0 1 1.162-.492c.433-.11.875-.165 1.326-.165 1.026 0 1.773.117 2.242.349v1.607c-.556-.401-1.271-.602-2.146-.602-.242 0-.483.023-.725.068a2.189 2.189 0 0 0-.642.226c-.187.105-.34.239-.458.403a.987.987 0 0 0-.178.595c0 .219.046.408.137.567.091.16.223.306.396.438.178.132.392.262.643.39.255.123.549.257.882.403.341.178.663.364.963.56.306.196.572.413.8.65.233.237.415.501.547.793.137.287.205.615.205.984 0 .497-.1.916-.301 1.258-.2.342-.471.62-.813.834a3.578 3.578 0 0 1-1.169.465 6.654 6.654 0 0 1-1.401.143c-.164 0-.367-.013-.609-.041a7.067 7.067 0 0 1-.731-.109 6.382 6.382 0 0 1-.711-.171 2.271 2.271 0 0 1-.54-.232zM437.942 124.288c-.31.155-.717.233-1.223.233-1.358 0-2.037-.652-2.037-1.956v-3.958h-1.169v-1.244h1.169v-1.62l1.586-.451v2.071h1.674v1.244h-1.674v3.5c0 .415.075.711.225.889.151.178.401.267.752.267.269 0 .501-.078.697-.233v1.258zM445.154 121.294h-4.771c.018.647.216 1.146.595 1.497.382.351.906.526 1.572.526.747 0 1.433-.223 2.057-.67v1.279c-.638.401-1.481.601-2.529.601-1.03 0-1.839-.316-2.427-.95-.583-.638-.875-1.533-.875-2.686 0-1.09.322-1.976.964-2.66.647-.688 1.449-1.032 2.406-1.032.958 0 1.698.308 2.222.923s.786 1.47.786 2.564v.608zm-1.531-1.121c-.005-.57-.139-1.012-.403-1.326-.265-.319-.629-.479-1.094-.479-.456 0-.843.167-1.162.499-.315.333-.508.768-.581 1.306h3.24zM448.278 123.331h-.027v4.252h-1.586v-10.22h1.586v1.231h.027c.543-.93 1.336-1.395 2.379-1.395.889 0 1.582.312 2.078.937.497.624.745 1.463.745 2.515 0 1.167-.28 2.101-.84 2.803-.561.702-1.327 1.053-2.297 1.053-.893 0-1.582-.392-2.065-1.176zm-.041-2.762v.869c0 .51.162.943.486 1.298.328.356.742.534 1.244.534.588 0 1.048-.228 1.381-.684.337-.46.506-1.101.506-1.921 0-.688-.158-1.226-.472-1.613-.31-.392-.732-.588-1.265-.588-.565 0-1.021.2-1.367.601-.342.401-.513.903-.513 1.504zM462.128 114.342v10.021h-1.586v-8.08a5.16 5.16 0 0 1-.93.527 7.875 7.875 0 0 1-1.128.376v-1.354c.265-.087.52-.178.766-.273.246-.096.488-.203.725-.322a10.348 10.348 0 0 0 1.483-.895h.67z" fill="#606060"/>
  <path fill-rule="evenodd" clip-rule="evenodd" d="M394.305 135.363c8.837 0 16-7.163 16-16 0-8.836-7.163-16-16-16-8.836 0-16 7.164-16 16 0 8.837 7.164 16 16 16zm-3.201-11.169l-.004-.004-2.855-2.855a1.5 1.5 0 0 1 2.121-2.122l1.798 1.799 6.21-6.209a1.5 1.5 0 1 1 2.121 2.121l-7.27 7.27a1.5 1.5 0 0 1-2.121 0z" fill="#5BA75F"/>
  <path d="M435.86 50.363h-1.9l-1.565-2.625a5.111 5.111 0 0 0-.417-.615 2.29 2.29 0 0 0-.411-.424 1.338 1.338 0 0 0-.451-.239 1.887 1.887 0 0 0-.554-.075h-.656v3.978h-1.62V40.56h3.227c.46 0 .884.055 1.271.165.388.109.725.275 1.012.499.287.218.51.494.67.827.164.328.246.713.246 1.155 0 .346-.052.665-.157.957a2.445 2.445 0 0 1-.438.773 2.645 2.645 0 0 1-.683.574 3.37 3.37 0 0 1-.896.369v.027c.178.1.333.212.465.335.132.119.257.242.376.37.118.127.235.273.349.437.118.16.248.346.389.56l1.743 2.755zm-5.954-8.483v3.185h1.354c.25 0 .481-.038.69-.116a1.508 1.508 0 0 0 .916-.868c.087-.21.13-.444.13-.704 0-.47-.148-.836-.444-1.1-.296-.265-.723-.397-1.279-.397h-1.367zM442.936 50.363h-1.586v-1.107h-.028c-.46.847-1.176 1.271-2.146 1.271-1.655 0-2.482-.993-2.482-2.98v-4.184h1.586v4.02c0 1.258.486 1.886 1.456 1.886.47 0 .855-.173 1.156-.519.305-.346.458-.8.458-1.36v-4.027h1.586v7zM451.241 50.363h-1.586V46.42c0-1.308-.462-1.962-1.387-1.962-.483 0-.882.182-1.197.547-.314.36-.471.816-.471 1.367v3.992h-1.593v-7h1.593v1.162h.027c.524-.884 1.281-1.326 2.269-1.326.762 0 1.343.249 1.744.745.401.492.601 1.206.601 2.14v4.28zM459.417 50.363h-1.586V46.42c0-1.308-.463-1.962-1.388-1.962-.483 0-.881.182-1.196.547-.314.36-.472.816-.472 1.367v3.992h-1.592v-7h1.592v1.162h.028c.524-.884 1.28-1.326 2.269-1.326.761 0 1.342.249 1.743.745.401.492.602 1.206.602 2.14v4.28zM462.158 41.894a.966.966 0 0 1-.67-.253.838.838 0 0 1-.273-.643.86.86 0 0 1 .273-.65.952.952 0 0 1 .67-.26.97.97 0 0 1 .684.26c.187.174.28.39.28.65a.847.847 0 0 1-.28.636.97.97 0 0 1-.684.26zm.786 8.47h-1.586v-7h1.586v7zM471.257 50.363h-1.586V46.42c0-1.308-.463-1.962-1.388-1.962a1.51 1.51 0 0 0-1.196.547c-.315.36-.472.816-.472 1.367v3.992h-1.593v-7h1.593v1.162h.028c.524-.884 1.28-1.326 2.269-1.326.761 0 1.342.249 1.743.745.401.492.602 1.206.602 2.14v4.28zM479.569 49.803c0 2.57-1.292 3.855-3.876 3.855-.911 0-1.706-.153-2.385-.458v-1.449c.765.438 1.492.656 2.18.656 1.664 0 2.495-.818 2.495-2.454v-.766h-.027c-.524.894-1.312 1.34-2.365 1.34-.852 0-1.541-.31-2.065-.93-.519-.624-.779-1.46-.779-2.508 0-1.19.28-2.135.841-2.837.56-.702 1.331-1.053 2.31-1.053.926 0 1.611.379 2.058 1.135h.027v-.97h1.586v6.439zm-1.572-2.646v-.909c0-.492-.164-.911-.492-1.258a1.586 1.586 0 0 0-1.217-.526c-.601 0-1.073.223-1.415.67-.337.442-.506 1.062-.506 1.86 0 .687.162 1.239.486 1.654.328.41.761.615 1.298.615.547 0 .992-.196 1.333-.588.342-.397.513-.902.513-1.518zM487.075 50.07c0 1.148-.241 2.032-.724 2.652-.483.624-1.174.936-2.072.936-.332 0-.656-.073-.97-.218v-1.36c.296.204.576.307.84.307.894 0 1.34-.789 1.34-2.365v-6.659h1.586v6.706zm-.779-8.176a.966.966 0 0 1-.67-.253.838.838 0 0 1-.273-.643.86.86 0 0 1 .273-.65.952.952 0 0 1 .67-.26c.264 0 .49.087.677.26.187.174.28.39.28.65a.847.847 0 0 1-.28.636.961.961 0 0 1-.677.26zM492.257 50.527c-1.08 0-1.944-.325-2.591-.977-.643-.656-.964-1.525-.964-2.605 0-1.175.335-2.094 1.005-2.755.675-.66 1.581-.99 2.721-.99 1.093 0 1.946.32 2.556.963.611.643.916 1.534.916 2.673 0 1.117-.33 2.012-.991 2.687-.656.67-1.54 1.004-2.652 1.004zm.075-6.063c-.62 0-1.11.216-1.47.65-.36.432-.54 1.03-.54 1.79 0 .734.183 1.313.547 1.737.365.419.852.629 1.463.629.624 0 1.103-.208 1.436-.623.337-.414.505-1.004.505-1.77 0-.77-.168-1.365-.505-1.784-.333-.42-.812-.63-1.436-.63zM499.134 49.352h-.028v1.011h-1.585V40h1.585v4.594h.028c.542-.93 1.335-1.395 2.379-1.395.884 0 1.574.315 2.071.944.501.624.752 1.462.752 2.515 0 1.171-.28 2.11-.841 2.817-.56.701-1.326 1.052-2.297 1.052-.911 0-1.599-.392-2.064-1.175zm-.041-2.783v.868c0 .51.162.944.485 1.3a1.62 1.62 0 0 0 1.244.532c.588 0 1.048-.227 1.381-.683.337-.46.506-1.1.506-1.921 0-.688-.157-1.226-.472-1.613-.31-.392-.731-.588-1.264-.588-.565 0-1.021.2-1.368.601-.341.402-.512.903-.512 1.504z" fill="#606060"/>
  <defs>
    <filter id="filter0_d" x="330" y="58.363" width="272" height="272" filterUnits="userSpaceOnUse" color-interpolation-filters="sRGB">
      <feFlood flood-opacity="0" result="BackgroundImageFix"/>
      <feColorMatrix in="SourceAlpha" values="0 0 0 0 0 0 0 0 0 0 0 0 0 0 0 0 0 0 127 0"/>
      <feOffset dy="3"/>
      <feGaussianBlur stdDeviation="4"/>
      <feColorMatrix values="0 0 0 0 0 0 0 0 0 0 0 0 0 0 0 0 0 0 0.2 0"/>
      <feBlend in2="BackgroundImageFix" result="effect1_dropShadow"/>
      <feBlend in="SourceGraphic" in2="effect1_dropShadow" result="shape"/>
    </filter>
    <filter id="filter1_d" x="354" y="226.363" width="224" height="80" filterUnits="userSpaceOnUse" color-interpolation-filters="sRGB">
      <feFlood flood-opacity="0" result="BackgroundImageFix"/>
      <feColorMatrix in="SourceAlpha" values="0 0 0 0 0 0 0 0 0 0 0 0 0 0 0 0 0 0 127 0"/>
      <feOffset dy="3"/>
      <feGaussianBlur stdDeviation="4"/>
      <feColorMatrix values="0 0 0 0 0 0 0 0 0 0 0 0 0 0 0 0 0 0 0.2 0"/>
      <feBlend in2="BackgroundImageFix" result="effect1_dropShadow"/>
      <feBlend in="SourceGraphic" in2="effect1_dropShadow" result="shape"/>
    </filter>
    <filter id="filter2_d" x="354" y="154.363" width="224" height="80" filterUnits="userSpaceOnUse" color-interpolation-filters="sRGB">
      <feFlood flood-opacity="0" result="BackgroundImageFix"/>
      <feColorMatrix in="SourceAlpha" values="0 0 0 0 0 0 0 0 0 0 0 0 0 0 0 0 0 0 127 0"/>
      <feOffset dy="3"/>
      <feGaussianBlur stdDeviation="4"/>
      <feColorMatrix values="0 0 0 0 0 0 0 0 0 0 0 0 0 0 0 0 0 0 0.2 0"/>
      <feBlend in2="BackgroundImageFix" result="effect1_dropShadow"/>
      <feBlend in="SourceGraphic" in2="effect1_dropShadow" result="shape"/>
    </filter>
    <filter id="filter3_d" x="354" y="82.363" width="224" height="80" filterUnits="userSpaceOnUse" color-interpolation-filters="sRGB">
      <feFlood flood-opacity="0" result="BackgroundImageFix"/>
      <feColorMatrix in="SourceAlpha" values="0 0 0 0 0 0 0 0 0 0 0 0 0 0 0 0 0 0 127 0"/>
      <feOffset dy="3"/>
      <feGaussianBlur stdDeviation="4"/>
      <feColorMatrix values="0 0 0 0 0 0 0 0 0 0 0 0 0 0 0 0 0 0 0.2 0"/>
      <feBlend in2="BackgroundImageFix" result="effect1_dropShadow"/>
      <feBlend in="SourceGraphic" in2="effect1_dropShadow" result="shape"/>
    </filter>
  </defs>
</svg>
