<svg width="100%" viewBox="0 0 932 360" fill="none" preserveAspectRatio="xMidYMid meet" xmlns="http://www.w3.org/2000/svg">
  <path fill="#EBEBEB" d="M0 0h932v360H0z"/>
  <path d="M697.485 34.613A3 3 0 0 1 701 37.568v288.856a3 3 0 0 1-3.521 2.955l-473-83.442a3 3 0 0 1-2.479-2.954V120.022a2.999 2.999 0 0 1 2.485-2.955l473-82.454z" fill="url(#paint0_linear)"/>
  <path d="M704.5 105a2.5 2.5 0 1 0-5 0h5zm-5 35a2.5 2.5 0 1 0 5 0h-5zm5 86a2.5 2.5 0 1 0-5 0h5zm-5 35a2.5 2.5 0 1 0 5 0h-5zm0-156v35h5v-35h-5zm0 121v35h5v-35h-5z" fill="#C8C8C8"/>
  <rect x="100" y="106" width="184" height="152.92" rx="4" fill="#fff" filter="url(#filter0_d)"/>
  <path d="M100 109a4 4 0 0 1 4-4h176a4 4 0 0 1 4 4v33.15H100V109z" fill="#666"/>
  <path d="M128.54 120l-3.442 6.687v3.816h-1.744v-3.779L120 120h1.985l2.065 4.504c.025.054.098.257.22.608h.022c.044-.156.125-.359.242-.608l2.16-4.504h1.846zM137.366 130.503h-1.912l-.945-2.673h-4.131l-.908 2.673h-1.904L131.499 120h1.963l3.904 10.503zm-3.318-4.094l-1.458-4.19a4.947 4.947 0 0 1-.139-.659h-.029a4.253 4.253 0 0 1-.147.659l-1.442 4.19h3.215zM150.095 130.503h-1.728v-6.797c0-.557.034-1.238.102-2.043h-.029c-.107.459-.203.788-.286.988l-3.134 7.852h-1.202l-3.142-7.793c-.088-.23-.18-.579-.278-1.047h-.029c.039.42.058 1.106.058 2.058v6.782h-1.611V120h2.454l2.761 6.995c.21.537.346.937.41 1.201h.037c.18-.552.327-.962.439-1.231l2.812-6.965h2.366v10.503zM158.503 130.503h-5.815V120h1.743v9.031h4.072v1.472z" fill="#fff"/>
  <path d="M121 157.456a3.456 3.456 0 0 1 3.456-3.456h89.766a3.456 3.456 0 1 1 0 6.912h-89.766a3.456 3.456 0 0 1-3.456-3.456zM121 206.702a3.456 3.456 0 0 1 3.456-3.456h89.766a3.456 3.456 0 1 1 0 6.912h-89.766a3.456 3.456 0 0 1-3.456-3.456z" fill="#5BA75F"/>
  <path d="M121 169.456a3.456 3.456 0 0 1 3.456-3.456h34.67a3.456 3.456 0 1 1 0 6.912h-34.67a3.456 3.456 0 0 1-3.456-3.456zM121 181.551a3.455 3.455 0 0 1 3.456-3.455h34.67a3.455 3.455 0 1 1 0 6.911h-34.67a3.456 3.456 0 0 1-3.456-3.456zM121 192.783a3.456 3.456 0 0 1 3.456-3.456h34.67a3.456 3.456 0 1 1 0 6.912h-34.67a3.456 3.456 0 0 1-3.456-3.456zM121 218.701a3.456 3.456 0 0 1 3.456-3.456h34.67a3.456 3.456 0 0 1 0 6.912h-34.67a3.456 3.456 0 0 1-3.456-3.456zM121 230.797a3.456 3.456 0 0 1 3.456-3.456h34.67a3.456 3.456 0 1 1 0 6.912h-34.67a3.456 3.456 0 0 1-3.456-3.456zM121 242.028a3.456 3.456 0 0 1 3.456-3.456h34.67a3.456 3.456 0 0 1 0 6.912h-34.67a3.456 3.456 0 0 1-3.456-3.456z" fill="#5986E7"/>
  <g opacity=".75" fill="#CD4A45">
    <path d="M172 169.456a3.456 3.456 0 0 1 3.456-3.456h84.568a3.456 3.456 0 1 1 0 6.912h-84.568a3.456 3.456 0 0 1-3.456-3.456zM172 180.687a3.455 3.455 0 0 1 3.456-3.455h63.777a3.455 3.455 0 1 1 0 6.911h-63.777a3.456 3.456 0 0 1-3.456-3.456zM172 192.783a3.456 3.456 0 0 1 3.456-3.456h84.568a3.456 3.456 0 1 1 0 6.912h-84.568a3.456 3.456 0 0 1-3.456-3.456zM172 218.701a3.456 3.456 0 0 1 3.456-3.456h84.568a3.456 3.456 0 0 1 0 6.912h-84.568a3.456 3.456 0 0 1-3.456-3.456zM172 229.933a3.456 3.456 0 0 1 3.456-3.456h63.777a3.456 3.456 0 1 1 0 6.912h-63.777a3.456 3.456 0 0 1-3.456-3.456zM172 242.028a3.456 3.456 0 0 1 3.456-3.456h84.568a3.456 3.456 0 0 1 0 6.912h-84.568a3.456 3.456 0 0 1-3.456-3.456z"/>
  </g>
  <path d="M319.053 167h.921l-.165 1.238c.22.021.44.048.66.082.224.034.431.074.622.121v.977a9.933 9.933 0 0 0-.705-.152 8.387 8.387 0 0 0-.698-.095l-.362 2.717c.284.11.565.23.844.362.28.126.529.279.749.457.225.173.405.38.54.622.14.241.209.529.209.863 0 .355-.071.671-.215.946a2.026 2.026 0 0 1-.603.698c-.259.19-.57.341-.933.451a5.233 5.233 0 0 1-1.2.19l-.21 1.511h-.926l.209-1.511a12.991 12.991 0 0 1-.984-.108 9.406 9.406 0 0 1-.806-.165v-1.054c.267.093.556.17.87.229.317.059.668.099 1.053.121l.375-2.857c-.275-.106-.546-.22-.813-.343a3.417 3.417 0 0 1-.717-.438 2.184 2.184 0 0 1-.508-.609 1.67 1.67 0 0 1-.197-.832c0-.262.055-.52.166-.774.11-.258.281-.489.514-.692a2.73 2.73 0 0 1 .882-.508 4.182 4.182 0 0 1 1.27-.241l.158-1.206zm-.285 2.158c-.529.047-.917.172-1.162.375a.951.951 0 0 0-.362.768c0 .292.1.533.298.723.204.187.504.358.902.515l.324-2.381zm.076 6.342c.571-.043.986-.17 1.244-.381.262-.212.393-.5.393-.864a.956.956 0 0 0-.082-.406.964.964 0 0 0-.248-.33 2.017 2.017 0 0 0-.412-.273 5.343 5.343 0 0 0-.572-.254l-.323 2.508zM328.137 179.092h-.47c-.817 0-1.424-.192-1.822-.577-.398-.381-.596-.961-.596-1.74v-2.183a2 2 0 0 0-.07-.552.876.876 0 0 0-.248-.413 1.091 1.091 0 0 0-.463-.26 2.459 2.459 0 0 0-.724-.089h-.273v-.882h.273c.309 0 .561-.026.756-.077.194-.05.347-.127.457-.228a.834.834 0 0 0 .228-.4c.042-.161.064-.351.064-.571v-1.505c0-.355.042-.675.126-.958.085-.288.223-.531.413-.73.195-.203.444-.358.749-.464.309-.11.686-.165 1.13-.165h.47v.889h-.375c-.982 0-1.472.476-1.472 1.428v1.479c0 1.033-.447 1.615-1.34 1.746.902.089 1.352.668 1.352 1.739v2.171c0 .969.487 1.454 1.46 1.454h.375v.888zM335.284 179.092h-.47c-.816 0-1.424-.192-1.821-.577-.398-.381-.597-.961-.597-1.74v-2.183c0-.208-.023-.392-.07-.552a.874.874 0 0 0-.247-.413 1.095 1.095 0 0 0-.464-.26 2.447 2.447 0 0 0-.723-.089h-.273v-.882h.273c.309 0 .56-.026.755-.077a1.05 1.05 0 0 0 .457-.228.844.844 0 0 0 .229-.4 2.28 2.28 0 0 0 .063-.571v-1.505c0-.355.042-.675.127-.958.085-.288.222-.531.413-.73a1.86 1.86 0 0 1 .749-.464c.308-.11.685-.165 1.129-.165h.47v.889h-.374c-.982 0-1.473.476-1.473 1.428v1.479c0 1.033-.446 1.615-1.339 1.746.901.089 1.352.668 1.352 1.739v2.171c0 .969.486 1.454 1.46 1.454h.374v.888zM350.557 168.549c-.58-.123-1.079-.184-1.498-.184-.995 0-1.492.52-1.492 1.561v1.117h2.793v.921h-2.793v4.526h-1.124v-4.526h-2.05v-.921h2.05v-1.053c0-1.697.885-2.546 2.654-2.546.44 0 .926.051 1.46.153v.952zM357.596 173.252c0 .496-.07.95-.209 1.365-.14.411-.341.764-.603 1.06a2.764 2.764 0 0 1-.959.686 3.231 3.231 0 0 1-1.282.241c-.457 0-.868-.07-1.231-.209a2.5 2.5 0 0 1-.921-.629 2.834 2.834 0 0 1-.578-1.022 4.572 4.572 0 0 1-.196-1.403c0-.495.07-.945.209-1.352.14-.41.341-.761.603-1.053.263-.297.582-.525.959-.686a3.163 3.163 0 0 1 1.282-.248c.457 0 .865.072 1.225.216.364.14.671.347.92.622.254.271.447.61.578 1.016.135.406.203.872.203 1.396zm-1.13.051c0-.393-.044-.736-.133-1.028a2.003 2.003 0 0 0-.368-.736 1.498 1.498 0 0 0-.59-.445 1.885 1.885 0 0 0-.769-.152c-.33 0-.613.065-.85.197a1.689 1.689 0 0 0-.578.514 2.314 2.314 0 0 0-.33.755 3.83 3.83 0 0 0-.101.895c0 .394.042.739.127 1.035.088.296.213.544.374.743.161.194.356.342.584.444.229.097.487.146.774.146.331 0 .612-.064.845-.191.237-.131.429-.304.577-.52a2.13 2.13 0 0 0 .33-.749c.072-.288.108-.59.108-.908zM359.456 170.117h1.009l.032 1.174c.377-.453.747-.781 1.111-.984a2.28 2.28 0 0 1 1.111-.305c.66 0 1.159.214 1.498.642.343.427.501 1.062.476 1.904h-1.117c.012-.559-.07-.963-.248-1.213-.173-.253-.429-.38-.768-.38-.148 0-.298.027-.451.082a1.774 1.774 0 0 0-.463.254 3.96 3.96 0 0 0-.501.444 8.063 8.063 0 0 0-.572.661v4.094h-1.117v-6.373zM370.888 176.49v-4.577c0-.199-.008-.362-.025-.489a.939.939 0 0 0-.07-.298.305.305 0 0 0-.121-.159.397.397 0 0 0-.412.032c-.072.051-.15.133-.235.248a4.354 4.354 0 0 0-.273.457c-.097.186-.214.416-.349.692v4.094h-1.009v-4.456c0-.233-.009-.421-.026-.565a1.171 1.171 0 0 0-.07-.337.3.3 0 0 0-.12-.165.402.402 0 0 0-.4.019.977.977 0 0 0-.229.229c-.08.11-.171.26-.273.451-.101.19-.222.433-.361.73v4.094h-1.016v-6.373h.844l.051 1.212c.11-.241.216-.446.317-.616a2 2 0 0 1 .324-.406 1.02 1.02 0 0 1 .349-.228c.127-.051.267-.077.419-.077.343 0 .603.113.781.337.178.224.266.571.266 1.041.102-.22.201-.415.299-.584a2.1 2.1 0 0 1 .311-.432c.114-.118.239-.207.374-.266a1.09 1.09 0 0 1 .47-.096c.8 0 1.2.616 1.2 1.848v4.64h-1.016zM377.585 176.49l-.025-.857c-.347.343-.701.59-1.06.742-.356.153-.73.229-1.124.229a2.76 2.76 0 0 1-.933-.14 1.8 1.8 0 0 1-.641-.381 1.561 1.561 0 0 1-.368-.577 2.156 2.156 0 0 1-.115-.717c0-.639.237-1.139.711-1.498.478-.364 1.183-.546 2.114-.546h1.32v-.559c0-.377-.12-.677-.361-.901-.242-.229-.61-.343-1.105-.343-.36 0-.715.04-1.066.12a7.597 7.597 0 0 0-1.079.343v-.996c.139-.051.294-.1.463-.146a6.23 6.23 0 0 1 1.142-.222c.208-.026.417-.039.629-.039.385 0 .732.043 1.041.127.309.085.569.214.781.388.216.173.381.391.495.653.114.263.171.572.171.927v4.393h-.99zm-.121-2.901h-1.402c-.276 0-.513.027-.711.082a1.36 1.36 0 0 0-.489.235.98.98 0 0 0-.286.368 1.217 1.217 0 0 0-.032.832c.039.11.1.209.185.298a.885.885 0 0 0 .33.203c.135.051.3.077.495.077.254 0 .543-.077.869-.229.33-.156.677-.402 1.041-.736v-1.13zM385.773 176.401a5.083 5.083 0 0 1-.774.133c-.267.03-.537.045-.812.045-.8 0-1.397-.18-1.791-.54-.393-.364-.59-.92-.59-1.669v-3.327h-1.784v-.926h1.784v-1.752l1.105-.286v2.038h2.862v.926h-2.862v3.238c0 .457.12.8.361 1.028.246.224.606.337 1.08.337.203 0 .425-.015.666-.045a7.01 7.01 0 0 0 .755-.152v.952zM391.601 179.156c-1.951-1.807-2.927-3.805-2.927-5.992 0-.512.051-1.022.153-1.53a7.46 7.46 0 0 1 .501-1.536 8.68 8.68 0 0 1 .914-1.536c.381-.513.842-1.02 1.384-1.524l.641.654c-1.642 1.621-2.463 3.417-2.463 5.389 0 .982.208 1.926.622 2.831.415.906 1.029 1.761 1.841 2.565l-.666.679zM399.561 168.314a2.838 2.838 0 0 0-.629.057 1.73 1.73 0 0 0-.539.203 1.131 1.131 0 0 0-.369.337.808.808 0 0 0-.139.469.9.9 0 0 0 .089.432c.063.106.133.205.209.298.076.093.144.195.203.305a.803.803 0 0 1 .095.419.84.84 0 0 1-.209.546.768.768 0 0 1-.267.197.879.879 0 0 1-.38.076c-.153 0-.297-.03-.432-.089a1.055 1.055 0 0 1-.362-.286 1.525 1.525 0 0 1-.248-.476 2.253 2.253 0 0 1-.088-.666c0-.351.063-.69.19-1.016.127-.326.317-.611.571-.857.258-.249.578-.448.959-.596.385-.149.834-.223 1.346-.223v.87zM406.759 179.092h-.47c-.817 0-1.424-.192-1.822-.577-.398-.381-.596-.961-.596-1.74v-2.183a2 2 0 0 0-.07-.552.876.876 0 0 0-.248-.413 1.085 1.085 0 0 0-.463-.26 2.459 2.459 0 0 0-.724-.089h-.273v-.882h.273c.309 0 .561-.026.756-.077.194-.05.347-.127.457-.228a.834.834 0 0 0 .228-.4c.042-.161.064-.351.064-.571v-1.505c0-.355.042-.675.127-.958.084-.288.222-.531.412-.73.195-.203.444-.358.749-.464.309-.11.686-.165 1.13-.165h.47v.889h-.375c-.981 0-1.472.476-1.472 1.428v1.479c0 1.033-.447 1.615-1.34 1.746.902.089 1.352.668 1.352 1.739v2.171c0 .969.487 1.454 1.46 1.454h.375v.888zM414.801 172.345c0 .634-.063 1.214-.19 1.739-.127.52-.32.969-.578 1.346-.258.372-.58.662-.965.869-.38.203-.829.305-1.345.305-.445 0-.849-.083-1.213-.248a2.43 2.43 0 0 1-.933-.774c-.258-.347-.457-.789-.597-1.327-.139-.537-.209-1.174-.209-1.91 0-.635.063-1.215.19-1.74.132-.524.324-.973.578-1.345.258-.377.58-.667.965-.87.385-.207.834-.311 1.346-.311.444 0 .848.085 1.212.254.364.165.675.423.933.774.258.347.457.79.597 1.327.139.538.209 1.174.209 1.911zm-1.117.038c0-.144-.006-.286-.019-.425a10.378 10.378 0 0 0-.032-.419l-3.51 2.608c.064.221.144.424.241.61.098.186.214.347.349.482.14.131.297.235.47.311.178.072.379.108.603.108.288 0 .548-.07.781-.209.237-.14.438-.347.603-.622.165-.275.292-.616.381-1.022.089-.411.133-.885.133-1.422zm-3.796-.076v.393c.004.131.013.258.026.381l3.51-2.596a2.995 2.995 0 0 0-.241-.59 1.798 1.798 0 0 0-.35-.457 1.445 1.445 0 0 0-1.047-.413c-.288 0-.55.07-.787.209-.233.14-.432.349-.597.629a3.397 3.397 0 0 0-.381 1.028 6.736 6.736 0 0 0-.133 1.416zM416.813 167.298h.47c.817 0 1.424.193 1.822.578.398.381.597.961.597 1.739v1.467c0 .207.023.393.069.558a.948.948 0 0 0 .242.413c.118.11.275.194.469.254.195.059.438.089.73.089h.273v.882h-.273a3.14 3.14 0 0 0-.761.076 1.014 1.014 0 0 0-.457.235.796.796 0 0 0-.229.393 2.288 2.288 0 0 0-.063.572v2.221c0 .356-.043.675-.127.959a1.748 1.748 0 0 1-.413.73c-.19.203-.44.357-.749.463-.309.11-.685.165-1.13.165h-.47v-.888h.381c.978 0 1.467-.476 1.467-1.429v-2.196c0-1.032.446-1.612 1.339-1.739-.901-.097-1.352-.679-1.352-1.746v-1.453c0-.969-.485-1.454-1.454-1.454h-.381v-.889zM436.104 174.008c0 .398-.078.751-.235 1.06a2.127 2.127 0 0 1-.66.774 3.032 3.032 0 0 1-1.035.483c-.402.11-.85.165-1.345.165h-2.171v-8.297h2.374c1.849 0 2.774.673 2.774 2.019 0 .448-.108.834-.324 1.155-.212.322-.559.561-1.041.717.224.043.436.115.635.216a1.812 1.812 0 0 1 .895.965c.089.22.133.468.133.743zm-1.473-3.644c0-.169-.025-.328-.076-.476a.845.845 0 0 0-.266-.387 1.36 1.36 0 0 0-.515-.26 2.929 2.929 0 0 0-.818-.095h-1.168v2.596h1.129c.259 0 .491-.028.699-.083.211-.055.391-.139.539-.254.153-.114.269-.256.349-.425.085-.174.127-.379.127-.616zm.273 3.682c0-.212-.044-.402-.133-.571a1.166 1.166 0 0 0-.387-.426 1.932 1.932 0 0 0-.622-.273 3.244 3.244 0 0 0-.819-.095h-1.155v2.857h1.193c.647 0 1.13-.121 1.447-.362.318-.241.476-.618.476-1.13zM442.94 176.49h-.99l-.038-1.029c-.19.22-.372.405-.546.553-.169.144-.338.26-.508.349-.169.089-.34.15-.514.184a2.454 2.454 0 0 1-.539.057c-.656 0-1.151-.193-1.486-.578-.334-.385-.501-.967-.501-1.745v-4.164h1.104v4.075c0 .977.369 1.466 1.105 1.466.135 0 .266-.019.393-.057.132-.042.267-.112.407-.209.144-.102.296-.237.457-.407.165-.169.349-.383.552-.641v-4.227h1.104v6.373zM447.136 171.031h-1.885v-.914h3.002v5.452h1.898v.921h-5.109v-.921h2.094v-4.538zm.387-3.587c.123 0 .237.024.343.07a.757.757 0 0 1 .273.184.816.816 0 0 1 .184.28c.047.101.07.213.07.336a.816.816 0 0 1-.07.336.816.816 0 0 1-.184.28.827.827 0 0 1-.273.19.922.922 0 0 1-.343.064.917.917 0 0 1-.342-.064.913.913 0 0 1-.28-.19.993.993 0 0 1-.184-.28.9.9 0 0 1-.063-.336c0-.123.021-.235.063-.336a.993.993 0 0 1 .184-.28.831.831 0 0 1 .28-.184.847.847 0 0 1 .342-.07zM454.284 168.428h-1.886v-.907h3.003v8.048h1.898v.921h-5.11v-.921h2.095v-7.141zM458.937 173.437c0-.542.074-1.022.222-1.441a2.95 2.95 0 0 1 .628-1.067c.275-.292.603-.512.984-.66a3.462 3.462 0 0 1 1.282-.228c.203 0 .402.012.597.038.199.025.393.065.584.12v-2.678h1.111v8.969h-.991l-.038-1.206c-.309.448-.643.78-1.003.996a2.226 2.226 0 0 1-1.167.324c-.364 0-.686-.076-.965-.229a1.996 1.996 0 0 1-.692-.641 3.165 3.165 0 0 1-.413-1.003 5.575 5.575 0 0 1-.139-1.294zm1.129-.07c0 .77.113 1.345.337 1.726.228.377.55.565.965.565.279 0 .573-.125.882-.374.313-.25.641-.62.984-1.111v-2.958a2.597 2.597 0 0 0-.603-.191 3.189 3.189 0 0 0-.654-.069c-.601 0-1.071.194-1.409.584-.334.389-.502.998-.502 1.828zM466.903 170.783c.216.009.425-.008.628-.051.203-.046.381-.114.533-.203a1.17 1.17 0 0 0 .375-.342.811.811 0 0 0 .14-.47.853.853 0 0 0-.096-.432 1.948 1.948 0 0 0-.203-.305 2.442 2.442 0 0 1-.209-.298.857.857 0 0 1-.089-.419c0-.093.017-.186.051-.279a.847.847 0 0 1 .152-.267.833.833 0 0 1 .654-.273c.148 0 .29.032.425.096.14.059.26.152.362.279.106.123.188.279.248.47.063.19.095.414.095.672 0 .352-.066.69-.197 1.016a2.42 2.42 0 0 1-.578.857 2.75 2.75 0 0 1-.958.597c-.381.148-.825.222-1.333.222v-.87zM474.05 177.791a2.43 2.43 0 0 0 .629-.057c.203-.047.381-.116.533-.21.156-.088.281-.201.374-.336a.791.791 0 0 0 .14-.463.864.864 0 0 0-.095-.432 1.903 1.903 0 0 0-.203-.305 2.564 2.564 0 0 1-.21-.298.875.875 0 0 1-.089-.425.853.853 0 0 1 .204-.546.82.82 0 0 1 .653-.273c.148 0 .29.032.426.095.139.059.26.152.361.279.106.127.189.286.248.476.063.191.095.415.095.673 0 .351-.065.688-.197 1.01a2.414 2.414 0 0 1-.577.863 2.768 2.768 0 0 1-.959.596c-.381.149-.825.223-1.333.223v-.87zM343.2 193.189c0 .567-.081 1.062-.242 1.485a2.871 2.871 0 0 1-.653 1.054c-.28.279-.61.489-.991.628-.38.14-.793.21-1.237.21-.203 0-.407-.011-.61-.032a4.535 4.535 0 0 1-.609-.108v2.666h-1.105v-8.975h.984l.07 1.066c.318-.436.656-.74 1.016-.914a2.595 2.595 0 0 1 1.168-.267c.364 0 .683.077.958.229.275.152.506.368.692.647.186.275.326.61.419 1.003.093.39.14.826.14 1.308zm-1.13.051c0-.335-.026-.641-.076-.921a2.352 2.352 0 0 0-.229-.717 1.245 1.245 0 0 0-.406-.463 1.006 1.006 0 0 0-.59-.172 1.616 1.616 0 0 0-.876.292 3.235 3.235 0 0 0-.489.413 6.52 6.52 0 0 0-.546.635v3.091c.203.085.417.152.641.203.224.047.444.07.66.07.597 0 1.064-.201 1.403-.603.339-.406.508-1.016.508-1.828zM348.995 196.49l-.025-.857c-.347.343-.701.59-1.06.742-.356.153-.73.229-1.124.229a2.76 2.76 0 0 1-.933-.14 1.8 1.8 0 0 1-.641-.381 1.561 1.561 0 0 1-.368-.577 2.182 2.182 0 0 1-.115-.717c0-.639.237-1.139.711-1.498.479-.364 1.183-.546 2.114-.546h1.321v-.559c0-.377-.121-.677-.362-.901-.242-.229-.61-.343-1.105-.343-.359 0-.715.04-1.066.12a7.597 7.597 0 0 0-1.079.343v-.996c.139-.051.294-.1.463-.146a6.41 6.41 0 0 1 1.143-.222 5.03 5.03 0 0 1 .628-.039c.385 0 .732.043 1.041.127.309.085.569.214.781.388.216.173.381.391.495.653.114.263.171.572.171.927v4.393h-.99zm-.12-2.901h-1.403c-.275 0-.512.027-.711.082a1.36 1.36 0 0 0-.489.235.98.98 0 0 0-.286.368 1.217 1.217 0 0 0-.031.832.81.81 0 0 0 .184.298.885.885 0 0 0 .33.203c.135.051.3.077.495.077.254 0 .544-.077.869-.229.331-.156.678-.402 1.042-.736v-1.13zM352.309 190.117h1.009l.032 1.174c.376-.453.747-.781 1.11-.984a2.286 2.286 0 0 1 1.111-.305c.66 0 1.16.214 1.498.642.343.427.502 1.062.476 1.904h-1.117c.013-.559-.07-.963-.247-1.213-.174-.253-.43-.38-.768-.38-.149 0-.299.027-.451.082a1.759 1.759 0 0 0-.463.254 4.032 4.032 0 0 0-.502.444 8.068 8.068 0 0 0-.571.661v4.094h-1.117v-6.373zM363.29 196.49l-.025-.857c-.347.343-.701.59-1.06.742-.356.153-.73.229-1.124.229a2.76 2.76 0 0 1-.933-.14 1.8 1.8 0 0 1-.641-.381 1.561 1.561 0 0 1-.368-.577 2.156 2.156 0 0 1-.115-.717c0-.639.237-1.139.711-1.498.479-.364 1.183-.546 2.114-.546h1.32v-.559c0-.377-.12-.677-.361-.901-.242-.229-.61-.343-1.105-.343-.36 0-.715.04-1.066.12a7.597 7.597 0 0 0-1.079.343v-.996c.139-.051.294-.1.463-.146a6.23 6.23 0 0 1 1.143-.222 5.03 5.03 0 0 1 .628-.039c.385 0 .732.043 1.041.127.309.085.569.214.781.388.216.173.381.391.495.653.114.263.171.572.171.927v4.393h-.99zm-.121-2.901h-1.402c-.275 0-.512.027-.711.082a1.36 1.36 0 0 0-.489.235.98.98 0 0 0-.286.368 1.217 1.217 0 0 0-.031.832.81.81 0 0 0 .184.298.885.885 0 0 0 .33.203c.135.051.3.077.495.077.254 0 .544-.077.869-.229.33-.156.678-.402 1.041-.736v-1.13zM370.888 196.49v-4.577c0-.199-.008-.362-.025-.489a.939.939 0 0 0-.07-.298.305.305 0 0 0-.121-.159.397.397 0 0 0-.412.032c-.072.051-.15.133-.235.248a4.354 4.354 0 0 0-.273.457c-.097.186-.214.416-.349.692v4.094h-1.009v-4.456c0-.233-.009-.421-.026-.565a1.171 1.171 0 0 0-.07-.337.3.3 0 0 0-.12-.165.402.402 0 0 0-.4.019.977.977 0 0 0-.229.229c-.08.11-.171.26-.273.451-.101.19-.222.433-.361.73v4.094h-1.016v-6.373h.844l.051 1.212c.11-.241.216-.446.317-.616a2 2 0 0 1 .324-.406 1.02 1.02 0 0 1 .349-.228c.127-.051.267-.077.419-.077.343 0 .603.113.781.337.178.224.266.571.266 1.041.102-.22.201-.415.299-.584a2.1 2.1 0 0 1 .311-.432c.114-.118.239-.207.374-.266a1.09 1.09 0 0 1 .47-.096c.8 0 1.2.616 1.2 1.848v4.64h-1.016zM378.874 192.967c0 .156-.003.288-.007.393-.004.106-.01.206-.019.299h-4.475c0 .651.182 1.153.546 1.504.364.347.889.521 1.574.521.186 0 .373-.007.559-.019a10.361 10.361 0 0 0 1.034-.146c.161-.034.309-.07.445-.108v.907a7.24 7.24 0 0 1-1.022.203 8.126 8.126 0 0 1-1.175.083c-.545 0-1.015-.074-1.409-.222a2.46 2.46 0 0 1-.971-.641 2.732 2.732 0 0 1-.558-1.035 4.991 4.991 0 0 1-.178-1.39c0-.449.063-.872.19-1.27.131-.402.32-.753.565-1.053.25-.305.555-.546.914-.724.36-.178.768-.267 1.225-.267.445 0 .838.07 1.181.21.343.14.631.338.863.597.237.253.415.565.533.933.123.364.185.772.185 1.225zm-1.149-.159a2.389 2.389 0 0 0-.083-.774 1.62 1.62 0 0 0-.317-.61c-.14-.169-.316-.3-.527-.393a1.736 1.736 0 0 0-.736-.146 1.54 1.54 0 0 0-.661.139c-.199.094-.37.225-.514.394-.144.169-.26.372-.349.609a2.805 2.805 0 0 0-.165.781h3.352zM385.773 196.401a5.083 5.083 0 0 1-.774.133c-.267.03-.537.045-.812.045-.8 0-1.397-.18-1.791-.54-.393-.364-.59-.92-.59-1.669v-3.327h-1.784v-.926h1.784v-1.752l1.105-.286v2.038h2.862v.926h-2.862v3.238c0 .457.12.8.361 1.028.246.224.606.337 1.08.337.203 0 .425-.015.666-.045a7.01 7.01 0 0 0 .755-.152v.952zM393.168 192.967c0 .156-.002.288-.006.393-.004.106-.01.206-.019.299h-4.475c0 .651.182 1.153.546 1.504.364.347.889.521 1.574.521.186 0 .372-.007.559-.019a10.361 10.361 0 0 0 1.034-.146c.161-.034.309-.07.445-.108v.907a7.24 7.24 0 0 1-1.022.203 8.126 8.126 0 0 1-1.175.083c-.546 0-1.015-.074-1.409-.222a2.46 2.46 0 0 1-.971-.641 2.747 2.747 0 0 1-.559-1.035 5.03 5.03 0 0 1-.177-1.39c0-.449.063-.872.19-1.27.131-.402.32-.753.565-1.053.25-.305.554-.546.914-.724.36-.178.768-.267 1.225-.267.445 0 .838.07 1.181.21.343.14.63.338.863.597.237.253.415.565.533.933.123.364.184.772.184 1.225zm-1.148-.159a2.389 2.389 0 0 0-.083-.774 1.62 1.62 0 0 0-.317-.61c-.14-.169-.316-.3-.527-.393a1.737 1.737 0 0 0-.737-.146 1.54 1.54 0 0 0-.66.139c-.199.094-.37.225-.514.394-.144.169-.26.372-.349.609a2.805 2.805 0 0 0-.165.781h3.352zM395.193 190.117h1.01l.031 1.174c.377-.453.747-.781 1.111-.984a2.283 2.283 0 0 1 1.111-.305c.66 0 1.16.214 1.498.642.343.427.502 1.062.476 1.904h-1.117c.013-.559-.07-.963-.248-1.213-.173-.253-.429-.38-.768-.38-.148 0-.298.027-.45.082a1.779 1.779 0 0 0-.464.254 4.102 4.102 0 0 0-.501.444 8.068 8.068 0 0 0-.571.661v4.094h-1.118v-6.373zM407.127 194.75a1.523 1.523 0 0 1-.425 1.08 2.04 2.04 0 0 1-.457.349 3.08 3.08 0 0 1-.559.241 3.67 3.67 0 0 1-.603.14c-.207.029-.41.044-.609.044-.432 0-.83-.019-1.194-.057a8.153 8.153 0 0 1-1.06-.184v-1.016a8.84 8.84 0 0 0 1.111.241 7.42 7.42 0 0 0 1.098.083c.529 0 .921-.072 1.175-.216.253-.144.38-.349.38-.616a.703.703 0 0 0-.063-.304.645.645 0 0 0-.216-.261 2.033 2.033 0 0 0-.495-.26c-.22-.089-.523-.19-.908-.305a6.905 6.905 0 0 1-.8-.285 2.782 2.782 0 0 1-.628-.387 1.651 1.651 0 0 1-.419-.521 1.538 1.538 0 0 1-.152-.704c0-.178.04-.373.12-.584.085-.212.227-.409.426-.591.199-.182.467-.332.806-.45.338-.123.762-.185 1.269-.185.25 0 .527.015.832.045.305.025.622.072.952.14v.983a8.662 8.662 0 0 0-.99-.184 6.096 6.096 0 0 0-.806-.063 3.31 3.31 0 0 0-.699.063 1.458 1.458 0 0 0-.457.178.664.664 0 0 0-.323.578c0 .114.021.218.063.311a.814.814 0 0 0 .248.273c.122.084.292.171.507.26.216.085.498.178.845.279.376.11.694.227.952.349.258.119.467.252.628.4.161.148.275.316.343.502.072.186.108.398.108.634zM411.735 194.49c.144 0 .28.028.407.083a1.075 1.075 0 0 1 .647.984c0 .144-.027.279-.082.406a1.036 1.036 0 0 1-.565.558 1.015 1.015 0 0 1-.407.083c-.148 0-.285-.028-.412-.083a1.147 1.147 0 0 1-.337-.222 1.13 1.13 0 0 1-.222-.336 1.01 1.01 0 0 1-.082-.406c0-.148.027-.286.082-.413.055-.131.129-.245.222-.343a1.09 1.09 0 0 1 .337-.228c.127-.055.264-.083.412-.083zM421.923 193.252c0 .496-.069.95-.209 1.365-.14.411-.341.764-.603 1.06a2.764 2.764 0 0 1-.959.686 3.231 3.231 0 0 1-1.282.241c-.457 0-.867-.07-1.231-.209a2.5 2.5 0 0 1-.921-.629 2.832 2.832 0 0 1-.577-1.022 4.54 4.54 0 0 1-.197-1.403c0-.495.07-.945.209-1.352.14-.41.341-.761.603-1.053.263-.297.582-.525.959-.686a3.163 3.163 0 0 1 1.282-.248c.457 0 .865.072 1.225.216.364.14.671.347.921.622.253.271.446.61.577 1.016.136.406.203.872.203 1.396zm-1.13.051c0-.393-.044-.736-.133-1.028a1.988 1.988 0 0 0-.368-.736 1.498 1.498 0 0 0-.59-.445 1.883 1.883 0 0 0-.768-.152c-.33 0-.614.065-.851.197a1.689 1.689 0 0 0-.578.514 2.314 2.314 0 0 0-.33.755 3.884 3.884 0 0 0-.101.895c0 .394.042.739.127 1.035.089.296.213.544.374.743.161.194.356.342.584.444.229.097.487.146.775.146.33 0 .611-.064.844-.191.237-.131.429-.304.577-.52a2.15 2.15 0 0 0 .331-.749c.071-.288.107-.59.107-.908zM428.569 194.75a1.523 1.523 0 0 1-.425 1.08 1.996 1.996 0 0 1-.457.349 3.05 3.05 0 0 1-.559.241c-.194.063-.395.11-.603.14-.207.029-.41.044-.609.044-.432 0-.829-.019-1.193-.057-.36-.038-.713-.1-1.06-.184v-1.016c.372.106.742.186 1.11.241.369.055.735.083 1.099.083.529 0 .92-.072 1.174-.216.254-.144.381-.349.381-.616a.69.69 0 0 0-.064-.304.645.645 0 0 0-.216-.261 1.995 1.995 0 0 0-.495-.26c-.22-.089-.522-.19-.907-.305a6.84 6.84 0 0 1-.8-.285 2.79 2.79 0 0 1-.629-.387 1.665 1.665 0 0 1-.419-.521 1.538 1.538 0 0 1-.152-.704c0-.178.04-.373.121-.584a1.61 1.61 0 0 1 .425-.591c.199-.182.468-.332.806-.45.339-.123.762-.185 1.27-.185.249 0 .527.015.831.045.305.025.622.072.952.14v.983a8.662 8.662 0 0 0-.99-.184 6.084 6.084 0 0 0-.806-.063c-.275 0-.508.021-.698.063a1.448 1.448 0 0 0-.457.178.66.66 0 0 0-.324.578c0 .114.021.218.063.311.047.093.13.184.248.273.123.084.292.171.508.26.216.085.497.178.844.279.377.11.694.227.952.349.258.119.468.252.629.4.16.148.275.316.342.502.072.186.108.398.108.634zM431.972 187.038c1.951 1.807 2.926 3.817 2.926 6.03 0 .457-.047.931-.14 1.422a7.082 7.082 0 0 1-.476 1.511 8.576 8.576 0 0 1-.907 1.561 10.502 10.502 0 0 1-1.429 1.594l-.641-.654c.825-.817 1.441-1.669 1.847-2.558.407-.889.61-1.82.61-2.793 0-2.014-.819-3.826-2.457-5.434l.667-.679zM445.403 187.298h.47c.817 0 1.424.193 1.822.578.398.381.597.961.597 1.739v1.467c0 .207.023.393.069.558a.948.948 0 0 0 .242.413c.118.11.275.194.469.254.195.059.438.089.73.089h.273v.882h-.273c-.309 0-.563.025-.761.076a1.023 1.023 0 0 0-.458.235.794.794 0 0 0-.228.393 2.288 2.288 0 0 0-.063.572v2.221c0 .356-.043.675-.127.959a1.759 1.759 0 0 1-.413.73c-.19.203-.44.357-.749.463-.309.11-.686.165-1.13.165h-.47v-.888h.381c.978 0 1.466-.476 1.466-1.429v-2.196c0-1.032.447-1.612 1.34-1.739-.902-.097-1.352-.679-1.352-1.746v-1.453c0-.969-.485-1.454-1.454-1.454h-.381v-.889zM452.551 187.298h.47c.816 0 1.423.193 1.821.578.398.381.597.961.597 1.739v1.467c0 .207.023.393.07.558a.946.946 0 0 0 .241.413c.118.11.275.194.47.254.194.059.438.089.73.089h.273v.882h-.273c-.309 0-.563.025-.762.076a1.014 1.014 0 0 0-.457.235.803.803 0 0 0-.229.393 2.288 2.288 0 0 0-.063.572v2.221c0 .356-.042.675-.127.959a1.748 1.748 0 0 1-.413.73c-.19.203-.44.357-.749.463-.309.11-.685.165-1.129.165h-.47v-.888h.381c.977 0 1.466-.476 1.466-1.429v-2.196c0-1.032.446-1.612 1.339-1.739-.901-.097-1.352-.679-1.352-1.746v-1.453c0-.969-.484-1.454-1.453-1.454h-.381v-.889z" fill="#000"/>
  <path d="M719.643 329.993a3.999 3.999 0 0 1-3.463 2l-30.89.007a4 4 0 0 1-3.483-2.032l-14.768-26.122a3.998 3.998 0 0 1-.011-3.917l14.783-26.509a4 4 0 0 1 3.494-2.052h30.876c1.428 0 2.748.762 3.463 1.998l15.2 26.296a4.001 4.001 0 0 1 .001 4.002l-15.202 26.329z" fill="#fff" filter="url(#filter1_d)"/>
  <path fill-rule="evenodd" clip-rule="evenodd" d="M701.156 316.312c8.371 0 15.156-6.785 15.156-15.156 0-8.37-6.785-15.156-15.156-15.156-8.37 0-15.156 6.786-15.156 15.156 0 8.371 6.786 15.156 15.156 15.156zm0-1.894c7.325 0 13.262-5.937 13.262-13.261 0-7.325-5.937-13.262-13.262-13.262-7.324 0-13.261 5.937-13.261 13.262 0 7.324 5.937 13.261 13.261 13.261z" fill="#000" fill-opacity=".38"/>
  <rect x="669" y="150" width="64.176" height="64.176" rx="4" fill="#fff" filter="url(#filter2_d)"/>
  <path fill-rule="evenodd" clip-rule="evenodd" d="M701.044 198.088c8.861 0 16.044-7.183 16.044-16.044S709.905 166 701.044 166 685 173.183 685 182.044s7.183 16.044 16.044 16.044zm0-2.006c7.753 0 14.038-6.285 14.038-14.038s-6.285-14.039-14.038-14.039-14.039 6.286-14.039 14.039 6.286 14.038 14.039 14.038z" fill="#000" fill-opacity=".38"/>
  <rect x="669" y="29" width="64.176" height="64.176" rx="32.088" fill="#fff" filter="url(#filter3_d)"/>
  <path fill-rule="evenodd" clip-rule="evenodd" d="M701.044 77.088c8.861 0 16.044-7.183 16.044-16.044 0-8.86-7.183-16.044-16.044-16.044S685 52.183 685 61.044c0 8.86 7.183 16.044 16.044 16.044zm0-2.006c7.753 0 14.038-6.285 14.038-14.038s-6.285-14.038-14.038-14.038-14.039 6.285-14.039 14.038 6.286 14.038 14.039 14.038z" fill="#000" fill-opacity=".38"/>
  <path d="M756.428 72.363H751V62.56h1.627v8.43h3.801v1.373zM758.472 63.894a.966.966 0 0 1-.67-.253.835.835 0 0 1-.274-.643c0-.26.091-.476.274-.65a.952.952 0 0 1 .67-.26c.269 0 .496.087.683.26.187.174.281.39.281.65a.848.848 0 0 1-.281.636.967.967 0 0 1-.683.26zm.786 8.47h-1.586v-7h1.586v7zM767.57 72.363h-1.586V68.42c0-1.308-.462-1.962-1.387-1.962-.483 0-.882.182-1.197.547-.314.36-.471.816-.471 1.367v3.992h-1.593v-7h1.593v1.162h.027c.524-.884 1.281-1.326 2.27-1.326.761 0 1.342.249 1.743.745.401.492.601 1.206.601 2.14v4.28zM775.616 72.363h-1.586v-1.107h-.027c-.46.847-1.176 1.271-2.147 1.271-1.654 0-2.481-.993-2.481-2.98v-4.184h1.586v4.02c0 1.258.485 1.886 1.456 1.886.469 0 .854-.173 1.155-.519.306-.346.458-.8.458-1.36v-4.027h1.586v7zM783.539 65.363l-2.331 3.541 2.304 3.46h-1.839l-1.231-2.168c-.077-.132-.168-.3-.273-.506h-.027c-.019.041-.114.21-.288.506l-1.25 2.167h-1.833l2.379-3.431-2.255-3.569h1.845l1.21 2.277c.091.168.18.341.267.52h.02l1.566-2.797h1.736zM790.143 72.07c0 1.148-.242 2.032-.725 2.652-.483.624-1.174.936-2.071.936-.333 0-.657-.073-.971-.219v-1.36c.296.205.576.308.841.308.893 0 1.34-.789 1.34-2.365v-6.659h1.586v6.706zm-.78-8.176a.968.968 0 0 1-.67-.253.838.838 0 0 1-.273-.643.86.86 0 0 1 .273-.65.953.953 0 0 1 .67-.26.96.96 0 0 1 .677.26c.187.174.28.39.28.65a.847.847 0 0 1-.28.636.96.96 0 0 1-.677.26zM795.324 72.527c-1.08 0-1.943-.326-2.591-.977-.642-.656-.963-1.525-.963-2.605 0-1.175.334-2.094 1.004-2.755.675-.66 1.582-.99 2.721-.99 1.094 0 1.946.32 2.557.963.61.643.916 1.534.916 2.673 0 1.117-.331 2.012-.991 2.686-.657.67-1.541 1.005-2.653 1.005zm.075-6.063c-.619 0-1.109.216-1.469.65-.36.432-.54 1.03-.54 1.79 0 .734.182 1.313.547 1.737.364.419.852.628 1.462.628.625 0 1.103-.207 1.436-.622.337-.414.506-1.004.506-1.77 0-.77-.169-1.365-.506-1.784-.333-.42-.811-.63-1.436-.63zM802.201 71.352h-.027v1.011h-1.586V62h1.586v4.594h.027c.542-.93 1.335-1.395 2.379-1.395.884 0 1.575.315 2.071.944.502.624.752 1.463.752 2.515 0 1.171-.28 2.11-.841 2.817-.56.701-1.326 1.052-2.296 1.052-.912 0-1.6-.392-2.065-1.175zm-.041-2.783v.868c0 .51.162.944.486 1.3.328.355.742.532 1.244.532.588 0 1.048-.227 1.381-.683.337-.46.505-1.1.505-1.921 0-.688-.157-1.226-.471-1.613-.31-.392-.732-.588-1.265-.588-.565 0-1.021.2-1.367.601-.342.401-.513.903-.513 1.504zM763.221 177.561l-2.687 9.802h-1.839l-1.866-6.856a4.712 4.712 0 0 1-.143-.957h-.028a4.63 4.63 0 0 1-.164.943l-1.873 6.87h-1.88L750 177.561h1.784l1.778 7.177c.072.301.118.616.136.944h.034c.019-.233.082-.547.192-.944l2.01-7.177h1.674l1.86 7.232c.064.246.111.538.143.875h.028c.013-.228.066-.529.157-.902l1.743-7.205h1.682zM765.203 178.894a.969.969 0 0 1-.67-.253.839.839 0 0 1-.273-.643c0-.26.091-.476.273-.649a.948.948 0 0 1 .67-.26c.269 0 .497.086.684.26.187.173.28.389.28.649a.848.848 0 0 1-.28.636.97.97 0 0 1-.684.26zm.786 8.469h-1.586v-7h1.586v7zM774.302 187.363h-1.586v-3.944c0-1.308-.463-1.962-1.388-1.962-.483 0-.882.182-1.196.547-.315.36-.472.816-.472 1.367v3.992h-1.593v-7h1.593v1.162h.028c.524-.884 1.28-1.326 2.269-1.326.761 0 1.342.249 1.743.745.401.493.602 1.206.602 2.14v4.279zM782.607 187.363h-1.586v-1.189h-.027c-.51.902-1.296 1.353-2.358 1.353-.862 0-1.552-.312-2.072-.936-.515-.629-.772-1.484-.772-2.564 0-1.157.285-2.085.854-2.782.575-.697 1.338-1.046 2.291-1.046.943 0 1.629.378 2.057 1.135h.027V177h1.586v10.363zm-1.565-3.199v-.916c0-.497-.162-.918-.485-1.265-.324-.346-.736-.519-1.238-.519-.592 0-1.059.221-1.401.663-.337.442-.506 1.055-.506 1.839 0 .711.162 1.274.485 1.688.329.41.768.616 1.32.616.542 0 .982-.199 1.319-.595.337-.401.506-.905.506-1.511zM787.782 187.527c-1.08 0-1.943-.326-2.591-.977-.642-.656-.963-1.525-.963-2.605 0-1.175.334-2.094 1.004-2.755.675-.66 1.582-.991 2.721-.991 1.094 0 1.946.322 2.557.964.61.643.916 1.534.916 2.673 0 1.116-.331 2.012-.991 2.686-.657.67-1.541 1.005-2.653 1.005zm.075-6.063c-.619 0-1.109.216-1.469.649-.36.433-.54 1.03-.54 1.791 0 .734.182 1.313.547 1.737.364.419.852.629 1.462.629.625 0 1.103-.208 1.436-.623.337-.414.506-1.004.506-1.77 0-.77-.169-1.365-.506-1.784-.333-.419-.811-.629-1.436-.629zM802.459 180.363l-2.064 7h-1.662l-1.271-4.744a3.028 3.028 0 0 1-.096-.615h-.027c-.009.155-.05.355-.123.601l-1.381 4.758h-1.627l-2.058-7h1.641l1.271 5.045c.042.151.069.351.083.602h.047c.014-.192.051-.397.11-.615l1.415-5.032h1.49l1.258 5.066c.041.159.07.36.089.601h.048c.009-.168.043-.369.102-.601l1.244-5.066h1.511zM803.204 187.145v-1.47a3.168 3.168 0 0 0 1.962.677c.957 0 1.436-.283 1.436-.848a.65.65 0 0 0-.123-.403 1.144 1.144 0 0 0-.335-.301 2.491 2.491 0 0 0-.493-.233 95.627 95.627 0 0 1-.629-.232 7.116 7.116 0 0 1-.779-.362 2.511 2.511 0 0 1-.574-.431 1.722 1.722 0 0 1-.342-.554 2.034 2.034 0 0 1-.116-.717c0-.338.08-.634.239-.889.16-.26.374-.476.643-.65.269-.177.574-.309.916-.396a4.101 4.101 0 0 1 1.059-.137c.647 0 1.226.098 1.737.294v1.388a2.933 2.933 0 0 0-1.696-.506c-.2 0-.382.021-.547.062a1.437 1.437 0 0 0-.41.17.827.827 0 0 0-.266.267.61.61 0 0 0-.096.335c0 .15.032.278.096.383a.91.91 0 0 0 .28.28c.128.078.278.15.451.219.178.064.381.134.609.212.3.123.569.248.806.376.242.127.447.273.615.437.169.16.299.347.39.561.091.209.137.46.137.752 0 .355-.082.665-.246.929a2.051 2.051 0 0 1-.657.657c-.273.173-.59.3-.95.382-.355.087-.731.13-1.128.13-.765 0-1.428-.127-1.989-.382zM815.126 187.069c0 1.149-.242 2.033-.725 2.653-.483.624-1.173.936-2.071.936-.333 0-.656-.073-.971-.219v-1.36c.297.205.577.308.841.308.893 0 1.34-.789 1.34-2.366v-6.658h1.586v6.706zm-.779-8.175a.969.969 0 0 1-.67-.253.836.836 0 0 1-.274-.643c0-.26.091-.476.274-.649a.948.948 0 0 1 .67-.26c.264 0 .49.086.676.26a.847.847 0 0 1 .281.649.849.849 0 0 1-.281.636.958.958 0 0 1-.676.26zM820.308 187.527c-1.08 0-1.944-.326-2.591-.977-.643-.656-.964-1.525-.964-2.605 0-1.175.335-2.094 1.005-2.755.674-.66 1.581-.991 2.721-.991 1.093 0 1.945.322 2.556.964.611.643.916 1.534.916 2.673 0 1.116-.33 2.012-.991 2.686-.656.67-1.54 1.005-2.652 1.005zm.075-6.063c-.62 0-1.11.216-1.47.649-.36.433-.54 1.03-.54 1.791 0 .734.182 1.313.547 1.737.365.419.852.629 1.463.629.624 0 1.103-.208 1.435-.623.338-.414.506-1.004.506-1.77 0-.77-.168-1.365-.506-1.784-.332-.419-.811-.629-1.435-.629zM827.185 186.352h-.028v1.011h-1.586V177h1.586v4.594h.028c.542-.93 1.335-1.395 2.378-1.395.885 0 1.575.315 2.072.944.501.624.752 1.462.752 2.515 0 1.171-.281 2.11-.841 2.817-.561.701-1.326 1.052-2.297 1.052-.911 0-1.6-.392-2.064-1.175zm-.041-2.783v.869c0 .51.161.943.485 1.298a1.62 1.62 0 0 0 1.244.534c.588 0 1.048-.228 1.381-.684.337-.46.506-1.101.506-1.921 0-.688-.157-1.226-.472-1.613-.31-.392-.731-.588-1.265-.588-.565 0-1.02.2-1.367.601-.342.401-.512.903-.512 1.504zM761.527 305.363h-1.613v-6.343c0-.52.032-1.156.096-1.908h-.028c-.1.429-.189.736-.266.923l-2.926 7.328h-1.121l-2.933-7.273a6.839 6.839 0 0 1-.259-.978h-.028c.037.392.055 1.033.055 1.921v6.33H751v-9.802h2.29l2.577 6.528c.196.501.324.875.383 1.121h.034c.169-.515.306-.898.41-1.148l2.625-6.501h2.208v9.802zM769.143 305.363h-1.539v-1.093h-.027c-.483.838-1.192 1.257-2.126 1.257-.688 0-1.228-.187-1.62-.56-.387-.374-.581-.868-.581-1.484 0-1.321.761-2.091 2.283-2.31l2.078-.294c0-.998-.474-1.497-1.422-1.497-.834 0-1.585.287-2.255.861v-1.388c.738-.437 1.59-.656 2.556-.656 1.768 0 2.653.871 2.653 2.612v4.552zm-1.532-3.438l-1.469.205c-.456.059-.8.171-1.033.335-.227.159-.341.442-.341.847 0 .297.104.541.314.732.214.187.499.28.855.28.483 0 .881-.168 1.196-.506.319-.341.478-.77.478-1.285v-.608zM776.095 305.042c-.561.324-1.224.485-1.99.485-1.039 0-1.877-.323-2.515-.97-.638-.652-.957-1.495-.957-2.53 0-1.153.342-2.078 1.025-2.775.688-.702 1.607-1.053 2.755-1.053.638 0 1.201.112 1.689.335v1.477c-.488-.365-1.008-.547-1.559-.547-.67 0-1.219.228-1.647.683-.429.452-.643 1.044-.643 1.778 0 .724.2 1.296.601 1.716.406.419.948.629 1.627.629.57 0 1.108-.203 1.614-.609v1.381zM781.892 305.527c-1.413 0-2.546-.458-3.398-1.374-.848-.916-1.271-2.107-1.271-3.575 0-1.577.433-2.835 1.298-3.773.866-.939 2.042-1.409 3.528-1.409 1.376 0 2.484.456 3.322 1.368.843.911 1.265 2.103 1.265 3.575 0 1.599-.431 2.864-1.292 3.794-.862.929-2.012 1.394-3.452 1.394zm.075-8.702c-.898 0-1.629.335-2.195 1.005-.56.67-.84 1.552-.84 2.646 0 1.089.273 1.966.82 2.631.547.666 1.262.998 2.146.998.939 0 1.68-.316 2.222-.95.542-.633.814-1.52.814-2.659 0-1.171-.265-2.076-.793-2.714-.524-.638-1.249-.957-2.174-.957zM787.982 304.974v-1.675c.151.137.329.26.534.369a4.455 4.455 0 0 0 1.36.451c.232.041.447.062.643.062.683 0 1.191-.114 1.524-.342.337-.228.506-.558.506-.991a1.05 1.05 0 0 0-.171-.602 1.689 1.689 0 0 0-.465-.472 4.654 4.654 0 0 0-.711-.403 32.74 32.74 0 0 0-.868-.41 14.51 14.51 0 0 1-.93-.54 4.198 4.198 0 0 1-.752-.602 2.68 2.68 0 0 1-.499-.752 2.484 2.484 0 0 1-.177-.977c0-.46.102-.859.307-1.196.21-.342.483-.623.821-.841a3.652 3.652 0 0 1 1.162-.492c.433-.11.875-.165 1.326-.165 1.025 0 1.773.117 2.242.349v1.607c-.556-.401-1.272-.602-2.146-.602-.242 0-.484.023-.725.068a2.206 2.206 0 0 0-.643.226 1.407 1.407 0 0 0-.458.403.993.993 0 0 0-.177.595c0 .219.045.408.136.567.091.16.224.306.397.438.178.132.392.262.642.39.256.123.55.257.882.403.342.178.663.364.964.56.305.196.572.413.8.65.232.237.415.501.547.793.136.287.205.615.205.984 0 .497-.1.916-.301 1.258-.2.342-.472.62-.813.834a3.587 3.587 0 0 1-1.169.465c-.442.095-.91.143-1.402.143-.164 0-.367-.013-.608-.041a7.125 7.125 0 0 1-.732-.109 6.491 6.491 0 0 1-.711-.171 2.271 2.271 0 0 1-.54-.232zM801.326 305.069c0 1.149-.241 2.033-.724 2.653-.484.624-1.174.936-2.072.936-.332 0-.656-.073-.97-.219v-1.36c.296.205.576.308.84.308.894 0 1.34-.789 1.34-2.366v-6.658h1.586v6.706zm-.779-8.175a.969.969 0 0 1-.67-.253.839.839 0 0 1-.273-.643c0-.26.091-.476.273-.649a.948.948 0 0 1 .67-.26c.264 0 .49.086.677.26a.85.85 0 0 1 .28.649.851.851 0 0 1-.28.636.962.962 0 0 1-.677.26zM806.508 305.527c-1.08 0-1.944-.326-2.591-.977-.643-.656-.964-1.525-.964-2.605 0-1.175.335-2.094 1.005-2.755.674-.66 1.581-.991 2.721-.991 1.093 0 1.946.322 2.556.964.611.643.916 1.534.916 2.673 0 1.116-.33 2.012-.991 2.686-.656.67-1.54 1.005-2.652 1.005zm.075-6.063c-.62 0-1.11.216-1.47.649-.36.433-.54 1.03-.54 1.791 0 .734.183 1.313.547 1.737.365.419.852.629 1.463.629.624 0 1.103-.208 1.436-.623.337-.414.505-1.004.505-1.77 0-.77-.168-1.365-.505-1.784-.333-.419-.812-.629-1.436-.629zM813.385 304.352h-.028v1.011h-1.586V295h1.586v4.594h.028c.542-.93 1.335-1.395 2.379-1.395.884 0 1.574.315 2.071.944.501.624.752 1.462.752 2.515 0 1.171-.28 2.11-.841 2.817-.56.701-1.326 1.052-2.297 1.052-.911 0-1.599-.392-2.064-1.175zm-.041-2.783v.869c0 .51.162.943.485 1.298a1.62 1.62 0 0 0 1.244.534c.588 0 1.048-.228 1.381-.684.337-.46.506-1.101.506-1.921 0-.688-.157-1.226-.472-1.613-.31-.392-.731-.588-1.264-.588-.565 0-1.021.2-1.368.601-.341.401-.512.903-.512 1.504z" fill="#606060"/>
  <path d="M653.354 182.354a.502.502 0 0 0 0-.708l-3.182-3.182a.502.502 0 0 0-.708.708l2.829 2.828-2.829 2.828a.502.502 0 0 0 .708.708l3.182-3.182zM493 182.5h160v-1H493v1z" fill="url(#paint1_linear)"/>
  <defs>
    <filter id="filter0_d" x="92" y="101" width="200" height="168.92" filterUnits="userSpaceOnUse" color-interpolation-filters="sRGB">
      <feFlood flood-opacity="0" result="BackgroundImageFix"/>
      <feColorMatrix in="SourceAlpha" values="0 0 0 0 0 0 0 0 0 0 0 0 0 0 0 0 0 0 127 0"/>
      <feOffset dy="3"/>
      <feGaussianBlur stdDeviation="4"/>
      <feColorMatrix values="0 0 0 0 0 0 0 0 0 0 0 0 0 0 0 0 0 0 0.2 0"/>
      <feBlend in2="BackgroundImageFix" result="effect1_dropShadow"/>
      <feBlend in="SourceGraphic" in2="effect1_dropShadow" result="shape"/>
    </filter>
    <filter id="filter1_d" x="658.521" y="266.368" width="84.859" height="76.632" filterUnits="userSpaceOnUse" color-interpolation-filters="sRGB">
      <feFlood flood-opacity="0" result="BackgroundImageFix"/>
      <feColorMatrix in="SourceAlpha" values="0 0 0 0 0 0 0 0 0 0 0 0 0 0 0 0 0 0 127 0"/>
      <feOffset dy="3"/>
      <feGaussianBlur stdDeviation="4"/>
      <feColorMatrix values="0 0 0 0 0 0 0 0 0 0 0 0 0 0 0 0 0 0 0.2 0"/>
      <feBlend in2="BackgroundImageFix" result="effect1_dropShadow"/>
      <feBlend in="SourceGraphic" in2="effect1_dropShadow" result="shape"/>
    </filter>
    <filter id="filter2_d" x="661" y="145" width="80.176" height="80.176" filterUnits="userSpaceOnUse" color-interpolation-filters="sRGB">
      <feFlood flood-opacity="0" result="BackgroundImageFix"/>
      <feColorMatrix in="SourceAlpha" values="0 0 0 0 0 0 0 0 0 0 0 0 0 0 0 0 0 0 127 0"/>
      <feOffset dy="3"/>
      <feGaussianBlur stdDeviation="4"/>
      <feColorMatrix values="0 0 0 0 0 0 0 0 0 0 0 0 0 0 0 0 0 0 0.2 0"/>
      <feBlend in2="BackgroundImageFix" result="effect1_dropShadow"/>
      <feBlend in="SourceGraphic" in2="effect1_dropShadow" result="shape"/>
    </filter>
    <filter id="filter3_d" x="661" y="24" width="80.176" height="80.176" filterUnits="userSpaceOnUse" color-interpolation-filters="sRGB">
      <feFlood flood-opacity="0" result="BackgroundImageFix"/>
      <feColorMatrix in="SourceAlpha" values="0 0 0 0 0 0 0 0 0 0 0 0 0 0 0 0 0 0 127 0"/>
      <feOffset dy="3"/>
      <feGaussianBlur stdDeviation="4"/>
      <feColorMatrix values="0 0 0 0 0 0 0 0 0 0 0 0 0 0 0 0 0 0 0.2 0"/>
      <feBlend in2="BackgroundImageFix" result="effect1_dropShadow"/>
      <feBlend in="SourceGraphic" in2="effect1_dropShadow" result="shape"/>
    </filter>
    <linearGradient id="paint0_linear" x1="679.627" y1="195.117" x2="180.857" y2="195.185" gradientUnits="userSpaceOnUse">
      <stop stop-color="#fff" stop-opacity=".16"/>
      <stop offset=".094" stop-color="#fff"/>
      <stop offset=".995" stop-color="#fff" stop-opacity="0"/>
    </linearGradient>
    <linearGradient id="paint1_linear" x1="649.225" y1="181.497" x2="492.82" y2="181.497" gradientUnits="userSpaceOnUse">
      <stop stop-color="#3C3C3C"/>
      <stop offset="1" stop-color="#3C3C3C" stop-opacity=".16"/>
    </linearGradient>
  </defs>
</svg>
