<svg width="100%" fill="none" viewBox="0 0 932 360" preserveAspectRatio="xMidYMid meet" xmlns="http://www.w3.org/2000/svg">
  <path fill="#EBEBEB" d="M0 0h932v360H0z"/>
  <path d="M347.51 317.757a3 3 0 0 1-3.51-2.956V70.931a3 3 0 0 1 3.515-2.956l330 57.456a3 3 0 0 1 2.485 2.955v129.451a3 3 0 0 1-2.49 2.956l-330 56.964z" fill="url(#paint0_linear)"/>
  <path d="M661.354 191.717a.5.5 0 0 0 0-.707l-3.182-3.182a.5.5 0 1 0-.708.707l2.829 2.828-2.829 2.829a.5.5 0 0 0 .708.707l3.182-3.182zM330 191.863h331v-1H330v1z" fill="url(#paint1_linear)"/>
  <rect x="96" y="65.363" width="256" height="256" rx="4" fill="#fff" filter="url(#filter0_d)"/>
  <rect x="120" y="233.363" width="208" height="64" rx="4" fill="#fff" filter="url(#filter1_d)"/>
  <path d="M184.759 269.974v-1.675c.15.137.328.26.533.369.21.109.431.203.663.28.233.073.465.13.697.171.233.041.447.062.643.062.684 0 1.192-.114 1.524-.342.338-.228.506-.558.506-.991a1.05 1.05 0 0 0-.171-.602 1.689 1.689 0 0 0-.465-.472 4.689 4.689 0 0 0-.71-.403 32.865 32.865 0 0 0-.869-.41 14.757 14.757 0 0 1-.929-.54 4.162 4.162 0 0 1-.752-.602 2.658 2.658 0 0 1-.499-.752 2.466 2.466 0 0 1-.178-.977c0-.46.102-.859.308-1.196.209-.342.483-.623.82-.841a3.661 3.661 0 0 1 1.162-.492c.433-.11.875-.165 1.326-.165 1.026 0 1.773.117 2.242.349v1.607c-.556-.401-1.271-.602-2.146-.602-.242 0-.483.023-.725.068a2.189 2.189 0 0 0-.642.226c-.187.105-.34.239-.458.403a.987.987 0 0 0-.178.595c0 .219.046.408.137.567.091.16.223.306.396.438.178.132.392.262.643.39.255.123.549.257.882.403.341.178.663.364.963.56.306.196.572.413.8.65.233.237.415.501.547.793.137.287.205.615.205.984 0 .497-.1.916-.301 1.258-.2.342-.471.62-.813.834a3.578 3.578 0 0 1-1.169.465 6.654 6.654 0 0 1-1.401.143c-.164 0-.367-.013-.609-.041a7.067 7.067 0 0 1-.731-.109 6.382 6.382 0 0 1-.711-.171 2.271 2.271 0 0 1-.54-.232zM195.942 270.288c-.31.155-.717.233-1.223.233-1.358 0-2.037-.652-2.037-1.956v-3.958h-1.169v-1.244h1.169v-1.62l1.586-.451v2.071h1.674v1.244h-1.674v3.5c0 .415.075.711.225.889.151.178.401.267.752.267.269 0 .501-.078.697-.233v1.258zM203.154 267.294h-4.771c.018.647.216 1.146.595 1.497.382.351.906.526 1.572.526.747 0 1.433-.223 2.057-.67v1.279c-.638.401-1.481.601-2.529.601-1.03 0-1.839-.316-2.427-.95-.583-.638-.875-1.533-.875-2.686 0-1.09.322-1.976.964-2.66.647-.688 1.449-1.032 2.406-1.032.958 0 1.698.308 2.222.923s.786 1.47.786 2.564v.608zm-1.531-1.121c-.005-.57-.139-1.012-.403-1.326-.265-.319-.629-.479-1.094-.479-.456 0-.843.167-1.162.499-.315.333-.508.768-.581 1.306h3.24zM206.278 269.331h-.027v4.252h-1.586v-10.22h1.586v1.231h.027c.543-.93 1.336-1.395 2.379-1.395.889 0 1.582.312 2.078.937.497.624.745 1.463.745 2.515 0 1.167-.28 2.101-.84 2.803-.561.702-1.327 1.053-2.297 1.053-.893 0-1.582-.392-2.065-1.176zm-.041-2.762v.869c0 .51.162.943.486 1.298.328.356.742.534 1.244.534.588 0 1.048-.228 1.381-.684.337-.46.506-1.101.506-1.921 0-.688-.158-1.226-.472-1.613-.31-.392-.732-.588-1.265-.588-.565 0-1.021.2-1.367.601-.342.401-.513.903-.513 1.504zM216.765 270.001v-1.49a3.385 3.385 0 0 0 2.16.759c.651 0 1.171-.149 1.558-.445.392-.296.588-.697.588-1.203 0-1.112-.85-1.668-2.55-1.668h-.758v-1.271h.724c1.509 0 2.263-.524 2.263-1.573 0-.966-.588-1.449-1.764-1.449-.656 0-1.273.235-1.852.704v-1.408c.665-.374 1.451-.561 2.358-.561.871 0 1.568.219 2.092.657.524.437.786.998.786 1.681 0 1.29-.656 2.12-1.969 2.489v.027c.707.068 1.265.317 1.675.745.41.424.615.955.615 1.593 0 .879-.33 1.59-.991 2.133-.661.537-1.531.806-2.611.806-.971 0-1.746-.175-2.324-.526z" fill="#606060"/>
  <path fill-rule="evenodd" clip-rule="evenodd" d="M152.305 281.363c8.837 0 16-7.163 16-16 0-8.836-7.163-16-16-16-8.836 0-16 7.164-16 16 0 8.837 7.164 16 16 16zm-3.201-11.169l-.004-.004-2.855-2.855a1.5 1.5 0 0 1 2.121-2.122l1.798 1.799 6.21-6.209a1.5 1.5 0 1 1 2.121 2.121l-7.27 7.27a1.5 1.5 0 0 1-2.121 0z" fill="#5BA75F"/>
  <rect x="120" y="161.363" width="208" height="64" rx="4" fill="#fff" filter="url(#filter2_d)"/>
  <path d="M184.759 197.974v-1.675c.15.137.328.26.533.369.21.109.431.203.663.28.233.073.465.13.697.171.233.041.447.062.643.062.684 0 1.192-.114 1.524-.342.338-.228.506-.558.506-.991a1.05 1.05 0 0 0-.171-.602 1.689 1.689 0 0 0-.465-.472 4.689 4.689 0 0 0-.71-.403 32.865 32.865 0 0 0-.869-.41 14.757 14.757 0 0 1-.929-.54 4.162 4.162 0 0 1-.752-.602 2.658 2.658 0 0 1-.499-.752 2.466 2.466 0 0 1-.178-.977c0-.46.102-.859.308-1.196.209-.342.483-.623.82-.841a3.661 3.661 0 0 1 1.162-.492c.433-.11.875-.165 1.326-.165 1.026 0 1.773.117 2.242.349v1.607c-.556-.401-1.271-.602-2.146-.602-.242 0-.483.023-.725.068a2.189 2.189 0 0 0-.642.226c-.187.105-.34.239-.458.403a.987.987 0 0 0-.178.595c0 .219.046.408.137.567.091.16.223.306.396.438.178.132.392.262.643.39.255.123.549.257.882.403.341.178.663.364.963.56.306.196.572.413.8.65.233.237.415.501.547.793.137.287.205.615.205.984 0 .497-.1.916-.301 1.258-.2.342-.471.62-.813.834a3.578 3.578 0 0 1-1.169.465 6.654 6.654 0 0 1-1.401.143c-.164 0-.367-.013-.609-.041a7.067 7.067 0 0 1-.731-.109 6.382 6.382 0 0 1-.711-.171 2.271 2.271 0 0 1-.54-.232zm11.183.314c-.31.155-.717.233-1.223.233-1.358 0-2.037-.652-2.037-1.956v-3.958h-1.169v-1.244h1.169v-1.62l1.586-.451v2.071h1.674v1.244h-1.674v3.5c0 .415.075.711.225.889.151.178.401.267.752.267.269 0 .501-.078.697-.233v1.258zm7.212-2.994h-4.771c.018.647.216 1.146.595 1.497.382.351.906.526 1.572.526.747 0 1.433-.223 2.057-.67v1.279c-.638.401-1.481.601-2.529.601-1.03 0-1.839-.316-2.427-.95-.583-.638-.875-1.533-.875-2.686 0-1.09.322-1.976.964-2.66.647-.688 1.449-1.032 2.406-1.032.958 0 1.698.308 2.222.923s.786 1.47.786 2.564v.608zm-1.531-1.121c-.005-.57-.139-1.012-.403-1.326-.265-.319-.629-.479-1.094-.479-.456 0-.843.167-1.162.499-.315.333-.508.768-.581 1.306h3.24zm4.655 3.158h-.027v4.252h-1.586v-10.22h1.586v1.231h.027c.543-.93 1.336-1.395 2.379-1.395.889 0 1.582.312 2.078.937.497.624.745 1.463.745 2.515 0 1.167-.28 2.101-.84 2.803-.561.702-1.327 1.053-2.297 1.053-.893 0-1.582-.392-2.065-1.176zm-.041-2.762v.869c0 .51.162.943.486 1.298.328.356.742.534 1.244.534.588 0 1.048-.228 1.381-.684.337-.46.506-1.101.506-1.921 0-.688-.158-1.226-.472-1.613-.31-.392-.732-.588-1.265-.588-.565 0-1.021.2-1.367.601-.342.401-.513.903-.513 1.504zm16.509 3.794h-6.152v-.759c0-.309.043-.599.13-.868a3.4 3.4 0 0 1 .348-.765c.146-.242.317-.467.513-.677.196-.214.406-.419.629-.615.223-.201.451-.392.683-.575.233-.186.461-.373.684-.56.21-.178.401-.351.574-.52.173-.173.322-.35.445-.533a2.093 2.093 0 0 0 .389-1.237c0-.26-.041-.485-.123-.677a1.224 1.224 0 0 0-.335-.485 1.337 1.337 0 0 0-.506-.294 1.921 1.921 0 0 0-.642-.103c-.401 0-.809.094-1.224.281a4.179 4.179 0 0 0-1.196.84v-1.524c.2-.15.403-.28.608-.39.205-.114.417-.207.636-.28.219-.077.449-.134.69-.171.242-.036.499-.055.773-.055.442 0 .843.06 1.203.178.36.114.668.285.923.513.255.223.451.503.588.841.141.337.212.724.212 1.162 0 .396-.05.754-.151 1.073a3.286 3.286 0 0 1-.417.882 4.45 4.45 0 0 1-.649.779c-.255.246-.54.499-.855.759a44.51 44.51 0 0 1-.793.629c-.259.2-.494.399-.704.595-.209.191-.38.385-.512.581a1.035 1.035 0 0 0-.192.581v.034h4.423v1.36z" fill="#606060"/>
  <path fill-rule="evenodd" clip-rule="evenodd" d="M152 209.363c8.837 0 16-7.163 16-16 0-8.836-7.163-16-16-16s-16 7.164-16 16c0 8.837 7.163 16 16 16zm5.989-22.01a1.5 1.5 0 0 0-2.121 0L152 191.221l-3.868-3.868a1.5 1.5 0 1 0-2.121 2.121l3.868 3.868-3.89 3.889a1.502 1.502 0 0 0 0 2.122 1.502 1.502 0 0 0 2.122 0l3.889-3.89 3.889 3.89a1.502 1.502 0 0 0 2.122 0 1.502 1.502 0 0 0 0-2.122l-3.89-3.889 3.868-3.868a1.5 1.5 0 0 0 0-2.121z" fill="#CD4A45"/>
  <rect x="120" y="89.363" width="208" height="64" rx="4" fill="#fff" filter="url(#filter3_d)"/>
  <path d="M184.759 125.974v-1.675c.15.137.328.26.533.369.21.109.431.203.663.28.233.073.465.13.697.171.233.041.447.062.643.062.684 0 1.192-.114 1.524-.342.338-.228.506-.558.506-.991a1.05 1.05 0 0 0-.171-.602 1.689 1.689 0 0 0-.465-.472 4.689 4.689 0 0 0-.71-.403 32.865 32.865 0 0 0-.869-.41 14.757 14.757 0 0 1-.929-.54 4.162 4.162 0 0 1-.752-.602 2.658 2.658 0 0 1-.499-.752 2.466 2.466 0 0 1-.178-.977c0-.46.102-.859.308-1.196.209-.342.483-.623.82-.841a3.661 3.661 0 0 1 1.162-.492c.433-.11.875-.165 1.326-.165 1.026 0 1.773.117 2.242.349v1.607c-.556-.401-1.271-.602-2.146-.602-.242 0-.483.023-.725.068a2.189 2.189 0 0 0-.642.226c-.187.105-.34.239-.458.403a.987.987 0 0 0-.178.595c0 .219.046.408.137.567.091.16.223.306.396.438.178.132.392.262.643.39.255.123.549.257.882.403.341.178.663.364.963.56.306.196.572.413.8.65.233.237.415.501.547.793.137.287.205.615.205.984 0 .497-.1.916-.301 1.258-.2.342-.471.62-.813.834a3.578 3.578 0 0 1-1.169.465 6.654 6.654 0 0 1-1.401.143c-.164 0-.367-.013-.609-.041a7.067 7.067 0 0 1-.731-.109 6.382 6.382 0 0 1-.711-.171 2.271 2.271 0 0 1-.54-.232zM195.942 126.288c-.31.155-.717.233-1.223.233-1.358 0-2.037-.652-2.037-1.956v-3.958h-1.169v-1.244h1.169v-1.62l1.586-.451v2.071h1.674v1.244h-1.674v3.5c0 .415.075.711.225.889.151.178.401.267.752.267.269 0 .501-.078.697-.233v1.258zM203.154 123.294h-4.771c.018.647.216 1.146.595 1.497.382.351.906.526 1.572.526.747 0 1.433-.223 2.057-.67v1.279c-.638.401-1.481.601-2.529.601-1.03 0-1.839-.316-2.427-.95-.583-.638-.875-1.533-.875-2.686 0-1.09.322-1.976.964-2.66.647-.688 1.449-1.032 2.406-1.032.958 0 1.698.308 2.222.923s.786 1.47.786 2.564v.608zm-1.531-1.121c-.005-.57-.139-1.012-.403-1.326-.265-.319-.629-.479-1.094-.479-.456 0-.843.167-1.162.499-.315.333-.508.768-.581 1.306h3.24zM206.278 125.331h-.027v4.252h-1.586v-10.22h1.586v1.231h.027c.543-.93 1.336-1.395 2.379-1.395.889 0 1.582.312 2.078.937.497.624.745 1.463.745 2.515 0 1.167-.28 2.101-.84 2.803-.561.702-1.327 1.053-2.297 1.053-.893 0-1.582-.392-2.065-1.176zm-.041-2.762v.869c0 .51.162.943.486 1.298.328.356.742.534 1.244.534.588 0 1.048-.228 1.381-.684.337-.46.506-1.101.506-1.921 0-.688-.158-1.226-.472-1.613-.31-.392-.732-.588-1.265-.588-.565 0-1.021.2-1.367.601-.342.401-.513.903-.513 1.504zM220.128 116.342v10.021h-1.586v-8.08a5.16 5.16 0 0 1-.93.527 7.875 7.875 0 0 1-1.128.376v-1.354c.265-.087.52-.178.766-.273.246-.096.488-.203.725-.322a10.348 10.348 0 0 0 1.483-.895h.67z" fill="#606060"/>
  <path fill-rule="evenodd" clip-rule="evenodd" d="M152.305 137.363c8.837 0 16-7.163 16-16 0-8.836-7.163-16-16-16-8.836 0-16 7.164-16 16 0 8.837 7.164 16 16 16zm-3.201-11.169l-.004-.004-2.855-2.855a1.5 1.5 0 0 1 2.121-2.122l1.798 1.799 6.21-6.209a1.5 1.5 0 1 1 2.121 2.121l-7.27 7.27a1.5 1.5 0 0 1-2.121 0z" fill="#5BA75F"/>
  <path d="M185.458 47.953c-.738.383-1.657.574-2.755.574-1.422 0-2.561-.449-3.418-1.346-.857-.898-1.285-2.076-1.285-3.534 0-1.568.481-2.835 1.442-3.801.967-.966 2.186-1.45 3.658-1.45.948 0 1.734.135 2.358.404v1.613a4.209 4.209 0 0 0-2.187-.588c-1.062 0-1.924.34-2.584 1.019-.657.679-.985 1.586-.985 2.72 0 1.08.308 1.942.923 2.584.615.638 1.424.957 2.427.957.925 0 1.727-.218 2.406-.656v1.504zM190.243 48.527c-1.08 0-1.944-.325-2.591-.977-.642-.656-.964-1.525-.964-2.605 0-1.175.335-2.094 1.005-2.755.675-.66 1.582-.99 2.721-.99 1.094 0 1.946.32 2.557.963.61.643.916 1.534.916 2.673 0 1.117-.331 2.012-.991 2.687-.657.67-1.541 1.004-2.653 1.004zm.075-6.063c-.619 0-1.109.216-1.469.65-.36.432-.54 1.03-.54 1.79 0 .734.182 1.313.546 1.737.365.419.853.629 1.463.629.625 0 1.103-.208 1.436-.623.337-.414.506-1.004.506-1.77 0-.77-.169-1.365-.506-1.784-.333-.42-.811-.63-1.436-.63zM205.973 48.363h-1.586V44.55c0-.734-.105-1.265-.315-1.593-.205-.328-.553-.492-1.046-.492-.414 0-.768.207-1.059.622-.287.415-.431.911-.431 1.49v3.787h-1.593V44.42c0-1.303-.46-1.955-1.381-1.955-.428 0-.781.196-1.059.588-.274.392-.41.9-.41 1.524v3.787h-1.586v-7h1.586v1.108h.027c.506-.848 1.242-1.272 2.208-1.272.483 0 .905.135 1.265.404.364.264.613.612.745 1.045.519-.966 1.294-1.449 2.324-1.449 1.54 0 2.311.95 2.311 2.85v4.314zM209.521 47.331h-.028v4.252h-1.586v-10.22h1.586v1.23h.028c.542-.929 1.335-1.394 2.378-1.394.889 0 1.582.312 2.079.937.496.624.745 1.463.745 2.515 0 1.167-.281 2.101-.841 2.803-.561.702-1.326 1.053-2.297 1.053-.893 0-1.581-.392-2.064-1.176zm-.042-2.762v.868c0 .51.162.944.486 1.3a1.62 1.62 0 0 0 1.244.532c.588 0 1.048-.227 1.381-.683.337-.46.506-1.1.506-1.921 0-.688-.158-1.226-.472-1.613-.31-.392-.731-.588-1.265-.588-.565 0-1.02.2-1.367.601-.342.402-.513.903-.513 1.504zM217.936 48.363h-1.593V38h1.593v10.363zM225.934 45.294h-4.772c.018.647.217 1.146.595 1.497.383.35.907.526 1.572.526.747 0 1.433-.223 2.058-.67v1.279c-.638.4-1.481.601-2.53.601-1.03 0-1.838-.316-2.426-.95-.584-.638-.875-1.533-.875-2.686 0-1.09.321-1.976.964-2.66.647-.688 1.449-1.032 2.406-1.032.957 0 1.697.308 2.221.923.525.615.787 1.47.787 2.563v.609zm-1.532-1.121c-.004-.57-.139-1.012-.403-1.326-.264-.32-.629-.479-1.094-.479a1.55 1.55 0 0 0-1.162.5c-.314.332-.508.767-.581 1.305h3.24zM231.136 48.288c-.31.155-.718.233-1.224.233-1.358 0-2.037-.652-2.037-1.956v-3.958h-1.169v-1.244h1.169v-1.62l1.586-.451v2.071h1.675v1.244h-1.675v3.5c0 .415.075.711.226.89.15.177.401.266.751.266.269 0 .502-.078.698-.233v1.258zM238.348 45.294h-4.772c.018.647.217 1.146.595 1.497.383.35.907.526 1.572.526a3.46 3.46 0 0 0 2.058-.67v1.279c-.638.4-1.481.601-2.53.601-1.029 0-1.838-.316-2.426-.95-.584-.638-.875-1.533-.875-2.686 0-1.09.321-1.976.964-2.66.647-.688 1.449-1.032 2.406-1.032.957 0 1.697.308 2.222.923.524.615.786 1.47.786 2.563v.609zm-1.532-1.121c-.004-.57-.139-1.012-.403-1.326-.264-.32-.629-.479-1.094-.479a1.55 1.55 0 0 0-1.162.5c-.314.332-.508.767-.581 1.305h3.24zM246.223 48.363h-1.586v-1.19h-.028c-.51.903-1.296 1.354-2.358 1.354-.861 0-1.552-.312-2.071-.936-.515-.63-.773-1.484-.773-2.564 0-1.157.285-2.085.855-2.782.574-.697 1.337-1.046 2.29-1.046.943 0 1.629.379 2.057 1.135h.028V38h1.586v10.363zm-1.566-3.199v-.916c0-.497-.162-.918-.485-1.265-.324-.346-.736-.52-1.237-.52-.593 0-1.06.222-1.402.664-.337.442-.506 1.055-.506 1.839 0 .71.162 1.274.486 1.688.328.41.768.615 1.319.615.542 0 .982-.198 1.319-.594.338-.401.506-.905.506-1.51zM253.735 48.07c0 1.148-.241 2.032-.724 2.652-.483.624-1.174.936-2.072.936-.332 0-.656-.073-.97-.218v-1.36c.296.204.576.307.841.307.893 0 1.339-.789 1.339-2.365v-6.659h1.586v6.706zm-.779-8.176a.966.966 0 0 1-.67-.253.838.838 0 0 1-.273-.643.86.86 0 0 1 .273-.65.952.952 0 0 1 .67-.26c.264 0 .49.087.677.26.187.174.28.39.28.65a.847.847 0 0 1-.28.636.961.961 0 0 1-.677.26zM258.917 48.527c-1.08 0-1.944-.325-2.591-.977-.642-.656-.964-1.525-.964-2.605 0-1.175.335-2.094 1.005-2.755.675-.66 1.582-.99 2.721-.99 1.094 0 1.946.32 2.557.963.61.643.916 1.534.916 2.673 0 1.117-.331 2.012-.992 2.687-.656.67-1.54 1.004-2.652 1.004zm.075-6.063c-.62 0-1.11.216-1.47.65-.36.432-.54 1.03-.54 1.79 0 .734.183 1.313.547 1.737.365.419.853.629 1.463.629.625 0 1.103-.208 1.436-.623.337-.414.506-1.004.506-1.77 0-.77-.169-1.365-.506-1.784-.333-.42-.811-.63-1.436-.63zM265.794 47.352h-.027v1.011h-1.586V38h1.586v4.594h.027c.542-.93 1.335-1.395 2.379-1.395.884 0 1.574.315 2.071.944.501.624.752 1.462.752 2.515 0 1.171-.28 2.11-.841 2.817-.56.701-1.326 1.052-2.297 1.052-.911 0-1.599-.392-2.064-1.175zm-.041-2.783v.868c0 .51.162.944.485 1.3a1.62 1.62 0 0 0 1.244.532c.588 0 1.049-.227 1.381-.683.338-.46.506-1.1.506-1.921 0-.688-.157-1.226-.472-1.613-.309-.392-.731-.588-1.264-.588-.565 0-1.021.2-1.367.601-.342.402-.513.903-.513 1.504z" fill="#606060"/>
  <rect x="677" y="124.142" width="158.87" height="137.768" rx="4" fill="#201F1E" filter="url(#filter4_d)"/>
  <path d="M677 127.363a4 4 0 0 1 4-4h150.87a4 4 0 0 1 4 4v29.469H677v-29.469z" fill="#323130"/>
  <path d="M702.323 146.363h-5.816V135.86h1.743v9.031h4.073v1.472zM706.981 146.539c-1.157 0-2.083-.349-2.776-1.047-.688-.703-1.033-1.634-1.033-2.791 0-1.26.359-2.243 1.077-2.951.723-.708 1.694-1.062 2.915-1.062 1.172 0 2.085.344 2.739 1.032.655.689.982 1.643.982 2.864 0 1.196-.354 2.156-1.062 2.878-.703.718-1.651 1.077-2.842 1.077zm.081-6.497c-.665 0-1.189.232-1.575.696-.386.464-.579 1.104-.579 1.919 0 .786.196 1.406.586 1.861.391.449.913.673 1.568.673.668 0 1.181-.222 1.538-.666.361-.444.542-1.077.542-1.897 0-.825-.181-1.462-.542-1.912-.357-.449-.87-.674-1.538-.674zM719.447 145.763c0 2.754-1.385 4.131-4.153 4.131-.977 0-1.829-.164-2.556-.491v-1.553c.82.469 1.599.703 2.336.703 1.782 0 2.674-.876 2.674-2.629v-.82h-.03c-.561.957-1.406 1.435-2.534 1.435-.913 0-1.65-.332-2.212-.996-.556-.669-.835-1.565-.835-2.688 0-1.274.301-2.288.901-3.04.601-.752 1.426-1.127 2.476-1.127.991 0 1.726.405 2.204 1.215h.03v-1.04h1.699v6.9zm-1.685-2.835v-.974c0-.527-.176-.976-.527-1.348a1.7 1.7 0 0 0-1.304-.564c-.644 0-1.15.24-1.516.718-.361.474-.542 1.138-.542 1.992 0 .738.173 1.329.52 1.773.352.439.815.659 1.392.659.586 0 1.062-.21 1.428-.63.366-.425.549-.967.549-1.626z" fill="#fff"/>
  <path d="M694.953 214.43a3.114 3.114 0 0 1 3.114-3.113h77.247a3.113 3.113 0 0 1 0 6.227h-77.247a3.114 3.114 0 0 1-3.114-3.114z" fill="#CD4A45"/>
  <path d="M694.953 170.064a3.114 3.114 0 0 1 3.114-3.113h77.247a3.113 3.113 0 0 1 0 6.226h-77.247a3.113 3.113 0 0 1-3.114-3.113zM694.953 180.961a3.114 3.114 0 0 1 3.114-3.113h29.676a3.113 3.113 0 0 1 0 6.226h-29.676a3.113 3.113 0 0 1-3.114-3.113zM694.953 191.858a3.114 3.114 0 0 1 3.114-3.113h29.676a3.113 3.113 0 0 1 0 6.226h-29.676a3.113 3.113 0 0 1-3.114-3.113zM694.953 201.977a3.114 3.114 0 0 1 3.114-3.114h29.676a3.114 3.114 0 0 1 0 6.227h-29.676a3.114 3.114 0 0 1-3.114-3.113zM738.934 180.961a3.113 3.113 0 0 1 3.113-3.113h72.759a3.114 3.114 0 1 1 0 6.226h-72.759a3.112 3.112 0 0 1-3.113-3.113zM738.934 191.08a3.113 3.113 0 0 1 3.113-3.114h54.808a3.114 3.114 0 0 1 0 6.227h-54.808a3.113 3.113 0 0 1-3.113-3.113zM738.934 201.977a3.113 3.113 0 0 1 3.113-3.114h72.759a3.114 3.114 0 1 1 0 6.227h-72.759a3.113 3.113 0 0 1-3.113-3.113zM694.953 225.327a3.114 3.114 0 0 1 3.114-3.114h29.676a3.114 3.114 0 0 1 0 6.227h-29.676a3.114 3.114 0 0 1-3.114-3.113zM694.953 236.224a3.114 3.114 0 0 1 3.114-3.114h29.676a3.114 3.114 0 0 1 0 6.227h-29.676a3.114 3.114 0 0 1-3.114-3.113zM694.953 246.342a3.114 3.114 0 0 1 3.114-3.113h29.676a3.113 3.113 0 0 1 0 6.227h-29.676a3.114 3.114 0 0 1-3.114-3.114zM738.934 225.327a3.113 3.113 0 0 1 3.113-3.114h72.759a3.114 3.114 0 1 1 0 6.227h-72.759a3.113 3.113 0 0 1-3.113-3.113zM738.934 235.445a3.113 3.113 0 0 1 3.113-3.113h54.808a3.113 3.113 0 0 1 0 6.227h-54.808a3.113 3.113 0 0 1-3.113-3.114zM738.934 246.342a3.113 3.113 0 0 1 3.113-3.113h72.759a3.114 3.114 0 1 1 0 6.227h-72.759a3.113 3.113 0 0 1-3.113-3.114z" fill="#EBEBEB"/>
  <defs>
    <filter id="filter0_d" x="88" y="60.363" width="272" height="272" filterUnits="userSpaceOnUse" color-interpolation-filters="sRGB">
      <feFlood flood-opacity="0" result="BackgroundImageFix"/>
      <feColorMatrix in="SourceAlpha" values="0 0 0 0 0 0 0 0 0 0 0 0 0 0 0 0 0 0 127 0"/>
      <feOffset dy="3"/>
      <feGaussianBlur stdDeviation="4"/>
      <feColorMatrix values="0 0 0 0 0 0 0 0 0 0 0 0 0 0 0 0 0 0 0.2 0"/>
      <feBlend in2="BackgroundImageFix" result="effect1_dropShadow"/>
      <feBlend in="SourceGraphic" in2="effect1_dropShadow" result="shape"/>
    </filter>
    <filter id="filter1_d" x="112" y="228.363" width="224" height="80" filterUnits="userSpaceOnUse" color-interpolation-filters="sRGB">
      <feFlood flood-opacity="0" result="BackgroundImageFix"/>
      <feColorMatrix in="SourceAlpha" values="0 0 0 0 0 0 0 0 0 0 0 0 0 0 0 0 0 0 127 0"/>
      <feOffset dy="3"/>
      <feGaussianBlur stdDeviation="4"/>
      <feColorMatrix values="0 0 0 0 0 0 0 0 0 0 0 0 0 0 0 0 0 0 0.2 0"/>
      <feBlend in2="BackgroundImageFix" result="effect1_dropShadow"/>
      <feBlend in="SourceGraphic" in2="effect1_dropShadow" result="shape"/>
    </filter>
    <filter id="filter2_d" x="112" y="156.363" width="224" height="80" filterUnits="userSpaceOnUse" color-interpolation-filters="sRGB">
      <feFlood flood-opacity="0" result="BackgroundImageFix"/>
      <feColorMatrix in="SourceAlpha" values="0 0 0 0 0 0 0 0 0 0 0 0 0 0 0 0 0 0 127 0"/>
      <feOffset dy="3"/>
      <feGaussianBlur stdDeviation="4"/>
      <feColorMatrix values="0 0 0 0 0 0 0 0 0 0 0 0 0 0 0 0 0 0 0.2 0"/>
      <feBlend in2="BackgroundImageFix" result="effect1_dropShadow"/>
      <feBlend in="SourceGraphic" in2="effect1_dropShadow" result="shape"/>
    </filter>
    <filter id="filter3_d" x="112" y="84.363" width="224" height="80" filterUnits="userSpaceOnUse" color-interpolation-filters="sRGB">
      <feFlood flood-opacity="0" result="BackgroundImageFix"/>
      <feColorMatrix in="SourceAlpha" values="0 0 0 0 0 0 0 0 0 0 0 0 0 0 0 0 0 0 127 0"/>
      <feOffset dy="3"/>
      <feGaussianBlur stdDeviation="4"/>
      <feColorMatrix values="0 0 0 0 0 0 0 0 0 0 0 0 0 0 0 0 0 0 0.2 0"/>
      <feBlend in2="BackgroundImageFix" result="effect1_dropShadow"/>
      <feBlend in="SourceGraphic" in2="effect1_dropShadow" result="shape"/>
    </filter>
    <filter id="filter4_d" x="669" y="119.142" width="174.87" height="153.768" filterUnits="userSpaceOnUse" color-interpolation-filters="sRGB">
      <feFlood flood-opacity="0" result="BackgroundImageFix"/>
      <feColorMatrix in="SourceAlpha" values="0 0 0 0 0 0 0 0 0 0 0 0 0 0 0 0 0 0 127 0"/>
      <feOffset dy="3"/>
      <feGaussianBlur stdDeviation="4"/>
      <feColorMatrix values="0 0 0 0 0 0 0 0 0 0 0 0 0 0 0 0 0 0 0.2 0"/>
      <feBlend in2="BackgroundImageFix" result="effect1_dropShadow"/>
      <feBlend in="SourceGraphic" in2="effect1_dropShadow" result="shape"/>
    </filter>
    <linearGradient id="paint0_linear" x1="363.055" y1="179.747" x2="737.475" y2="179.708" gradientUnits="userSpaceOnUse">
      <stop stop-color="#fff" stop-opacity="0"/>
      <stop offset=".979" stop-color="#fff"/>
    </linearGradient>
    <linearGradient id="paint1_linear" x1="653.19" y1="190.86" x2="329.628" y2="190.861" gradientUnits="userSpaceOnUse">
      <stop stop-color="#3C3C3C"/>
      <stop offset="1" stop-color="#3C3C3C" stop-opacity=".16"/>
    </linearGradient>
  </defs>
</svg>
