<svg width="100%" viewBox="0 0 932 360" fill="none" preserveAspectRatio="xMidYMid meet" xmlns="http://www.w3.org/2000/svg">
  <path fill="#EBEBEB" d="M0 0h932v360H0z"/>
  <rect x="419" y="225.363" width="64" height="263" rx="4" transform="rotate(-90 419 225.363)" fill="url(#paint0_linear)"/>
  <rect x="197" y="225.363" width="64" height="275" rx="4" transform="rotate(-90 197 225.363)" fill="url(#paint1_linear)"/>
  <rect x="671" y="161.363" width="64" height="64" rx="4" fill="#749CE4" filter="url(#filter0_d)"/>
  <rect x="671" y="161.363" width="64" height="64" rx="4" fill="#fff" filter="url(#filter1_d)"/>
  <path fill-rule="evenodd" clip-rule="evenodd" d="M703.305 209.363c8.837 0 16-7.163 16-16 0-8.836-7.163-16-16-16-8.836 0-16 7.164-16 16 0 8.837 7.164 16 16 16zm-3.201-11.169l-.004-.004-2.855-2.855a1.5 1.5 0 0 1 2.121-2.122l1.798 1.799 6.21-6.21a1.501 1.501 0 0 1 2.121 2.122l-7.27 7.27a1.5 1.5 0 0 1-2.121 0z" fill="#5BA75F"/>
  <path d="M222.253 140.85c0 1.162-.287 2.066-.861 2.713-.575.643-1.34.964-2.297.964-.447 0-.814-.052-1.101-.157v-1.531c.26.178.595.266 1.005.266 1.085 0 1.627-.838 1.627-2.515v-6.029h1.627v6.289zM227.51 144.527c-1.08 0-1.944-.326-2.591-.977-.643-.656-.964-1.525-.964-2.605 0-1.175.335-2.094 1.005-2.755.674-.66 1.581-.991 2.721-.991 1.093 0 1.946.322 2.556.964.611.643.916 1.534.916 2.673 0 1.116-.33 2.012-.991 2.686-.656.67-1.54 1.005-2.652 1.005zm.075-6.063c-.62 0-1.11.216-1.47.649-.36.433-.54 1.03-.54 1.791 0 .734.182 1.313.547 1.737.365.419.852.629 1.463.629.624 0 1.103-.208 1.436-.623.337-.414.505-1.004.505-1.77 0-.77-.168-1.365-.505-1.784-.333-.419-.812-.629-1.436-.629zM234.387 143.352h-.028v1.011h-1.586V134h1.586v4.594h.028c.542-.93 1.335-1.395 2.379-1.395.884 0 1.574.315 2.071.944.501.624.752 1.462.752 2.515 0 1.171-.28 2.11-.841 2.817-.56.701-1.326 1.052-2.297 1.052-.911 0-1.599-.392-2.064-1.175zm-.041-2.783v.869c0 .51.161.943.485 1.298a1.62 1.62 0 0 0 1.244.534c.588 0 1.048-.228 1.381-.684.337-.46.506-1.101.506-1.921 0-.688-.157-1.226-.472-1.613-.31-.392-.731-.588-1.264-.588-.566 0-1.021.2-1.368.601-.341.401-.512.903-.512 1.504z" fill="#606060"/>
  <path d="M655.354 193.717a.5.5 0 0 0 0-.707l-3.182-3.182a.5.5 0 0 0-.708.707l2.829 2.828-2.829 2.829a.5.5 0 0 0 .708.707l3.182-3.182zM261 193.863h394v-1H261v1z" fill="url(#paint2_linear)"/>
  <rect x="418" y="61.363" width="96" height="264" rx="4" fill="#EBEBEB" filter="url(#filter2_d)"/>
  <g filter="url(#filter3_d)">
    <rect x="434" y="161.363" width="64" height="64" rx="3" fill="#fff"/>
    <path fill-rule="evenodd" clip-rule="evenodd" d="M466 209.363c8.837 0 16-7.163 16-16 0-8.836-7.163-16-16-16s-16 7.164-16 16c0 8.837 7.163 16 16 16zm-7-16a7.002 7.002 0 0 1 4.627-6.587c.499-.18.873-.63.873-1.161 0-.697-.628-1.232-1.292-1.02a9.204 9.204 0 0 0-6.27 10.367c.124.707.924 1.008 1.545.649.445-.257.652-.78.582-1.289a7.064 7.064 0 0 1-.065-.959zm14 0c0 .325-.022.645-.065.959-.07.509.137 1.032.582 1.289.622.359 1.421.058 1.545-.649a9.204 9.204 0 0 0-6.27-10.367c-.664-.212-1.292.323-1.292 1.02 0 .531.374.981.874 1.161a7.003 7.003 0 0 1 4.626 6.587zm-7 7a6.97 6.97 0 0 0 4.728-1.838c.403-.369.999-.484 1.472-.21.586.339.743 1.122.261 1.598a9.17 9.17 0 0 1-6.461 2.65 9.17 9.17 0 0 1-6.461-2.65c-.482-.476-.325-1.259.261-1.598.473-.274 1.069-.159 1.472.21a6.97 6.97 0 0 0 4.728 1.838z" fill="#5986E7"/>
  </g>
  <path d="M440.161 44.363h-1.784l-.882-2.495h-3.855l-.848 2.495h-1.777l3.671-9.803h1.832l3.643 9.803zm-3.097-3.821l-1.36-3.91a4.698 4.698 0 0 1-.13-.615h-.027a4.01 4.01 0 0 1-.137.615l-1.347 3.91h3.001zM447.708 43.803c0 2.57-1.292 3.855-3.876 3.855-.911 0-1.707-.153-2.386-.458v-1.449c.766.438 1.493.656 2.181.656 1.663 0 2.495-.818 2.495-2.454v-.766h-.027c-.524.894-1.313 1.34-2.366 1.34-.852 0-1.54-.31-2.064-.93-.519-.624-.779-1.46-.779-2.508 0-1.19.28-2.135.841-2.837.56-.702 1.33-1.053 2.31-1.053.925 0 1.611.379 2.058 1.135h.027v-.97h1.586v6.439zm-1.572-2.646v-.909c0-.492-.164-.911-.492-1.258a1.588 1.588 0 0 0-1.217-.526c-.602 0-1.073.223-1.415.67-.338.442-.506 1.062-.506 1.86 0 .687.162 1.239.485 1.654.328.41.761.615 1.299.615.547 0 .991-.196 1.333-.588.342-.397.513-.902.513-1.518zM455.699 41.294h-4.771c.018.647.216 1.146.594 1.497.383.35.907.526 1.573.526.747 0 1.433-.223 2.057-.67v1.279c-.638.4-1.481.601-2.529.601-1.03 0-1.839-.316-2.427-.95-.583-.638-.875-1.533-.875-2.686 0-1.09.322-1.976.964-2.66.647-.688 1.449-1.032 2.406-1.032.957 0 1.698.308 2.222.923s.786 1.47.786 2.563v.609zm-1.531-1.121c-.005-.57-.139-1.012-.403-1.326-.265-.32-.629-.479-1.094-.479a1.55 1.55 0 0 0-1.162.5c-.315.332-.508.767-.581 1.305h3.24zM463.444 44.363h-1.586V40.42c0-1.308-.462-1.962-1.387-1.962-.483 0-.882.182-1.197.547-.314.36-.471.816-.471 1.367v3.992h-1.593v-7h1.593v1.162h.027c.524-.884 1.281-1.326 2.27-1.326.761 0 1.342.249 1.743.745.401.492.601 1.206.601 2.14v4.28zM469.077 44.288c-.31.155-.718.233-1.223.233-1.359 0-2.038-.652-2.038-1.956v-3.958h-1.169v-1.244h1.169v-1.62l1.586-.451v2.071h1.675v1.244h-1.675v3.5c0 .415.076.711.226.89.15.177.401.266.752.266.269 0 .501-.078.697-.233v1.258zM475.913 43.331h-.027v4.252H474.3v-10.22h1.586v1.23h.027c.542-.929 1.335-1.394 2.379-1.394.889 0 1.581.312 2.078.937.497.624.745 1.463.745 2.515 0 1.167-.28 2.101-.841 2.803-.56.702-1.326 1.053-2.296 1.053-.894 0-1.582-.392-2.065-1.176zm-.041-2.762v.868c0 .51.162.944.485 1.3.329.355.743.532 1.245.532.587 0 1.048-.227 1.38-.683.338-.46.506-1.1.506-1.921 0-.688-.157-1.226-.471-1.613-.31-.392-.732-.588-1.265-.588-.565 0-1.021.2-1.367.601-.342.402-.513.903-.513 1.504zM485.839 44.527c-1.08 0-1.944-.325-2.591-.977-.643-.656-.964-1.525-.964-2.605 0-1.175.335-2.094 1.005-2.755.675-.66 1.581-.99 2.721-.99 1.094 0 1.946.32 2.556.963.611.643.916 1.534.916 2.673 0 1.117-.33 2.012-.991 2.687-.656.67-1.54 1.004-2.652 1.004zm.075-6.063c-.62 0-1.11.216-1.47.65-.36.432-.54 1.03-.54 1.79 0 .734.183 1.313.547 1.737.365.419.852.629 1.463.629.624 0 1.103-.208 1.436-.623.337-.414.505-1.004.505-1.77 0-.77-.168-1.365-.505-1.784-.333-.42-.812-.63-1.436-.63zM494.206 44.527c-1.08 0-1.944-.325-2.591-.977-.642-.656-.964-1.525-.964-2.605 0-1.175.335-2.094 1.005-2.755.675-.66 1.582-.99 2.721-.99 1.094 0 1.946.32 2.557.963.61.643.916 1.534.916 2.673 0 1.117-.331 2.012-.992 2.687-.656.67-1.54 1.004-2.652 1.004zm.075-6.063c-.62 0-1.109.216-1.469.65-.361.432-.541 1.03-.541 1.79 0 .734.183 1.313.547 1.737.365.419.853.629 1.463.629.625 0 1.103-.208 1.436-.623.337-.414.506-1.004.506-1.77 0-.77-.169-1.365-.506-1.784-.333-.42-.811-.63-1.436-.63zM501.062 44.363h-1.592V34h1.592v10.363z" fill="#606060"/>
  <rect x="197" y="161.363" width="64" height="64" rx="4" fill="#fff" filter="url(#filter4_d)"/>
  <path fill-rule="evenodd" clip-rule="evenodd" d="M229 209.363c8.837 0 16-7.163 16-16 0-8.836-7.163-16-16-16s-16 7.164-16 16c0 8.837 7.163 16 16 16zm0-2c7.732 0 14-6.268 14-14s-6.268-14-14-14-14 6.268-14 14 6.268 14 14 14z" fill="#000" fill-opacity=".38"/>
  <path d="M484.71 137.988a4 4 0 0 1-3.464 2l-30.89.007a4.001 4.001 0 0 1-3.483-2.032l-14.768-26.121a4.003 4.003 0 0 1-.011-3.917l14.784-26.51a4 4 0 0 1 3.493-2.052h30.876c1.429 0 2.749.762 3.463 1.999l15.2 26.295a3.999 3.999 0 0 1 .001 4.002l-15.201 26.329z" fill="#C8C8C8"/>
  <rect x="435" y="242.363" width="64.176" height="64.176" rx="32.088" fill="#C8C8C8"/>
  <path d="M692.418 145h-1.9l-1.566-2.625a4.803 4.803 0 0 0-.417-.615 2.28 2.28 0 0 0-.41-.424 1.353 1.353 0 0 0-.451-.239 1.898 1.898 0 0 0-.554-.076h-.656V145h-1.62v-9.803h3.226c.461 0 .884.055 1.272.164.387.11.724.276 1.012.499.287.219.51.495.669.828.165.328.247.713.247 1.155 0 .346-.053.665-.158.957-.1.287-.246.544-.437.772a2.611 2.611 0 0 1-.684.574 3.36 3.36 0 0 1-.895.37v.027c.177.1.332.212.465.335.132.118.257.241.376.369.118.128.234.274.348.438.119.159.249.346.39.56l1.743 2.755zm-5.954-8.483v3.185h1.353c.251 0 .481-.039.691-.116.214-.078.399-.189.554-.335a1.54 1.54 0 0 0 .362-.533c.086-.21.13-.445.13-.704 0-.47-.148-.837-.445-1.101-.296-.264-.722-.396-1.278-.396h-1.367zM698.946 141.931h-4.771c.018.647.216 1.146.595 1.497.382.351.906.526 1.572.526.747 0 1.433-.223 2.057-.67v1.278c-.638.402-1.481.602-2.529.602-1.03 0-1.839-.317-2.427-.95-.583-.638-.875-1.534-.875-2.687 0-1.089.322-1.975.964-2.659.647-.688 1.449-1.032 2.406-1.032.958 0 1.698.308 2.222.923s.786 1.47.786 2.563v.609zm-1.531-1.121c-.005-.57-.139-1.012-.403-1.327-.265-.319-.629-.478-1.094-.478-.456 0-.843.166-1.162.499-.315.333-.508.768-.581 1.306h3.24zM700.02 144.781v-1.469a3.162 3.162 0 0 0 1.961.676c.957 0 1.436-.282 1.436-.847a.656.656 0 0 0-.123-.404 1.129 1.129 0 0 0-.335-.3 2.452 2.452 0 0 0-.492-.233l-.629-.232a6.85 6.85 0 0 1-.779-.363 2.487 2.487 0 0 1-.575-.43 1.702 1.702 0 0 1-.341-.554 2.013 2.013 0 0 1-.117-.718c0-.337.08-.633.24-.888.159-.26.373-.477.642-.65.269-.178.574-.31.916-.396a4.103 4.103 0 0 1 1.06-.137c.647 0 1.226.098 1.736.294v1.388c-.492-.338-1.057-.506-1.695-.506-.201 0-.383.02-.547.061-.16.041-.296.098-.41.171a.83.83 0 0 0-.267.267.61.61 0 0 0-.096.335c0 .15.032.278.096.383a.921.921 0 0 0 .28.28c.128.077.278.15.452.219.177.063.38.134.608.211.301.123.57.249.807.376.241.128.446.274.615.438.169.159.298.346.39.56.091.21.136.461.136.752 0 .356-.082.666-.246.93a2.055 2.055 0 0 1-.656.656c-.274.174-.59.301-.95.383-.356.087-.732.13-1.128.13-.766 0-1.429-.128-1.989-.383zM712.604 145h-1.585v-1.107h-.028c-.46.847-1.176 1.271-2.146 1.271-1.655 0-2.482-.993-2.482-2.98V138h1.586v4.02c0 1.257.486 1.886 1.456 1.886.47 0 .855-.173 1.156-.519.305-.347.458-.8.458-1.361V138h1.585v7zM716.269 145h-1.593v-10.363h1.593V145zM722.031 144.925c-.31.155-.718.232-1.223.232-1.358 0-2.037-.651-2.037-1.955v-3.958h-1.169V138h1.169v-1.62l1.585-.451V138h1.675v1.244h-1.675v3.5c0 .415.076.711.226.889.15.178.401.266.752.266.269 0 .501-.077.697-.232v1.258z" fill="#606060"/>
  <defs>
    <filter id="filter0_d" x="663" y="156.363" width="80" height="80" filterUnits="userSpaceOnUse" color-interpolation-filters="sRGB">
      <feFlood flood-opacity="0" result="BackgroundImageFix"/>
      <feColorMatrix in="SourceAlpha" values="0 0 0 0 0 0 0 0 0 0 0 0 0 0 0 0 0 0 127 0"/>
      <feOffset dy="3"/>
      <feGaussianBlur stdDeviation="4"/>
      <feColorMatrix values="0 0 0 0 0 0 0 0 0 0 0 0 0 0 0 0 0 0 0.2 0"/>
      <feBlend in2="BackgroundImageFix" result="effect1_dropShadow"/>
      <feBlend in="SourceGraphic" in2="effect1_dropShadow" result="shape"/>
    </filter>
    <filter id="filter1_d" x="663" y="156.363" width="80" height="80" filterUnits="userSpaceOnUse" color-interpolation-filters="sRGB">
      <feFlood flood-opacity="0" result="BackgroundImageFix"/>
      <feColorMatrix in="SourceAlpha" values="0 0 0 0 0 0 0 0 0 0 0 0 0 0 0 0 0 0 127 0"/>
      <feOffset dy="3"/>
      <feGaussianBlur stdDeviation="4"/>
      <feColorMatrix values="0 0 0 0 0 0 0 0 0 0 0 0 0 0 0 0 0 0 0.2 0"/>
      <feBlend in2="BackgroundImageFix" result="effect1_dropShadow"/>
      <feBlend in="SourceGraphic" in2="effect1_dropShadow" result="shape"/>
    </filter>
    <filter id="filter2_d" x="410" y="56.363" width="112" height="280" filterUnits="userSpaceOnUse" color-interpolation-filters="sRGB">
      <feFlood flood-opacity="0" result="BackgroundImageFix"/>
      <feColorMatrix in="SourceAlpha" values="0 0 0 0 0 0 0 0 0 0 0 0 0 0 0 0 0 0 127 0"/>
      <feOffset dy="3"/>
      <feGaussianBlur stdDeviation="4"/>
      <feColorMatrix values="0 0 0 0 0 0 0 0 0 0 0 0 0 0 0 0 0 0 0.2 0"/>
      <feBlend in2="BackgroundImageFix" result="effect1_dropShadow"/>
      <feBlend in="SourceGraphic" in2="effect1_dropShadow" result="shape"/>
    </filter>
    <filter id="filter3_d" x="426" y="156.363" width="80" height="80" filterUnits="userSpaceOnUse" color-interpolation-filters="sRGB">
      <feFlood flood-opacity="0" result="BackgroundImageFix"/>
      <feColorMatrix in="SourceAlpha" values="0 0 0 0 0 0 0 0 0 0 0 0 0 0 0 0 0 0 127 0"/>
      <feOffset dy="3"/>
      <feGaussianBlur stdDeviation="4"/>
      <feColorMatrix values="0 0 0 0 0 0 0 0 0 0 0 0 0 0 0 0 0 0 0.2 0"/>
      <feBlend in2="BackgroundImageFix" result="effect1_dropShadow"/>
      <feBlend in="SourceGraphic" in2="effect1_dropShadow" result="shape"/>
    </filter>
    <filter id="filter4_d" x="189" y="156.363" width="80" height="80" filterUnits="userSpaceOnUse" color-interpolation-filters="sRGB">
      <feFlood flood-opacity="0" result="BackgroundImageFix"/>
      <feColorMatrix in="SourceAlpha" values="0 0 0 0 0 0 0 0 0 0 0 0 0 0 0 0 0 0 127 0"/>
      <feOffset dy="3"/>
      <feGaussianBlur stdDeviation="4"/>
      <feColorMatrix values="0 0 0 0 0 0 0 0 0 0 0 0 0 0 0 0 0 0 0.2 0"/>
      <feBlend in2="BackgroundImageFix" result="effect1_dropShadow"/>
      <feBlend in="SourceGraphic" in2="effect1_dropShadow" result="shape"/>
    </filter>
    <linearGradient id="paint0_linear" x1="451" y1="225.363" x2="451" y2="488.363" gradientUnits="userSpaceOnUse">
      <stop offset=".423" stop-color="#fff" stop-opacity=".1"/>
      <stop offset=".908" stop-color="#fff"/>
    </linearGradient>
    <linearGradient id="paint1_linear" x1="229" y1="225.363" x2="229" y2="500.363" gradientUnits="userSpaceOnUse">
      <stop offset=".423" stop-color="#fff" stop-opacity=".1"/>
      <stop offset=".908" stop-color="#fff"/>
    </linearGradient>
    <linearGradient id="paint2_linear" x1="645.703" y1="192.86" x2="260.557" y2="192.861" gradientUnits="userSpaceOnUse">
      <stop stop-color="#3C3C3C"/>
      <stop offset="1" stop-color="#3C3C3C" stop-opacity=".16"/>
    </linearGradient>
  </defs>
</svg>
