<svg width="100%" viewBox="0 0 932 360" fill="none" preserveAspectRati0="xMidYMid meet" xmlns="http://www.w3.org/2000/svg">
  <path fill="#EBEBEB" d="M0 0h932v360H0z"/>
  <path d="M580 142s20.211 0 20.211 24.149C600.211 195 611.158 195 611.158 195M320 142h32" stroke="#C8C8C8" stroke-width="2" stroke-linecap="round" stroke-linejoin="round"/>
  <rect x="613" y="109" width="223" height="173" rx="4" fill="#fff" filter="url(#filter0_d)"/>
  <path d="M612 189.5h.5V113a3.5 3.5 0 0 1 3.5-3.5h216a3.5 3.5 0 0 1 3.5 3.5v165a3.5 3.5 0 0 1-3.5 3.5H616a3.5 3.5 0 0 1-3.5-3.5v-75.5h-.5a6.5 6.5 0 1 1 0-13z" fill="#fff" stroke="#DEDEDE"/>
  <circle cx="612" cy="196" r="4" fill="#C8C8C8"/>
  <path stroke="#DEDEDE" d="M612 173.5h224"/>
  <path d="M657.461 198h-4.359v-8.402h.984v7.511h3.375V198zM659.113 190.477a.608.608 0 0 1-.621-.622c0-.179.061-.328.182-.445a.598.598 0 0 1 .439-.182c.176 0 .325.061.446.182a.584.584 0 0 1 .187.445.59.59 0 0 1-.187.44.607.607 0 0 1-.446.182zm.469 7.523h-.961v-6h.961v6zM666.508 198h-.961v-3.422c0-1.273-.465-1.91-1.395-1.91-.48 0-.879.182-1.195.545-.312.359-.469.814-.469 1.365V198h-.961v-6h.961v.996h.024c.453-.758 1.109-1.137 1.968-1.137.657 0 1.159.213 1.506.639.348.422.522 1.033.522 1.834V198zM673.176 198h-.961v-.949h-.024c-.398.726-1.015 1.09-1.851 1.09-1.43 0-2.145-.852-2.145-2.555V192h.955v3.434c0 1.265.485 1.898 1.454 1.898.468 0 .853-.172 1.154-.516.304-.347.457-.8.457-1.359V192h.961v6zM679.504 192l-2.016 3.035 1.981 2.965h-1.119l-1.178-1.945a13.593 13.593 0 0 1-.264-.457h-.023l-.276.457-1.201 1.945h-1.107l2.045-2.941-1.957-3.059h1.119l1.16 2.051c.086.152.17.308.252.469h.023l1.5-2.52h1.061zM684.883 197.748c0 .984-.199 1.742-.598 2.273-.394.536-.961.803-1.699.803-.274 0-.539-.062-.797-.187v-.897c.289.176.563.264.82.264.875 0 1.313-.699 1.313-2.098V192h.961v5.748zm-.469-7.271a.608.608 0 0 1-.621-.622c0-.179.061-.328.182-.445a.598.598 0 0 1 .439-.182c.176 0 .324.061.445.182a.585.585 0 0 1 .188.445.59.59 0 0 1-.188.44.605.605 0 0 1-.445.182zM689.336 198.141c-.887 0-1.596-.28-2.127-.838-.527-.563-.791-1.307-.791-2.233 0-1.008.275-1.795.826-2.361.551-.566 1.295-.85 2.233-.85.894 0 1.591.276 2.091.827.504.55.756 1.314.756 2.291 0 .957-.271 1.724-.814 2.302-.539.574-1.264.862-2.174.862zm.07-5.473c-.617 0-1.105.211-1.465.633-.359.418-.539.996-.539 1.734 0 .711.182 1.272.545 1.682.364.41.85.615 1.459.615.621 0 1.098-.201 1.43-.604.336-.402.504-.974.504-1.716 0-.75-.168-1.328-.504-1.735-.332-.406-.809-.609-1.43-.609zM694.844 197.133h-.024V198h-.961v-8.883h.961v3.938h.024c.472-.797 1.164-1.196 2.074-1.196.77 0 1.371.27 1.805.809.437.535.656 1.254.656 2.156 0 1.004-.244 1.809-.733 2.414-.488.602-1.156.903-2.003.903-.793 0-1.393-.336-1.799-1.008zm-.024-2.42v.838c0 .496.16.918.481 1.265.324.344.734.516 1.23.516.582 0 1.037-.223 1.365-.668.333-.445.499-1.064.499-1.857 0-.668-.155-1.192-.463-1.571-.309-.379-.727-.568-1.254-.568-.559 0-1.008.195-1.348.586-.34.387-.51.873-.51 1.459z" fill="#000" fill-opacity=".9"/>
  <circle cx="632" cy="194" r="8" fill="#55A362"/>
  <path d="M630.062 197.144l-.003-.002-1.784-1.785a.936.936 0 1 1 1.325-1.326l1.125 1.124 3.88-3.881a.938.938 0 0 1 1.326 1.326l-4.54 4.541-.004.003a.935.935 0 0 1-1.325 0z" fill="#fff"/>
  <path d="M810.207 198h-.961v-7.26c-.074.074-.184.16-.328.258a5.134 5.134 0 0 1-.48.281 6.25 6.25 0 0 1-.563.264 3.995 3.995 0 0 1-.574.193v-.972c.211-.059.433-.137.668-.235a8.742 8.742 0 0 0 1.347-.72 5.44 5.44 0 0 0 .528-.399h.363V198zM812.961 195.656c0-.222.035-.445.105-.668.071-.226.17-.437.299-.633.133-.195.295-.373.487-.533.195-.16.416-.287.662-.381a2.503 2.503 0 0 1-.868-.779 1.869 1.869 0 0 1-.322-1.06c0-.309.059-.594.176-.856a2.1 2.1 0 0 1 .498-.68c.211-.191.461-.339.75-.445.289-.109.602-.164.938-.164.339 0 .654.055.943.164.289.109.539.26.75.451a2.026 2.026 0 0 1 .668 1.53c0 .386-.108.74-.322 1.06-.215.316-.5.576-.856.779.242.094.459.221.651.381a2.48 2.48 0 0 1 .785 1.166c.07.223.105.446.105.668 0 .367-.066.703-.199 1.008-.133.305-.32.566-.563.785a2.562 2.562 0 0 1-.861.504 3.195 3.195 0 0 1-1.101.182c-.399 0-.764-.061-1.096-.182a2.643 2.643 0 0 1-.861-.504 2.324 2.324 0 0 1-.569-.785 2.495 2.495 0 0 1-.199-1.008zm1.043-.082c0 .262.039.498.117.709.082.211.195.391.34.539.148.149.326.264.533.346.211.078.444.117.697.117.247 0 .473-.041.68-.123a1.54 1.54 0 0 0 .885-.885c.086-.211.129-.445.129-.703 0-.234-.041-.453-.123-.656a1.608 1.608 0 0 0-.873-.914 1.735 1.735 0 0 0-.698-.135c-.242 0-.466.043-.673.129a1.577 1.577 0 0 0-.885.891 1.767 1.767 0 0 0-.129.685zm.299-3.896c0 .199.035.384.105.556.074.168.174.317.299.446a1.371 1.371 0 0 0 .984.404c.192 0 .371-.037.539-.111.172-.075.321-.174.446-.299.125-.129.224-.278.299-.446.074-.171.111-.355.111-.55a1.41 1.41 0 0 0-.111-.563 1.347 1.347 0 0 0-.293-.445 1.336 1.336 0 0 0-.446-.293 1.335 1.335 0 0 0-.545-.111c-.207 0-.396.037-.568.111a1.38 1.38 0 0 0-.439.305 1.305 1.305 0 0 0-.282.445 1.522 1.522 0 0 0-.099.551zM819.512 197.783v-1.031a2.84 2.84 0 0 0 1.728.58c.844 0 1.266-.281 1.266-.844a.704.704 0 0 0-.111-.404 1.026 1.026 0 0 0-.293-.299 2.052 2.052 0 0 0-.434-.228 14.897 14.897 0 0 0-.533-.217 7.636 7.636 0 0 1-.703-.317c-.2-.109-.368-.23-.504-.363a1.44 1.44 0 0 1-.305-.463 1.678 1.678 0 0 1-.1-.603c0-.282.065-.53.194-.744.129-.219.301-.401.515-.545a2.35 2.35 0 0 1 .733-.334c.277-.075.562-.112.855-.112.52 0 .985.09 1.395.27v.973c-.442-.29-.949-.434-1.524-.434-.179 0-.341.021-.486.064a1.195 1.195 0 0 0-.375.17.835.835 0 0 0-.24.27.7.7 0 0 0-.082.34.84.84 0 0 0 .082.392.89.89 0 0 0 .252.282c.109.082.242.156.398.222.156.067.334.139.533.217.266.102.504.207.715.316.211.106.391.227.539.364.149.132.262.287.34.463.082.175.123.384.123.627 0 .296-.066.554-.199.773-.129.219-.303.4-.521.545a2.411 2.411 0 0 1-.756.322c-.285.07-.584.106-.897.106-.617 0-1.152-.12-1.605-.358z" fill="#000" fill-opacity=".55"/>
  <path d="M663.062 221.598L660.689 230h-1.154l-1.728-6.141a3.815 3.815 0 0 1-.135-.855h-.024c-.023.289-.074.57-.152.844l-1.74 6.152h-1.143l-2.461-8.402h1.084l1.787 6.445c.075.269.122.551.141.844h.029c.02-.207.08-.489.182-.844l1.857-6.445h.944l1.781 6.492c.063.222.109.484.141.785h.023a4.73 4.73 0 0 1 .158-.809l1.717-6.468h1.066zM664.68 222.477a.61.61 0 0 1-.621-.622c0-.179.06-.328.181-.445a.6.6 0 0 1 .44-.182c.175 0 .324.061.445.182a.584.584 0 0 1 .187.445.59.59 0 0 1-.187.44.607.607 0 0 1-.445.182zm.468 7.523h-.96v-6h.96v6zM672.074 230h-.961v-3.422c0-1.273-.465-1.91-1.394-1.91a1.52 1.52 0 0 0-1.196.545c-.312.359-.468.814-.468 1.365V230h-.961v-6h.961v.996h.023c.453-.758 1.11-1.137 1.969-1.137.656 0 1.158.213 1.506.639.347.422.521 1.033.521 1.834V230zM679.012 230h-.961v-1.02h-.024c-.445.774-1.132 1.161-2.062 1.161-.754 0-1.358-.268-1.811-.803-.449-.539-.674-1.272-.674-2.197 0-.993.25-1.788.75-2.385.5-.598 1.166-.897 1.999-.897.824 0 1.423.325 1.798.973h.024v-3.715h.961V230zm-.961-2.713v-.885c0-.484-.16-.894-.481-1.23-.32-.336-.726-.504-1.218-.504-.586 0-1.047.215-1.383.644-.336.43-.504 1.024-.504 1.782 0 .691.16 1.238.48 1.64.325.399.758.598 1.301.598.535 0 .969-.193 1.301-.58.336-.387.504-.875.504-1.465zM683.465 230.141c-.887 0-1.596-.28-2.127-.838-.527-.563-.791-1.307-.791-2.233 0-1.008.275-1.795.826-2.361.551-.566 1.295-.85 2.232-.85.895 0 1.592.276 2.092.826.504.551.756 1.315.756 2.292 0 .957-.271 1.724-.814 2.302-.539.574-1.264.862-2.174.862zm.07-5.473c-.617 0-1.105.211-1.465.633-.359.418-.539.996-.539 1.734 0 .711.182 1.272.545 1.682.363.41.85.615 1.459.615.621 0 1.098-.201 1.43-.604.336-.402.504-.974.504-1.716 0-.75-.168-1.328-.504-1.735-.332-.406-.809-.609-1.43-.609zM695.547 224l-1.799 6h-.996l-1.236-4.295a2.82 2.82 0 0 1-.094-.557h-.024a2.525 2.525 0 0 1-.123.545L689.934 230h-.961l-1.817-6h1.008l1.242 4.512c.039.136.067.316.082.539h.047c.012-.172.047-.356.106-.551l1.382-4.5h.879l1.243 4.523c.039.145.068.325.087.539h.047c.008-.152.041-.332.1-.539l1.219-4.523h.949zM696.297 229.783v-1.031a2.84 2.84 0 0 0 1.728.58c.844 0 1.266-.281 1.266-.844a.704.704 0 0 0-.111-.404 1.026 1.026 0 0 0-.293-.299 2.027 2.027 0 0 0-.434-.228 14.897 14.897 0 0 0-.533-.217 7.636 7.636 0 0 1-.703-.317 2.314 2.314 0 0 1-.504-.363 1.456 1.456 0 0 1-.305-.463 1.679 1.679 0 0 1-.099-.603c0-.282.064-.53.193-.744.129-.219.301-.401.516-.545.214-.149.459-.26.732-.334.277-.075.562-.112.855-.112.52 0 .985.09 1.395.27v.973c-.441-.29-.949-.434-1.523-.434-.18 0-.342.021-.487.064a1.195 1.195 0 0 0-.375.17.846.846 0 0 0-.24.27.7.7 0 0 0-.082.34.84.84 0 0 0 .082.392.901.901 0 0 0 .252.281c.109.083.242.157.398.223.157.067.334.139.534.217.265.102.503.207.714.316.211.106.391.227.539.364.149.132.262.287.34.463.082.175.123.384.123.626 0 .297-.066.555-.199.774-.129.219-.303.4-.521.545a2.411 2.411 0 0 1-.756.322c-.285.07-.584.106-.897.106-.617 0-1.152-.12-1.605-.358zM706.012 229.748c0 .984-.2 1.742-.598 2.273-.394.536-.961.803-1.699.803-.274 0-.539-.062-.797-.187v-.897c.289.176.562.264.82.264.875 0 1.313-.699 1.313-2.098V224h.961v5.748zm-.469-7.271a.608.608 0 0 1-.439-.176.591.591 0 0 1-.182-.446.59.59 0 0 1 .182-.445.598.598 0 0 1 .439-.182c.176 0 .324.061.445.182a.585.585 0 0 1 .188.445.59.59 0 0 1-.188.44.605.605 0 0 1-.445.182zM710.465 230.141c-.887 0-1.596-.28-2.127-.838-.527-.563-.791-1.307-.791-2.233 0-1.008.275-1.795.826-2.361.551-.566 1.295-.85 2.232-.85.895 0 1.592.276 2.092.826.504.551.756 1.315.756 2.292 0 .957-.271 1.724-.814 2.302-.539.574-1.264.862-2.174.862zm.07-5.473c-.617 0-1.105.211-1.465.633-.359.418-.539.996-.539 1.734 0 .711.182 1.272.545 1.682.363.41.85.615 1.459.615.621 0 1.098-.201 1.43-.604.336-.402.504-.974.504-1.716 0-.75-.168-1.328-.504-1.735-.332-.406-.809-.609-1.43-.609zM715.973 229.133h-.024V230h-.961v-8.883h.961v3.938h.024c.472-.797 1.164-1.196 2.074-1.196.769 0 1.371.27 1.805.809.437.535.656 1.254.656 2.156 0 1.004-.244 1.809-.733 2.414-.488.602-1.156.903-2.004.903-.792 0-1.392-.336-1.798-1.008zm-.024-2.42v.838c0 .496.16.918.481 1.265.324.344.734.516 1.23.516.582 0 1.037-.223 1.365-.668.332-.445.498-1.064.498-1.857 0-.668-.154-1.192-.462-1.571-.309-.379-.727-.568-1.254-.568-.559 0-1.008.195-1.348.586-.34.387-.51.873-.51 1.459z" fill="#000" fill-opacity=".9"/>
  <circle cx="632" cy="226" r="8" fill="#55A362"/>
  <path d="M630.062 229.144l-.003-.002-1.784-1.785a.936.936 0 1 1 1.325-1.326l1.125 1.124 3.88-3.881a.938.938 0 0 1 1.326 1.326l-4.54 4.541-.004.003a.935.935 0 0 1-1.325 0z" fill="#fff"/>
  <path d="M790.109 230h-.961v-7.26c-.074.074-.183.16-.328.258-.14.094-.3.187-.48.281a6.123 6.123 0 0 1-.563.264 3.954 3.954 0 0 1-.574.193v-.972a5.73 5.73 0 0 0 .668-.235 8.58 8.58 0 0 0 1.348-.72c.203-.137.379-.27.527-.399h.363V230zM801.828 230h-.961v-3.445c0-.664-.103-1.145-.31-1.442-.203-.297-.547-.445-1.032-.445-.41 0-.759.187-1.048.562-.286.375-.428.825-.428 1.348V230h-.961v-3.563c0-1.179-.455-1.769-1.365-1.769-.422 0-.77.178-1.043.533-.274.352-.41.811-.41 1.377V230h-.961v-6h.961v.949h.023c.426-.726 1.047-1.09 1.863-1.09.41 0 .768.116 1.073.346.304.227.513.525.626.897.446-.829 1.11-1.243 1.993-1.243 1.32 0 1.98.815 1.98 2.444V230zM810.207 230h-.961v-7.26c-.074.074-.184.16-.328.258a6.25 6.25 0 0 1-1.043.545 3.995 3.995 0 0 1-.574.193v-.972c.211-.059.433-.137.668-.235a8.742 8.742 0 0 0 1.347-.72 5.44 5.44 0 0 0 .528-.399h.363V230zM816.957 223.801a1.7 1.7 0 0 0-.123-.674 1.263 1.263 0 0 0-.328-.475 1.306 1.306 0 0 0-.486-.287 2.014 2.014 0 0 0-1.161-.017 2.71 2.71 0 0 0-.527.211 3.346 3.346 0 0 0-.932.738v-1.031a2.85 2.85 0 0 1 .903-.598c.336-.141.744-.211 1.224-.211.344 0 .662.051.955.152.293.098.547.243.762.434.215.191.383.428.504.709.125.281.188.603.188.967 0 .332-.04.633-.118.902-.074.27-.189.523-.345.762a3.604 3.604 0 0 1-.58.685c-.235.219-.51.442-.827.668-.394.282-.72.522-.978.721a4.421 4.421 0 0 0-.609.562 1.655 1.655 0 0 0-.317.522 1.869 1.869 0 0 0-.088.598h4.184V230h-5.186v-.416c0-.359.039-.676.117-.949.079-.274.207-.533.387-.78a4.39 4.39 0 0 1 .703-.738 20.88 20.88 0 0 1 1.073-.832 6.62 6.62 0 0 0 .761-.627c.207-.199.373-.398.498-.598.125-.199.213-.4.264-.603.055-.207.082-.426.082-.656zM819.512 229.783v-1.031a2.84 2.84 0 0 0 1.728.58c.844 0 1.266-.281 1.266-.844a.704.704 0 0 0-.111-.404 1.026 1.026 0 0 0-.293-.299 2.052 2.052 0 0 0-.434-.228 14.897 14.897 0 0 0-.533-.217 7.636 7.636 0 0 1-.703-.317c-.2-.109-.368-.23-.504-.363a1.44 1.44 0 0 1-.305-.463 1.678 1.678 0 0 1-.1-.603c0-.282.065-.53.194-.744.129-.219.301-.401.515-.545a2.35 2.35 0 0 1 .733-.334c.277-.075.562-.112.855-.112.52 0 .985.09 1.395.27v.973c-.442-.29-.949-.434-1.524-.434-.179 0-.341.021-.486.064a1.195 1.195 0 0 0-.375.17.835.835 0 0 0-.24.27.7.7 0 0 0-.082.34.84.84 0 0 0 .082.392.877.877 0 0 0 .252.281c.109.083.242.157.398.223.156.067.334.139.533.217.266.102.504.207.715.316.211.106.391.227.539.364.149.132.262.287.34.463.082.175.123.384.123.626 0 .297-.066.555-.199.774-.129.219-.303.4-.521.545a2.411 2.411 0 0 1-.756.322c-.285.07-.584.106-.897.106-.617 0-1.152-.12-1.605-.358z" fill="#000" fill-opacity=".55"/>
  <path d="M661.668 262h-.979v-5.637c0-.445.028-.99.082-1.634h-.023c-.094.378-.178.65-.252.814L657.625 262h-.48l-2.866-6.41a5.06 5.06 0 0 1-.252-.861h-.023c.031.335.047.884.047 1.646V262h-.949v-8.402h1.3l2.578 5.859c.2.449.329.785.387 1.008h.035c.168-.461.303-.805.405-1.031l2.631-5.836h1.23V262zM668.049 262h-.961v-.938h-.024c-.418.719-1.033 1.079-1.845 1.079-.598 0-1.067-.159-1.407-.475-.335-.316-.503-.736-.503-1.26 0-1.121.66-1.773 1.98-1.957l1.799-.252c0-1.019-.412-1.529-1.236-1.529-.723 0-1.375.246-1.957.738v-.984c.589-.375 1.269-.563 2.039-.563 1.41 0 2.115.746 2.115 2.239V262zm-.961-3.035l-1.447.199c-.446.063-.782.174-1.008.334-.227.156-.34.436-.34.838 0 .293.103.533.311.721.21.183.49.275.837.275.477 0 .87-.166 1.178-.498.313-.336.469-.76.469-1.272v-.597zM673.949 261.725c-.461.277-1.008.416-1.64.416-.856 0-1.547-.278-2.075-.832-.523-.559-.785-1.282-.785-2.168 0-.989.283-1.782.85-2.379.566-.602 1.322-.903 2.267-.903.528 0 .993.098 1.395.293v.985a2.44 2.44 0 0 0-1.43-.469c-.613 0-1.117.221-1.511.662-.391.438-.586 1.014-.586 1.729 0 .703.183 1.257.55 1.664.371.406.868.609 1.489.609.523 0 1.015-.174 1.476-.521v.914zM678.918 262.141c-1.191 0-2.147-.393-2.865-1.178-.715-.785-1.073-1.807-1.073-3.065 0-1.351.366-2.429 1.096-3.234.731-.805 1.725-1.207 2.983-1.207 1.16 0 2.093.391 2.8 1.172.711.781 1.067 1.803 1.067 3.064 0 1.371-.364 2.455-1.09 3.252-.727.797-1.699 1.196-2.918 1.196zm.07-7.793c-.883 0-1.599.318-2.15.955-.551.636-.826 1.472-.826 2.508 0 1.035.267 1.869.802 2.501.54.629 1.241.944 2.104.944.922 0 1.648-.301 2.18-.902.531-.602.797-1.444.797-2.526 0-1.109-.258-1.967-.774-2.572-.516-.606-1.226-.908-2.133-.908zM684.186 261.66v-1.16c.132.117.291.223.474.316.188.094.383.174.586.241.207.062.414.111.621.146.207.035.399.053.574.053.606 0 1.057-.111 1.354-.334.301-.227.451-.551.451-.973 0-.226-.051-.424-.152-.592a1.623 1.623 0 0 0-.41-.457 3.828 3.828 0 0 0-.627-.398 30.6 30.6 0 0 0-.774-.404 13.083 13.083 0 0 1-.82-.452 3.542 3.542 0 0 1-.662-.503 2.168 2.168 0 0 1-.446-.622 1.986 1.986 0 0 1-.158-.82c0-.383.084-.715.252-.996a2.16 2.16 0 0 1 .662-.703c.274-.184.584-.32.932-.41.352-.09.709-.135 1.072-.135.828 0 1.432.1 1.811.299v1.107c-.496-.343-1.133-.515-1.91-.515-.215 0-.43.023-.645.07a1.76 1.76 0 0 0-.574.217 1.26 1.26 0 0 0-.41.392 1.04 1.04 0 0 0-.158.586c0 .215.039.401.117.557.082.156.201.299.357.428.156.129.346.254.568.375.227.121.487.254.78.398.301.149.586.305.855.469.27.164.506.346.709.545.203.199.364.42.481.662.121.242.181.519.181.832 0 .414-.082.766-.246 1.055-.16.285-.379.517-.656.697a2.8 2.8 0 0 1-.949.387 5.1 5.1 0 0 1-1.137.123c-.133 0-.297-.012-.492-.036a5.433 5.433 0 0 1-.598-.093 4.964 4.964 0 0 1-.58-.147 1.848 1.848 0 0 1-.433-.205zM695.078 261.748c0 .984-.199 1.742-.598 2.273-.394.536-.96.803-1.699.803-.273 0-.539-.062-.797-.187v-.897c.289.176.563.264.821.264.875 0 1.312-.699 1.312-2.098V256h.961v5.748zm-.469-7.271a.61.61 0 0 1-.621-.622c0-.179.061-.328.182-.445a.599.599 0 0 1 .439-.181c.176 0 .325.06.446.181a.584.584 0 0 1 .187.445.59.59 0 0 1-.187.44.607.607 0 0 1-.446.182zM699.531 262.141c-.886 0-1.595-.28-2.127-.838-.527-.563-.791-1.307-.791-2.233 0-1.008.276-1.795.826-2.361.551-.566 1.295-.85 2.233-.85.894 0 1.592.276 2.092.827.504.55.756 1.314.756 2.291 0 .957-.272 1.724-.815 2.302-.539.575-1.264.862-2.174.862zm.071-5.473c-.618 0-1.106.211-1.465.633-.36.418-.539.996-.539 1.734 0 .711.181 1.272.545 1.682.363.41.849.615 1.459.615.621 0 1.097-.201 1.429-.603.336-.403.504-.975.504-1.717 0-.75-.168-1.328-.504-1.735-.332-.406-.808-.609-1.429-.609zM705.039 261.133h-.023V262h-.961v-8.883h.961v3.938h.023c.473-.797 1.164-1.196 2.074-1.196.77 0 1.371.27 1.805.809.437.535.656 1.254.656 2.156 0 1.004-.244 1.809-.732 2.414-.488.602-1.156.903-2.004.903-.793 0-1.393-.336-1.799-1.008zm-.023-2.42v.838c0 .496.16.918.48 1.265.324.344.734.516 1.231.516.582 0 1.037-.223 1.365-.668.332-.445.498-1.064.498-1.857 0-.668-.154-1.192-.463-1.571-.309-.379-.727-.568-1.254-.568-.559 0-1.008.195-1.348.586-.339.387-.509.873-.509 1.459z" fill="#000" fill-opacity=".9"/>
  <path fill-rule="evenodd" clip-rule="evenodd" d="M632 266a8 8 0 1 0 0-16 8 8 0 0 0 0 16zm-3.5-8c0-1.516.964-2.808 2.313-3.294.25-.09.437-.315.437-.58 0-.349-.314-.616-.646-.51a4.601 4.601 0 0 0-3.135 5.183c.062.354.462.505.773.325.222-.129.325-.39.291-.645a3.43 3.43 0 0 1-.033-.479zm7 0c0 .163-.011.323-.033.479-.034.255.069.516.291.645.311.18.711.029.773-.325a4.601 4.601 0 0 0-3.135-5.183c-.332-.106-.646.161-.646.51 0 .265.187.49.437.58A3.502 3.502 0 0 1 635.5 258zm-3.5 3.5c.911 0 1.741-.348 2.364-.919.202-.185.499-.242.736-.105.293.169.372.561.131.799A4.589 4.589 0 0 1 632 262.6c-1.259 0-2.4-.506-3.231-1.325-.241-.238-.162-.63.131-.799.237-.137.534-.08.736.105a3.487 3.487 0 0 0 2.364.919z" fill="#5986E7"/>
  <path d="M810.488 255.801a1.7 1.7 0 0 0-.123-.674 1.26 1.26 0 0 0-.328-.475 1.306 1.306 0 0 0-.486-.287 2.001 2.001 0 0 0-1.16-.017c-.18.05-.356.121-.528.211a3.346 3.346 0 0 0-.931.738v-1.031c.269-.262.57-.461.902-.598.336-.141.744-.211 1.225-.211.343 0 .662.051.955.152.293.098.547.243.761.434.215.191.383.428.504.709.125.281.188.603.188.967 0 .332-.039.633-.117.902a2.7 2.7 0 0 1-.346.762 3.567 3.567 0 0 1-.58.685c-.235.219-.51.442-.826.668-.395.282-.721.522-.979.721a4.36 4.36 0 0 0-.609.563 1.64 1.64 0 0 0-.317.521 1.869 1.869 0 0 0-.088.598h4.184V262h-5.185v-.416c0-.359.039-.676.117-.949.078-.274.207-.533.386-.78.18-.246.414-.492.704-.738.293-.246.65-.523 1.072-.832.305-.219.558-.428.762-.627.207-.199.373-.398.498-.597.125-.2.212-.401.263-.604.055-.207.082-.426.082-.656zM817.414 253.598v5.548h1.078v.879h-1.078V262h-.949v-1.975h-3.949v-.832a30.895 30.895 0 0 0 2.185-2.759c.344-.485.66-.967.949-1.448.293-.484.539-.947.739-1.388h1.025zm-3.814 5.548h2.865v-4.113c-.293.512-.57.969-.832 1.371a26.03 26.03 0 0 1-1.424 1.987l-.609.755zM819.512 261.783v-1.031a2.84 2.84 0 0 0 1.728.58c.844 0 1.266-.281 1.266-.844a.704.704 0 0 0-.111-.404 1.026 1.026 0 0 0-.293-.299 2.052 2.052 0 0 0-.434-.228 14.897 14.897 0 0 0-.533-.217 7.636 7.636 0 0 1-.703-.317c-.2-.109-.368-.23-.504-.363a1.44 1.44 0 0 1-.305-.463 1.678 1.678 0 0 1-.1-.603c0-.282.065-.53.194-.744.129-.219.301-.401.515-.545a2.35 2.35 0 0 1 .733-.334c.277-.075.562-.112.855-.112.52 0 .985.09 1.395.27v.973c-.442-.29-.949-.434-1.524-.434-.179 0-.341.021-.486.064a1.195 1.195 0 0 0-.375.17.835.835 0 0 0-.24.27.7.7 0 0 0-.082.34.84.84 0 0 0 .082.392.88.88 0 0 0 .252.282c.109.082.242.156.398.222.156.067.334.139.533.217.266.102.504.207.715.316.211.106.391.227.539.364.149.133.262.287.34.463.082.175.123.384.123.627 0 .296-.066.554-.199.773-.129.219-.303.4-.521.545a2.411 2.411 0 0 1-.756.322c-.285.07-.584.106-.897.106-.617 0-1.152-.12-1.605-.358z" fill="#000" fill-opacity=".55"/>
  <path stroke="#55A362" stroke-width="2" stroke-linecap="round" stroke-linejoin="round" d="M632.001 205v10M632 237v10"/>
  <path d="M678.906 140h-1.465l-1.757-2.944a6.187 6.187 0 0 0-.469-.696 2.586 2.586 0 0 0-.469-.476 1.51 1.51 0 0 0-.513-.264 2.002 2.002 0 0 0-.615-.088h-1.011V140h-1.23v-10.503h3.135c.459 0 .881.059 1.267.176.39.112.727.285 1.011.52a2.4 2.4 0 0 1 .673.879c.162.346.242.754.242 1.223 0 .366-.056.703-.168 1.011a2.575 2.575 0 0 1-.469.813c-.2.239-.444.444-.733.615a3.768 3.768 0 0 1-.959.388v.029c.176.078.327.169.454.271.132.098.256.215.374.352.117.137.232.293.344.469.117.171.246.371.388.6l1.97 3.157zm-6.299-9.39v3.809h1.67c.308 0 .591-.046.85-.139.264-.093.491-.225.681-.396.191-.176.339-.388.447-.637.107-.254.161-.537.161-.85 0-.561-.183-.998-.549-1.311-.362-.317-.887-.476-1.575-.476h-1.685zM682.891 140.176c-1.109 0-1.995-.349-2.659-1.048-.659-.703-.989-1.633-.989-2.79 0-1.26.344-2.244 1.033-2.952.688-.708 1.619-1.062 2.79-1.062 1.119 0 1.99.344 2.615 1.033.63.688.945 1.643.945 2.864 0 1.196-.339 2.155-1.018 2.878-.674.718-1.58 1.077-2.717 1.077zm.088-6.841c-.772 0-1.382.264-1.832.791-.449.522-.673 1.245-.673 2.168 0 .889.227 1.589.681 2.102.454.513 1.062.769 1.824.769.776 0 1.372-.251 1.787-.754.42-.503.63-1.219.63-2.146 0-.938-.21-1.661-.63-2.168-.415-.508-1.011-.762-1.787-.762zM689.746 140h-1.201v-11.104h1.201V140zM693.379 140h-1.201v-11.104h1.201V140zM698.945 140.176c-1.108 0-1.994-.349-2.658-1.048-.66-.703-.989-1.633-.989-2.79 0-1.26.344-2.244 1.033-2.952.688-.708 1.618-1.062 2.79-1.062 1.118 0 1.99.344 2.615 1.033.63.688.945 1.643.945 2.864 0 1.196-.34 2.155-1.018 2.878-.674.718-1.58 1.077-2.718 1.077zm.088-6.841c-.771 0-1.382.264-1.831.791-.449.522-.674 1.245-.674 2.168 0 .889.227 1.589.681 2.102.455.513 1.062.769 1.824.769.777 0 1.372-.251 1.787-.754.42-.503.63-1.219.63-2.146 0-.938-.21-1.661-.63-2.168-.415-.508-1.01-.762-1.787-.762zM710.664 140h-1.201v-1.187h-.029c-.498.909-1.27 1.363-2.315 1.363-1.787 0-2.681-1.065-2.681-3.194V132.5h1.194v4.292c0 1.582.606 2.373 1.817 2.373.586 0 1.067-.215 1.443-.644.38-.435.571-1.001.571-1.7V132.5h1.201v7.5zM716.575 139.927c-.283.156-.657.234-1.121.234-1.313 0-1.97-.732-1.97-2.197v-4.439h-1.289V132.5h1.289v-1.831l1.201-.388v2.219h1.89v1.025h-1.89v4.226c0 .503.086.862.256 1.077.171.215.455.322.85.322.303 0 .564-.083.784-.249v1.026zM721.841 139.729v-1.289a3.555 3.555 0 0 0 2.16.725c1.055 0 1.582-.352 1.582-1.055 0-.2-.046-.368-.139-.505a1.273 1.273 0 0 0-.366-.374 2.57 2.57 0 0 0-.542-.285 21.035 21.035 0 0 0-.666-.271 9.647 9.647 0 0 1-.879-.396 2.881 2.881 0 0 1-.63-.454 1.816 1.816 0 0 1-.381-.578 2.092 2.092 0 0 1-.125-.755c0-.351.081-.661.242-.93.161-.273.376-.5.645-.681.268-.186.573-.325.915-.418a4.154 4.154 0 0 1 1.07-.139c.649 0 1.23.113 1.743.337v1.216c-.552-.361-1.187-.542-1.905-.542-.224 0-.427.027-.607.081a1.453 1.453 0 0 0-.469.212 1.051 1.051 0 0 0-.301.337.884.884 0 0 0-.102.425c0 .195.034.359.102.49.074.132.179.249.315.352.137.102.303.195.498.278.196.083.418.174.667.271.332.127.63.259.894.396.263.132.488.283.673.454.186.166.327.359.425.578.103.22.154.481.154.784 0 .371-.083.694-.249.967-.161.273-.378.5-.652.681a2.989 2.989 0 0 1-.945.403c-.356.088-.73.132-1.12.132-.772 0-1.441-.149-2.007-.447zM732.146 139.927c-.283.156-.657.234-1.121.234-1.313 0-1.97-.732-1.97-2.197v-4.439h-1.289V132.5h1.289v-1.831l1.201-.388v2.219h1.89v1.025h-1.89v4.226c0 .503.086.862.257 1.077.171.215.454.322.849.322.303 0 .564-.083.784-.249v1.026zM739.119 140h-1.202v-1.172h-.029c-.522.899-1.291 1.348-2.307 1.348-.747 0-1.333-.198-1.758-.593-.42-.396-.63-.921-.63-1.575 0-1.402.826-2.217 2.476-2.446l2.248-.315c0-1.275-.515-1.912-1.545-1.912-.903 0-1.719.308-2.446.923v-1.231c.737-.468 1.587-.703 2.549-.703 1.762 0 2.644.933 2.644 2.798V140zm-1.202-3.794l-1.809.249c-.556.078-.976.217-1.259.418-.284.195-.425.544-.425 1.047 0 .366.129.666.388.901.264.229.613.344 1.047.344.596 0 1.087-.207 1.473-.623.39-.419.585-.949.585-1.589v-.747zM747.783 139.399c0 2.754-1.318 4.131-3.955 4.131-.928 0-1.738-.176-2.432-.527v-1.201c.845.469 1.651.703 2.417.703 1.846 0 2.769-.982 2.769-2.944v-.821h-.029c-.572.957-1.431 1.436-2.578 1.436-.933 0-1.685-.332-2.256-.996-.567-.669-.85-1.565-.85-2.688 0-1.275.305-2.288.916-3.04.615-.752 1.455-1.128 2.519-1.128 1.011 0 1.76.405 2.249 1.216h.029v-1.04h1.201v6.899zm-1.201-2.79v-1.106a2.14 2.14 0 0 0-.608-1.531c-.4-.425-.901-.637-1.501-.637-.743 0-1.324.271-1.744.813-.419.537-.629 1.291-.629 2.263 0 .835.2 1.504.6 2.007.405.498.94.747 1.604.747.674 0 1.221-.239 1.641-.718.425-.478.637-1.091.637-1.838zM756.243 136.55h-5.296c.02.835.244 1.48.674 1.934.43.454 1.021.681 1.773.681.844 0 1.621-.278 2.329-.835v1.128c-.66.479-1.531.718-2.615.718-1.06 0-1.892-.34-2.498-1.018-.605-.684-.908-1.643-.908-2.879 0-1.167.33-2.116.989-2.849.664-.737 1.487-1.106 2.468-1.106.982 0 1.741.318 2.278.952.537.635.806 1.516.806 2.644v.63zm-1.231-1.018c-.005-.693-.173-1.233-.505-1.618-.327-.386-.784-.579-1.37-.579-.566 0-1.047.203-1.443.608-.395.405-.639.935-.732 1.589h4.05z" fill="#000"/>
  <path fill-rule="evenodd" clip-rule="evenodd" d="M642 160c8.837 0 16-7.163 16-16s-7.163-16-16-16-16 7.163-16 16 7.163 16 16 16zm-7-16a7.002 7.002 0 0 1 4.627-6.587c.499-.18.873-.63.873-1.161 0-.697-.628-1.232-1.292-1.021a9.205 9.205 0 0 0-6.27 10.368c.124.707.924 1.008 1.545.649.445-.258.652-.78.582-1.29A7.038 7.038 0 0 1 635 144zm14 0c0 .325-.022.645-.065.958-.07.51.137 1.032.582 1.29.622.359 1.421.058 1.545-.649a9.205 9.205 0 0 0-6.27-10.368c-.664-.211-1.292.324-1.292 1.021 0 .531.374.981.874 1.161A7.003 7.003 0 0 1 649 144zm-7 7a6.975 6.975 0 0 0 4.728-1.838c.403-.37.999-.484 1.472-.21.586.339.743 1.121.261 1.597A9.17 9.17 0 0 1 642 153.2a9.17 9.17 0 0 1-6.461-2.651c-.482-.476-.325-1.258.261-1.597.473-.274 1.069-.16 1.472.21A6.975 6.975 0 0 0 642 151z" fill="#5986E7"/>
  <path d="M674.523 149.801a1.7 1.7 0 0 0-.123-.674 1.26 1.26 0 0 0-.328-.475 1.298 1.298 0 0 0-.486-.287 2.003 2.003 0 0 0-1.16-.017c-.18.05-.356.121-.528.211a3.346 3.346 0 0 0-.931.738v-1.031c.269-.262.57-.461.902-.598.336-.141.744-.211 1.225-.211.344 0 .662.051.955.152.293.098.547.243.762.434.214.191.382.428.503.709.125.281.188.603.188.967 0 .332-.039.633-.117.902-.074.27-.19.524-.346.762a3.567 3.567 0 0 1-.58.685c-.234.219-.51.442-.826.668-.395.282-.721.522-.979.721a4.36 4.36 0 0 0-.609.563 1.618 1.618 0 0 0-.316.521 1.841 1.841 0 0 0-.088.598h4.183V156h-5.185v-.416c0-.359.039-.676.117-.949.078-.274.207-.533.387-.78a4.35 4.35 0 0 1 .703-.738c.293-.246.65-.523 1.072-.832.305-.219.559-.428.762-.627.207-.199.373-.398.498-.597.125-.2.213-.401.263-.604.055-.207.082-.426.082-.656zM681.232 147.598l-4.031 9.797h-.896l4.019-9.797h.908zM686.729 153.621c0 .379-.073.725-.217 1.037a2.274 2.274 0 0 1-.604.797 2.777 2.777 0 0 1-.931.51 3.79 3.79 0 0 1-1.202.181c-.8 0-1.437-.152-1.91-.457v-1.031a3.06 3.06 0 0 0 1.946.668c.293 0 .556-.037.791-.111.238-.074.441-.182.609-.322.172-.141.303-.311.393-.51.093-.199.14-.424.14-.674 0-1.098-.781-1.647-2.344-1.647h-.697v-.814h.662c1.383 0 2.074-.516 2.074-1.547 0-.953-.527-1.43-1.582-1.43-.593 0-1.15.2-1.669.598v-.931c.535-.321 1.171-.481 1.91-.481.351 0 .67.049.955.147.285.097.529.234.732.41.203.175.36.386.469.632.113.247.17.518.17.815 0 1.105-.559 1.816-1.676 2.133v.023a2.6 2.6 0 0 1 .791.211c.242.106.451.244.627.416s.313.375.41.61c.102.23.153.486.153.767zM692.84 155.748c0 .984-.199 1.742-.598 2.273-.394.536-.961.803-1.699.803-.273 0-.539-.062-.797-.187v-.897c.289.176.563.264.82.264.875 0 1.313-.699 1.313-2.098V150h.961v5.748zm-.469-7.271a.608.608 0 0 1-.621-.622c0-.179.061-.328.182-.445a.597.597 0 0 1 .439-.181c.176 0 .324.06.445.181a.585.585 0 0 1 .188.445.59.59 0 0 1-.188.44.605.605 0 0 1-.445.182zM697.293 156.141c-.887 0-1.596-.28-2.127-.838-.527-.563-.791-1.307-.791-2.233 0-1.008.275-1.795.826-2.361.551-.566 1.295-.85 2.233-.85.894 0 1.591.276 2.091.827.504.55.756 1.314.756 2.291 0 .957-.271 1.724-.814 2.302-.539.575-1.264.862-2.174.862zm.07-5.473c-.617 0-1.105.211-1.465.633-.359.418-.539.996-.539 1.734 0 .711.182 1.272.545 1.682.364.41.85.615 1.459.615.621 0 1.098-.201 1.43-.603.336-.403.504-.975.504-1.717 0-.75-.168-1.328-.504-1.735-.332-.406-.809-.609-1.43-.609zM702.801 155.133h-.024V156h-.961v-8.883h.961v3.938h.024c.472-.797 1.164-1.196 2.074-1.196.77 0 1.371.27 1.805.809.437.535.656 1.254.656 2.156 0 1.004-.244 1.809-.732 2.414-.489.602-1.157.903-2.004.903-.793 0-1.393-.336-1.799-1.008zm-.024-2.42v.838c0 .496.161.918.481 1.265.324.344.734.516 1.23.516.582 0 1.037-.223 1.366-.668.332-.445.498-1.064.498-1.857 0-.668-.155-1.192-.463-1.571-.309-.379-.727-.568-1.254-.568-.559 0-1.008.195-1.348.586-.34.387-.51.873-.51 1.459zM708.508 155.783v-1.031a2.84 2.84 0 0 0 1.728.58c.844 0 1.266-.281 1.266-.844a.704.704 0 0 0-.111-.404 1.026 1.026 0 0 0-.293-.299 2.027 2.027 0 0 0-.434-.228 14.897 14.897 0 0 0-.533-.217 7.636 7.636 0 0 1-.703-.317 2.314 2.314 0 0 1-.504-.363 1.44 1.44 0 0 1-.305-.463 1.679 1.679 0 0 1-.099-.603c0-.282.064-.53.193-.744.129-.219.301-.401.516-.545.214-.149.459-.26.732-.334.277-.075.562-.112.855-.112.52 0 .985.09 1.395.27v.973c-.441-.29-.949-.434-1.523-.434-.18 0-.342.021-.487.064a1.195 1.195 0 0 0-.375.17.846.846 0 0 0-.24.27.7.7 0 0 0-.082.34.84.84 0 0 0 .082.392c.059.106.143.2.252.282.109.082.242.156.398.222.157.067.334.139.534.217.265.102.503.207.714.316.211.106.391.227.539.364.149.133.262.287.34.463.082.175.123.384.123.627 0 .296-.066.554-.199.773-.129.219-.303.4-.521.545a2.411 2.411 0 0 1-.756.322c-.285.07-.584.106-.897.106-.617 0-1.152-.12-1.605-.358zM721.352 155.725c-.461.277-1.008.416-1.641.416-.856 0-1.547-.278-2.074-.832-.524-.559-.785-1.282-.785-2.168 0-.989.283-1.782.849-2.379.567-.602 1.322-.903 2.268-.903.527 0 .992.098 1.394.293v.985a2.44 2.44 0 0 0-1.429-.469c-.614 0-1.118.221-1.512.662-.391.438-.586 1.014-.586 1.729 0 .703.184 1.257.551 1.664.371.406.867.609 1.488.609.523 0 1.016-.174 1.477-.521v.914zM725.312 156.141c-.886 0-1.595-.28-2.126-.838-.528-.563-.791-1.307-.791-2.233 0-1.008.275-1.795.826-2.361.55-.566 1.295-.85 2.232-.85.895 0 1.592.276 2.092.827.504.55.756 1.314.756 2.291 0 .957-.272 1.724-.815 2.302-.539.575-1.263.862-2.174.862zm.071-5.473c-.617 0-1.106.211-1.465.633-.359.418-.539.996-.539 1.734 0 .711.182 1.272.545 1.682.363.41.849.615 1.459.615.621 0 1.097-.201 1.429-.603.336-.403.504-.975.504-1.717 0-.75-.168-1.328-.504-1.735-.332-.406-.808-.609-1.429-.609zM738.355 156h-.96v-3.445c0-.664-.104-1.145-.311-1.442-.203-.297-.547-.445-1.031-.445-.41 0-.76.187-1.049.562-.285.375-.428.825-.428 1.348V156h-.961v-3.562c0-1.18-.455-1.77-1.365-1.77-.422 0-.77.178-1.043.533-.273.352-.41.811-.41 1.377V156h-.961v-6h.961v.949h.023c.426-.726 1.047-1.09 1.864-1.09.41 0 .767.116 1.072.346.305.227.514.525.627.897.445-.829 1.109-1.243 1.992-1.243 1.32 0 1.98.815 1.98 2.444V156zM741.156 155.133h-.023v3.627h-.961V150h.961v1.055h.023c.473-.797 1.164-1.196 2.074-1.196.774 0 1.377.27 1.811.809.434.535.65 1.254.65 2.156 0 1.004-.244 1.809-.732 2.414-.488.602-1.156.903-2.004.903-.777 0-1.377-.336-1.799-1.008zm-.023-2.42v.838c0 .496.16.918.48 1.265.325.344.735.516 1.231.516.582 0 1.037-.223 1.365-.668.332-.445.498-1.064.498-1.857 0-.668-.154-1.192-.463-1.571-.308-.379-.726-.568-1.254-.568-.558 0-1.008.195-1.347.586-.34.387-.51.873-.51 1.459zM748.188 156h-.961v-8.883h.961V156zM754.955 153.24h-4.236c.015.668.195 1.184.539 1.547.344.363.816.545 1.418.545.676 0 1.297-.223 1.863-.668v.902c-.527.383-1.225.575-2.092.575-.847 0-1.513-.272-1.998-.815-.484-.547-.726-1.314-.726-2.303 0-.933.263-1.693.791-2.279.531-.59 1.189-.885 1.974-.885.785 0 1.393.254 1.823.762.429.508.644 1.213.644 2.115v.504zm-.984-.814c-.004-.555-.139-.987-.405-1.295-.261-.309-.627-.463-1.095-.463-.453 0-.838.162-1.155.486-.316.325-.511.748-.586 1.272h3.241zM759.197 155.941c-.226.125-.525.188-.896.188-1.051 0-1.576-.586-1.576-1.758v-3.551h-1.032V150h1.032v-1.465l.961-.31V150h1.511v.82h-1.511v3.381c0 .403.068.69.205.861.136.172.363.258.679.258.242 0 .451-.066.627-.199v.82zM765.303 153.24h-4.237c.016.668.196 1.184.539 1.547.344.363.817.545 1.418.545.676 0 1.297-.223 1.864-.668v.902c-.528.383-1.225.575-2.092.575-.848 0-1.514-.272-1.998-.815-.485-.547-.727-1.314-.727-2.303 0-.933.264-1.693.791-2.279.532-.59 1.19-.885 1.975-.885.785 0 1.393.254 1.822.762.43.508.645 1.213.645 2.115v.504zm-.985-.814c-.004-.555-.138-.987-.404-1.295-.262-.309-.627-.463-1.096-.463-.453 0-.838.162-1.154.486-.316.325-.512.748-.586 1.272h3.24zM771.883 156h-.961v-1.02h-.024c-.445.774-1.132 1.161-2.062 1.161-.754 0-1.357-.268-1.811-.803-.449-.539-.673-1.272-.673-2.197 0-.993.25-1.787.75-2.385.5-.598 1.166-.897 1.998-.897.824 0 1.423.325 1.798.973h.024v-3.715h.961V156zm-.961-2.713v-.885c0-.484-.16-.894-.481-1.23-.32-.336-.726-.504-1.218-.504-.586 0-1.047.215-1.383.644-.336.43-.504 1.024-.504 1.782 0 .691.16 1.238.48 1.64.325.399.758.598 1.301.598.535 0 .969-.193 1.301-.58.336-.387.504-.875.504-1.465z" fill="#000" fill-opacity=".55"/>
  <path fill-rule="evenodd" clip-rule="evenodd" d="M357 110a4 4 0 0 0-4 4v56a4 4 0 0 0 4 4h215a4 4 0 0 0 4-4v-21a7 7 0 1 0 0-14v-21a4 4 0 0 0-4-4H357z" fill="#fff" filter="url(#filter1_d)"/>
  <mask id="a" fill="#fff">
    <path fill-rule="evenodd" clip-rule="evenodd" d="M352 114a4 4 0 0 1 4-4h216a4 4 0 0 1 4 4v21a7 7 0 1 1 0 14v21a4 4 0 0 1-4 4H356a4 4 0 0 1-4-4v-21a7 7 0 1 1 0-14v-21z"/>
  </mask>
  <path fill-rule="evenodd" clip-rule="evenodd" d="M352 114a4 4 0 0 1 4-4h216a4 4 0 0 1 4 4v21a7 7 0 1 1 0 14v21a4 4 0 0 1-4 4H356a4 4 0 0 1-4-4v-21a7 7 0 1 1 0-14v-21z" fill="#fff"/>
  <path d="M576 135h-1v1h1v-1zm0 14v-1h-1v1h1zm-224 0h1v-1h-1v1zm0-14v1h1v-1h-1zm4-26a5 5 0 0 0-5 5h2a3 3 0 0 1 3-3v-2zm216 0H356v2h216v-2zm5 5a5 5 0 0 0-5-5v2a3 3 0 0 1 3 3h2zm0 21v-21h-2v21h2zm-1 1a6 6 0 0 1 6 6h2a8 8 0 0 0-8-8v2zm6 6a6 6 0 0 1-6 6v2a8 8 0 0 0 8-8h-2zm-5 28v-21h-2v21h2zm-5 5a5 5 0 0 0 5-5h-2a3 3 0 0 1-3 3v2zm-216 0h216v-2H356v2zm-5-5a5 5 0 0 0 5 5v-2a3 3 0 0 1-3-3h-2zm0-21v21h2v-21h-2zm-7-7a8 8 0 0 0 8 8v-2a6 6 0 0 1-6-6h-2zm8-8a8 8 0 0 0-8 8h2a6 6 0 0 1 6-6v-2zm-1-20v21h2v-21h-2z" fill="#DEDEDE" mask="url(#a)"/>
  <path fill-rule="evenodd" clip-rule="evenodd" d="M382 158c8.837 0 16-7.163 16-16s-7.163-16-16-16-16 7.163-16 16 7.163 16 16 16zm-3.201-11.169l-.005-.004-2.855-2.856a1.501 1.501 0 0 1 2.122-2.121l1.798 1.799 6.21-6.21a1.501 1.501 0 0 1 2.121 2.122l-7.27 7.27a1.502 1.502 0 0 1-2.121 0z" fill="#5BA75F"/>
  <path d="M417.588 128.61h-3.032V138h-1.231v-9.39H410.3v-1.113h7.288v1.113zM423.645 134.55h-5.295c.019.835.244 1.48.673 1.934.43.454 1.021.681 1.773.681.845 0 1.621-.278 2.329-.835v1.128c-.659.479-1.531.718-2.615.718-1.059 0-1.892-.34-2.497-1.018-.606-.684-.909-1.643-.909-2.879 0-1.167.33-2.116.989-2.849.664-.737 1.487-1.106 2.469-1.106.981 0 1.74.318 2.277.952.537.635.806 1.516.806 2.644v.63zm-1.23-1.018c-.005-.693-.174-1.233-.506-1.618-.327-.386-.784-.579-1.369-.579a1.94 1.94 0 0 0-1.443.608c-.396.405-.64.935-.733 1.589h4.051zM425.015 137.729v-1.289a3.555 3.555 0 0 0 2.16.725c1.055 0 1.582-.352 1.582-1.055 0-.2-.046-.368-.139-.505a1.273 1.273 0 0 0-.366-.374 2.57 2.57 0 0 0-.542-.285 20.202 20.202 0 0 0-.667-.271 9.497 9.497 0 0 1-.878-.396 2.881 2.881 0 0 1-.63-.454 1.816 1.816 0 0 1-.381-.578 2.092 2.092 0 0 1-.125-.755c0-.351.081-.661.242-.93.161-.273.376-.5.645-.681.268-.186.573-.325.915-.418a4.152 4.152 0 0 1 1.069-.139c.65 0 1.231.113 1.744.337v1.216c-.552-.361-1.187-.542-1.905-.542-.224 0-.427.027-.608.081-.18.048-.337.119-.468.212a1.051 1.051 0 0 0-.301.337.884.884 0 0 0-.102.425c0 .195.034.359.102.49.074.132.179.249.315.352.137.102.303.195.498.278.196.083.418.174.667.271.332.127.63.259.893.396.264.132.489.283.674.454.186.166.327.359.425.578.103.22.154.481.154.784 0 .371-.083.694-.249.967-.161.273-.379.5-.652.681a2.998 2.998 0 0 1-.945.403c-.356.088-.73.132-1.121.132-.771 0-1.44-.149-2.006-.447zM435.32 137.927c-.283.156-.657.234-1.121.234-1.313 0-1.97-.732-1.97-2.197v-4.439h-1.289V130.5h1.289v-1.831l1.201-.388v2.219h1.89v1.025h-1.89v4.226c0 .503.086.862.257 1.077.17.215.454.322.849.322.303 0 .564-.083.784-.249v1.026zM440.586 137.729v-1.289a3.556 3.556 0 0 0 2.161.725c1.054 0 1.582-.352 1.582-1.055 0-.2-.047-.368-.14-.505a1.261 1.261 0 0 0-.366-.374 2.57 2.57 0 0 0-.542-.285 21.035 21.035 0 0 0-.666-.271 9.647 9.647 0 0 1-.879-.396 2.881 2.881 0 0 1-.63-.454 1.816 1.816 0 0 1-.381-.578 2.093 2.093 0 0 1-.124-.755c0-.351.08-.661.241-.93.161-.273.376-.5.645-.681.268-.186.574-.325.915-.418a4.154 4.154 0 0 1 1.07-.139c.649 0 1.23.113 1.743.337v1.216c-.552-.361-1.187-.542-1.904-.542-.225 0-.428.027-.608.081a1.453 1.453 0 0 0-.469.212 1.036 1.036 0 0 0-.3.337.873.873 0 0 0-.103.425c0 .195.034.359.103.49.073.132.178.249.315.352.136.102.302.195.498.278.195.083.417.174.666.271.332.127.63.259.894.396.263.132.488.283.673.454.186.166.328.359.425.578.103.22.154.481.154.784 0 .371-.083.694-.249.967-.161.273-.378.5-.652.681a2.989 2.989 0 0 1-.945.403c-.356.088-.73.132-1.12.132-.772 0-1.441-.149-2.007-.447zM450.891 137.927c-.283.156-.657.234-1.12.234-1.314 0-1.971-.732-1.971-2.197v-4.439h-1.289V130.5h1.289v-1.831l1.201-.388v2.219h1.89v1.025h-1.89v4.226c0 .503.086.862.257 1.077.171.215.454.322.849.322.303 0 .564-.083.784-.249v1.026zM457.864 138h-1.201v-1.172h-.03c-.522.899-1.291 1.348-2.307 1.348-.747 0-1.333-.198-1.758-.593-.42-.396-.63-.921-.63-1.575 0-1.402.826-2.217 2.476-2.446l2.249-.315c0-1.275-.516-1.912-1.546-1.912-.903 0-1.719.308-2.446.923v-1.231c.737-.468 1.587-.703 2.549-.703 1.762 0 2.644.933 2.644 2.798V138zm-1.201-3.794l-1.809.249c-.557.078-.977.217-1.26.418-.283.195-.425.544-.425 1.047 0 .366.129.666.388.901.264.229.613.344 1.047.344.596 0 1.087-.207 1.473-.623.39-.419.586-.949.586-1.589v-.747zM466.528 137.399c0 2.754-1.318 4.131-3.955 4.131-.927 0-1.738-.176-2.431-.527v-1.201c.844.469 1.65.703 2.417.703 1.845 0 2.768-.982 2.768-2.944v-.821h-.029c-.571.957-1.431 1.436-2.578 1.436-.933 0-1.685-.332-2.256-.996-.567-.669-.85-1.565-.85-2.688 0-1.275.305-2.288.916-3.04.615-.752 1.455-1.128 2.519-1.128 1.011 0 1.761.405 2.249 1.216h.029v-1.04h1.201v6.899zm-1.201-2.79v-1.106c0-.596-.202-1.106-.608-1.531-.4-.425-.901-.637-1.501-.637-.742 0-1.323.271-1.743.813-.42.537-.63 1.291-.63 2.263 0 .835.2 1.504.6 2.007.406.498.94.747 1.604.747.674 0 1.221-.239 1.641-.718.425-.478.637-1.091.637-1.838zM474.988 134.55h-5.296c.02.835.245 1.48.674 1.934.43.454 1.021.681 1.773.681.844 0 1.621-.278 2.329-.835v1.128c-.659.479-1.531.718-2.615.718-1.06 0-1.892-.34-2.498-1.018-.605-.684-.908-1.643-.908-2.879 0-1.167.33-2.116.989-2.849.664-.737 1.487-1.106 2.468-1.106.982 0 1.741.318 2.278.952.537.635.806 1.516.806 2.644v.63zm-1.231-1.018c-.005-.693-.173-1.233-.505-1.618-.327-.386-.784-.579-1.37-.579-.566 0-1.047.203-1.443.608-.395.405-.639.935-.732 1.589h4.05z" fill="#000"/>
  <path d="M415.584 151.621c0 .379-.072.725-.217 1.037-.14.309-.342.574-.603.797a2.782 2.782 0 0 1-.932.51 3.783 3.783 0 0 1-1.201.181c-.801 0-1.438-.152-1.91-.457v-1.031a3.056 3.056 0 0 0 1.945.668c.293 0 .557-.037.791-.111.238-.074.441-.182.609-.322.172-.141.303-.311.393-.51a1.56 1.56 0 0 0 .141-.674c0-1.098-.782-1.647-2.344-1.647h-.697v-.814h.662c1.383 0 2.074-.516 2.074-1.547 0-.953-.527-1.43-1.582-1.43-.594 0-1.151.2-1.67.598v-.931c.535-.321 1.172-.481 1.91-.481.352 0 .67.049.955.147.285.097.53.234.733.41.203.175.359.386.468.632.114.247.17.518.17.815 0 1.105-.558 1.816-1.675 2.133v.023c.285.031.548.102.791.211.242.106.451.244.626.416.176.172.313.375.411.61.101.23.152.486.152.767zM421.695 153.748c0 .984-.199 1.742-.597 2.273-.395.536-.961.803-1.7.803-.273 0-.539-.062-.796-.187v-.897c.289.176.562.264.82.264.875 0 1.312-.699 1.312-2.098V148h.961v5.748zm-.468-7.271a.61.61 0 0 1-.622-.622c0-.179.061-.328.182-.445a.6.6 0 0 1 .44-.181c.175 0 .324.06.445.181a.584.584 0 0 1 .187.445.59.59 0 0 1-.187.44.607.607 0 0 1-.445.182zM426.148 154.141c-.886 0-1.595-.28-2.127-.838-.527-.563-.791-1.307-.791-2.233 0-1.008.276-1.795.827-2.361.55-.566 1.295-.85 2.232-.85.895 0 1.592.276 2.092.827.504.55.756 1.314.756 2.291 0 .957-.272 1.724-.815 2.302-.539.575-1.263.862-2.174.862zm.071-5.473c-.617 0-1.106.211-1.465.633-.359.418-.539.996-.539 1.734 0 .711.181 1.272.545 1.682.363.41.849.615 1.459.615.621 0 1.097-.201 1.429-.603.336-.403.504-.975.504-1.717 0-.75-.168-1.328-.504-1.735-.332-.406-.808-.609-1.429-.609zM431.656 153.133h-.023V154h-.961v-8.883h.961v3.938h.023c.473-.797 1.164-1.196 2.074-1.196.77 0 1.372.27 1.805.809.438.535.656 1.254.656 2.156 0 1.004-.244 1.809-.732 2.414-.488.602-1.156.903-2.004.903-.793 0-1.393-.336-1.799-1.008zm-.023-2.42v.838c0 .496.16.918.48 1.265.325.344.735.516 1.231.516.582 0 1.037-.223 1.365-.668.332-.445.498-1.064.498-1.857 0-.668-.154-1.192-.463-1.571-.308-.379-.726-.568-1.254-.568-.558 0-1.008.195-1.347.586-.34.387-.51.873-.51 1.459zM437.363 153.783v-1.031c.524.387 1.1.58 1.729.58.844 0 1.265-.281 1.265-.844a.704.704 0 0 0-.111-.404 1.014 1.014 0 0 0-.293-.299 2.019 2.019 0 0 0-.433-.228 14.98 14.98 0 0 0-.534-.217 7.76 7.76 0 0 1-.703-.317 2.314 2.314 0 0 1-.504-.363 1.436 1.436 0 0 1-.304-.463 1.657 1.657 0 0 1-.1-.603c0-.282.064-.53.193-.744.129-.219.301-.401.516-.545.215-.149.459-.26.732-.334a3.27 3.27 0 0 1 .856-.112c.519 0 .984.09 1.394.27v.973c-.441-.29-.949-.434-1.523-.434-.18 0-.342.021-.486.064-.145.039-.27.096-.375.17a.838.838 0 0 0-.241.27.712.712 0 0 0-.082.34c0 .156.028.287.082.392.059.106.143.2.252.282.11.082.243.156.399.222.156.067.334.139.533.217.266.102.504.207.715.316.211.106.39.227.539.364.148.133.262.287.34.463.082.175.123.384.123.627 0 .296-.067.554-.199.773-.129.219-.303.4-.522.545a2.411 2.411 0 0 1-.756.322c-.285.07-.584.106-.896.106-.617 0-1.153-.12-1.606-.358zM450.207 153.725c-.461.277-1.008.416-1.641.416-.855 0-1.546-.278-2.074-.832-.523-.559-.785-1.282-.785-2.168 0-.989.283-1.782.85-2.379.566-.602 1.322-.903 2.267-.903.528 0 .992.098 1.395.293v.985a2.442 2.442 0 0 0-1.43-.469c-.613 0-1.117.221-1.512.662-.39.438-.586 1.014-.586 1.729 0 .703.184 1.257.551 1.664.371.406.867.609 1.488.609.524 0 1.016-.174 1.477-.521v.914zM454.168 154.141c-.887 0-1.596-.28-2.127-.838-.527-.563-.791-1.307-.791-2.233 0-1.008.275-1.795.826-2.361.551-.566 1.295-.85 2.233-.85.894 0 1.591.276 2.091.827.504.55.756 1.314.756 2.291 0 .957-.271 1.724-.814 2.302-.539.575-1.264.862-2.174.862zm.07-5.473c-.617 0-1.105.211-1.465.633-.359.418-.539.996-.539 1.734 0 .711.182 1.272.545 1.682.364.41.85.615 1.459.615.621 0 1.098-.201 1.43-.603.336-.403.504-.975.504-1.717 0-.75-.168-1.328-.504-1.735-.332-.406-.809-.609-1.43-.609zM467.211 154h-.961v-3.445c0-.664-.104-1.145-.311-1.442-.203-.297-.546-.445-1.031-.445-.41 0-.76.187-1.049.562-.285.375-.427.825-.427 1.348V154h-.961v-3.562c0-1.18-.455-1.77-1.366-1.77-.421 0-.769.178-1.043.533-.273.352-.41.811-.41 1.377V154h-.961v-6h.961v.949h.024c.426-.726 1.047-1.09 1.863-1.09.41 0 .768.116 1.072.346.305.227.514.525.627.897.446-.829 1.11-1.243 1.992-1.243 1.321 0 1.981.815 1.981 2.444V154zM470.012 153.133h-.024v3.627h-.961V148h.961v1.055h.024c.472-.797 1.164-1.196 2.074-1.196.773 0 1.377.27 1.81.809.434.535.651 1.254.651 2.156 0 1.004-.244 1.809-.733 2.414-.488.602-1.156.903-2.003.903-.778 0-1.377-.336-1.799-1.008zm-.024-2.42v.838c0 .496.16.918.481 1.265.324.344.734.516 1.23.516.582 0 1.037-.223 1.365-.668.332-.445.498-1.064.498-1.857 0-.668-.154-1.192-.462-1.571-.309-.379-.727-.568-1.254-.568-.559 0-1.008.195-1.348.586-.34.387-.51.873-.51 1.459zM477.043 154h-.961v-8.883h.961V154zM483.811 151.24h-4.237c.016.668.196 1.184.539 1.547.344.363.817.545 1.418.545.676 0 1.297-.223 1.864-.668v.902c-.528.383-1.225.575-2.092.575-.848 0-1.514-.272-1.998-.815-.485-.547-.727-1.314-.727-2.303 0-.933.264-1.693.791-2.279.531-.59 1.19-.885 1.975-.885.785 0 1.392.254 1.822.762.43.508.645 1.213.645 2.115v.504zm-.985-.814c-.004-.555-.138-.987-.404-1.295-.262-.309-.627-.463-1.096-.463-.453 0-.838.162-1.154.486-.317.325-.512.748-.586 1.272h3.24zM488.053 153.941c-.227.125-.526.188-.897.188-1.051 0-1.576-.586-1.576-1.758v-3.551h-1.031V148h1.031v-1.465l.961-.31V148h1.512v.82h-1.512v3.381c0 .403.068.69.205.861.137.172.363.258.68.258.242 0 .451-.066.627-.199v.82zM494.158 151.24h-4.236c.016.668.195 1.184.539 1.547.344.363.816.545 1.418.545.676 0 1.297-.223 1.863-.668v.902c-.527.383-1.224.575-2.092.575-.847 0-1.513-.272-1.998-.815-.484-.547-.726-1.314-.726-2.303 0-.933.263-1.693.791-2.279.531-.59 1.189-.885 1.974-.885.786 0 1.393.254 1.823.762.429.508.644 1.213.644 2.115v.504zm-.984-.814c-.004-.555-.139-.987-.404-1.295-.262-.309-.627-.463-1.096-.463-.453 0-.838.162-1.154.486-.317.325-.512.748-.586 1.272h3.24zM500.738 154h-.961v-1.02h-.023c-.445.774-1.133 1.161-2.063 1.161-.753 0-1.357-.268-1.81-.803-.449-.539-.674-1.272-.674-2.197 0-.993.25-1.787.75-2.385.5-.598 1.166-.897 1.998-.897.824 0 1.424.325 1.799.973h.023v-3.715h.961V154zm-.961-2.713v-.885c0-.484-.16-.894-.48-1.23-.32-.336-.727-.504-1.219-.504-.586 0-1.047.215-1.383.644-.336.43-.504 1.024-.504 1.782 0 .691.161 1.238.481 1.64.324.399.758.598 1.301.598.535 0 .968-.193 1.3-.58.336-.387.504-.875.504-1.465z" fill="#000" fill-opacity=".55"/>
  <circle cx="352" cy="142" r="4" fill="#C8C8C8"/>
  <circle cx="576" cy="142" r="4" fill="#C8C8C8"/>
  <g filter="url(#filter2_d)" fill="#fff">
    <path d="M313 142a7 7 0 1 1 14 0 7 7 0 0 1-14 0z"/>
    <path d="M97 114a4 4 0 0 1 4-4h215a4 4 0 0 1 4 4v56a4 4 0 0 1-4 4H101a4 4 0 0 1-4-4v-56z"/>
  </g>
  <mask id="b" fill="#fff">
    <path fill-rule="evenodd" clip-rule="evenodd" d="M100 110a4 4 0 0 0-4 4v56a4 4 0 0 0 4 4h216a4 4 0 0 0 4-4v-21a7 7 0 1 0 0-14v-21a4 4 0 0 0-4-4H100z"/>
  </mask>
  <path fill-rule="evenodd" clip-rule="evenodd" d="M100 110a4 4 0 0 0-4 4v56a4 4 0 0 0 4 4h216a4 4 0 0 0 4-4v-21a7 7 0 1 0 0-14v-21a4 4 0 0 0-4-4H100z" fill="#fff"/>
  <path d="M320 149v-1h-1v1h1zm0-14h-1v1h1v-1zM97 114a3 3 0 0 1 3-3v-2a5 5 0 0 0-5 5h2zm0 56v-56h-2v56h2zm3 3a3 3 0 0 1-3-3h-2a5 5 0 0 0 5 5v-2zm216 0H100v2h216v-2zm3-3a3 3 0 0 1-3 3v2a5 5 0 0 0 5-5h-2zm0-21v21h2v-21h-2zm7-7a6 6 0 0 1-6 6v2a8 8 0 0 0 8-8h-2zm-6-6a6 6 0 0 1 6 6h2a8 8 0 0 0-8-8v2zm-1-22v21h2v-21h-2zm-3-3a3 3 0 0 1 3 3h2a5 5 0 0 0-5-5v2zm-216 0h216v-2H100v2z" fill="#DEDEDE" mask="url(#b)"/>
  <path fill-rule="evenodd" clip-rule="evenodd" d="M126 158c8.837 0 16-7.163 16-16s-7.163-16-16-16-16 7.163-16 16 7.163 16 16 16zm-3.201-11.169l-.005-.004-2.855-2.856a1.501 1.501 0 0 1 2.122-2.121l1.798 1.799 6.21-6.21a1.501 1.501 0 0 1 2.121 2.122l-7.27 7.27a1.502 1.502 0 0 1-2.121 0z" fill="#5BA75F"/>
  <path d="M158.242 154h-.961v-7.26c-.074.074-.183.16-.328.258a5.134 5.134 0 0 1-.48.281 6.25 6.25 0 0 1-.563.264 3.995 3.995 0 0 1-.574.193v-.972a5.73 5.73 0 0 0 .668-.235 8.58 8.58 0 0 0 1.348-.72c.203-.137.378-.27.527-.399h.363V154zM165.695 153.748c0 .984-.199 1.742-.597 2.273-.395.536-.961.803-1.7.803-.273 0-.539-.062-.796-.187v-.897c.289.176.562.264.82.264.875 0 1.312-.699 1.312-2.098V148h.961v5.748zm-.468-7.271a.61.61 0 0 1-.622-.622c0-.179.061-.328.182-.445a.6.6 0 0 1 .44-.181c.175 0 .324.06.445.181a.584.584 0 0 1 .187.445.59.59 0 0 1-.187.44.607.607 0 0 1-.445.182zM170.148 154.141c-.886 0-1.595-.28-2.127-.838-.527-.563-.791-1.307-.791-2.233 0-1.008.276-1.795.827-2.361.55-.566 1.295-.85 2.232-.85.895 0 1.592.276 2.092.827.504.55.756 1.314.756 2.291 0 .957-.272 1.724-.815 2.302-.539.575-1.263.862-2.174.862zm.071-5.473c-.617 0-1.106.211-1.465.633-.359.418-.539.996-.539 1.734 0 .711.181 1.272.545 1.682.363.41.849.615 1.459.615.621 0 1.097-.201 1.429-.603.336-.403.504-.975.504-1.717 0-.75-.168-1.328-.504-1.735-.332-.406-.808-.609-1.429-.609zM175.656 153.133h-.023V154h-.961v-8.883h.961v3.938h.023c.473-.797 1.164-1.196 2.074-1.196.77 0 1.372.27 1.805.809.438.535.656 1.254.656 2.156 0 1.004-.244 1.809-.732 2.414-.488.602-1.156.903-2.004.903-.793 0-1.393-.336-1.799-1.008zm-.023-2.42v.838c0 .496.16.918.48 1.265.325.344.735.516 1.231.516.582 0 1.037-.223 1.365-.668.332-.445.498-1.064.498-1.857 0-.668-.154-1.192-.463-1.571-.308-.379-.726-.568-1.254-.568-.558 0-1.008.195-1.347.586-.34.387-.51.873-.51 1.459zM189.109 153.725c-.461.277-1.007.416-1.64.416-.856 0-1.547-.278-2.074-.832-.524-.559-.786-1.282-.786-2.168 0-.989.284-1.782.85-2.379.566-.602 1.322-.903 2.268-.903.527 0 .992.098 1.394.293v.985a2.44 2.44 0 0 0-1.43-.469c-.613 0-1.117.221-1.511.662-.391.438-.586 1.014-.586 1.729 0 .703.183 1.257.551 1.664.371.406.867.609 1.488.609.523 0 1.015-.174 1.476-.521v.914zM193.07 154.141c-.886 0-1.595-.28-2.127-.838-.527-.563-.791-1.307-.791-2.233 0-1.008.276-1.795.827-2.361.55-.566 1.294-.85 2.232-.85.894 0 1.592.276 2.092.827.504.55.756 1.314.756 2.291 0 .957-.272 1.724-.815 2.302-.539.575-1.264.862-2.174.862zm.071-5.473c-.618 0-1.106.211-1.465.633-.36.418-.539.996-.539 1.734 0 .711.181 1.272.545 1.682.363.41.849.615 1.459.615.621 0 1.097-.201 1.429-.603.336-.403.504-.975.504-1.717 0-.75-.168-1.328-.504-1.735-.332-.406-.808-.609-1.429-.609zM206.113 154h-.961v-3.445c0-.664-.103-1.145-.31-1.442-.203-.297-.547-.445-1.031-.445-.411 0-.76.187-1.049.562-.285.375-.428.825-.428 1.348V154h-.961v-3.562c0-1.18-.455-1.77-1.365-1.77-.422 0-.77.178-1.043.533-.274.352-.41.811-.41 1.377V154h-.961v-6h.961v.949h.023c.426-.726 1.047-1.09 1.863-1.09.411 0 .768.116 1.073.346.304.227.513.525.627.897.445-.829 1.109-1.243 1.992-1.243 1.32 0 1.98.815 1.98 2.444V154zM208.914 153.133h-.023v3.627h-.961V148h.961v1.055h.023c.473-.797 1.164-1.196 2.074-1.196.774 0 1.377.27 1.811.809.433.535.65 1.254.65 2.156 0 1.004-.244 1.809-.732 2.414-.488.602-1.156.903-2.004.903-.777 0-1.377-.336-1.799-1.008zm-.023-2.42v.838c0 .496.16.918.48 1.265.324.344.734.516 1.231.516.582 0 1.037-.223 1.365-.668.332-.445.498-1.064.498-1.857 0-.668-.154-1.192-.463-1.571-.309-.379-.727-.568-1.254-.568-.559 0-1.008.195-1.348.586-.339.387-.509.873-.509 1.459zM215.945 154h-.961v-8.883h.961V154zM222.713 151.24h-4.236c.015.668.195 1.184.539 1.547.343.363.816.545 1.418.545.675 0 1.296-.223 1.863-.668v.902c-.527.383-1.225.575-2.092.575-.848 0-1.514-.272-1.998-.815-.484-.547-.727-1.314-.727-2.303 0-.933.264-1.693.791-2.279.532-.59 1.19-.885 1.975-.885.785 0 1.393.254 1.822.762.43.508.645 1.213.645 2.115v.504zm-.984-.814c-.004-.555-.139-.987-.405-1.295-.262-.309-.627-.463-1.095-.463-.454 0-.838.162-1.155.486-.316.325-.512.748-.586 1.272h3.241zM226.955 153.941c-.226.125-.525.188-.896.188-1.051 0-1.577-.586-1.577-1.758v-3.551h-1.031V148h1.031v-1.465l.961-.31V148h1.512v.82h-1.512v3.381c0 .403.069.69.205.861.137.172.364.258.68.258.242 0 .451-.066.627-.199v.82zM233.061 151.24h-4.237c.016.668.196 1.184.539 1.547.344.363.817.545 1.418.545.676 0 1.297-.223 1.864-.668v.902c-.528.383-1.225.575-2.092.575-.848 0-1.514-.272-1.998-.815-.485-.547-.727-1.314-.727-2.303 0-.933.264-1.693.791-2.279.531-.59 1.19-.885 1.975-.885.785 0 1.392.254 1.822.762.43.508.645 1.213.645 2.115v.504zm-.985-.814c-.004-.555-.138-.987-.404-1.295-.262-.309-.627-.463-1.096-.463-.453 0-.838.162-1.154.486-.317.325-.512.748-.586 1.272h3.24zM239.641 154h-.961v-1.02h-.024c-.445.774-1.133 1.161-2.062 1.161-.754 0-1.358-.268-1.811-.803-.449-.539-.674-1.272-.674-2.197 0-.993.25-1.787.75-2.385.5-.598 1.166-.897 1.998-.897.825 0 1.424.325 1.799.973h.024v-3.715h.961V154zm-.961-2.713v-.885c0-.484-.16-.894-.481-1.23-.32-.336-.726-.504-1.219-.504-.585 0-1.046.215-1.382.644-.336.43-.504 1.024-.504 1.782 0 .691.16 1.238.48 1.64.324.399.758.598 1.301.598.535 0 .969-.193 1.301-.58.336-.387.504-.875.504-1.465z" fill="#000" fill-opacity=".55"/>
  <path d="M155.377 138v-10.503h2.988c.908 0 1.629.222 2.161.667.532.444.798 1.023.798 1.735 0 .596-.161 1.114-.483 1.553-.322.44-.767.752-1.333.938v.029c.708.083 1.274.352 1.699.806.425.449.637 1.035.637 1.757 0 .899-.322 1.626-.967 2.183-.644.557-1.457.835-2.439.835h-3.061zm1.23-9.39v3.391h1.26c.674 0 1.204-.161 1.59-.483.385-.327.578-.786.578-1.377 0-1.02-.671-1.531-2.014-1.531h-1.414zm0 4.497v3.78h1.67c.723 0 1.282-.171 1.678-.513.4-.342.6-.811.6-1.406 0-1.24-.845-1.861-2.534-1.861h-1.414zM169.879 138h-1.201v-1.187h-.03c-.498.909-1.269 1.363-2.314 1.363-1.787 0-2.681-1.065-2.681-3.194V130.5h1.194v4.292c0 1.582.606 2.373 1.817 2.373.586 0 1.066-.215 1.442-.644.381-.435.572-1.001.572-1.7V130.5h1.201v7.5zM172.926 128.596a.766.766 0 0 1-.777-.777c0-.224.076-.41.227-.556a.748.748 0 0 1 .55-.227c.22 0 .405.075.556.227a.727.727 0 0 1 .235.556.737.737 0 0 1-.235.55.756.756 0 0 1-.556.227zm.586 9.404h-1.201v-7.5h1.201v7.5zM177.145 138h-1.202v-11.104h1.202V138zM185.978 138h-1.202v-1.274h-.029c-.557.966-1.416 1.45-2.578 1.45-.942 0-1.697-.335-2.263-1.004-.562-.673-.843-1.589-.843-2.746 0-1.24.313-2.234.938-2.981.625-.747 1.457-1.121 2.498-1.121 1.03 0 1.779.405 2.248 1.216h.029v-4.644h1.202V138zm-1.202-3.391v-1.106c0-.606-.2-1.118-.6-1.538-.401-.42-.908-.63-1.524-.63-.732 0-1.308.269-1.728.806-.42.537-.63 1.279-.63 2.226 0 .864.2 1.548.601 2.051.405.498.947.747 1.626.747.668 0 1.21-.242 1.625-.725.42-.483.63-1.094.63-1.831zM192.071 137.729v-1.289a3.56 3.56 0 0 0 2.161.725c1.055 0 1.582-.352 1.582-1.055 0-.2-.046-.368-.139-.505a1.273 1.273 0 0 0-.366-.374 2.594 2.594 0 0 0-.542-.285 21.134 21.134 0 0 0-.667-.271 9.647 9.647 0 0 1-.879-.396 2.881 2.881 0 0 1-.63-.454 1.816 1.816 0 0 1-.381-.578 2.093 2.093 0 0 1-.124-.755c0-.351.081-.661.242-.93.161-.273.376-.5.644-.681.269-.186.574-.325.916-.418a4.147 4.147 0 0 1 1.069-.139c.649 0 1.231.113 1.743.337v1.216c-.552-.361-1.186-.542-1.904-.542a2.12 2.12 0 0 0-.608.081 1.453 1.453 0 0 0-.469.212 1.036 1.036 0 0 0-.3.337.885.885 0 0 0-.103.425c0 .195.035.359.103.49.073.132.178.249.315.352.137.102.303.195.498.278.195.083.417.174.666.271.332.127.63.259.894.396.264.132.488.283.674.454.185.166.327.359.425.578.102.22.153.481.153.784 0 .371-.083.694-.249.967-.161.273-.378.5-.651.681a3.008 3.008 0 0 1-.945.403c-.357.088-.73.132-1.121.132-.771 0-1.44-.149-2.007-.447zM202.376 137.927c-.283.156-.656.234-1.12.234-1.314 0-1.97-.732-1.97-2.197v-4.439h-1.289V130.5h1.289v-1.831l1.201-.388v2.219h1.889v1.025h-1.889v4.226c0 .503.085.862.256 1.077.171.215.454.322.85.322.303 0 .564-.083.783-.249v1.026zM209.349 138h-1.201v-1.172h-.029c-.523.899-1.292 1.348-2.307 1.348-.748 0-1.333-.198-1.758-.593-.42-.396-.63-.921-.63-1.575 0-1.402.825-2.217 2.475-2.446l2.249-.315c0-1.275-.515-1.912-1.545-1.912-.904 0-1.719.308-2.447.923v-1.231c.738-.468 1.587-.703 2.549-.703 1.763 0 2.644.933 2.644 2.798V138zm-1.201-3.794l-1.809.249c-.557.078-.977.217-1.26.418-.283.195-.425.544-.425 1.047 0 .366.13.666.388.901.264.229.613.344 1.048.344.596 0 1.086-.207 1.472-.623.391-.419.586-.949.586-1.589v-.747zM218.014 137.399c0 2.754-1.319 4.131-3.955 4.131-.928 0-1.739-.176-2.432-.527v-1.201c.845.469 1.65.703 2.417.703 1.846 0 2.768-.982 2.768-2.944v-.821h-.029c-.571.957-1.43 1.436-2.578 1.436-.933 0-1.684-.332-2.256-.996-.566-.669-.849-1.565-.849-2.688 0-1.275.305-2.288.915-3.04.615-.752 1.455-1.128 2.52-1.128 1.01 0 1.76.405 2.248 1.216h.029v-1.04h1.202v6.899zm-1.202-2.79v-1.106a2.14 2.14 0 0 0-.607-1.531c-.401-.425-.901-.637-1.502-.637-.742 0-1.323.271-1.743.813-.42.537-.63 1.291-.63 2.263 0 .835.2 1.504.601 2.007.405.498.94.747 1.604.747.673 0 1.22-.239 1.64-.718.425-.478.637-1.091.637-1.838zM226.473 134.55h-5.295c.019.835.244 1.48.674 1.934.429.454 1.02.681 1.772.681.845 0 1.621-.278 2.329-.835v1.128c-.659.479-1.531.718-2.615.718-1.059 0-1.892-.34-2.497-1.018-.606-.684-.908-1.643-.908-2.879 0-1.167.329-2.116.988-2.849.664-.737 1.487-1.106 2.469-1.106.981 0 1.74.318 2.277.952.538.635.806 1.516.806 2.644v.63zm-1.23-1.018c-.005-.693-.174-1.233-.506-1.618-.327-.386-.783-.579-1.369-.579a1.94 1.94 0 0 0-1.443.608c-.396.405-.64.935-.733 1.589h4.051z" fill="#000"/>
  <circle cx="320" cy="142" r="4" fill="#C8C8C8"/>
  <path d="M98.83 89.445V93h-1.62v-9.803h2.974c1.125 0 1.998.262 2.618.786.62.524.929 1.263.929 2.215 0 .953-.323 1.732-.97 2.338-.647.606-1.522.91-2.625.91H98.83zm0-4.908v3.582h1.053c.697 0 1.228-.162 1.593-.485.364-.324.546-.78.546-1.367 0-1.153-.669-1.73-2.009-1.73H98.83zm7.191-.007a.963.963 0 0 1-.669-.253.835.835 0 0 1-.274-.642c0-.26.091-.477.274-.65a.949.949 0 0 1 .669-.26.97.97 0 0 1 .684.26c.187.174.28.39.28.65a.847.847 0 0 1-.28.635.97.97 0 0 1-.684.26zm.787 8.47h-1.586v-7h1.586v7zm3.691-1.032h-.027v4.252h-1.586V86h1.586v1.23h.027c.542-.93 1.335-1.394 2.379-1.394.889 0 1.581.312 2.078.936.497.625.745 1.463.745 2.516 0 1.167-.28 2.101-.841 2.803-.56.702-1.326 1.053-2.297 1.053-.893 0-1.581-.392-2.064-1.176zm-.041-2.762v.868c0 .51.162.944.485 1.299a1.62 1.62 0 0 0 1.245.533c.587 0 1.048-.228 1.38-.683.338-.46.506-1.1.506-1.921 0-.688-.157-1.226-.471-1.614-.31-.392-.732-.587-1.265-.587-.565 0-1.021.2-1.367.601-.342.401-.513.903-.513 1.504zm12.79.725h-4.771c.018.647.216 1.146.594 1.497.383.35.907.526 1.573.526.747 0 1.433-.223 2.057-.67v1.278c-.638.401-1.481.602-2.529.602-1.03 0-1.839-.317-2.427-.95-.583-.638-.875-1.534-.875-2.687 0-1.089.321-1.975.964-2.659.647-.688 1.449-1.032 2.406-1.032.957 0 1.698.308 2.222.923s.786 1.47.786 2.563v.609zm-1.531-1.121c-.005-.57-.139-1.012-.404-1.327-.264-.319-.628-.478-1.093-.478a1.55 1.55 0 0 0-1.162.499c-.315.333-.509.768-.581 1.306h3.24zm4.635 4.19h-1.593V82.637h1.593V93zm2.871-8.47a.966.966 0 0 1-.67-.253.835.835 0 0 1-.274-.642c0-.26.091-.477.274-.65a.951.951 0 0 1 .67-.26c.269 0 .496.087.683.26.187.174.281.39.281.65a.848.848 0 0 1-.281.635.967.967 0 0 1-.683.26zm.786 8.47h-1.586v-7h1.586v7zm8.312 0h-1.586v-3.944c0-1.308-.462-1.962-1.387-1.962-.483 0-.882.182-1.197.547-.314.36-.471.815-.471 1.367V93h-1.593v-7h1.593v1.162h.027c.524-.884 1.281-1.326 2.27-1.326.761 0 1.342.248 1.743.745.401.492.601 1.206.601 2.14V93zm7.868-3.07h-4.771c.018.648.216 1.147.595 1.498.383.35.907.526 1.572.526.747 0 1.433-.223 2.058-.67v1.278c-.638.401-1.482.602-2.53.602-1.03 0-1.839-.317-2.426-.95-.584-.638-.875-1.534-.875-2.687 0-1.089.321-1.975.963-2.659.648-.688 1.45-1.032 2.407-1.032.957 0 1.697.308 2.221.923s.786 1.47.786 2.563v.609zm-1.531-1.12c-.004-.57-.139-1.012-.403-1.327-.264-.319-.629-.478-1.094-.478a1.55 1.55 0 0 0-1.162.499c-.314.333-.508.768-.581 1.306h3.24z" fill="#606060"/>
  <defs>
    <filter id="filter0_d" x="605" y="104" width="239" height="189" filterUnits="userSpaceOnUse" color-interpolation-filters="sRGB">
      <feFlood flood-opacity="0" result="BackgroundImageFix"/>
      <feColorMatrix in="SourceAlpha" values="0 0 0 0 0 0 0 0 0 0 0 0 0 0 0 0 0 0 127 0"/>
      <feOffset dy="3"/>
      <feGaussianBlur stdDeviation="4"/>
      <feColorMatrix values="0 0 0 0 0 0 0 0 0 0 0 0 0 0 0 0 0 0 0.2 0"/>
      <feBlend in2="BackgroundImageFix" result="effect1_dropShadow"/>
      <feBlend in="SourceGraphic" in2="effect1_dropShadow" result="shape"/>
    </filter>
    <filter id="filter1_d" x="345" y="105" width="246" height="80" filterUnits="userSpaceOnUse" color-interpolation-filters="sRGB">
      <feFlood flood-opacity="0" result="BackgroundImageFix"/>
      <feColorMatrix in="SourceAlpha" values="0 0 0 0 0 0 0 0 0 0 0 0 0 0 0 0 0 0 127 0"/>
      <feOffset dy="3"/>
      <feGaussianBlur stdDeviation="4"/>
      <feColorMatrix values="0 0 0 0 0 0 0 0 0 0 0 0 0 0 0 0 0 0 0.2 0"/>
      <feBlend in2="BackgroundImageFix" result="effect1_dropShadow"/>
      <feBlend in="SourceGraphic" in2="effect1_dropShadow" result="shape"/>
    </filter>
    <filter id="filter2_d" x="89" y="105" width="246" height="80" filterUnits="userSpaceOnUse" color-interpolation-filters="sRGB">
      <feFlood flood-opacity="0" result="BackgroundImageFix"/>
      <feColorMatrix in="SourceAlpha" values="0 0 0 0 0 0 0 0 0 0 0 0 0 0 0 0 0 0 127 0"/>
      <feOffset dy="3"/>
      <feGaussianBlur stdDeviation="4"/>
      <feColorMatrix values="0 0 0 0 0 0 0 0 0 0 0 0 0 0 0 0 0 0 0.2 0"/>
      <feBlend in2="BackgroundImageFix" result="effect1_dropShadow"/>
      <feBlend in="SourceGraphic" in2="effect1_dropShadow" result="shape"/>
    </filter>
  </defs>
</svg>
