<?xml version="1.0" encoding="UTF-8" standalone="no"?>
<svg
   xmlns:dc="http://purl.org/dc/elements/1.1/"
   xmlns:cc="http://creativecommons.org/ns#"
   xmlns:rdf="http://www.w3.org/1999/02/22-rdf-syntax-ns#"
   xmlns:svg="http://www.w3.org/2000/svg"
   xmlns="http://www.w3.org/2000/svg"
   xmlns:sodipodi="http://sodipodi.sourceforge.net/DTD/sodipodi-0.dtd"
   xmlns:inkscape="http://www.inkscape.org/namespaces/inkscape"
   viewBox="0 0 636 636"
   version="1.1"
   id="svg5370"
   sodipodi:docname="previous-behavior.svg"
   inkscape:version="1.0.2 (e86c870879, 2021-01-15)">
  <metadata
     id="metadata5376">
    <rdf:RDF>
      <cc:Work
         rdf:about="">
        <dc:format>image/svg+xml</dc:format>
        <dc:type
           rdf:resource="http://purl.org/dc/dcmitype/StillImage" />
        <dc:title>blog-package-upstream-diagram-4</dc:title>
      </cc:Work>
    </rdf:RDF>
  </metadata>
  <defs
     id="defs5374">
    <marker
       style="overflow:visible;"
       id="marker7231"
       refX="0.0"
       refY="0.0"
       orient="auto"
       inkscape:stockid="Arrow1Lend"
       inkscape:isstock="true">
      <path
         transform="scale(0.8) rotate(180) translate(12.5,0)"
         style="fill-rule:evenodd;stroke:#000000;stroke-width:1pt;stroke-opacity:1;fill:#000000;fill-opacity:1"
         d="M 0.0,0.0 L 5.0,-5.0 L -12.5,0.0 L 5.0,5.0 L 0.0,0.0 z "
         id="path7229" />
    </marker>
    <marker
       style="overflow:visible"
       id="marker7013"
       refX="0.0"
       refY="0.0"
       orient="auto"
       inkscape:stockid="DotM"
       inkscape:isstock="true">
      <path
         transform="scale(0.4) translate(7.4, 1)"
         style="fill-rule:evenodd;stroke:#000000;stroke-width:1pt;stroke-opacity:1;fill:#000000;fill-opacity:1"
         d="M -2.5,-1.0 C -2.5,1.7600000 -4.7400000,4.0 -7.5,4.0 C -10.260000,4.0 -12.5,1.7600000 -12.5,-1.0 C -12.5,-3.7600000 -10.260000,-6.0 -7.5,-6.0 C -4.7400000,-6.0 -2.5,-3.7600000 -2.5,-1.0 z "
         id="path7011" />
    </marker>
    <marker
       style="overflow:visible"
       id="DotS"
       refX="0.0"
       refY="0.0"
       orient="auto"
       inkscape:stockid="DotS"
       inkscape:isstock="true">
      <path
         transform="scale(0.2) translate(7.4, 1)"
         style="fill-rule:evenodd;stroke:#000000;stroke-width:1pt;stroke-opacity:1;fill:#000000;fill-opacity:1"
         d="M -2.5,-1.0 C -2.5,1.7600000 -4.7400000,4.0 -7.5,4.0 C -10.260000,4.0 -12.5,1.7600000 -12.5,-1.0 C -12.5,-3.7600000 -10.260000,-6.0 -7.5,-6.0 C -4.7400000,-6.0 -2.5,-3.7600000 -2.5,-1.0 z "
         id="path6500" />
    </marker>
    <marker
       style="overflow:visible"
       id="DotM-6"
       refX="0"
       refY="0"
       orient="auto"
       inkscape:stockid="DotM"
       inkscape:isstock="true">
      <path
         transform="matrix(0.4,0,0,0.4,2.96,0.4)"
         style="fill:#000000;fill-opacity:1;fill-rule:evenodd;stroke:#000000;stroke-width:1pt;stroke-opacity:1"
         d="m -2.5,-1 c 0,2.76 -2.24,5 -5,5 -2.76,0 -5,-2.24 -5,-5 0,-2.76 2.24,-5 5,-5 2.76,0 5,2.24 5,5 z"
         id="path6497-2" />
    </marker>
    <marker
       style="overflow:visible"
       id="Arrow1Lend-1"
       refX="0"
       refY="0"
       orient="auto"
       inkscape:stockid="Arrow1Lend"
       inkscape:isstock="true">
      <path
         transform="matrix(-0.8,0,0,-0.8,-10,0)"
         style="fill:#000000;fill-opacity:1;fill-rule:evenodd;stroke:#000000;stroke-width:1pt;stroke-opacity:1"
         d="M 0,0 5,-5 -12.5,0 5,5 Z"
         id="path6436-7" />
    </marker>
  </defs>
  <sodipodi:namedview
     pagecolor="#ffffff"
     bordercolor="#666666"
     borderopacity="1"
     objecttolerance="10"
     gridtolerance="10"
     guidetolerance="10"
     inkscape:pageopacity="0"
     inkscape:pageshadow="2"
     inkscape:window-width="1920"
     inkscape:window-height="1017"
     id="namedview5372"
     showgrid="false"
     inkscape:zoom="1.336478"
     inkscape:cx="248.36035"
     inkscape:cy="296.6546"
     inkscape:window-x="-8"
     inkscape:window-y="-8"
     inkscape:window-maximized="1"
     inkscape:current-layer="svg5370"
     inkscape:snap-others="false"
     inkscape:snap-nodes="false" />
  <title
     id="title4556">blog-package-upstream-diagram-4</title>
  <path
     d="M343,33H606a11,11,0,0,1,11,11V297a0,0,0,0,1,0,0H354a11,11,0,0,1-11-11V33A0,0,0,0,1,343,33Z"
     fill="#cbe247"
     id="path4566" />
  <path
     d="M17,33H280a11,11,0,0,1,11,11V297a0,0,0,0,1,0,0H28a11,11,0,0,1-11-11V33A0,0,0,0,1,17,33Z"
     fill="#b0cdda"
     id="path4568" />
  <path
     d="M291,71.333V44a11,11,0,0,0-11-11H17V71.333Z"
     fill="#cadee6"
     id="path4570" />
  <path
     d="M617,71.333V44a11,11,0,0,0-11-11H343V71.333Z"
     fill="#e6f26d"
     id="path4572" />
  <text
     transform="translate(106.906 59)"
     font-size="24"
     font-family="SegoeUI, Segoe UI"
     id="text4578"><tspan
       letter-spacing="-0.034em"
       id="tspan4574">F</tspan><tspan
       x="10.898"
       y="0"
       id="tspan4576">abrikam</tspan></text>
  <text
     font-size="24"
     font-family="SegoeUI, Segoe UI"
     id="text4580"
     style="font-style:normal;font-variant:normal;font-weight:normal;font-stretch:normal;font-size:24px;font-family:SegoeUI, 'Segoe UI';-inkscape-font-specification:'SegoeUI, Segoe UI, Normal';font-variant-ligatures:normal;font-variant-caps:normal;font-variant-numeric:normal;font-variant-east-asian:normal"
     x="409.08701"
     y="59"><tspan
       sodipodi:role="line"
       id="tspan5482"
       x="409.08701"
       y="59">Public registry</tspan></text>
  <path
     d="m 128.15518,347 h 387.45591 a 16.205379,11 0 0 1 16.20538,11 V 610 H 144.36056 a 16.205379,11 0 0 1 -16.20538,-11 z"
     fill="#b4a0ff"
     id="path4600"
     style="stroke-width:1.21376" />
  <path
     d="M 427.06353,386.444 V 358 a 9.2277201,11 0 0 0 -9.22772,-11 h -220.6264 v 39.444 z"
     fill="#c7b8ff"
     id="path4602"
     style="stroke-width:0.915906" />
  <text
     font-size="24px"
     font-family="SegoeUI, 'Segoe UI'"
     id="text4608"
     style="font-style:normal;font-variant:normal;font-weight:normal;font-stretch:normal;font-size:24px;font-family:SegoeUI, 'Segoe UI';-inkscape-font-specification:'SegoeUI, Segoe UI, Normal';font-variant-ligatures:normal;font-variant-caps:normal;font-variant-numeric:normal;font-variant-east-asian:normal"
     x="202.13753"
     y="373"><tspan
       sodipodi:role="line"
       id="tspan5378"
       x="202.13753"
       y="373">Available packages</tspan></text>
  <path
     d="m 297.12071,463.50688 a 8.932,8.932 0 0 0 -8.949,8.955 v 9.678 a 8.932,8.932 0 0 0 8.949,8.955 h 9.673 a 8.933,8.933 0 0 0 8.95,-8.955 v -9.678 a 8.933,8.933 0 0 0 -8.95,-8.955 z m -1.9,4.7 a 3.347,3.347 0 0 1 0,6.693 v 0 a 3.347,3.347 0 0 1 0,-6.693 z m 10.667,8.14 a 5.789,5.789 0 1 1 -5.786,5.789 5.788,5.788 0 0 1 5.786,-5.789 z m -19.523,-16.821 a 3.166,3.166 0 1 1 -3.165,3.166 3.165,3.165 0 0 1 3.165,-3.166 z"
     fill="#004880"
     id="path4820" />
  <rect
     x="255"
     y="229"
     width="0"
     height="0"
     fill="#447995"
     id="rect4872" />
  <path
     d="m 441.17248,461.76335 a 8.932,8.932 0 0 0 -8.949,8.955 v 9.678 a 8.932,8.932 0 0 0 8.949,8.955 h 9.673 a 8.933,8.933 0 0 0 8.95,-8.955 v -9.678 a 8.933,8.933 0 0 0 -8.95,-8.955 z m -1.9,4.7 a 3.347,3.347 0 0 1 0,6.693 v 0 a 3.347,3.347 0 0 1 0,-6.693 z m 10.667,8.14 a 5.789,5.789 0 1 1 -5.786,5.789 5.788,5.788 0 0 1 5.786,-5.789 z m -19.523,-16.821 a 3.166,3.166 0 1 1 -3.165,3.166 3.165,3.165 0 0 1 3.165,-3.166 z"
     fill="#004880"
     id="path5178" />
  <rect
     x="294.76703"
     y="504.8259"
     width="65"
     height="56"
     fill="#ffffff"
     id="rect4584-5" />
  <polygon
     points="54.499,130 60.069,136 123,136 123,130 "
     fill="#c2c2c2"
     id="polygon4586-2"
     transform="translate(237.01883,379.82588)" />
  <rect
     x="359.0188"
     y="504.8259"
     width="10"
     height="56"
     fill="#939393"
     id="rect4588-9" />
  <rect
     x="289.0188"
     y="496.8259"
     width="76"
     height="14"
     fill="#ffffff"
     id="rect4590-5" />
  <rect
     x="363.0188"
     y="496.8259"
     width="10"
     height="14"
     fill="#939393"
     id="rect4592-7" />
  <rect
     x="441.42123"
     y="501.83295"
     width="65"
     height="56"
     fill="#ffffff"
     id="rect4584-5-8" />
  <polygon
     points="123,130 54.499,130 60.069,136 123,136 "
     fill="#c2c2c2"
     id="polygon4586-2-8"
     transform="translate(384.4212,376.83294)" />
  <rect
     x="506.4212"
     y="501.83295"
     width="10"
     height="56"
     fill="#939393"
     id="rect4588-9-4" />
  <rect
     x="436.4212"
     y="493.83289"
     width="76"
     height="14"
     fill="#ffffff"
     id="rect4590-5-7" />
  <rect
     x="510.4212"
     y="493.83289"
     width="10"
     height="14"
     fill="#939393"
     id="rect4592-7-7" />
  <text
     font-size="16px"
     font-family="SegoeUI, 'Segoe UI'"
     id="text5176"
     x="458.40344"
     y="534.85858"
     style="font-style:normal;font-variant:normal;font-weight:normal;font-stretch:normal;font-size:16px;font-family:SegoeUI, 'Segoe UI';-inkscape-font-specification:'SegoeUI, Segoe UI, Normal';font-variant-ligatures:normal;font-variant-caps:normal;font-variant-numeric:normal;font-variant-east-asian:normal"><tspan
       sodipodi:role="line"
       id="tspan13394"
       x="458.40344"
       y="534.85858">2.1.0</tspan></text>
  <text
     font-size="16px"
     font-family="SegoeUI, 'Segoe UI'"
     id="text4644"
     x="309.86221"
     y="539.34088"
     style="-inkscape-font-specification:'SegoeUI, Segoe UI, Normal';font-family:SegoeUI, 'Segoe UI';font-weight:normal;font-style:normal;font-stretch:normal;font-variant:normal;font-size:16px;font-variant-ligatures:normal;font-variant-caps:normal;font-variant-numeric:normal;font-variant-east-asian:normal;"><tspan
       sodipodi:role="line"
       id="tspan13392">2.0.0</tspan></text>
  <path
     d="m 148.31766,474.08677 v 10.135 a 8.95,8.95 0 0 0 8.95,8.95 h 10.1 a 8.95,8.95 0 0 0 8.95,-8.95 v -10.095 a 8.955,8.955 0 0 0 -8.955,-8.955 h -10.095 a 8.917,8.917 0 0 0 -8.95,8.915 z m 7.458,-3.565 a 3.347,3.347 0 0 1 0,6.694 v 0 a 3.347,3.347 0 0 1 0,-6.694 z m 10.667,8.141 a 5.789,5.789 0 1 1 -5.786,5.789 5.788,5.788 0 0 1 5.786,-5.789 z m -19.525,-16.824 a 3.166,3.166 0 1 1 -3.165,3.165 3.164,3.164 0 0 1 3.165,-3.165 z"
     fill="#004880"
     id="path4598" />
  <rect
     x="152.32471"
     y="506.42355"
     width="65"
     height="56"
     fill="#ffffff"
     id="rect4584" />
  <polygon
     points="54.499,130 60.069,136 123,136 123,130 "
     fill="#c2c2c2"
     id="polygon4586"
     transform="translate(95.324719,381.42353)" />
  <rect
     x="217.32472"
     y="506.42355"
     width="10"
     height="56"
     fill="#939393"
     id="rect4588" />
  <rect
     x="147.32471"
     y="498.42355"
     width="76"
     height="14"
     fill="#ffffff"
     id="rect4590" />
  <rect
     x="221.32472"
     y="498.42355"
     width="10"
     height="14"
     fill="#939393"
     id="rect4592" />
  <text
     font-size="16px"
     font-family="SegoeUI, 'Segoe UI'"
     id="text4596"
     x="165.92577"
     y="540.40942"
     style="font-style:normal;font-variant:normal;font-weight:normal;font-stretch:normal;font-size:16px;font-family:SegoeUI, 'Segoe UI';-inkscape-font-specification:'SegoeUI, Segoe UI, Normal';font-variant-ligatures:normal;font-variant-caps:normal;font-variant-numeric:normal;font-variant-east-asian:normal"><tspan
       sodipodi:role="line"
       id="tspan13390"
       x="165.92577"
       y="540.40942">1.0.0</tspan></text>
  <path
     d="m 187.25966,117.26745 a 8.932,8.932 0 0 0 -8.949,8.955 v 9.678 a 8.932,8.932 0 0 0 8.949,8.955 h 9.673 a 8.933,8.933 0 0 0 8.95,-8.955 v -9.678 a 8.933,8.933 0 0 0 -8.95,-8.955 z m -1.9,4.7 a 3.347,3.347 0 0 1 0,6.693 v 0 a 3.347,3.347 0 0 1 0,-6.693 z m 10.667,8.14 a 5.789,5.789 0 1 1 -5.786,5.789 5.788,5.788 0 0 1 5.786,-5.789 z m -19.523,-16.821 a 3.166,3.166 0 1 1 -3.165,3.166 3.165,3.165 0 0 1 3.165,-3.166 z"
     fill="#004880"
     id="path4820-0" />
  <path
     d="m 453.27378,114.02745 a 8.932,8.932 0 0 0 -8.949,8.955 v 9.678 a 8.932,8.932 0 0 0 8.949,8.955 h 9.673 a 8.933,8.933 0 0 0 8.95,-8.955 v -9.678 a 8.933,8.933 0 0 0 -8.95,-8.955 z m -1.9,4.7 a 3.347,3.347 0 0 1 0,6.693 v 0 a 3.347,3.347 0 0 1 0,-6.693 z m 10.667,8.14 a 5.789,5.789 0 1 1 -5.786,5.789 5.788,5.788 0 0 1 5.786,-5.789 z m -19.523,-16.821 a 3.166,3.166 0 1 1 -3.165,3.166 3.165,3.165 0 0 1 3.165,-3.166 z"
     fill="#004880"
     id="path5178-0" />
  <rect
     x="184.15776"
     y="158.58647"
     width="65"
     height="56"
     fill="#ffffff"
     id="rect4584-5-2" />
  <polygon
     points="123,130 54.499,130 60.069,136 123,136 "
     fill="#c2c2c2"
     id="polygon4586-2-1"
     transform="translate(127.15778,33.586454)" />
  <rect
     x="249.15776"
     y="158.58647"
     width="10"
     height="56"
     fill="#939393"
     id="rect4588-9-3" />
  <rect
     x="179.15776"
     y="150.58647"
     width="76"
     height="14"
     fill="#ffffff"
     id="rect4590-5-9" />
  <rect
     x="253.15776"
     y="150.58647"
     width="10"
     height="14"
     fill="#939393"
     id="rect4592-7-1" />
  <rect
     x="453.52255"
     y="154.09708"
     width="65"
     height="56"
     fill="#ffffff"
     id="rect4584-5-8-7" />
  <polygon
     points="54.499,130 60.069,136 123,136 123,130 "
     fill="#c2c2c2"
     id="polygon4586-2-8-1"
     transform="translate(396.5225,29.097043)" />
  <rect
     x="518.52246"
     y="154.09708"
     width="10"
     height="56"
     fill="#939393"
     id="rect4588-9-4-5" />
  <rect
     x="448.52252"
     y="146.09702"
     width="76"
     height="14"
     fill="#ffffff"
     id="rect4590-5-7-5" />
  <rect
     x="522.52246"
     y="146.09702"
     width="10"
     height="14"
     fill="#939393"
     id="rect4592-7-7-6" />
  <text
     font-size="16px"
     font-family="SegoeUI, 'Segoe UI'"
     id="text5176-0"
     x="441.95319"
     y="200.75633"
     style="font-style:normal;font-variant:normal;font-weight:normal;font-stretch:normal;font-size:17.0296px;font-family:SegoeUI, 'Segoe UI';-inkscape-font-specification:'SegoeUI, Segoe UI, Normal';font-variant-ligatures:normal;font-variant-caps:normal;font-variant-numeric:normal;font-variant-east-asian:normal;stroke-width:1.06435"
     transform="scale(1.0643474,0.93954287)"><tspan
       sodipodi:role="line"
       id="tspan13384"
       x="441.95319"
       y="200.75633">2.1.0</tspan></text>
  <text
     font-size="16px"
     font-family="SegoeUI, 'Segoe UI'"
     id="text4644-2"
     x="200.00117"
     y="193.10149"
     style="-inkscape-font-specification:'SegoeUI, Segoe UI, Normal';font-family:SegoeUI, 'Segoe UI';font-weight:normal;font-style:normal;font-stretch:normal;font-variant:normal;font-size:16px;font-variant-ligatures:normal;font-variant-caps:normal;font-variant-numeric:normal;font-variant-east-asian:normal;"><tspan
       sodipodi:role="line"
       id="tspan13386">2.0.0</tspan></text>
  <path
     d="m 38.456614,127.84734 v 10.135 a 8.95,8.95 0 0 0 8.95,8.95 h 10.1 a 8.95,8.95 0 0 0 8.95,-8.95 v -10.095 a 8.955,8.955 0 0 0 -8.955,-8.955 h -10.095 a 8.917,8.917 0 0 0 -8.95,8.915 z m 7.458,-3.565 a 3.347,3.347 0 0 1 0,6.694 v 0 a 3.347,3.347 0 0 1 0,-6.694 z m 10.667,8.141 a 5.789,5.789 0 1 1 -5.786,5.789 5.788,5.788 0 0 1 5.786,-5.789 z m -19.525,-16.824 a 3.166,3.166 0 1 1 -3.165,3.165 3.164,3.164 0 0 1 3.165,-3.165 z"
     fill="#004880"
     id="path4598-4" />
  <rect
     x="42.463657"
     y="160.18413"
     width="65"
     height="56"
     fill="#ffffff"
     id="rect4584-9" />
  <polygon
     points="123,130 54.499,130 60.069,136 123,136 "
     fill="#c2c2c2"
     id="polygon4586-3"
     transform="translate(-14.53633,35.184104)" />
  <rect
     x="107.46368"
     y="160.18413"
     width="10"
     height="56"
     fill="#939393"
     id="rect4588-3" />
  <rect
     x="37.463657"
     y="152.18413"
     width="76"
     height="14"
     fill="#ffffff"
     id="rect4590-8" />
  <rect
     x="111.46368"
     y="152.18413"
     width="10"
     height="14"
     fill="#939393"
     id="rect4592-5" />
  <text
     font-size="16px"
     font-family="SegoeUI, 'Segoe UI'"
     id="text4596-1"
     x="56.812946"
     y="191.92531"
     style="font-style:normal;font-variant:normal;font-weight:normal;font-stretch:normal;font-size:16px;font-family:SegoeUI, 'Segoe UI';-inkscape-font-specification:'SegoeUI, Segoe UI, Normal';font-variant-ligatures:normal;font-variant-caps:normal;font-variant-numeric:normal;font-variant-east-asian:normal"><tspan
       sodipodi:role="line"
       id="tspan13388"
       x="56.812946"
       y="191.92531">1.0.0</tspan></text>
  <path
     d="M 126.52119,506.11406 H 70.072609 c -17.825866,0 -25.25331,-5.03921 -25.25331,-29.22743 V 296.48278"
     fill="none"
     stroke="#737373"
     stroke-miterlimit="10"
     stroke-width="1.7304"
     stroke-dasharray="3.4608, 3.4608"
     id="path13122" />
  <path
     d="m 532.19193,511.52932 46.73911,0.9144 c 14.75973,0.28872 20.88445,-4.75818 20.76353,-29.56079 l -0.90184,-184.98632"
     fill="none"
     stroke="#737373"
     stroke-miterlimit="10"
     stroke-width="1.7304"
     stroke-dasharray="3.4608, 3.4608"
     id="path13122-7"
     style="stroke-width:1.594;stroke-linecap:square;stroke-linejoin:round;stroke-miterlimit:10;stroke-dasharray:3.18799, 3.18799;stroke-dashoffset:0;paint-order:markers stroke fill" />
</svg>
