<svg xmlns="http://www.w3.org/2000/svg" viewBox="0 0 636 636"><title>blog-package-upstream-diagram-2</title><line x1="24" y1="509.321" x2="63.747" y2="509.321" fill="none" stroke="#004880" stroke-miterlimit="10" stroke-width="3"/><polygon points="53.806 521.591 51.76 519.393 62.595 509.324 51.76 499.252 53.806 497.055 67 509.324 53.806 521.591" fill="#004880"/><path d="M180,347H443a11,11,0,0,1,11,11V610a0,0,0,0,1,0,0H191a11,11,0,0,1-11-11V347A0,0,0,0,1,180,347Z" fill="#b4a0ff"/><text transform="translate(372.064 459)" font-size="16" font-family="SegoeUI, Segoe UI">Gadgets</text><rect x="344.124" y="474.823" width="64.999" height="55.584" fill="#fff"/><polygon points="409.777 479.602 342.264 479.602 347.753 485.515 409.777 485.515 409.777 479.602" fill="#c2c2c2"/><rect x="409.122" y="474.823" width="10.287" height="55.584" fill="#737373"/><rect x="338.707" y="467.333" width="75.832" height="14.268" fill="#fff"/><rect x="413.237" y="467.333" width="10.287" height="14.268" fill="#737373"/><text transform="translate(360.594 503)" font-size="16" font-family="SegoeUI, Segoe UI">1.0.0<tspan x="0" y="19.2">2.0.0</tspan></text><path d="M346.356,433.647a8.931,8.931,0,0,0-8.949,8.954v9.679a8.932,8.932,0,0,0,8.949,8.955h9.673a8.933,8.933,0,0,0,8.95-8.955V442.6a8.932,8.932,0,0,0-8.95-8.954Zm-1.9,4.7a3.347,3.347,0,0,1,0,6.694h0a3.347,3.347,0,0,1,0-6.694Zm10.667,8.141a5.789,5.789,0,1,1-5.786,5.789,5.788,5.788,0,0,1,5.786-5.789ZM335.6,429.667a3.166,3.166,0,1,1-3.165,3.165,3.164,3.164,0,0,1,3.165-3.165Z" fill="#004880"/><path d="M343,33H606a11,11,0,0,1,11,11V297a0,0,0,0,1,0,0H354a11,11,0,0,1-11-11V33A0,0,0,0,1,343,33Z" fill="#cbe247"/><path d="M17,33H280a11,11,0,0,1,11,11V297a0,0,0,0,1,0,0H28a11,11,0,0,1-11-11V33A0,0,0,0,1,17,33Z" fill="#b0cdda"/><path d="M291,71.333V44a11,11,0,0,0-11-11H17V71.333Z" fill="#cadee6"/><path d="M617,71.333V44a11,11,0,0,0-11-11H343V71.333Z" fill="#e6f26d"/><text transform="translate(106.906 59)" font-size="24" font-family="SegoeUI, Segoe UI"><tspan letter-spacing="-0.034em">F</tspan><tspan x="10.898" y="0">abrikam</tspan></text><text transform="translate(434.527 59)" font-size="24" font-family="SegoeUI, Segoe UI">Contoso</text><text transform="translate(145.212 140)" font-size="16" font-family="SegoeUI, Segoe UI">Widgets</text><rect x="117.124" y="155.823" width="64.999" height="55.584" fill="#fff"/><polygon points="182.777 160.602 115.264 160.602 120.753 166.515 182.777 166.515 182.777 160.602" fill="#c2c2c2"/><rect x="182.122" y="155.823" width="10.287" height="55.584" fill="#939393"/><rect x="111.707" y="148.333" width="75.832" height="14.268" fill="#fff"/><rect x="186.237" y="148.333" width="10.287" height="14.268" fill="#939393"/><text transform="translate(133.594 184)" font-size="16" font-family="SegoeUI, Segoe UI">1.0.0<tspan x="0" y="19.2">2.0.0</tspan></text><path d="M119.356,114.647a8.931,8.931,0,0,0-8.949,8.954v9.679a8.932,8.932,0,0,0,8.949,8.955h9.673a8.933,8.933,0,0,0,8.95-8.955V123.6a8.932,8.932,0,0,0-8.95-8.954Zm-1.9,4.7a3.347,3.347,0,0,1,0,6.694h0a3.347,3.347,0,0,1,0-6.694Zm10.667,8.141a5.789,5.789,0,1,1-5.786,5.789,5.788,5.788,0,0,1,5.786-5.789ZM108.6,110.667a3.166,3.166,0,1,1-3.165,3.165,3.164,3.164,0,0,1,3.165-3.165Z" fill="#004880"/><path d="M454,386.444V358a11,11,0,0,0-11-11H180v39.444Z" fill="#c7b8ff"/><text transform="translate(229.074 373)" font-size="24" font-family="SegoeUI, Segoe UI">Adventure<tspan x="109.852" y="0" letter-spacing="-0.039em">W</tspan><tspan x="131.332" y="0">orks</tspan></text><text transform="translate(247.044 457.435)" font-size="16" font-family="SegoeUI, Segoe UI">Things</text><rect x="218" y="473" width="65" height="56" fill="#fff"/><polygon points="284 478 215.499 478 221.069 484 284 484 284 478" fill="#c2c2c2"/><rect x="283" y="473" width="10" height="56" fill="#737373"/><rect x="213" y="466" width="76" height="14" fill="#fff"/><rect x="287" y="466" width="10" height="14" fill="#737373"/><text transform="translate(234.594 501.435)" font-size="16" font-family="SegoeUI, Segoe UI">1.0.0</text><path d="M211,440.915V451.05a8.95,8.95,0,0,0,8.95,8.95h10.1a8.95,8.95,0,0,0,8.95-8.95v-10.1A8.955,8.955,0,0,0,230.045,432H219.95A8.917,8.917,0,0,0,211,440.915Zm7.458-4.13a3.347,3.347,0,0,1,0,6.693h0a3.347,3.347,0,0,1,0-6.693Zm10.667,8.14a5.789,5.789,0,1,1-5.786,5.789,5.788,5.788,0,0,1,5.786-5.789ZM209.6,428.1a3.166,3.166,0,1,1-3.165,3.166A3.165,3.165,0,0,1,209.6,428.1Z" fill="#004880"/><text transform="translate(26.333 540.435)" font-size="16" font-family="SegoeUI, Segoe UI">Upstream source</text><line x1="24" y1="576.5" x2="68" y2="576.5" fill="none" stroke="#737373" stroke-miterlimit="10" stroke-width="2" stroke-dasharray="4 4"/><text transform="translate(26.333 602.435)" font-size="16" font-family="SegoeUI, Segoe UI">Feed link</text><path d="M482,293V475c0,17-8,25-26,25H429" fill="none" stroke="#737373" stroke-miterlimit="10" stroke-width="2" stroke-dasharray="4 4"/><text transform="translate(475.318 109.435)" font-size="16" font-family="SegoeUI, Segoe UI">Gizmos</text><rect x="447.124" y="125.258" width="64.999" height="55.584" fill="#fff"/><polygon points="512.777 130.036 445.264 130.036 450.753 135.95 512.777 135.95 512.777 130.036" fill="#c2c2c2"/><rect x="512" y="125" width="10" height="56" fill="#939393"/><rect x="442" y="118" width="76" height="14" fill="#fff"/><rect x="516" y="118" width="10" height="14" fill="#939393"/><text transform="translate(463.594 153.435)" font-size="16" font-family="SegoeUI, Segoe UI">1.0.0<tspan x="0" y="19.2">3.0.0</tspan></text><path d="M449.356,84.081a8.932,8.932,0,0,0-8.949,8.955v9.678a8.932,8.932,0,0,0,8.949,8.955h9.673a8.933,8.933,0,0,0,8.95-8.955V93.036a8.933,8.933,0,0,0-8.95-8.955Zm-1.9,4.7a3.347,3.347,0,0,1,0,6.693h0a3.347,3.347,0,0,1,0-6.693Zm10.667,8.14a5.789,5.789,0,1,1-5.786,5.789,5.788,5.788,0,0,1,5.786-5.789ZM438.6,80.1a3.166,3.166,0,1,1-3.165,3.166A3.165,3.165,0,0,1,438.6,80.1Z" fill="#004880"/><text transform="translate(475.064 215.435)" font-size="16" font-family="SegoeUI, Segoe UI">Gadgets</text><text transform="translate(464.594 259.435)" font-size="16" font-family="SegoeUI, Segoe UI">2.0.0</text><path d="M450.356,190.081a8.932,8.932,0,0,0-8.949,8.955v9.678a8.932,8.932,0,0,0,8.949,8.955h9.673a8.933,8.933,0,0,0,8.95-8.955v-9.678a8.933,8.933,0,0,0-8.95-8.955Zm-1.9,4.7a3.347,3.347,0,0,1,0,6.693h0a3.347,3.347,0,0,1,0-6.693Zm10.667,8.14a5.789,5.789,0,1,1-5.786,5.789,5.788,5.788,0,0,1,5.786-5.789ZM439.6,186.1a3.166,3.166,0,1,1-3.165,3.166A3.165,3.165,0,0,1,439.6,186.1Z" fill="#004880"/><rect x="440" y="231" width="2" height="2" fill="#107c10"/><rect x="440" y="227" width="2" height="2" fill="#107c10"/><rect x="524" y="223" width="2" height="2" fill="#107c10"/><rect x="520" y="223" width="2" height="2" fill="#107c10"/><rect x="516" y="223" width="2" height="2" fill="#107c10"/><rect x="512" y="223" width="2" height="2" fill="#107c10"/><rect x="508" y="223" width="2" height="2" fill="#107c10"/><rect x="504" y="223" width="2" height="2" fill="#107c10"/><rect x="500" y="223" width="2" height="2" fill="#107c10"/><rect x="496" y="223" width="2" height="2" fill="#107c10"/><rect x="492" y="223" width="2" height="2" fill="#107c10"/><rect x="488" y="223" width="2" height="2" fill="#107c10"/><rect x="484" y="223" width="2" height="2" fill="#107c10"/><rect x="480" y="223" width="2" height="2" fill="#107c10"/><rect x="476" y="223" width="2" height="2" fill="#107c10"/><rect x="472" y="223" width="2" height="2" fill="#107c10"/><rect x="468" y="223" width="2" height="2" fill="#107c10"/><rect x="464" y="223" width="2" height="2" fill="#107c10"/><rect x="460" y="223" width="2" height="2" fill="#107c10"/><rect x="456" y="223" width="2" height="2" fill="#107c10"/><rect x="452" y="223" width="2" height="2" fill="#107c10"/><rect x="448" y="223" width="2" height="2" fill="#107c10"/><rect x="444" y="223" width="2" height="2" fill="#107c10"/><rect x="524" y="235" width="2" height="2" fill="#107c10"/><rect x="524" y="231" width="2" height="2" fill="#107c10"/><rect x="524" y="227" width="2" height="2" fill="#107c10"/><rect x="512" y="231" width="2" height="2" fill="#107c10"/><rect x="512" y="227" width="2" height="2" fill="#107c10"/><rect x="520" y="235" width="2" height="2" fill="#107c10"/><rect x="516" y="235" width="2" height="2" fill="#107c10"/><rect x="512" y="235" width="2" height="2" fill="#107c10"/><rect x="508" y="235" width="2" height="2" fill="#107c10"/><rect x="504" y="235" width="2" height="2" fill="#107c10"/><rect x="500" y="235" width="2" height="2" fill="#107c10"/><rect x="496" y="235" width="2" height="2" fill="#107c10"/><rect x="492" y="235" width="2" height="2" fill="#107c10"/><rect x="488" y="235" width="2" height="2" fill="#107c10"/><rect x="484" y="235" width="2" height="2" fill="#107c10"/><rect x="480" y="235" width="2" height="2" fill="#107c10"/><rect x="476" y="235" width="2" height="2" fill="#107c10"/><rect x="472" y="235" width="2" height="2" fill="#107c10"/><rect x="468" y="235" width="2" height="2" fill="#107c10"/><rect x="464" y="235" width="2" height="2" fill="#107c10"/><rect x="460" y="235" width="2" height="2" fill="#107c10"/><rect x="456" y="235" width="2" height="2" fill="#107c10"/><rect x="452" y="235" width="2" height="2" fill="#107c10"/><rect x="448" y="235" width="2" height="2" fill="#107c10"/><rect x="444" y="235" width="2" height="2" fill="#107c10"/><rect x="440" y="235" width="2" height="2" fill="#107c10"/><rect x="440" y="231" width="2" height="2" fill="#107c10"/><rect x="440" y="227" width="2" height="2" fill="#107c10"/><polygon points="442 223 440 223 440 224.624 440 224.897 440 225 441.022 225 441.022 224.999 442 224.999 442 223" fill="#107c10"/><rect x="519" y="286" width="2" height="2" fill="#107c10"/><rect x="515" y="286" width="2" height="2" fill="#107c10"/><rect x="511" y="286" width="2" height="2" fill="#107c10"/><rect x="507" y="286" width="2" height="2" fill="#107c10"/><rect x="503" y="286" width="2" height="2" fill="#107c10"/><rect x="499" y="286" width="2" height="2" fill="#107c10"/><rect x="495" y="286" width="2" height="2" fill="#107c10"/><rect x="491" y="286" width="2" height="2" fill="#107c10"/><rect x="487" y="286" width="2" height="2" fill="#107c10"/><rect x="483" y="286" width="2" height="2" fill="#107c10"/><rect x="479" y="286" width="2" height="2" fill="#107c10"/><rect x="475" y="286" width="2" height="2" fill="#107c10"/><rect x="471" y="286" width="2" height="2" fill="#107c10"/><rect x="467" y="286" width="2" height="2" fill="#107c10"/><rect x="463" y="286" width="2" height="2" fill="#107c10"/><rect x="459" y="286" width="2" height="2" fill="#107c10"/><rect x="455" y="286" width="2" height="2" fill="#107c10"/><rect x="451" y="286" width="2" height="2" fill="#107c10"/><rect x="447" y="286" width="2" height="2" fill="#107c10"/><path d="M449,276h-2v-2h2Zm0-4h-2v-2h2Zm0-4h-2v-2h2Zm0-4h-2v-2h2Zm0-4h-2v-2h2Zm0-4h-2v-2h2Zm0-4h-2v-2h2Zm0-4h-2v-2h2Zm0-4h-2v-2h2Zm0-4h-2v-2h2Z" fill="#107c10"/><rect x="447" y="282" width="2" height="2" fill="#107c10"/><rect x="447" y="278" width="2" height="2" fill="#107c10"/><polygon points="449 274 447 274 447 275.624 447 275.897 447 276 448.022 276 448.022 275.999 449 275.999 449 274" fill="#107c10"/><path d="M509,276h-2v-2h2Zm0-4h-2v-2h2Zm0-4h-2v-2h2Zm0-4h-2v-2h2Zm0-4h-2v-2h2Zm0-4h-2v-2h2Zm0-4h-2v-2h2Zm0-4h-2v-2h2Zm0-4h-2v-2h2Zm0-4h-2v-2h2Z" fill="#107c10"/><rect x="507" y="282" width="2" height="2" fill="#107c10"/><rect x="507" y="278" width="2" height="2" fill="#107c10"/><polygon points="509 274 507 274 507 275.624 507 275.897 507 276 508.022 276 508.022 275.999 509 275.999 509 274" fill="#107c10"/><path d="M521,276h-2v-2h2Zm0-4h-2v-2h2Zm0-4h-2v-2h2Zm0-4h-2v-2h2Zm0-4h-2v-2h2Zm0-4h-2v-2h2Zm0-4h-2v-2h2Zm0-4h-2v-2h2Zm0-4h-2v-2h2Zm0-4h-2v-2h2Z" fill="#107c10"/><rect x="519" y="282" width="2" height="2" fill="#107c10"/><rect x="519" y="278" width="2" height="2" fill="#107c10"/><polygon points="521 274 519 274 519 275.624 519 275.897 519 276 520.022 276 520.022 275.999 521 275.999 521 274" fill="#107c10"/><line x1="388.5" y1="347" x2="388.5" y2="302.253" fill="none" stroke="#004880" stroke-miterlimit="10" stroke-width="3"/><polygon points="400.77 312.194 398.572 314.24 388.503 303.405 378.431 314.24 376.233 312.194 388.503 299 400.77 312.194" fill="#004880"/></svg>